<svg xmlns="http://www.w3.org/2000/svg" viewBox="0 0 173.71 69.62"><defs><style>.cls-1{fill:#fff;}.cls-2{fill:#0491bc;}.cls-3{fill:#686868;}</style></defs><title>Ресурс 1</title><g id="Слой_2" data-name="Слой 2"><g id="Слой_1-2" data-name="Слой 1"><path class="cls-1" d="M65.4,18.86c3.35-1,6.67-1.94,9.93-2.75a4.24,4.24,0,0,1,0-1.18c-5.79,1.17-11.81,2.68-17.95,4.56-35.1,10.75-60.63,29-57,40.75,2.43,7.95,17.58,10.9,38,8.65-16.27.72-27.86-2.41-30-9.28C4.76,47.85,30.3,29.61,65.4,18.86Z"/><polygon class="cls-1" points="58.56 0 97.71 7.4 69.81 10.6 58.56 0"/><polygon class="cls-2" points="71.51 14.35 64.43 19.31 97.71 7.4 71.51 14.35"/><polygon class="cls-3" points="97.71 7.4 69.81 10.6 64.43 19.31 71.51 14.35 97.71 7.4"/><polygon class="cls-1" points="64.43 19.31 97.71 7.4 71.51 14.35 64.43 19.31"/><polygon class="cls-1" points="97.71 7.4 71.51 14.35 72.76 27.69 97.71 7.4"/><path class="cls-1" d="M38.79,39.61H44L39.84,63.23h-6l3-17-4.29,1.05L32,41.9Z"/><path class="cls-1" d="M45.2,55.74l.95-5.33H59.31l-1,5.33Z"/><path class="cls-1" d="M59.64,63.23l.75-4.39,9.38-8.26q2.6-2.27,2.83-3.68a1.63,1.63,0,0,0-.27-1.39A1.59,1.59,0,0,0,71,45q-2,0-3.58,2.57l-4.89-3a11.05,11.05,0,0,1,4-4.07,10.44,10.44,0,0,1,5.19-1.37,7,7,0,0,1,5.38,2.25,6.3,6.3,0,0,1,1.51,5.72,9.26,9.26,0,0,1-1.44,3.61,18.87,18.87,0,0,1-3.15,3.37l-3.92,3.34h7l-1,5.84Z"/><path class="cls-1" d="M98,54.12l-1,5.5H94.6L94,63.23H88l.64-3.61H78.24l1-5.5L88.6,39.61h6.88L86,54.12h3.55l.74-4.25h6l-.74,4.25Z"/><path class="cls-1" d="M117.83,52.67a3.28,3.28,0,0,1,2.74,1.18,3.88,3.88,0,0,1,.58,3.22L120,63.54H116.5l1.06-6.07c.18-1-.16-1.48-1-1.48a1.67,1.67,0,0,0-1.71,1.44l-1.08,6.11h-3.51l1.06-6.07c.15-1-.2-1.48-1.06-1.48s-1.5.54-1.75,1.63l-1,5.92h-3.51L105.78,53h3.51l-.17,1a3.85,3.85,0,0,1,2.94-1.27,2.58,2.58,0,0,1,2.54,1.41A4.37,4.37,0,0,1,117.83,52.67Z"/><path class="cls-1" d="M131.2,53h3.51l-1.86,10.58h-3.51l.15-.83a4.4,4.4,0,0,1-3.09,1.12,3.68,3.68,0,0,1-3.35-1.71,5.55,5.55,0,0,1-.71-4,7,7,0,0,1,1.9-3.84,5.13,5.13,0,0,1,3.83-1.59A3.14,3.14,0,0,1,131,54.13Zm-5,7a1.74,1.74,0,0,0,1.48.63,2.54,2.54,0,0,0,1.71-.61,2.74,2.74,0,0,0,.91-1.63v-.06a2.07,2.07,0,0,0-.32-1.67,1.77,1.77,0,0,0-1.5-.64,2.52,2.52,0,0,0-1.71.64,2.72,2.72,0,0,0-.89,1.67A2.07,2.07,0,0,0,126.17,59.92Z"/><path class="cls-1" d="M139.89,55a3.61,3.61,0,0,1,1.44-1.64,4.19,4.19,0,0,1,2.14-.56l-.66,3.89a3.6,3.6,0,0,0-2.29.43,2.72,2.72,0,0,0-1.35,2.09l.05-.34-.83,4.72h-3.51L136.74,53h3.51Z"/><path class="cls-1" d="M155,53l-4.44,5.31,2.75,5.27h-3.77l-2.24-4.66-.82,4.66h-3.51l2.6-14.81H149l-1.48,8.42L150.91,53Z"/><path class="cls-1" d="M160.3,52.67a4.67,4.67,0,0,1,3.75,1.61,4.6,4.6,0,0,1,.93,3.95,5.72,5.72,0,0,1-.36,1.31h-7.26c.2.86.88,1.29,2,1.29a3,3,0,0,0,2.1-.76l2.24,2a6.53,6.53,0,0,1-4.61,1.71A5.05,5.05,0,0,1,155,62.16,4.91,4.91,0,0,1,154,58a6.2,6.2,0,0,1,2.16-3.85A6.12,6.12,0,0,1,160.3,52.67Zm-2.51,4.42h4a1.45,1.45,0,0,0-1.67-1.46A2.45,2.45,0,0,0,157.79,57.09Z"/><path class="cls-1" d="M170.9,56.33l-.53,3.06c-.09.48,0,.78.34.89a4.72,4.72,0,0,0,1.69.08l-.55,3.18c-2,.26-3.39.06-4.21-.61s-1.09-1.82-.8-3.45l.55-3.15H165.8l.59-3.37H168l.34-1.9L172,50l-.53,3h2.22l-.61,3.37Z"/></g></g></svg>