<svg width="24" height="24" viewBox="0 0 24 24" fill="none" xmlns="http://www.w3.org/2000/svg">
<path d="M7.29292 12.707L11.2929 16.707C11.481 16.8935 11.7351 16.9981 11.9999 16.9981C12.2648 16.9981 12.5189 16.8935 12.7069 16.707L16.7069 12.707C16.8891 12.5184 16.9899 12.2658 16.9876 12.0036C16.9853 11.7414 16.8801 11.4906 16.6947 11.3052C16.5093 11.1198 16.2585 11.0146 15.9963 11.0123C15.7341 11.01 15.4815 11.1108 15.2929 11.293L12.9999 13.586V8C12.9999 7.73478 12.8946 7.48043 12.707 7.29289C12.5195 7.10536 12.2651 7 11.9999 7C11.7347 7 11.4803 7.10536 11.2928 7.29289C11.1053 7.48043 10.9999 7.73478 10.9999 8V13.586L8.70692 11.293C8.51832 11.1108 8.26572 11.01 8.00352 11.0123C7.74132 11.0146 7.49051 11.1198 7.3051 11.3052C7.11969 11.4906 7.01452 11.7414 7.01224 12.0036C7.00997 12.2658 7.11076 12.5184 7.29292 12.707Z" fill="url(#paint0_linear_83_10748)"/>
<g filter="url(#filter0_bii_83_10748)">
<path d="M12 22C13.9778 22 15.9112 21.4135 17.5557 20.3147C19.2002 19.2159 20.4819 17.6541 21.2388 15.8268C21.9957 13.9996 22.1937 11.9889 21.8079 10.0491C21.422 8.10929 20.4696 6.32746 19.0711 4.92894C17.6725 3.53041 15.8907 2.578 13.9509 2.19215C12.0111 1.8063 10.0004 2.00433 8.17317 2.76121C6.3459 3.51809 4.78412 4.79981 3.6853 6.4443C2.58649 8.08879 2 10.0222 2 12C2.00291 14.6513 3.05742 17.1931 4.93215 19.0679C6.80688 20.9426 9.34873 21.9971 12 22ZM7.293 11.293C7.48053 11.1055 7.73484 11.0002 8 11.0002C8.26516 11.0002 8.51947 11.1055 8.707 11.293L11 13.586V8C11 7.73479 11.1054 7.48043 11.2929 7.2929C11.4804 7.10536 11.7348 7 12 7C12.2652 7 12.5196 7.10536 12.7071 7.2929C12.8946 7.48043 13 7.73479 13 8V13.586L15.293 11.293C15.4816 11.1108 15.7342 11.0101 15.9964 11.0123C16.2586 11.0146 16.5094 11.1198 16.6948 11.3052C16.8802 11.4906 16.9854 11.7414 16.9877 12.0036C16.99 12.2658 16.8892 12.5184 16.707 12.707L12.707 16.707C12.519 16.8935 12.2648 16.9981 12 16.9981C11.7352 16.9981 11.481 16.8935 11.293 16.707L7.293 12.707C7.10553 12.5195 7.00021 12.2652 7.00021 12C7.00021 11.7348 7.10553 11.4805 7.293 11.293Z" fill="white" fill-opacity="0.2"/>
</g>
<defs>
<filter id="filter0_bii_83_10748" x="-2" y="-2" width="28" height="28" filterUnits="userSpaceOnUse" color-interpolation-filters="sRGB">
<feFlood flood-opacity="0" result="BackgroundImageFix"/>
<feGaussianBlur in="BackgroundImageFix" stdDeviation="2"/>
<feComposite in2="SourceAlpha" operator="in" result="effect1_backgroundBlur_83_10748"/>
<feBlend mode="normal" in="SourceGraphic" in2="effect1_backgroundBlur_83_10748" result="shape"/>
<feColorMatrix in="SourceAlpha" type="matrix" values="0 0 0 0 0 0 0 0 0 0 0 0 0 0 0 0 0 0 127 0" result="hardAlpha"/>
<feOffset dy="-4"/>
<feGaussianBlur stdDeviation="2"/>
<feComposite in2="hardAlpha" operator="arithmetic" k2="-1" k3="1"/>
<feColorMatrix type="matrix" values="0 0 0 0 1 0 0 0 0 1 0 0 0 0 1 0 0 0 0.05 0"/>
<feBlend mode="normal" in2="shape" result="effect2_innerShadow_83_10748"/>
<feColorMatrix in="SourceAlpha" type="matrix" values="0 0 0 0 0 0 0 0 0 0 0 0 0 0 0 0 0 0 127 0" result="hardAlpha"/>
<feOffset dx="-4" dy="-4"/>
<feGaussianBlur stdDeviation="2"/>
<feComposite in2="hardAlpha" operator="arithmetic" k2="-1" k3="1"/>
<feColorMatrix type="matrix" values="0 0 0 0 1 0 0 0 0 1 0 0 0 0 1 0 0 0 0.05 0"/>
<feBlend mode="normal" in2="effect2_innerShadow_83_10748" result="effect3_innerShadow_83_10748"/>
</filter>
<linearGradient id="paint0_linear_83_10748" x1="11.9999" y1="7" x2="11.9999" y2="16.9981" gradientUnits="userSpaceOnUse">
<stop offset="0.451042" stop-color="#A267E8"/>
<stop offset="1" stop-color="#C5ADF2"/>
</linearGradient>
</defs>
</svg>
