<svg width="24" height="24" fill="none" xmlns="http://www.w3.org/2000/svg"><path d="m7.293 12.707 4 4a1.004 1.004 0 0 0 1.414 0l4-4a1 1 0 0 0-1.414-1.414L13 13.586V8a1 1 0 1 0-2 0v5.586l-2.293-2.293a1 1 0 0 0-1.414 1.414Z" fill="url(#a)"/><g filter="url(#b)"><path d="M12 22A10 10 0 1 0 2 12a10.011 10.011 0 0 0 10 10ZM7.293 11.293a1 1 0 0 1 1.414 0L11 13.586V8a1 1 0 0 1 2 0v5.586l2.293-2.293a1 1 0 0 1 1.414 1.414l-4 4a1.004 1.004 0 0 1-1.414 0l-4-4a1 1 0 0 1 0-1.414Z" fill="#fff" fill-opacity=".2"/></g><defs><linearGradient id="a" x1="12" y1="7" x2="12" y2="16.998" gradientUnits="userSpaceOnUse"><stop offset=".451" stop-color="#A267E8"/><stop offset="1" stop-color="#C5ADF2"/></linearGradient><filter id="b" x="-2" y="-2" width="28" height="28" filterUnits="userSpaceOnUse" color-interpolation-filters="sRGB"><feFlood flood-opacity="0" result="BackgroundImageFix"/><feGaussianBlur in="BackgroundImageFix" stdDeviation="2"/><feComposite in2="SourceAlpha" operator="in" result="effect1_backgroundBlur_83_10748"/><feBlend in="SourceGraphic" in2="effect1_backgroundBlur_83_10748" result="shape"/><feColorMatrix in="SourceAlpha" values="0 0 0 0 0 0 0 0 0 0 0 0 0 0 0 0 0 0 127 0" result="hardAlpha"/><feOffset dy="-4"/><feGaussianBlur stdDeviation="2"/><feComposite in2="hardAlpha" operator="arithmetic" k2="-1" k3="1"/><feColorMatrix values="0 0 0 0 1 0 0 0 0 1 0 0 0 0 1 0 0 0 0.05 0"/><feBlend in2="shape" result="effect2_innerShadow_83_10748"/><feColorMatrix in="SourceAlpha" values="0 0 0 0 0 0 0 0 0 0 0 0 0 0 0 0 0 0 127 0" result="hardAlpha"/><feOffset dx="-4" dy="-4"/><feGaussianBlur stdDeviation="2"/><feComposite in2="hardAlpha" operator="arithmetic" k2="-1" k3="1"/><feColorMatrix values="0 0 0 0 1 0 0 0 0 1 0 0 0 0 1 0 0 0 0.05 0"/><feBlend in2="effect2_innerShadow_83_10748" result="effect3_innerShadow_83_10748"/></filter></defs></svg>
