<svg width="88" height="90" viewBox="0 0 88 90" fill="none" xmlns="http://www.w3.org/2000/svg">
<g id="uim:arrow-circle-down">
<path id="Vector" d="M62.6512 42.3488L47.6512 27.3487C46.946 26.6494 45.9931 26.257 44.9999 26.257C44.0068 26.257 43.0539 26.6494 42.3487 27.3487L27.3487 42.3487C26.6656 43.056 26.2876 44.0033 26.2962 44.9865C26.3047 45.9697 26.6991 46.9103 27.3944 47.6056C28.0897 48.3008 29.0302 48.6952 30.0134 48.7038C30.9967 48.7123 31.9439 48.3343 32.6512 47.6512L41.2499 39.0525L41.2499 60C41.2499 60.9946 41.645 61.9484 42.3483 62.6516C43.0515 63.3549 44.0054 63.75 44.9999 63.75C45.9945 63.75 46.9483 63.3549 47.6516 62.6516C48.3548 61.9484 48.7499 60.9946 48.7499 60L48.7499 39.0525L57.3487 47.6512C58.0559 48.3343 59.0032 48.7123 59.9864 48.7038C60.9697 48.6952 61.9102 48.3008 62.6055 47.6056C63.3008 46.9103 63.6952 45.9697 63.7037 44.9865C63.7123 44.0033 63.3343 43.056 62.6512 42.3488Z" fill="url(#paint0_linear_480_28117)"/>
<g id="Vector_2" filter="url(#filter0_bii_480_28117)">
<path d="M45 7.49998C37.5832 7.49998 30.333 9.69932 24.1661 13.8199C17.9993 17.9404 13.1928 23.7971 10.3545 30.6493C7.51623 37.5016 6.77361 45.0416 8.22055 52.3159C9.6675 59.5902 13.239 66.272 18.4835 71.5165C23.728 76.761 30.4098 80.3325 37.6841 81.7794C44.9584 83.2264 52.4984 82.4837 59.3506 79.6455C66.2029 76.8072 72.0596 72.0007 76.1801 65.8339C80.3007 59.667 82.5 52.4168 82.5 45C82.4891 35.0577 78.5347 25.5258 71.5045 18.4955C64.4742 11.4653 54.9423 7.5109 45 7.49998ZM62.6513 47.6512C61.948 48.3542 60.9944 48.7492 60 48.7492C59.0056 48.7492 58.052 48.3542 57.3488 47.6512L48.75 39.0525L48.75 60C48.75 60.9945 48.3549 61.9484 47.6517 62.6516C46.9484 63.3549 45.9946 63.75 45 63.75C44.0054 63.75 43.0516 63.3549 42.3484 62.6516C41.6451 61.9484 41.25 60.9945 41.25 60L41.25 39.0525L32.6513 47.6512C31.944 48.3343 30.9967 48.7123 30.0135 48.7038C29.0303 48.6952 28.0897 48.3008 27.3944 47.6055C26.6992 46.9103 26.3048 45.9697 26.2962 44.9865C26.2877 44.0032 26.6657 43.056 27.3488 42.3487L42.3488 27.3487C43.0539 26.6494 44.0068 26.2569 45 26.2569C45.9932 26.2569 46.9461 26.6494 47.6513 27.3487L62.6513 42.3487C63.3543 43.052 63.7492 44.0056 63.7492 45C63.7492 45.9943 63.3543 46.948 62.6513 47.6512Z" fill="white" fill-opacity="0.2"/>
</g>
</g>
<defs>
<filter id="filter0_bii_480_28117" x="3.5" y="3.5" width="83" height="83" filterUnits="userSpaceOnUse" color-interpolation-filters="sRGB">
<feFlood flood-opacity="0" result="BackgroundImageFix"/>
<feGaussianBlur in="BackgroundImageFix" stdDeviation="2"/>
<feComposite in2="SourceAlpha" operator="in" result="effect1_backgroundBlur_480_28117"/>
<feBlend mode="normal" in="SourceGraphic" in2="effect1_backgroundBlur_480_28117" result="shape"/>
<feColorMatrix in="SourceAlpha" type="matrix" values="0 0 0 0 0 0 0 0 0 0 0 0 0 0 0 0 0 0 127 0" result="hardAlpha"/>
<feOffset dy="-4"/>
<feGaussianBlur stdDeviation="2"/>
<feComposite in2="hardAlpha" operator="arithmetic" k2="-1" k3="1"/>
<feColorMatrix type="matrix" values="0 0 0 0 1 0 0 0 0 1 0 0 0 0 1 0 0 0 0.05 0"/>
<feBlend mode="normal" in2="shape" result="effect2_innerShadow_480_28117"/>
<feColorMatrix in="SourceAlpha" type="matrix" values="0 0 0 0 0 0 0 0 0 0 0 0 0 0 0 0 0 0 127 0" result="hardAlpha"/>
<feOffset dx="-4" dy="-4"/>
<feGaussianBlur stdDeviation="2"/>
<feComposite in2="hardAlpha" operator="arithmetic" k2="-1" k3="1"/>
<feColorMatrix type="matrix" values="0 0 0 0 1 0 0 0 0 1 0 0 0 0 1 0 0 0 0.05 0"/>
<feBlend mode="normal" in2="effect2_innerShadow_480_28117" result="effect3_innerShadow_480_28117"/>
</filter>
<linearGradient id="paint0_linear_480_28117" x1="44.9999" y1="63.75" x2="44.9999" y2="26.257" gradientUnits="userSpaceOnUse">
<stop offset="0.451042" stop-color="#D1BFE7"/>
<stop offset="1" stop-color="#C5ADF2"/>
</linearGradient>
</defs>
</svg>
