<svg width="30" height="30" fill="none" xmlns="http://www.w3.org/2000/svg"><path d="M26.962 18.25a1.25 1.25 0 0 0-.53-1.024L23.261 15l3.172-2.239a1.25 1.25 0 0 0 .528-1.021l-.14-4.24-7.26 4.628L15 15l4.562 2.9 7.4 4.6v-4.25Z" fill="url(#a)"/><path d="m25.709 8.72-.003 4.557-2.445 1.73 2.445 1.718.002 4.554-10.508-6.25L25.709 8.72Z" fill="url(#b)"/><g filter="url(#c)"><path d="m26.953 27.501.003-5.48-7.393-4.396-4.375-2.587 4.374-2.625 7.392-4.433-.03-5.487A1.25 1.25 0 0 0 25.04 1.42L3.66 13.946a1.25 1.25 0 0 0 .003 2.16l21.41 12.474a1.25 1.25 0 0 0 1.88-1.079Z" fill="#fff" fill-opacity=".2"/></g><defs><linearGradient id="a" x1="26.962" y1="15" x2="15" y2="15" gradientUnits="userSpaceOnUse"><stop offset=".451" stop-color="#9A63E4"/><stop offset="1" stop-color="#07B4EB"/></linearGradient><linearGradient id="b" x1="25.709" y1="14.999" x2="15.2" y2="14.999" gradientUnits="userSpaceOnUse"><stop offset=".451" stop-color="#9A63E4"/><stop offset="1" stop-color="#D6BFF4"/></linearGradient><filter id="c" x="-.958" y="-2.75" width="31.915" height="35.501" filterUnits="userSpaceOnUse" color-interpolation-filters="sRGB"><feFlood flood-opacity="0" result="BackgroundImageFix"/><feGaussianBlur in="BackgroundImageFix" stdDeviation="2"/><feComposite in2="SourceAlpha" operator="in" result="effect1_backgroundBlur_347_1822"/><feBlend in="SourceGraphic" in2="effect1_backgroundBlur_347_1822" result="shape"/><feColorMatrix in="SourceAlpha" values="0 0 0 0 0 0 0 0 0 0 0 0 0 0 0 0 0 0 127 0" result="hardAlpha"/><feOffset dy="-4"/><feGaussianBlur stdDeviation="2"/><feComposite in2="hardAlpha" operator="arithmetic" k2="-1" k3="1"/><feColorMatrix values="0 0 0 0 1 0 0 0 0 1 0 0 0 0 1 0 0 0 0.05 0"/><feBlend in2="shape" result="effect2_innerShadow_347_1822"/><feColorMatrix in="SourceAlpha" values="0 0 0 0 0 0 0 0 0 0 0 0 0 0 0 0 0 0 127 0" result="hardAlpha"/><feOffset dx="-4" dy="-4"/><feGaussianBlur stdDeviation="2"/><feComposite in2="hardAlpha" operator="arithmetic" k2="-1" k3="1"/><feColorMatrix values="0 0 0 0 1 0 0 0 0 1 0 0 0 0 1 0 0 0 0.05 0"/><feBlend in2="effect2_innerShadow_347_1822" result="effect3_innerShadow_347_1822"/></filter></defs></svg>
