<svg width="1920" height="279" viewBox="0 0 1920 279" fill="none" xmlns="http://www.w3.org/2000/svg">
<g clip-path="url(#clip0_347_1422)">
<mask id="mask0_347_1422" style="mask-type:alpha" maskUnits="userSpaceOnUse" x="0" y="0" width="1920" height="281">
<rect width="1920" height="281" fill="url(#paint0_linear_347_1422)"/>
</mask>
<g mask="url(#mask0_347_1422)">
<g clip-path="url(#clip1_347_1422)">
<path d="M-131 20L-164 6M-131 20L-174 33M-131 20L-98 34M-131 20L-90 7M-164 6L-206 19M-164 6L-123 -7M-174 33L-206 19M-174 33L-141 48M-174 33L-171 83M-98 34L-141 48M-98 34L-64 49M-98 34L-57 21M-90 7L-123 -7M-90 7L-57 21M-90 7L-50 -6M-206 19L-203 68M-123 -7L-83 -19M-203 68L-200 116M-203 68L-171 83M-200 116L-197 163M-200 116L-168 131M-171 83L-168 131M-171 83L-138 98M-197 163L-194 209M-197 163L-166 179M-168 131L-166 179M-168 131L-136 147M-194 209L-191 254M-194 209L-163 226M-166 179L-163 226M-166 179L-133 195M-191 254L-189 299M-191 254L-160 271M-163 226L-160 271M-163 226L-131 242M-189 299L-186 342M-189 299L-158 316M-160 271L-158 316M-160 271L-129 289M-186 342L-183 385L-153 403M-186 342L-156 360M-158 316L-156 360M-158 316L-126 334M-153 403L-122 422M-153 403L-156 360M-156 360L-124 378M-122 422L-90 441M-122 422L-124 378M-90 441L-58 461M-90 441L-92 397M-124 378L-92 397M-124 378L-126 334M-58 461L-24 482M-58 461L-59 417M-92 397L-59 417M-92 397L-94 352M-24 482L11 503M-24 482L-25 437M-59 417L-25 437M-59 417L-61 371M11 503L47 525M11 503L10 457M-25 437L-26 391M-25 437L10 457M47 525L84 547M47 525L46 479M10 457L46 479M10 457L9 411M84 547L123 526M84 547V501M46 479L84 501M46 479V432M123 526L161 505H162M123 526L124 480M84 501L83 453M84 501L124 480M162 505L199 485M162 505V460M124 480V433M124 480L162 460M199 485L235 466M199 485L200 440M162 460L200 440M162 460L163 414M235 466L271 447M235 466L237 421M200 440L237 421M200 440L201 394M271 447L305 428M271 447L273 403M237 421L273 403M237 421L238 376M305 428L339 410M305 428L307 385M273 403L274 358M273 403L307 385M339 410L371 393L374 350M339 410L341 367M307 385L341 367M307 385L309 340M374 350L377 306M374 350L341 367M341 367L343 323M377 306L379 262M377 306L343 323M379 262L382 217M379 262L346 278M343 323L309 340M343 323L346 278M382 217L385 170M382 217L348 232M346 278L348 232M346 278L311 295M385 170L388 123M385 170L351 185M348 232L351 185M348 232L314 248M388 123L391 75M388 123L354 138M351 185L354 138M351 185L316 201M391 75L394 26M391 75L356 89M354 138L318 153M354 138L356 89M394 26L354 12M394 26L359 39M356 89L359 39M356 89L321 104M354 12L314 -2M354 12L319 25M359 39L323 53M359 39L319 25M314 -2L276 -15M314 -2L279 11M319 25L283 38M319 25L279 11M276 -15L239 -28M276 -15L241 -3M279 11L243 24M279 11L241 -3M239 -28L203 -41M239 -28L204 -16M241 -3L204 -16M241 -3L205 10M203 -41L168 -53M203 -41L168 -29M204 -16L168 -29M204 -16L168 -4M168 -53L134 -65M168 -53L133 -41M168 -29L133 -41M168 -29L132 -17M134 -65L101 -76L66 -65M134 -65L99 -53M133 -41L97 -30M133 -41L99 -53M66 -65L30 -54M66 -65L99 -53M99 -53L63 -42M30 -54L-6 -43M30 -54L63 -42M-6 -43L-44 -31M-6 -43L26 -30M63 -42L26 -30M63 -42L97 -30M-44 -31L-83 -19M-44 -31L-11 -18M26 -30L-11 -18M26 -30L60 -18M-83 -19L-50 -6M-11 -18L-50 -6M-11 -18L22 -5M-50 -6L-17 8M-141 48L-106 63M-141 48L-138 98M-106 63L-71 79M-106 63L-104 114M-106 63L-64 49M-138 98L-136 147M-138 98L-104 114M-71 79L-34 95M-71 79L-28 64M-71 79L-69 130M-104 114L-69 130M-104 114L-102 164M-64 49L-28 64M-64 49L-22 35M-34 95L3 112M-34 95L-33 147M-34 95L9 80M-28 64L9 80M-28 64L13 50M-69 130L-33 147M-69 130L-67 180M3 112L42 129M3 112L46 96M3 112L4 164M-33 147L-32 198M-33 147L4 164M9 80L46 96M9 80L50 65M42 129L83 147M42 129L43 182M42 129L86 113M46 96L86 113M46 96L88 81M4 164L43 182M4 164L5 216M83 147L126 130M83 147V201M43 182L83 201M43 182L44 234M86 113L126 130M86 113L127 97M126 130V183M126 130L168 114M83 201L126 183M83 201V254M126 183V184L125 236M126 183L167 166M125 236L83 254M125 236V287M125 236L166 218M167 166L168 114M167 166L207 150M167 166L166 218M168 114V113L208 98M168 114L127 97M323 53L286 68M323 53L321 104M323 53L283 38M286 68L248 82M286 68L284 119M286 68L245 52M321 104L284 119M321 104L318 153M283 38L245 52M283 38L243 24M248 82L208 98M248 82L207 67M248 82L246 134M284 119L246 134M284 119L282 168M245 52L206 37M245 52L207 67M208 98L168 82M208 98L207 150M207 67L168 51M207 67L168 82M246 134L207 150M246 134L244 184M168 82L129 66M168 82L127 97M207 150L206 201M127 97L88 81M83 254V305M83 254L44 234M83 305V356M83 305L125 287M83 305L44 285M44 234V285M44 234L5 216M83 356V405M83 356L125 337M83 356L45 335M125 287V337M125 287L165 268M44 285L45 335M44 285L6 266M83 405V405L45 384M83 405V453M83 405L124 385M125 337L124 385M125 337L165 318M45 335V384M45 335L7 316M45 384L8 364M45 384L46 432M83 453L46 432M83 453L124 433M124 385V433M124 385L164 366M46 432L9 411M124 433L163 414M164 366L163 414M164 366L202 348M164 366L165 318M165 318L204 300M165 318V268M7 316L-29 296M7 316L6 266M7 316L8 364M8 364L-28 344M8 364L9 411M276 312L278 265M276 312L240 329M276 312L274 358M276 312L311 295M278 265L241 282M278 265L314 248M278 265L280 217M240 329L241 282M240 329L202 348M240 329L238 376M274 358L238 376M274 358L309 340M311 295L309 340M311 295L314 248M241 282L243 234M241 282L204 300M314 248L316 201M280 217L282 168M280 217L243 234M280 217L316 201M243 234L244 184M243 234L205 251M204 300L202 348M204 300L205 251M202 348L201 394M238 376L201 394M282 168L244 184M282 168L318 153M206 37L168 23M206 37L168 51M206 37L243 24M168 51L130 37M168 51L129 66M244 184L206 201M-129 289L-126 334M-129 289L-96 307M-129 289L-131 242M-131 242L-98 260M-131 242L-133 195M-28 344L-29 296M-28 344L-62 325M-28 344L-26 391M-29 296L-64 278M-29 296L-30 248M-62 325L-64 278M-62 325L-96 307M-62 325L-61 371M-26 391L-61 371M-26 391L9 411M-64 278L-66 230M-64 278L-98 260M-30 248L-32 198M-30 248L-66 230M-30 248L6 266M-66 230L-67 180M-66 230L-100 212M-98 260L-96 307M-98 260L-100 212M-96 307L-94 352M-61 371L-94 352M-32 198L-67 180M-32 198L5 216M50 65L88 81M50 65L91 51M50 65L13 50M13 50L54 36M13 50L-22 35M-67 180L-102 164M168 23L131 9M168 23L130 37M168 23L205 10M131 9L93 22M131 9L168 -4M131 9L95 -4M130 37L93 22M130 37L91 51M205 10L243 24M205 10L168 -4M93 22L57 8M93 22L54 36M168 -4L132 -17M95 -4L60 -18M95 -4L57 8M95 -4L132 -17M57 8L22 -5M57 8L18 21M54 36L91 51M54 36L18 21M91 51L129 66M60 -18L22 -5M60 -18L97 -30M22 -5L-17 8M132 -17L97 -30M-17 8L18 21M-17 8L-57 21M18 21L-22 35M129 66L88 81M318 153L316 201M5 216L6 266M206 201L205 251M206 201L166 218M-22 35L-57 21M-102 164L-100 212M-102 164L-136 147M-100 212L-133 195M166 218L165 268M-94 352L-126 334M165 268L205 251M163 414L201 394M-133 195L-136 147" stroke="url(#paint1_radial_347_1422)" stroke-width="3" stroke-miterlimit="10" stroke-linecap="round" stroke-linejoin="round"/>
</g>
<g style="mix-blend-mode:screen" clip-path="url(#clip2_347_1422)">
<path d="M1024 19L991 5M1024 19L981 32M1024 19L1057 33M1024 19L1065 6M991 5L949 18M991 5L1032 -8M981 32L949 18M981 32L1014 47M981 32L984 82M1057 33L1014 47M1057 33L1091 48M1057 33L1098 20M1065 6L1032 -8M1065 6L1098 20M1065 6L1105 -7M949 18L952 67M1032 -8L1072 -20M952 67L955 115M952 67L984 82M955 115L958 162M955 115L987 130M984 82L987 130M984 82L1017 97M958 162L961 208M958 162L989 178M987 130L989 178M987 130L1019 146M961 208L964 253M961 208L992 225M989 178L992 225M989 178L1022 194M964 253L966 298M964 253L995 270M992 225L995 270M992 225L1024 241M966 298L969 341M966 298L997 315M995 270L997 315M995 270L1026 288M969 341L972 384L1002 402M969 341L999 359M997 315L999 359M997 315L1029 333M1002 402L1033 421M1002 402L999 359M999 359L1031 377M1033 421L1065 440M1033 421L1031 377M1065 440L1097 460M1065 440L1063 396M1031 377L1063 396M1031 377L1029 333M1097 460L1131 481M1097 460L1096 416M1063 396L1096 416M1063 396L1061 351M1131 481L1166 502M1131 481L1130 436M1096 416L1130 436M1096 416L1094 370M1166 502L1202 524M1166 502L1165 456M1130 436L1129 390M1130 436L1165 456M1202 524L1239 546M1202 524L1201 478M1165 456L1201 478M1165 456L1164 410M1239 546L1278 525M1239 546V500M1201 478L1239 500M1201 478V431M1278 525L1316 504H1317M1278 525L1279 479M1239 500L1238 452M1239 500L1279 479M1317 504L1354 484M1317 504V459M1279 479V432M1279 479L1317 459M1354 484L1390 465M1354 484L1355 439M1317 459L1355 439M1317 459L1318 413M1390 465L1426 446M1390 465L1392 420M1355 439L1392 420M1355 439L1356 393M1426 446L1460 427M1426 446L1428 402M1392 420L1428 402M1392 420L1393 375M1460 427L1494 409M1460 427L1462 384M1428 402L1429 357M1428 402L1462 384M1494 409L1526 392L1529 349M1494 409L1496 366M1462 384L1496 366M1462 384L1464 339M1529 349L1532 305M1529 349L1496 366M1496 366L1498 322M1532 305L1534 261M1532 305L1498 322M1534 261L1537 216M1534 261L1501 277M1498 322L1464 339M1498 322L1501 277M1537 216L1540 169M1537 216L1503 231M1501 277L1503 231M1501 277L1466 294M1540 169L1543 122M1540 169L1506 184M1503 231L1506 184M1503 231L1469 247M1543 122L1546 74M1543 122L1509 137M1506 184L1509 137M1506 184L1471 200M1546 74L1549 25M1546 74L1511 88M1509 137L1473 152M1509 137L1511 88M1549 25L1509 11M1549 25L1514 38M1511 88L1514 38M1511 88L1476 103M1509 11L1469 -3M1509 11L1474 24M1514 38L1478 52M1514 38L1474 24M1469 -3L1431 -16M1469 -3L1434 10M1474 24L1438 37M1474 24L1434 10M1431 -16L1394 -29M1431 -16L1396 -4M1434 10L1398 23M1434 10L1396 -4M1394 -29L1358 -42M1394 -29L1359 -17M1396 -4L1359 -17M1396 -4L1360 9M1358 -42L1323 -54M1358 -42L1323 -30M1359 -17L1323 -30M1359 -17L1323 -5M1323 -54L1289 -66M1323 -54L1288 -42M1323 -30L1288 -42M1323 -30L1287 -18M1289 -66L1256 -77L1221 -66M1289 -66L1254 -54M1288 -42L1252 -31M1288 -42L1254 -54M1221 -66L1185 -55M1221 -66L1254 -54M1254 -54L1218 -43M1185 -55L1149 -44M1185 -55L1218 -43M1149 -44L1111 -32M1149 -44L1181 -31M1218 -43L1181 -31M1218 -43L1252 -31M1111 -32L1072 -20M1111 -32L1144 -19M1181 -31L1144 -19M1181 -31L1215 -19M1072 -20L1105 -7M1144 -19L1105 -7M1144 -19L1177 -6M1105 -7L1138 7M1014 47L1049 62M1014 47L1017 97M1049 62L1084 78M1049 62L1051 113M1049 62L1091 48M1017 97L1019 146M1017 97L1051 113M1084 78L1121 94M1084 78L1127 63M1084 78L1086 129M1051 113L1086 129M1051 113L1053 163M1091 48L1127 63M1091 48L1133 34M1121 94L1158 111M1121 94L1122 146M1121 94L1164 79M1127 63L1164 79M1127 63L1168 49M1086 129L1122 146M1086 129L1088 179M1158 111L1197 128M1158 111L1201 95M1158 111L1159 163M1122 146L1123 197M1122 146L1159 163M1164 79L1201 95M1164 79L1205 64M1197 128L1238 146M1197 128L1198 181M1197 128L1241 112M1201 95L1241 112M1201 95L1243 80M1159 163L1198 181M1159 163L1160 215M1238 146L1281 129M1238 146V200M1198 181L1238 200M1198 181L1199 233M1241 112L1281 129M1241 112L1282 96M1281 129V182M1281 129L1323 113M1238 200L1281 182M1238 200V253M1281 182V183L1280 235M1281 182L1322 165M1280 235L1238 253M1280 235V286M1280 235L1321 217M1322 165L1323 113M1322 165L1362 149M1322 165L1321 217M1323 113V112L1363 97M1323 113L1282 96M1478 52L1441 67M1478 52L1476 103M1478 52L1438 37M1441 67L1403 81M1441 67L1439 118M1441 67L1400 51M1476 103L1439 118M1476 103L1473 152M1438 37L1400 51M1438 37L1398 23M1403 81L1363 97M1403 81L1362 66M1403 81L1401 133M1439 118L1401 133M1439 118L1437 167M1400 51L1361 36M1400 51L1362 66M1363 97L1323 81M1363 97L1362 149M1362 66L1323 50M1362 66L1323 81M1401 133L1362 149M1401 133L1399 183M1323 81L1284 65M1323 81L1282 96M1362 149L1361 200M1282 96L1243 80M1238 253V304M1238 253L1199 233M1238 304V355M1238 304L1280 286M1238 304L1199 284M1199 233V284M1199 233L1160 215M1238 355V404M1238 355L1280 336M1238 355L1200 334M1280 286V336M1280 286L1320 267M1199 284L1200 334M1199 284L1161 265M1238 404V404L1200 383M1238 404V452M1238 404L1279 384M1280 336L1279 384M1280 336L1320 317M1200 334V383M1200 334L1162 315M1200 383L1163 363M1200 383L1201 431M1238 452L1201 431M1238 452L1279 432M1279 384V432M1279 384L1319 365M1201 431L1164 410M1279 432L1318 413M1319 365L1318 413M1319 365L1357 347M1319 365L1320 317M1320 317L1359 299M1320 317V267M1162 315L1126 295M1162 315L1161 265M1162 315L1163 363M1163 363L1127 343M1163 363L1164 410M1431 311L1433 264M1431 311L1395 328M1431 311L1429 357M1431 311L1466 294M1433 264L1396 281M1433 264L1469 247M1433 264L1435 216M1395 328L1396 281M1395 328L1357 347M1395 328L1393 375M1429 357L1393 375M1429 357L1464 339M1466 294L1464 339M1466 294L1469 247M1396 281L1398 233M1396 281L1359 299M1469 247L1471 200M1435 216L1437 167M1435 216L1398 233M1435 216L1471 200M1398 233L1399 183M1398 233L1360 250M1359 299L1357 347M1359 299L1360 250M1357 347L1356 393M1393 375L1356 393M1437 167L1399 183M1437 167L1473 152M1361 36L1323 22M1361 36L1323 50M1361 36L1398 23M1323 50L1285 36M1323 50L1284 65M1399 183L1361 200M1026 288L1029 333M1026 288L1059 306M1026 288L1024 241M1024 241L1057 259M1024 241L1022 194M1127 343L1126 295M1127 343L1093 324M1127 343L1129 390M1126 295L1091 277M1126 295L1125 247M1093 324L1091 277M1093 324L1059 306M1093 324L1094 370M1129 390L1094 370M1129 390L1164 410M1091 277L1089 229M1091 277L1057 259M1125 247L1123 197M1125 247L1089 229M1125 247L1161 265M1089 229L1088 179M1089 229L1055 211M1057 259L1059 306M1057 259L1055 211M1059 306L1061 351M1094 370L1061 351M1123 197L1088 179M1123 197L1160 215M1205 64L1243 80M1205 64L1246 50M1205 64L1168 49M1168 49L1209 35M1168 49L1133 34M1088 179L1053 163M1323 22L1286 8M1323 22L1285 36M1323 22L1360 9M1286 8L1248 21M1286 8L1323 -5M1286 8L1250 -5M1285 36L1248 21M1285 36L1246 50M1360 9L1398 23M1360 9L1323 -5M1248 21L1212 7M1248 21L1209 35M1323 -5L1287 -18M1250 -5L1215 -19M1250 -5L1212 7M1250 -5L1287 -18M1212 7L1177 -6M1212 7L1173 20M1209 35L1246 50M1209 35L1173 20M1246 50L1284 65M1215 -19L1177 -6M1215 -19L1252 -31M1177 -6L1138 7M1287 -18L1252 -31M1138 7L1173 20M1138 7L1098 20M1173 20L1133 34M1284 65L1243 80M1473 152L1471 200M1160 215L1161 265M1361 200L1360 250M1361 200L1321 217M1133 34L1098 20M1053 163L1055 211M1053 163L1019 146M1055 211L1022 194M1321 217L1320 267M1061 351L1029 333M1320 267L1360 250M1318 413L1356 393M1022 194L1019 146" stroke="url(#paint2_radial_347_1422)" stroke-width="3" stroke-miterlimit="10" stroke-linecap="round" stroke-linejoin="round"/>
<g clip-path="url(#clip3_347_1422)">
<g filter="url(#filter0_d_347_1422)">
<path d="M1430.67 91.9746L1407.5 87.1641C1406.98 87.0553 1406.49 86.8062 1406.1 86.4433C1405.7 86.0805 1405.42 85.6175 1405.27 85.1038C1405.11 84.59 1405.1 84.0448 1405.24 83.5263C1405.37 83.0078 1405.65 82.5354 1406.03 82.1596L1421.22 67.1854C1421.58 66.8684 1422.01 66.6392 1422.47 66.5162C1422.93 66.3932 1423.41 66.3797 1423.88 66.4769C1424.35 66.5741 1424.79 66.7792 1425.16 67.0759C1425.54 67.3726 1425.84 67.7527 1426.04 68.186L1434.02 87.9707C1434.22 88.4674 1434.28 89.0092 1434.2 89.5382C1434.12 90.0673 1433.89 90.5638 1433.55 90.9748C1433.2 91.3859 1432.75 91.696 1432.25 91.872C1431.74 92.0481 1431.2 92.0836 1430.67 91.9746Z" fill="url(#paint3_linear_347_1422)"/>
</g>
<g filter="url(#filter1_bii_347_1422)">
<path d="M1450.19 41.6401L1409.64 33.2217C1404.84 32.2254 1400.14 35.3082 1399.14 40.1075L1393.73 66.1766C1392.73 70.9758 1395.82 75.674 1400.62 76.6703L1441.17 85.0887C1445.97 86.085 1450.67 83.0022 1451.66 78.203L1457.07 52.1338C1458.07 47.3346 1454.99 42.6364 1450.19 41.6401Z" fill="white" fill-opacity="0.2"/>
</g>
</g>
</g>
<g style="mix-blend-mode:screen" clip-path="url(#clip4_347_1422)">
<path d="M446 397L413 411M446 397L403 384M446 397L479 383M446 397L487 410M413 411L371 398M413 411L454 424M403 384L371 398M403 384L436 369M403 384L406 334M479 383L436 369M479 383L513 368M479 383L520 396M487 410L454 424M487 410L520 396M487 410L527 423M371 398L374 349M454 424L494 436M374 349L377 301M374 349L406 334M377 301L380 254M377 301L409 286M406 334L409 286M406 334L439 319M380 254L383 208M380 254L411 238M409 286L411 238M409 286L441 270M383 208L386 163M383 208L414 191M411 238L414 191M411 238L444 222M386 163L388 118M386 163L417 146M414 191L417 146M414 191L446 175M388 118L391 75M388 118L419 101M417 146L419 101M417 146L448 128M391 75L394 32L424 14M391 75L421 57M419 101L421 57M419 101L451 83M424 14L455 -5M424 14L421 57M421 57L453 39M455 -5L487 -24M455 -5L453 39M487 -24L519 -44M487 -24L485 20M453 39L485 20M453 39L451 83M519 -44L553 -65M519 -44L518 0M485 20L518 0M485 20L483 65M553 -65L588 -86M553 -65L552 -20M518 0L552 -20M518 0L516 46M588 -86L624 -108M588 -86L587 -40M552 -20L551 26M552 -20L587 -40M624 -108L661 -130M624 -108L623 -62M587 -40L623 -62M587 -40L586 6M661 -130L700 -109M661 -130V-84M623 -62L661 -84M623 -62V-15M700 -109L738 -88H739M700 -109L701 -63M661 -84L660 -36M661 -84L701 -63M739 -88L776 -68M739 -88V-43M701 -63V-16M701 -63L739 -43M776 -68L812 -49M776 -68L777 -23M739 -43L777 -23M739 -43L740 3M812 -49L848 -30M812 -49L814 -4M777 -23L814 -4M777 -23L778 23M848 -30L882 -11M848 -30L850 14M814 -4L850 14M814 -4L815 41M882 -11L916 7M882 -11L884 32M850 14L851 59M850 14L884 32M916 7L948 24L951 67M916 7L918 50M884 32L918 50M884 32L886 77M951 67L954 111M951 67L918 50M918 50L920 94M954 111L956 155M954 111L920 94M956 155L959 200M956 155L923 139M920 94L886 77M920 94L923 139M959 200L962 247M959 200L925 185M923 139L925 185M923 139L888 122M962 247L965 294M962 247L928 232M925 185L928 232M925 185L891 169M965 294L968 342M965 294L931 279M928 232L931 279M928 232L893 216M968 342L971 391M968 342L933 328M931 279L895 264M931 279L933 328M971 391L931 405M971 391L936 378M933 328L936 378M933 328L898 313M931 405L891 419M931 405L896 392M936 378L900 364M936 378L896 392M891 419L853 432M891 419L856 406M896 392L860 379M896 392L856 406M853 432L816 445M853 432L818 420M856 406L820 393M856 406L818 420M816 445L780 458M816 445L781 433M818 420L781 433M818 420L782 407M780 458L745 470M780 458L745 446M781 433L745 446M781 433L745 421M745 470L711 482M745 470L710 458M745 446L710 458M745 446L709 434M711 482L678 493L643 482M711 482L676 470M710 458L674 447M710 458L676 470M643 482L607 471M643 482L676 470M676 470L640 459M607 471L571 460M607 471L640 459M571 460L533 448M571 460L603 447M640 459L603 447M640 459L674 447M533 448L494 436M533 448L566 435M603 447L566 435M603 447L637 435M494 436L527 423M566 435L527 423M566 435L599 422M527 423L560 409M436 369L471 354M436 369L439 319M471 354L506 338M471 354L473 303M471 354L513 368M439 319L441 270M439 319L473 303M506 338L543 322M506 338L549 353M506 338L508 287M473 303L508 287M473 303L475 253M513 368L549 353M513 368L555 382M543 322L580 305M543 322L544 270M543 322L586 337M549 353L586 337M549 353L590 367M508 287L544 270M508 287L510 237M580 305L619 288M580 305L623 321M580 305L581 253M544 270L545 219M544 270L581 253M586 337L623 321M586 337L627 352M619 288L660 270M619 288L620 235M619 288L663 304M623 321L663 304M623 321L665 336M581 253L620 235M581 253L582 201M660 270L703 287M660 270V216M620 235L660 216M620 235L621 183M663 304L703 287M663 304L704 320M703 287V234M703 287L745 303M660 216L703 234M660 216V163M703 234V233L702 181M703 234L744 251M702 181L660 163M702 181V130M702 181L743 199M744 251L745 303M744 251L784 267M744 251L743 199M745 303V304L785 319M745 303L704 320M900 364L863 349M900 364L898 313M900 364L860 379M863 349L825 335M863 349L861 298M863 349L822 365M898 313L861 298M898 313L895 264M860 379L822 365M860 379L820 393M825 335L785 319M825 335L784 350M825 335L823 283M861 298L823 283M861 298L859 249M822 365L783 380M822 365L784 350M785 319L745 335M785 319L784 267M784 350L745 366M784 350L745 335M823 283L784 267M823 283L821 233M745 335L706 351M745 335L704 320M784 267L783 216M704 320L665 336M660 163V112M660 163L621 183M660 112V61M660 112L702 130M660 112L621 132M621 183V132M621 183L582 201M660 61V12M660 61L702 80M660 61L622 82M702 130V80M702 130L742 149M621 132L622 82M621 132L583 151M660 12V12L622 33M660 12V-36M660 12L701 32M702 80L701 32M702 80L742 99M622 82V33M622 82L584 101M622 33L585 53M622 33L623 -15M660 -36L623 -15M660 -36L701 -16M701 32V-16M701 32L741 51M623 -15L586 6M701 -16L740 3M741 51L740 3M741 51L779 69M741 51L742 99M742 99L781 117M742 99V149M584 101L548 121M584 101L583 151M584 101L585 53M585 53L549 73M585 53L586 6M853 105L855 152M853 105L817 88M853 105L851 59M853 105L888 122M855 152L818 135M855 152L891 169M855 152L857 200M817 88L818 135M817 88L779 69M817 88L815 41M851 59L815 41M851 59L886 77M888 122L886 77M888 122L891 169M818 135L820 183M818 135L781 117M891 169L893 216M857 200L859 249M857 200L820 183M857 200L893 216M820 183L821 233M820 183L782 166M781 117L779 69M781 117L782 166M779 69L778 23M815 41L778 23M859 249L821 233M859 249L895 264M783 380L745 394M783 380L745 366M783 380L820 393M745 366L707 380M745 366L706 351M821 233L783 216M448 128L451 83M448 128L481 110M448 128L446 175M446 175L479 157M446 175L444 222M549 73L548 121M549 73L515 92M549 73L551 26M548 121L513 139M548 121L547 169M515 92L513 139M515 92L481 110M515 92L516 46M551 26L516 46M551 26L586 6M513 139L511 187M513 139L479 157M547 169L545 219M547 169L511 187M547 169L583 151M511 187L510 237M511 187L477 205M479 157L481 110M479 157L477 205M481 110L483 65M516 46L483 65M545 219L510 237M545 219L582 201M627 352L665 336M627 352L668 366M627 352L590 367M590 367L631 381M590 367L555 382M510 237L475 253M745 394L708 408M745 394L707 380M745 394L782 407M708 408L670 395M708 408L745 421M708 408L672 421M707 380L670 395M707 380L668 366M782 407L820 393M782 407L745 421M670 395L634 409M670 395L631 381M745 421L709 434M672 421L637 435M672 421L634 409M672 421L709 434M634 409L599 422M634 409L595 396M631 381L668 366M631 381L595 396M668 366L706 351M637 435L599 422M637 435L674 447M599 422L560 409M709 434L674 447M560 409L595 396M560 409L520 396M595 396L555 382M706 351L665 336M895 264L893 216M582 201L583 151M783 216L782 166M783 216L743 199M555 382L520 396M475 253L477 205M475 253L441 270M477 205L444 222M743 199L742 149M483 65L451 83M742 149L782 166M740 3L778 23M444 222L441 270" stroke="url(#paint4_radial_347_1422)" stroke-width="3" stroke-miterlimit="10" stroke-linecap="round" stroke-linejoin="round"/>
<g filter="url(#filter2_b_347_1422)">
<rect x="416" y="37.198" width="47.393" height="47.393" rx="8" transform="rotate(-3.86916 416 37.198)" fill="#B2E7FE" fill-opacity="0.08"/>
<rect x="416.266" y="37.4306" width="46.893" height="46.893" rx="7.75" transform="rotate(-3.86916 416.266 37.4306)" stroke="url(#paint5_linear_347_1422)" stroke-width="0.5"/>
<rect x="416.266" y="37.4306" width="46.893" height="46.893" rx="7.75" transform="rotate(-3.86916 416.266 37.4306)" stroke="url(#paint6_linear_347_1422)" stroke-width="0.5"/>
</g>
<g filter="url(#filter3_bdii_347_1422)">
<path fill-rule="evenodd" clip-rule="evenodd" d="M418.107 45.702C418.07 45.1479 418.051 44.8709 418.052 44.6359C418.068 41.4077 420.45 38.6799 423.647 38.2301C423.879 38.1974 424.156 38.1786 424.71 38.1412L454.781 36.1074C455.335 36.0699 455.612 36.0512 455.847 36.0523C459.075 36.0676 461.803 38.4498 462.253 41.6466C462.286 41.8792 462.304 42.1562 462.342 42.7103C462.345 42.7529 462.346 42.7742 462.346 42.7923C462.345 43.0406 462.162 43.2505 461.916 43.2851C461.898 43.2876 461.876 43.289 461.834 43.2919L418.689 46.2099C418.646 46.2128 418.625 46.2142 418.607 46.2141C418.359 46.2129 418.149 46.0297 418.114 45.7838C418.112 45.7659 418.11 45.7446 418.107 45.702ZM422.21 44.0564C423.263 43.9852 424.059 43.0738 423.988 42.0208C423.916 40.9678 423.005 40.1719 421.952 40.2431C420.899 40.3143 420.103 41.2257 420.174 42.2787C420.246 43.3317 421.157 44.1276 422.21 44.0564ZM427.549 43.6953C428.602 43.6241 429.397 42.7127 429.326 41.6597C429.255 40.6067 428.344 39.8108 427.291 39.882C426.238 39.9532 425.442 40.8646 425.513 41.9176C425.584 42.9706 426.496 43.7665 427.549 43.6953ZM432.887 43.3343C433.94 43.263 434.736 42.3517 434.665 41.2986C434.594 40.2456 433.682 39.4497 432.629 39.5209C431.576 39.5922 430.78 40.5035 430.852 41.5566C430.923 42.6096 431.834 43.4055 432.887 43.3343ZM434.377 59.7057C434.121 55.9148 436.986 52.6339 440.777 52.3775C444.568 52.1211 447.849 54.9864 448.105 58.7772C448.362 62.5681 445.497 65.849 441.706 66.1054C437.915 66.3618 434.634 63.4965 434.377 59.7057ZM432.966 72.8257C432.909 71.9832 433.546 71.2541 434.389 71.1972L449.642 70.1656C450.484 70.1086 451.213 70.7453 451.27 71.5877C451.327 72.4301 450.69 73.1592 449.848 73.2162L434.595 74.2478C433.752 74.3048 433.023 73.6681 432.966 72.8257Z" fill="url(#paint7_linear_347_1422)"/>
</g>
</g>
<g clip-path="url(#clip5_347_1422)">
<path d="M1601 397L1568 411M1601 397L1558 384M1601 397L1634 383M1601 397L1642 410M1568 411L1526 398M1568 411L1609 424M1558 384L1526 398M1558 384L1591 369M1558 384L1561 334M1634 383L1591 369M1634 383L1668 368M1634 383L1675 396M1642 410L1609 424M1642 410L1675 396M1642 410L1682 423M1526 398L1529 349M1609 424L1649 436M1529 349L1532 301M1529 349L1561 334M1532 301L1535 254M1532 301L1564 286M1561 334L1564 286M1561 334L1594 319M1535 254L1538 208M1535 254L1566 238M1564 286L1566 238M1564 286L1596 270M1538 208L1541 163M1538 208L1569 191M1566 238L1569 191M1566 238L1599 222M1541 163L1543 118M1541 163L1572 146M1569 191L1572 146M1569 191L1601 175M1543 118L1546 75M1543 118L1574 101M1572 146L1574 101M1572 146L1603 128M1546 75L1549 32L1579 14M1546 75L1576 57M1574 101L1576 57M1574 101L1606 83M1579 14L1610 -5M1579 14L1576 57M1576 57L1608 39M1610 -5L1642 -24M1610 -5L1608 39M1642 -24L1674 -44M1642 -24L1640 20M1608 39L1640 20M1608 39L1606 83M1674 -44L1708 -65M1674 -44L1673 0M1640 20L1673 0M1640 20L1638 65M1708 -65L1743 -86M1708 -65L1707 -20M1673 0L1707 -20M1673 0L1671 46M1743 -86L1779 -108M1743 -86L1742 -40M1707 -20L1706 26M1707 -20L1742 -40M1779 -108L1816 -130M1779 -108L1778 -62M1742 -40L1778 -62M1742 -40L1741 6M1816 -130L1855 -109M1816 -130V-84M1778 -62L1816 -84M1778 -62V-15M1855 -109L1893 -88H1894M1855 -109L1856 -63M1816 -84L1815 -36M1816 -84L1856 -63M1894 -88L1931 -68M1894 -88V-43M1856 -63V-16M1856 -63L1894 -43M1931 -68L1967 -49M1931 -68L1932 -23M1894 -43L1932 -23M1894 -43L1895 3M1967 -49L2003 -30M1967 -49L1969 -4M1932 -23L1969 -4M1932 -23L1933 23M2003 -30L2037 -11M2003 -30L2005 14M1969 -4L2005 14M1969 -4L1970 41M2037 -11L2071 7M2037 -11L2039 32M2005 14L2006 59M2005 14L2039 32M2071 7L2103 24L2106 67M2071 7L2073 50M2039 32L2073 50M2039 32L2041 77M2106 67L2109 111M2106 67L2073 50M2073 50L2075 94M2109 111L2111 155M2109 111L2075 94M2111 155L2114 200M2111 155L2078 139M2075 94L2041 77M2075 94L2078 139M2114 200L2117 247M2114 200L2080 185M2078 139L2080 185M2078 139L2043 122M2117 247L2120 294M2117 247L2083 232M2080 185L2083 232M2080 185L2046 169M2120 294L2123 342M2120 294L2086 279M2083 232L2086 279M2083 232L2048 216M2123 342L2126 391M2123 342L2088 328M2086 279L2050 264M2086 279L2088 328M2126 391L2086 405M2126 391L2091 378M2088 328L2091 378M2088 328L2053 313M2086 405L2046 419M2086 405L2051 392M2091 378L2055 364M2091 378L2051 392M2046 419L2008 432M2046 419L2011 406M2051 392L2015 379M2051 392L2011 406M2008 432L1971 445M2008 432L1973 420M2011 406L1975 393M2011 406L1973 420M1971 445L1935 458M1971 445L1936 433M1973 420L1936 433M1973 420L1937 407M1935 458L1900 470M1935 458L1900 446M1936 433L1900 446M1936 433L1900 421M1900 470L1866 482M1900 470L1865 458M1900 446L1865 458M1900 446L1864 434M1866 482L1833 493L1798 482M1866 482L1831 470M1865 458L1829 447M1865 458L1831 470M1798 482L1762 471M1798 482L1831 470M1831 470L1795 459M1762 471L1726 460M1762 471L1795 459M1726 460L1688 448M1726 460L1758 447M1795 459L1758 447M1795 459L1829 447M1688 448L1649 436M1688 448L1721 435M1758 447L1721 435M1758 447L1792 435M1649 436L1682 423M1721 435L1682 423M1721 435L1754 422M1682 423L1715 409M1591 369L1626 354M1591 369L1594 319M1626 354L1661 338M1626 354L1628 303M1626 354L1668 368M1594 319L1596 270M1594 319L1628 303M1661 338L1698 322M1661 338L1704 353M1661 338L1663 287M1628 303L1663 287M1628 303L1630 253M1668 368L1704 353M1668 368L1710 382M1698 322L1735 305M1698 322L1699 270M1698 322L1741 337M1704 353L1741 337M1704 353L1745 367M1663 287L1699 270M1663 287L1665 237M1735 305L1774 288M1735 305L1778 321M1735 305L1736 253M1699 270L1700 219M1699 270L1736 253M1741 337L1778 321M1741 337L1782 352M1774 288L1815 270M1774 288L1775 235M1774 288L1818 304M1778 321L1818 304M1778 321L1820 336M1736 253L1775 235M1736 253L1737 201M1815 270L1858 287M1815 270V216M1775 235L1815 216M1775 235L1776 183M1818 304L1858 287M1818 304L1859 320M1858 287V234M1858 287L1900 303M1815 216L1858 234M1815 216V163M1858 234V233L1857 181M1858 234L1899 251M1857 181L1815 163M1857 181V130M1857 181L1898 199M1899 251L1900 303M1899 251L1939 267M1899 251L1898 199M1900 303V304L1940 319M1900 303L1859 320M2055 364L2018 349M2055 364L2053 313M2055 364L2015 379M2018 349L1980 335M2018 349L2016 298M2018 349L1977 365M2053 313L2016 298M2053 313L2050 264M2015 379L1977 365M2015 379L1975 393M1980 335L1940 319M1980 335L1939 350M1980 335L1978 283M2016 298L1978 283M2016 298L2014 249M1977 365L1938 380M1977 365L1939 350M1940 319L1900 335M1940 319L1939 267M1939 350L1900 366M1939 350L1900 335M1978 283L1939 267M1978 283L1976 233M1900 335L1861 351M1900 335L1859 320M1939 267L1938 216M1859 320L1820 336M1815 163V112M1815 163L1776 183M1815 112V61M1815 112L1857 130M1815 112L1776 132M1776 183V132M1776 183L1737 201M1815 61V12M1815 61L1857 80M1815 61L1777 82M1857 130V80M1857 130L1897 149M1776 132L1777 82M1776 132L1738 151M1815 12V12L1777 33M1815 12V-36M1815 12L1856 32M1857 80L1856 32M1857 80L1897 99M1777 82V33M1777 82L1739 101M1777 33L1740 53M1777 33L1778 -15M1815 -36L1778 -15M1815 -36L1856 -16M1856 32V-16M1856 32L1896 51M1778 -15L1741 6M1856 -16L1895 3M1896 51L1895 3M1896 51L1934 69M1896 51L1897 99M1897 99L1936 117M1897 99V149M1739 101L1703 121M1739 101L1738 151M1739 101L1740 53M1740 53L1704 73M1740 53L1741 6M2008 105L2010 152M2008 105L1972 88M2008 105L2006 59M2008 105L2043 122M2010 152L1973 135M2010 152L2046 169M2010 152L2012 200M1972 88L1973 135M1972 88L1934 69M1972 88L1970 41M2006 59L1970 41M2006 59L2041 77M2043 122L2041 77M2043 122L2046 169M1973 135L1975 183M1973 135L1936 117M2046 169L2048 216M2012 200L2014 249M2012 200L1975 183M2012 200L2048 216M1975 183L1976 233M1975 183L1937 166M1936 117L1934 69M1936 117L1937 166M1934 69L1933 23M1970 41L1933 23M2014 249L1976 233M2014 249L2050 264M1938 380L1900 394M1938 380L1900 366M1938 380L1975 393M1900 366L1862 380M1900 366L1861 351M1976 233L1938 216M1603 128L1606 83M1603 128L1636 110M1603 128L1601 175M1601 175L1634 157M1601 175L1599 222M1704 73L1703 121M1704 73L1670 92M1704 73L1706 26M1703 121L1668 139M1703 121L1702 169M1670 92L1668 139M1670 92L1636 110M1670 92L1671 46M1706 26L1671 46M1706 26L1741 6M1668 139L1666 187M1668 139L1634 157M1702 169L1700 219M1702 169L1666 187M1702 169L1738 151M1666 187L1665 237M1666 187L1632 205M1634 157L1636 110M1634 157L1632 205M1636 110L1638 65M1671 46L1638 65M1700 219L1665 237M1700 219L1737 201M1782 352L1820 336M1782 352L1823 366M1782 352L1745 367M1745 367L1786 381M1745 367L1710 382M1665 237L1630 253M1900 394L1863 408M1900 394L1862 380M1900 394L1937 407M1863 408L1825 395M1863 408L1900 421M1863 408L1827 421M1862 380L1825 395M1862 380L1823 366M1937 407L1975 393M1937 407L1900 421M1825 395L1789 409M1825 395L1786 381M1900 421L1864 434M1827 421L1792 435M1827 421L1789 409M1827 421L1864 434M1789 409L1754 422M1789 409L1750 396M1786 381L1823 366M1786 381L1750 396M1823 366L1861 351M1792 435L1754 422M1792 435L1829 447M1754 422L1715 409M1864 434L1829 447M1715 409L1750 396M1715 409L1675 396M1750 396L1710 382M1861 351L1820 336M2050 264L2048 216M1737 201L1738 151M1938 216L1937 166M1938 216L1898 199M1710 382L1675 396M1630 253L1632 205M1630 253L1596 270M1632 205L1599 222M1898 199L1897 149M1638 65L1606 83M1897 149L1937 166M1895 3L1933 23M1599 222L1596 270" stroke="url(#paint8_radial_347_1422)" stroke-width="3" stroke-miterlimit="10" stroke-linecap="round" stroke-linejoin="round"/>
</g>
</g>
<path d="M948.233 202.767L958.233 212.767C958.703 213.234 959.338 213.495 960 213.495C960.662 213.495 961.297 213.234 961.768 212.767L971.768 202.767C972.223 202.296 972.475 201.664 972.469 201.009C972.464 200.354 972.201 199.726 971.737 199.263C971.274 198.799 970.647 198.537 969.991 198.531C969.336 198.525 968.704 198.777 968.233 199.232L962.5 204.965L962.5 191C962.5 190.337 962.237 189.701 961.768 189.232C961.299 188.763 960.663 188.5 960 188.5C959.337 188.5 958.701 188.763 958.232 189.232C957.763 189.701 957.5 190.337 957.5 191L957.5 204.965L951.768 199.232C951.296 198.777 950.665 198.525 950.009 198.531C949.354 198.537 948.727 198.799 948.263 199.263C947.799 199.726 947.537 200.354 947.531 201.009C947.525 201.664 947.777 202.296 948.233 202.767Z" fill="url(#paint9_linear_347_1422)"/>
<g filter="url(#filter4_bii_347_1422)">
<path d="M960 226C964.945 226 969.778 224.534 973.889 221.787C978 219.04 981.205 215.135 983.097 210.567C984.989 205.999 985.484 200.972 984.52 196.123C983.555 191.273 981.174 186.819 977.678 183.322C974.181 179.826 969.727 177.445 964.877 176.48C960.028 175.516 955.001 176.011 950.433 177.903C945.865 179.795 941.96 183 939.213 187.111C936.466 191.222 935 196.055 935 201C935.007 207.628 937.644 213.983 942.33 218.67C947.017 223.356 953.372 225.993 960 226ZM948.233 199.233C948.701 198.764 949.337 198.501 950 198.501C950.663 198.501 951.299 198.764 951.768 199.233L957.5 204.965L957.5 191C957.5 190.337 957.763 189.701 958.232 189.232C958.701 188.763 959.337 188.5 960 188.5C960.663 188.5 961.299 188.763 961.768 189.232C962.237 189.701 962.5 190.337 962.5 191L962.5 204.965L968.233 199.233C968.704 198.777 969.336 198.525 969.991 198.531C970.646 198.537 971.274 198.799 971.737 199.263C972.201 199.726 972.463 200.354 972.469 201.009C972.475 201.664 972.223 202.296 971.768 202.768L961.768 212.768C961.297 213.234 960.662 213.495 960 213.495C959.338 213.495 958.703 213.234 958.233 212.768L948.233 202.768C947.764 202.299 947.501 201.663 947.501 201C947.501 200.337 947.764 199.701 948.233 199.233Z" fill="white"/>
</g>
</g>
<defs>
<filter id="filter0_d_347_1422" x="1403.14" y="64.4128" width="33.0903" height="29.6235" filterUnits="userSpaceOnUse" color-interpolation-filters="sRGB">
<feFlood flood-opacity="0" result="BackgroundImageFix"/>
<feColorMatrix in="SourceAlpha" type="matrix" values="0 0 0 0 0 0 0 0 0 0 0 0 0 0 0 0 0 0 127 0" result="hardAlpha"/>
<feOffset/>
<feGaussianBlur stdDeviation="1"/>
<feComposite in2="hardAlpha" operator="out"/>
<feColorMatrix type="matrix" values="0 0 0 0 0.12549 0 0 0 0 0.447059 0 0 0 0 0.996078 0 0 0 0.5 0"/>
<feBlend mode="normal" in2="BackgroundImageFix" result="effect1_dropShadow_347_1422"/>
<feBlend mode="normal" in="SourceGraphic" in2="effect1_dropShadow_347_1422" result="shape"/>
</filter>
<filter id="filter1_bii_347_1422" x="1389.54" y="29.0347" width="71.7175" height="60.2412" filterUnits="userSpaceOnUse" color-interpolation-filters="sRGB">
<feFlood flood-opacity="0" result="BackgroundImageFix"/>
<feGaussianBlur in="BackgroundImageFix" stdDeviation="2"/>
<feComposite in2="SourceAlpha" operator="in" result="effect1_backgroundBlur_347_1422"/>
<feBlend mode="normal" in="SourceGraphic" in2="effect1_backgroundBlur_347_1422" result="shape"/>
<feColorMatrix in="SourceAlpha" type="matrix" values="0 0 0 0 0 0 0 0 0 0 0 0 0 0 0 0 0 0 127 0" result="hardAlpha"/>
<feOffset dy="-4"/>
<feGaussianBlur stdDeviation="2"/>
<feComposite in2="hardAlpha" operator="arithmetic" k2="-1" k3="1"/>
<feColorMatrix type="matrix" values="0 0 0 0 1 0 0 0 0 1 0 0 0 0 1 0 0 0 0.05 0"/>
<feBlend mode="normal" in2="shape" result="effect2_innerShadow_347_1422"/>
<feColorMatrix in="SourceAlpha" type="matrix" values="0 0 0 0 0 0 0 0 0 0 0 0 0 0 0 0 0 0 127 0" result="hardAlpha"/>
<feOffset dx="-4" dy="-4"/>
<feGaussianBlur stdDeviation="2"/>
<feComposite in2="hardAlpha" operator="arithmetic" k2="-1" k3="1"/>
<feColorMatrix type="matrix" values="0 0 0 0 1 0 0 0 0 1 0 0 0 0 1 0 0 0 0.05 0"/>
<feBlend mode="normal" in2="effect2_innerShadow_347_1422" result="effect3_innerShadow_347_1422"/>
</filter>
<filter id="filter2_b_347_1422" x="392.616" y="10.616" width="97.2515" height="97.2512" filterUnits="userSpaceOnUse" color-interpolation-filters="sRGB">
<feFlood flood-opacity="0" result="BackgroundImageFix"/>
<feGaussianBlur in="BackgroundImageFix" stdDeviation="12"/>
<feComposite in2="SourceAlpha" operator="in" result="effect1_backgroundBlur_347_1422"/>
<feBlend mode="normal" in="SourceGraphic" in2="effect1_backgroundBlur_347_1422" result="shape"/>
</filter>
<filter id="filter3_bdii_347_1422" x="394.052" y="12.0522" width="92.2939" height="86.1992" filterUnits="userSpaceOnUse" color-interpolation-filters="sRGB">
<feFlood flood-opacity="0" result="BackgroundImageFix"/>
<feGaussianBlur in="BackgroundImageFix" stdDeviation="12"/>
<feComposite in2="SourceAlpha" operator="in" result="effect1_backgroundBlur_347_1422"/>
<feColorMatrix in="SourceAlpha" type="matrix" values="0 0 0 0 0 0 0 0 0 0 0 0 0 0 0 0 0 0 127 0" result="hardAlpha"/>
<feOffset dx="5" dy="5"/>
<feGaussianBlur stdDeviation="5"/>
<feColorMatrix type="matrix" values="0 0 0 0 0.258824 0 0 0 0 0.631373 0 0 0 0 0.996078 0 0 0 0.12 0"/>
<feBlend mode="normal" in2="effect1_backgroundBlur_347_1422" result="effect2_dropShadow_347_1422"/>
<feBlend mode="normal" in="SourceGraphic" in2="effect2_dropShadow_347_1422" result="shape"/>
<feColorMatrix in="SourceAlpha" type="matrix" values="0 0 0 0 0 0 0 0 0 0 0 0 0 0 0 0 0 0 127 0" result="hardAlpha"/>
<feOffset dy="0.2"/>
<feComposite in2="hardAlpha" operator="arithmetic" k2="-1" k3="1"/>
<feColorMatrix type="matrix" values="0 0 0 0 1 0 0 0 0 1 0 0 0 0 1 0 0 0 0.25 0"/>
<feBlend mode="normal" in2="shape" result="effect3_innerShadow_347_1422"/>
<feColorMatrix in="SourceAlpha" type="matrix" values="0 0 0 0 0 0 0 0 0 0 0 0 0 0 0 0 0 0 127 0" result="hardAlpha"/>
<feOffset dy="-0.2"/>
<feComposite in2="hardAlpha" operator="arithmetic" k2="-1" k3="1"/>
<feColorMatrix type="matrix" values="0 0 0 0 0.612986 0 0 0 0 0.697287 0 0 0 0 0.758333 0 0 0 0.25 0"/>
<feBlend mode="normal" in2="effect3_innerShadow_347_1422" result="effect4_innerShadow_347_1422"/>
</filter>
<filter id="filter4_bii_347_1422" x="931" y="172" width="58" height="58" filterUnits="userSpaceOnUse" color-interpolation-filters="sRGB">
<feFlood flood-opacity="0" result="BackgroundImageFix"/>
<feGaussianBlur in="BackgroundImageFix" stdDeviation="2"/>
<feComposite in2="SourceAlpha" operator="in" result="effect1_backgroundBlur_347_1422"/>
<feBlend mode="normal" in="SourceGraphic" in2="effect1_backgroundBlur_347_1422" result="shape"/>
<feColorMatrix in="SourceAlpha" type="matrix" values="0 0 0 0 0 0 0 0 0 0 0 0 0 0 0 0 0 0 127 0" result="hardAlpha"/>
<feOffset dy="-4"/>
<feGaussianBlur stdDeviation="2"/>
<feComposite in2="hardAlpha" operator="arithmetic" k2="-1" k3="1"/>
<feColorMatrix type="matrix" values="0 0 0 0 1 0 0 0 0 1 0 0 0 0 1 0 0 0 0.05 0"/>
<feBlend mode="normal" in2="shape" result="effect2_innerShadow_347_1422"/>
<feColorMatrix in="SourceAlpha" type="matrix" values="0 0 0 0 0 0 0 0 0 0 0 0 0 0 0 0 0 0 127 0" result="hardAlpha"/>
<feOffset dx="-4" dy="-4"/>
<feGaussianBlur stdDeviation="2"/>
<feComposite in2="hardAlpha" operator="arithmetic" k2="-1" k3="1"/>
<feColorMatrix type="matrix" values="0 0 0 0 1 0 0 0 0 1 0 0 0 0 1 0 0 0 0.05 0"/>
<feBlend mode="normal" in2="effect2_innerShadow_347_1422" result="effect3_innerShadow_347_1422"/>
</filter>
<linearGradient id="paint0_linear_347_1422" x1="960" y1="-84.5" x2="960" y2="281" gradientUnits="userSpaceOnUse">
<stop offset="0.0833333" stop-color="#D9D9D9" stop-opacity="0"/>
<stop offset="1" stop-color="#D9D9D9"/>
</linearGradient>
<radialGradient id="paint1_radial_347_1422" cx="0" cy="0" r="1" gradientUnits="userSpaceOnUse" gradientTransform="translate(94 235.5) rotate(90) scale(311.5 300)">
<stop stop-color="#2F2A4B"/>
<stop offset="1" stop-color="#15008F" stop-opacity="0"/>
</radialGradient>
<radialGradient id="paint2_radial_347_1422" cx="0" cy="0" r="1" gradientUnits="userSpaceOnUse" gradientTransform="translate(1249 234.5) rotate(90) scale(311.5 300)">
<stop stop-color="#2F2A4B"/>
<stop offset="1" stop-color="#15008F" stop-opacity="0"/>
</radialGradient>
<linearGradient id="paint3_linear_347_1422" x1="1423.88" y1="66.4769" x2="1419.09" y2="89.5694" gradientUnits="userSpaceOnUse">
<stop offset="0.451042" stop-color="white"/>
<stop offset="1" stop-color="white"/>
</linearGradient>
<radialGradient id="paint4_radial_347_1422" cx="0" cy="0" r="1" gradientUnits="userSpaceOnUse" gradientTransform="translate(671 181.5) rotate(-90) scale(311.5 300)">
<stop stop-color="#2F2A4B"/>
<stop offset="1" stop-color="#15008F" stop-opacity="0"/>
</radialGradient>
<linearGradient id="paint5_linear_347_1422" x1="424.363" y1="80.0608" x2="459.853" y2="42.3731" gradientUnits="userSpaceOnUse">
<stop stop-color="#3AC1FD" stop-opacity="0.16"/>
<stop offset="1" stop-color="white" stop-opacity="0"/>
</linearGradient>
<linearGradient id="paint6_linear_347_1422" x1="424.363" y1="80.0608" x2="459.853" y2="42.3731" gradientUnits="userSpaceOnUse">
<stop stop-color="white" stop-opacity="0"/>
<stop offset="1" stop-color="white" stop-opacity="0.16"/>
</linearGradient>
<linearGradient id="paint7_linear_347_1422" x1="445.127" y1="24.3006" x2="436.16" y2="127.512" gradientUnits="userSpaceOnUse">
<stop stop-color="white" stop-opacity="0.88"/>
<stop offset="1" stop-color="white" stop-opacity="0"/>
</linearGradient>
<radialGradient id="paint8_radial_347_1422" cx="0" cy="0" r="1" gradientUnits="userSpaceOnUse" gradientTransform="translate(1826 181.5) rotate(-90) scale(311.5 300)">
<stop stop-color="#2F2A4B"/>
<stop offset="1" stop-color="#15008F" stop-opacity="0"/>
</radialGradient>
<linearGradient id="paint9_linear_347_1422" x1="960" y1="188.5" x2="960" y2="213.495" gradientUnits="userSpaceOnUse">
<stop offset="0.451042" stop-color="#070C28" stop-opacity="0"/>
<stop offset="1" stop-color="#C5ADF2"/>
</linearGradient>
<clipPath id="clip0_347_1422">
<rect width="1920" height="281" fill="white"/>
</clipPath>
<clipPath id="clip1_347_1422">
<rect width="604" height="281" fill="white" transform="translate(-208)"/>
</clipPath>
<clipPath id="clip2_347_1422">
<rect width="604" height="281" fill="white" transform="translate(947)"/>
</clipPath>
<clipPath id="clip3_347_1422">
<rect width="71" height="71" fill="white" transform="translate(1396.96 21.5254) rotate(11.7278)"/>
</clipPath>
<clipPath id="clip4_347_1422">
<rect width="604" height="281" fill="white" transform="matrix(1 0 0 -1 369 281)"/>
</clipPath>
<clipPath id="clip5_347_1422">
<rect width="604" height="281" fill="white" transform="matrix(1 0 0 -1 1524 281)"/>
</clipPath>
</defs>
</svg>
