<svg width="1920" height="1456" fill="none" xmlns="http://www.w3.org/2000/svg"><path fill-rule="evenodd" clip-rule="evenodd" d="M-19.4 1547.6c-143.793-208.76-259.625-437.54-238.04-692.351 26.603-314.043-92.563-696.544 202.344-823.55C238.71-94.831 705.27 202.52 1016.26 259.759c361.23 66.485 752.93-148.579 1009.27 107.199 264.28 263.699 189.76 725.613 55.9 1080.053-123.89 328.03-395.66 603.26-732.75 712.11-290.68 93.87-573.02-79.42-847.112-201.94-210.84-94.25-391.173-221.15-520.968-409.58Z" fill="url(#a)"/><path fill-rule="evenodd" clip-rule="evenodd" d="M-36.394 1565.49c-144.876-210.63-261.806-441.31-241.12-697.681 25.495-315.962-95.346-701.364 199.722-828.091 293.967-126.255 762.628 174.739 1074.5 233.5C1358.95 341.47 1750.7 126.478 2008.54 384.851c265.82 266.375 192.85 730.979 60.02 1087.199-122.94 329.69-394.26 605.67-731.67 713.98-290.95 93.39-574.546-82.07-849.68-206.39C275.568 1884 94.378 1755.62-36.394 1565.49Z" fill="url(#b)"/><defs><linearGradient id="a" x1="802.416" y1="1580.62" x2="350.229" y2="-135.213" gradientUnits="userSpaceOnUse"><stop offset=".117" stop-color="#AAA"/><stop offset=".959" stop-color="#9932BD"/><stop offset="1" stop-color="#BD326C"/></linearGradient><linearGradient id="b" x1="787.305" y1="1601.78" x2="335.271" y2="-128.72" gradientUnits="userSpaceOnUse"><stop offset=".117" stop-color="#422648"/><stop offset=".958" stop-color="#6D42C7"/><stop offset="1" stop-color="#6B297B"/></linearGradient></defs></svg>
