<svg width="1920" height="1456" viewBox="0 0 1920 1456" fill="none" xmlns="http://www.w3.org/2000/svg">
<path fill-rule="evenodd" clip-rule="evenodd" d="M-19.3998 1547.6C-163.193 1338.84 -279.025 1110.06 -257.44 855.249C-230.837 541.206 -350.003 158.705 -55.0962 31.6996C238.711 -94.8322 705.27 202.519 1016.26 259.758C1377.49 326.243 1769.19 111.179 2025.53 366.957C2289.81 630.656 2215.29 1092.57 2081.43 1447.01C1957.54 1775.04 1685.77 2050.27 1348.68 2159.12C1058 2252.99 775.66 2079.7 501.568 1957.18C290.728 1862.93 110.395 1736.03 -19.3998 1547.6Z" fill="url(#paint0_linear_371_29370)"/>
<path fill-rule="evenodd" clip-rule="evenodd" d="M-36.3943 1565.49C-181.27 1354.86 -298.2 1124.18 -277.514 867.809C-252.019 551.847 -372.86 166.445 -77.7924 39.7179C216.175 -86.537 684.836 214.457 996.708 273.218C1358.95 341.47 1750.7 126.478 2008.54 384.851C2274.36 651.226 2201.39 1115.83 2068.56 1472.05C1945.62 1801.74 1674.3 2077.72 1336.89 2186.03C1045.94 2279.42 762.344 2103.96 487.21 1979.64C275.568 1884 94.3779 1755.62 -36.3943 1565.49Z" fill="url(#paint1_linear_371_29370)"/>
<defs>
<linearGradient id="paint0_linear_371_29370" x1="802.416" y1="1580.62" x2="350.229" y2="-135.213" gradientUnits="userSpaceOnUse">
<stop offset="0.117494" stop-color="#AAAAAA"/>
<stop offset="0.959351" stop-color="#9932BD"/>
<stop offset="1" stop-color="#BD326C"/>
</linearGradient>
<linearGradient id="paint1_linear_371_29370" x1="787.305" y1="1601.78" x2="335.271" y2="-128.72" gradientUnits="userSpaceOnUse">
<stop offset="0.117494" stop-color="#422648"/>
<stop offset="0.958333" stop-color="#6D42C7"/>
<stop offset="1" stop-color="#6B297B"/>
</linearGradient>
</defs>
</svg>
