<svg width="1920" height="279" fill="none" xmlns="http://www.w3.org/2000/svg"><g clip-path="url(#a)"><path d="m-131 20-33-14m33 14-43 13m43-13 33 14m-33-14 41-13m-74-1-42 13m42-13 41-13m-51 40-32-14m32 14 33 15m-33-15 3 50m73-49-43 14m43-14 34 15m-34-15 41-13M-90 7l-33-14m33 14 33 14M-90 7l40-13m-156 25 3 49m80-75 40-12m-120 87 3 48m-3-48 32 15m-29 33 3 47m-3-47 32 15m-3-48 3 48m-3-48 33 15m-59 65 3 46m-3-46 31 16m-2-48 2 48m-2-48 32 16m-58 62 3 45m-3-45 31 17m-3-47 3 47m-3-47 33 16m-58 59 2 45m-2-45 31 17m-3-45 3 45m-3-45 32 16m-58 57 3 43m-3-43 31 17m-2-45 2 45m-2-45 31 18m-57 53 3 43 30 18m-33-61 30 18m-2-44 2 44m-2-44 32 18m-27 69 31 19m-31-19-3-43m0 0 32 18m2 44 32 19m-32-19-2-44m34 63 32 20m-32-20-2-44m-32-19 32 19m-32-19-2-44m68 127 34 21m-34-21-1-44m-33-20 33 20m-33-20-2-45m70 130 35 21m-35-21-1-45m-34-20 34 20m-34-20-2-46m72 132 36 22m-36-22-1-46m-35-20-1-46m1 46 35 20m37 68 37 22m-37-22-1-46m-36-22 36 22m-36-22-1-46m75 136 39-21m-39 21v-46m-38-22 38 22m-38-22v-47m77 94 38-21h1m-39 21 1-46m-40 21-1-48m1 48 40-21m38 25 37-20m-37 20v-45m-38 20v-47m0 47 38-20m37 25 36-19m-36 19 1-45m-38 20 38-20m-38 20 1-46m72 52 36-19m-36 19 2-45m-37 19 37-19m-37 19 1-46m70 53 34-19m-34 19 2-44m-36 18 36-18m-36 18 1-45m67 52 34-18m-34 18 2-43m-34 18 1-45m-1 45 34-18m32 25 32-17 3-43m-35 60 2-43m-34 18 34-18m-34 18 2-45m65 10 3-44m-3 44-33 17m0 0 2-44m34-17 2-44m-2 44-34 17m36-61 3-45m-3 45-33 16m-3 45-34 17m34-17 3-45m36-61 3-47m-3 47-34 15m-2 46 2-46m-2 46-35 17m74-125 3-47m-3 47-34 15m-3 47 3-47m-3 47-34 16m74-125 3-48m-3 48-34 15m-3 47 3-47m-3 47-35 16m75-126 3-49m-3 49-35 14m-2 49-36 15m36-15 2-49m38-63-40-14m40 14-35 13m-3 50 3-50m-3 50-35 15m33-92L314-2m40 14-35 13m40 14-36 14m36-14-40-14m-5-27-38-13m38 13-35 13m40 14-36 13m36-13-40-14m-3-26-37-13m37 13L241-3m38 14-36 13m36-13L241-3m-2-25-36-13m36 13-35 12m37 13-37-13m37 13-36 13m-2-51-35-12m35 12-35 12m36 13-36-13m36 13L168-4m0-49-34-12m34 12-35 12m35 12-35-12m35 12-36 12m2-48-33-11-35 11m68 0L99-53m34 12L97-30m36-11L99-53M66-65 30-54m36-11 33 12m0 0L63-42M30-54-6-43m36-11 33 12m-69-1-38 12m38-12 32 13m37-12L26-30m37-12 34 12m-141-1-39 12m39-12 33 13m37-12-37 12m37-12 34 12m-143-1 33 13m39-12L-50-6m39-12L22-5m-72-1 33 14m-124 40 35 15m-35-15 3 50m32-35 35 16m-35-16 2 51m-2-51 42-14m-74 49 2 49m-2-49 34 16m33-35 37 16m-37-16 43-15m-43 15 2 51m-35-16 35 16m-35-16 2 50m38-115 36 15m-36-15 42-14m-12 60 37 17m-37-17 1 52m-1-52L9 80m-37-16L9 80m-37-16 41-14m-82 80 36 17m-36-17 2 50m70-68 39 17M3 112l43-16M3 112l1 52m-37-17 1 51m-1-51 37 17m5-84 37 16M9 80l41-15m-8 64 41 18m-41-18 1 53m-1-53 44-16M46 96l40 17M46 96l42-15M4 164l39 18M4 164l1 52m78-69 43-17m-43 17v54m-40-19 40 19m-40-19 1 52m42-121 40 17m-40-17 41-16m-1 33v53m0-53 42-16m-85 87 43-18m-43 18v53m43-71v1l-1 52m1-53 41-17m-42 70-42 18m42-18v51m0-51 41-18m1-52 1-52m-1 52 40-16m-40 16-1 52m2-104v-1l40-15m-40 16-41-17m196-44-37 15m37-15-2 51m2-51-40-15m3 30-38 14m38-14-2 51m2-51-41-16m76 52-37 15m37-15-3 49M283 38l-38 14m38-14-40-14m5 58-40 16m40-16-41-15m41 15-2 52m38-15-38 15m38-15-2 49M245 52l-39-15m39 15-38 15m1 31-40-16m40 16-1 52m0-83-39-16m39 16-39 15m78 52-39 16m39-16-2 50M168 82l-39-16m39 16-41 15m80 53-1 51M127 97 88 81m-5 173v51m0-51-39-20m39 71v51m0-51 42-18m-42 18-39-20m0-51v51m0-51L5 216m78 140v49m0-49 42-19m-42 19-38-21m80-48v50m0-50 40-19M44 285l1 50m-1-50L6 266m77 139v0l-38-21m38 21v48m0-48 41-20m1-48-1 48m1-48 40-19M45 335v49m0-49L7 316m38 68L8 364m37 20 1 48m37 21-37-21m37 21 41-20m0-48v48m0-48 40-19M46 432 9 411m115 22 39-19m1-48-1 48m1-48 38-18m-38 18 1-48m0 0 39-18m-39 18v-50M7 316l-36-20m36 20-1-50m1 50 1 48m0 0-36-20m36 20 1 47m267-99 2-47m-2 47-36 17m36-17-2 46m2-46 35-17m-33-30-37 17m37-17 36-17m-36 17 2-48m-40 112 1-47m-1 47-38 19m38-19-2 47m36-18-36 18m36-18 35-18m2-45-2 45m2-45 3-47m-73 34 2-48m-2 48-37 18m110-52 2-47m-36 16 2-49m-2 49-37 17m37-17 36-16m-73 33 1-50m-1 50-38 17m-1 49-2 48m2-48 1-49m-3 97-1 46m37-18-37 18m81-226-38 16m38-16 36-15M206 37l-38-14m38 14-38 14m38-14 37-13m-75 27-38-14m38 14-39 15m115 118-38 17m-335 88 3 45m-3-45 33 18m-33-18-2-47m0 0 33 18m-33-18-2-47m105 149-1-48m1 48-34-19m34 19 2 47m-3-95-35-18m35 18-1-48m-32 77-2-47m2 47-34-18m34 18 1 46m35 20-35-20m35 20 35 20m-73-133-2-48m2 48-34-18m68-12-2-50m2 50-36-18m36 18 36 18m-72-36-1-50m1 50-34-18m2 48 2 47m-2-47-2-48m4 95 2 45m33 19-33-19m62-154-35-18m35 18 37 18M50 65l38 16M50 65l41-14M50 65 13 50m0 0 41-14M13 50l-35-15m-45 145-35-16M168 23 131 9m37 14-38 14m38-14 37-13m-74-1L93 22m38-13 37-13M131 9 95-4m35 41L93 22m37 15L91 51m114-41 38 14m-38-14L168-4M93 22 57 8m36 14L54 36M168-4l-36-13M95-4 60-18M95-4 57 8M95-4l37-13M57 8 22-5M57 8 18 21m36 15 37 15M54 36 18 21m73 30 38 15M60-18 22-5m38-13 37-12M22-5-17 8m149-25L97-30M-17 8l35 13M-17 8l-40 13m75 0-40 14m151 31L88 81m230 72-2 48M5 216l1 50m200-65-1 50m1-50-40 17M-22 35l-35-14m-45 143 2 48m-2-48-34-17m36 65-33-17m299 23-1 50m-259 84-32-18m291-66 40-17m-42 163 38-20m-334-199-3-48" stroke="url(#b)" stroke-width="3" stroke-miterlimit="10" stroke-linecap="round" stroke-linejoin="round"/></g><g style="mix-blend-mode:screen" clip-path="url(#c)"><path d="M1024 19 991 5m33 14-43 13m43-13 33 14m-33-14 41-13m-74-1-42 13m42-13 41-13m-51 40-32-14m32 14 33 15m-33-15 3 50m73-49-43 14m43-14 34 15m-34-15 41-13m-33-14-33-14m33 14 33 14m-33-14 40-13M949 18l3 49m80-75 40-12M952 67l3 48m-3-48 32 15m-29 33 3 47m-3-47 32 15m-3-48 3 48m-3-48 33 15m-59 65 3 46m-3-46 31 16m-2-48 2 48m-2-48 32 16m-58 62 3 45m-3-45 31 17m-3-47 3 47m-3-47 33 16m-58 59 2 45m-2-45 31 17m-3-45 3 45m-3-45 32 16m-58 57 3 43m-3-43 31 17m-2-45 2 45m-2-45 31 18m-57 53 3 43 30 18m-33-61 30 18m-2-44 2 44m-2-44 32 18m-27 69 31 19m-31-19-3-43m0 0 32 18m2 44 32 19m-32-19-2-44m34 63 32 20m-32-20-2-44m-32-19 32 19m-32-19-2-44m68 127 34 21m-34-21-1-44m-33-20 33 20m-33-20-2-45m70 130 35 21m-35-21-1-45m-34-20 34 20m-34-20-2-46m72 132 36 22m-36-22-1-46m-35-20-1-46m1 46 35 20m37 68 37 22m-37-22-1-46m-36-22 36 22m-36-22-1-46m75 136 39-21m-39 21v-46m-38-22 38 22m-38-22v-47m77 94 38-21h1m-39 21 1-46m-40 21-1-48m1 48 40-21m38 25 37-20m-37 20v-45m-38 20v-47m0 47 38-20m37 25 36-19m-36 19 1-45m-38 20 38-20m-38 20 1-46m72 52 36-19m-36 19 2-45m-37 19 37-19m-37 19 1-46m70 53 34-19m-34 19 2-44m-36 18 36-18m-36 18 1-45m67 52 34-18m-34 18 2-43m-34 18 1-45m-1 45 34-18m32 25 32-17 3-43m-35 60 2-43m-34 18 34-18m-34 18 2-45m65 10 3-44m-3 44-33 17m0 0 2-44m34-17 2-44m-2 44-34 17m36-61 3-45m-3 45-33 16m-3 45-34 17m34-17 3-45m36-61 3-47m-3 47-34 15m-2 46 2-46m-2 46-35 17m74-125 3-47m-3 47-34 15m-3 47 3-47m-3 47-34 16m74-125 3-48m-3 48-34 15m-3 47 3-47m-3 47-35 16m75-126 3-49m-3 49-35 14m-2 49-36 15m36-15 2-49m38-63-40-14m40 14-35 13m-3 50 3-50m-3 50-35 15m33-92-40-14m40 14-35 13m40 14-36 14m36-14-40-14m-5-27-38-13m38 13-35 13m40 14-36 13m36-13-40-14m-3-26-37-13m37 13-35 12m38 14-36 13m36-13-38-14m-2-25-36-13m36 13-35 12m37 13-37-13m37 13-36 13m-2-51-35-12m35 12-35 12m36 13-36-13m36 13-36 12m0-49-34-12m34 12-35 12m35 12-35-12m35 12-36 12m2-48-33-11-35 11m68 0-35 12m34 12-36 11m36-11-34-12m-33-12-36 11m36-11 33 12m0 0-36 11m-33-12-36 11m36-11 33 12m-69-1-38 12m38-12 32 13m37-12-37 12m37-12 34 12m-141-1-39 12m39-12 33 13m37-12-37 12m37-12 34 12m-143-1 33 13m39-12-39 12m39-12 33 13m-72-1 33 14m-124 40 35 15m-35-15 3 50m32-35 35 16m-35-16 2 51m-2-51 42-14m-74 49 2 49m-2-49 34 16m33-35 37 16m-37-16 43-15m-43 15 2 51m-35-16 35 16m-35-16 2 50m38-115 36 15m-36-15 42-14m-12 60 37 17m-37-17 1 52m-1-52 43-15m-37-16 37 16m-37-16 41-14m-82 80 36 17m-36-17 2 50m70-68 39 17m-39-17 43-16m-43 16 1 52m-37-17 1 51m-1-51 37 17m5-84 37 16m-37-16 41-15m-8 64 41 18m-41-18 1 53m-1-53 44-16m-40-17 40 17m-40-17 42-15m-84 83 39 18m-39-18 1 52m78-69 43-17m-43 17v54m-40-19 40 19m-40-19 1 52m42-121 40 17m-40-17 41-16m-1 33v53m0-53 42-16m-85 87 43-18m-43 18v53m43-71v1l-1 52m1-53 41-17m-42 70-42 18m42-18v51m0-51 41-18m1-52 1-52m-1 52 40-16m-40 16-1 52m2-104v-1l40-15m-40 16-41-17m196-44-37 15m37-15-2 51m2-51-40-15m3 30-38 14m38-14-2 51m2-51-41-16m76 52-37 15m37-15-3 49m-35-115-38 14m38-14-40-14m5 58-40 16m40-16-41-15m41 15-2 52m38-15-38 15m38-15-2 49m-37-116-39-15m39 15-38 15m1 31-40-16m40 16-1 52m0-83-39-16m39 16-39 15m78 52-39 16m39-16-2 50m-76-102-39-16m39 16-41 15m80 53-1 51m-79-104-39-16m-5 173v51m0-51-39-20m39 71v51m0-51 42-18m-42 18-39-20m0-51v51m0-51-39-18m78 140v49m0-49 42-19m-42 19-38-21m80-48v50m0-50 40-19m-121 17 1 50m-1-50-38-19m77 139v0l-38-21m38 21v48m0-48 41-20m1-48-1 48m1-48 40-19m-120 17v49m0-49-38-19m38 68-37-20m37 20 1 48m37 21-37-21m37 21 41-20m0-48v48m0-48 40-19m-118 66-37-21m115 22 39-19m1-48-1 48m1-48 38-18m-38 18 1-48m0 0 39-18m-39 18v-50m-158 48-36-20m36 20-1-50m1 50 1 48m0 0-36-20m36 20 1 47m267-99 2-47m-2 47-36 17m36-17-2 46m2-46 35-17m-33-30-37 17m37-17 36-17m-36 17 2-48m-40 112 1-47m-1 47-38 19m38-19-2 47m36-18-36 18m36-18 35-18m2-45-2 45m2-45 3-47m-73 34 2-48m-2 48-37 18m110-52 2-47m-36 16 2-49m-2 49-37 17m37-17 36-16m-73 33 1-50m-1 50-38 17m-1 49-2 48m2-48 1-49m-3 97-1 46m37-18-37 18m81-226-38 16m38-16 36-15M1361 36l-38-14m38 14-38 14m38-14 37-13m-75 27-38-14m38 14-39 15m115 118-38 17m-335 88 3 45m-3-45 33 18m-33-18-2-47m0 0 33 18m-33-18-2-47m105 149-1-48m1 48-34-19m34 19 2 47m-3-95-35-18m35 18-1-48m-32 77-2-47m2 47-34-18m34 18 1 46m35 20-35-20m35 20 35 20m-73-133-2-48m2 48-34-18m68-12-2-50m2 50-36-18m36 18 36 18m-72-36-1-50m1 50-34-18m2 48 2 47m-2-47-2-48m4 95 2 45m33 19-33-19m62-154-35-18m35 18 37 18m45-151 38 16m-38-16 41-14m-41 14-37-15m0 0 41-14m-41 14-35-15m-45 145-35-16m270-141-37-14m37 14-38 14m38-14 37-13m-74-1-38 13m38-13 37-13m-37 13-36-13m35 41-37-15m37 15-39 14m114-41 38 14m-38-14-37-14m-75 26-36-14m36 14-39 14m114-40-36-13m-37 13-35-14m35 14-38 12m38-12 37-13m-75 25-35-13m35 13-39 13m36 15 37 15m-37-15-36-15m73 30 38 15m-69-84-38 13m38-13 37-12m-75 25-39 13m149-25-35-13M1138 7l35 13m-35-13-40 13m75 0-40 14m151 31-41 15m230 72-2 48m-311 15 1 50m200-65-1 50m1-50-40 17M1133 34l-35-14m-45 143 2 48m-2-48-34-17m36 65-33-17m299 23-1 50m-259 84-32-18m291-66 40-17m-42 163 38-20m-334-199-3-48" stroke="url(#d)" stroke-width="3" stroke-miterlimit="10" stroke-linecap="round" stroke-linejoin="round"/></g><g style="mix-blend-mode:screen" clip-path="url(#e)"><path d="m446 397-33 14m33-14-43-13m43 13 33-14m-33 14 41 13m-74 1-42-13m42 13 41 13m-51-40-32 14m32-14 33-15m-33 15 3-50m73 49-43-14m43 14 34-15m-34 15 41 13m-33 14-33 14m33-14 33-14m-33 14 40 13m-156-25 3-49m80 75 40 12m-120-87 3-48m-3 48 32-15m-29-33 3-47m-3 47 32-15m-3 48 3-48m-3 48 33-15m-59-65 3-46m-3 46 31-16m-2 48 2-48m-2 48 32-16m-58-62 3-45m-3 45 31-17m-3 47 3-47m-3 47 33-16m-58-59 2-45m-2 45 31-17m-3 45 3-45m-3 45 32-16m-58-57 3-43m-3 43 31-17m-2 45 2-45m-2 45 31-18m-57-53 3-43 30-18m-33 61 30-18m-2 44 2-44m-2 44 32-18m-27-69 31-19m-31 19-3 43m0 0 32-18m2-44 32-19M455-5l-2 44m34-63 32-20m-32 20-2 44m-32 19 32-19m-32 19-2 44m68-127 34-21m-34 21-1 44m-33 20 33-20m-33 20-2 45m70-130 35-21m-35 21-1 45M518 0l34-20M518 0l-2 46m72-132 36-22m-36 22-1 46m-35 20-1 46m1-46 35-20m37-68 37-22m-37 22-1 46m-36 22 36-22m-36 22-1 46m75-136 39 21m-39-21v46m-38 22 38-22m-38 22v47m77-94 38 21h1m-39-21 1 46m-40-21-1 48m1-48 40 21m38-25 37 20m-37-20v45m-38-20v47m0-47 38 20m37-25 36 19m-36-19 1 45m-38-20 38 20m-38-20 1 46m72-52 36 19m-36-19 2 45m-37-19 37 19m-37-19 1 46m70-53 34 19m-34-19 2 44M814-4l36 18M814-4l1 45m67-52 34 18m-34-18 2 43m-34-18 1 45m-1-45 34 18m32-25 32 17 3 43M916 7l2 43m-34-18 34 18m-34-18 2 45m65-10 3 44m-3-44-33-17m0 0 2 44m34 17 2 44m-2-44-34-17m36 61 3 45m-3-45-33-16m-3-45-34-17m34 17 3 45m36 61 3 47m-3-47-34-15m-2-46 2 46m-2-46-35-17m74 125 3 47m-3-47-34-15m-3-47 3 47m-3-47-34-16m74 125 3 48m-3-48-34-15m-3-47 3 47m-3-47-35-16m75 126 3 49m-3-49-35-14m-2-49-36-15m36 15 2 49m38 63-40 14m40-14-35-13m-3-50 3 50m-3-50-35-15m33 92-40 14m40-14-35-13m40-14-36-14m36 14-40 14m-5 27-38 13m38-13-35-13m40-14-36-13m36 13-40 14m-3 26-37 13m37-13-35-12m38-14-36-13m36 13-38 14m-2 25-36 13m36-13-35-12m37-13-37 13m37-13-36-13m-2 51-35 12m35-12-35-12m36-13-36 13m36-13-36-12m0 49-34 12m34-12-35-12m35-12-35 12m35-12-36-12m2 48-33 11-35-11m68 0-35-12m34-12-36-11m36 11-34 12m-33 12-36-11m36 11 33-12m0 0-36-11m-33 12-36-11m36 11 33-12m-69 1-38-12m38 12 32-13m37 12-37-12m37 12 34-12m-141 1-39-12m39 12 33-13m37 12-37-12m37 12 34-12m-143 1 33-13m39 12-39-12m39 12 33-13m-72 1 33-14m-124-40 35-15m-35 15 3-50m32 35 35-16m-35 16 2-51m-2 51 42 14m-74-49 2-49m-2 49 34-16m33 35 37-16m-37 16 43 15m-43-15 2-51m-35 16 35-16m-35 16 2-50m38 115 36-15m-36 15 42 14m-12-60 37-17m-37 17 1-52m-1 52 43 15m-37 16 37-16m-37 16 41 14m-82-80 36-17m-36 17 2-50m70 68 39-17m-39 17 43 16m-43-16 1-52m-37 17 1-51m-1 51 37-17m5 84 37-16m-37 16 41 15m-8-64 41-18m-41 18 1-53m-1 53 44 16m-40 17 40-17m-40 17 42 15m-84-83 39-18m-39 18 1-52m78 69 43 17m-43-17v-54m-40 19 40-19m-40 19 1-52m42 121 40-17m-40 17 41 16m-1-33v-53m0 53 42 16m-85-87 43 18m-43-18v-53m43 71v-1l-1-52m1 53 41 17m-42-70-42-18m42 18v-51m0 51 41 18m1 52 1 52m-1-52 40 16m-40-16-1-52m2 104v1l40 15m-40-16-41 17m196 44-37-15m37 15-2-51m2 51-40 15m3-30-38-14m38 14-2-51m2 51-41 16m76-52-37-15m37 15-3-49m-35 115-38-14m38 14-40 14m5-58-40-16m40 16-41 15m41-15-2-52m38 15-38-15m38 15-2-49m-37 116-39 15m39-15-38-15m1-31-40 16m40-16-1-52m0 83-39 16m39-16-39-15m78-52-39-16m39 16-2-50m-76 102-39 16m39-16-41-15m80-53-1-51m-79 104-39 16m-5-173v-51m0 51-39 20m39-71V61m0 51 42 18m-42-18-39 20m0 51v-51m0 51-39 18m78-140V12m0 49 42 19m-42-19-38 21m80 48V80m0 50 40 19m-121-17 1-50m-1 50-38 19m77-139v0l-38 21m38-21v-48m0 48 41 20m1 48-1-48m1 48 40 19M622 82V33m0 49-38 19m38-68-37 20m37-20 1-48m37-21-37 21m37-21 41 20m0 48v-48m0 48 40 19M623-15 586 6m115-22 39 19m1 48-1-48m1 48 38 18m-38-18 1 48m0 0 39 18m-39-18v50m-158-48-36 20m36-20-1 50m1-50 1-48m0 0-36 20m36-20 1-47m267 99 2 47m-2-47-36-17m36 17-2-46m2 46 35 17m-33 30-37-17m37 17 36 17m-36-17 2 48M817 88l1 47m-1-47-38-19m38 19-2-47m36 18-36-18m36 18 35 18m2 45-2-45m2 45 3 47m-73-34 2 48m-2-48-37-18m110 52 2 47m-36-16 2 49m-2-49-37-17m37 17 36 16m-73-33 1 50m-1-50-38-17m-1-49-2-48m2 48 1 49m-3-97-1-46m37 18-37-18m81 226-38-16m38 16 36 15M783 380l-38 14m38-14-38-14m38 14 37 13m-75-27-38 14m38-14-39-15m115-118-38-17m-335-88 3-45m-3 45 33-18m-33 18-2 47m0 0 33-18m-33 18-2 47M549 73l-1 48m1-48-34 19m34-19 2-47m-3 95-35 18m35-18-1 48m-32-77-2 47m2-47-34 18m34-18 1-46m35-20-35 20m35-20 35-20m-73 133-2 48m2-48-34 18m68 12-2 50m2-50-36 18m36-18 36-18m-72 36-1 50m1-50-34 18m2-48 2-47m-2 47-2 48m4-95 2-45m33-19-33 19m62 154-35 18m35-18 37-18m45 151 38-16m-38 16 41 14m-41-14-37 15m0 0 41 14m-41-14-35 15m-45-145-35 16m270 141-37 14m37-14-38-14m38 14 37 13m-74 1-38-13m38 13 37 13m-37-13-36 13m35-41-37 15m37-15-39-14m114 41 38-14m-38 14-37 14m-75-26-36 14m36-14-39-14m114 40-36 13m-37-13-35 14m35-14-38-12m38 12 37 13m-75-25-35 13m35-13-39-13m36-15 37-15m-37 15-36 15m73-30 38-15m-69 84-38-13m38 13 37 12m-75-25-39-13m149 25-35 13m-114-38 35-13m-35 13-40-13m75 0-40-14m151-31-41-15m230-72-2-48m-311-15 1-50m200 65-1-50m1 50-40-17M555 382l-35 14m-45-143 2-48m-2 48-34 17m36-65-33 17m299-23-1-50M483 65l-32 18m291 66 40 17M740 3l38 20M444 222l-3 48" stroke="url(#f)" stroke-width="3" stroke-miterlimit="10" stroke-linecap="round" stroke-linejoin="round"/></g><g clip-path="url(#g)"><path d="m1601 397-33 14m33-14-43-13m43 13 33-14m-33 14 41 13m-74 1-42-13m42 13 41 13m-51-40-32 14m32-14 33-15m-33 15 3-50m73 49-43-14m43 14 34-15m-34 15 41 13m-33 14-33 14m33-14 33-14m-33 14 40 13m-156-25 3-49m80 75 40 12m-120-87 3-48m-3 48 32-15m-29-33 3-47m-3 47 32-15m-3 48 3-48m-3 48 33-15m-59-65 3-46m-3 46 31-16m-2 48 2-48m-2 48 32-16m-58-62 3-45m-3 45 31-17m-3 47 3-47m-3 47 33-16m-58-59 2-45m-2 45 31-17m-3 45 3-45m-3 45 32-16m-58-57 3-43m-3 43 31-17m-2 45 2-45m-2 45 31-18m-57-53 3-43 30-18m-33 61 30-18m-2 44 2-44m-2 44 32-18m-27-69 31-19m-31 19-3 43m0 0 32-18m2-44 32-19m-32 19-2 44m34-63 32-20m-32 20-2 44m-32 19 32-19m-32 19-2 44m68-127 34-21m-34 21-1 44m-33 20 33-20m-33 20-2 45m70-130 35-21m-35 21-1 45m-34 20 34-20m-34 20-2 46m72-132 36-22m-36 22-1 46m-35 20-1 46m1-46 35-20m37-68 37-22m-37 22-1 46m-36 22 36-22m-36 22-1 46m75-136 39 21m-39-21v46m-38 22 38-22m-38 22v47m77-94 38 21h1m-39-21 1 46m-40-21-1 48m1-48 40 21m38-25 37 20m-37-20v45m-38-20v47m0-47 38 20m37-25 36 19m-36-19 1 45m-38-20 38 20m-38-20 1 46m72-52 36 19m-36-19 2 45m-37-19 37 19m-37-19 1 46m70-53 34 19m-34-19 2 44m-36-18 36 18m-36-18 1 45m67-52 34 18m-34-18 2 43m-34-18 1 45m-1-45 34 18m32-25 32 17 3 43m-35-60 2 43m-34-18 34 18m-34-18 2 45m65-10 3 44m-3-44-33-17m0 0 2 44m34 17 2 44m-2-44-34-17m36 61 3 45m-3-45-33-16m-3-45-34-17m34 17 3 45m36 61 3 47m-3-47-34-15m-2-46 2 46m-2-46-35-17m74 125 3 47m-3-47-34-15m-3-47 3 47m-3-47-34-16m74 125 3 48m-3-48-34-15m-3-47 3 47m-3-47-35-16m75 126 3 49m-3-49-35-14m-2-49-36-15m36 15 2 49m38 63-40 14m40-14-35-13m-3-50 3 50m-3-50-35-15m33 92-40 14m40-14-35-13m40-14-36-14m36 14-40 14m-5 27-38 13m38-13-35-13m40-14-36-13m36 13-40 14m-3 26-37 13m37-13-35-12m38-14-36-13m36 13-38 14m-2 25-36 13m36-13-35-12m37-13-37 13m37-13-36-13m-2 51-35 12m35-12-35-12m36-13-36 13m36-13-36-12m0 49-34 12m34-12-35-12m35-12-35 12m35-12-36-12m2 48-33 11-35-11m68 0-35-12m34-12-36-11m36 11-34 12m-33 12-36-11m36 11 33-12m0 0-36-11m-33 12-36-11m36 11 33-12m-69 1-38-12m38 12 32-13m37 12-37-12m37 12 34-12m-141 1-39-12m39 12 33-13m37 12-37-12m37 12 34-12m-143 1 33-13m39 12-39-12m39 12 33-13m-72 1 33-14m-124-40 35-15m-35 15 3-50m32 35 35-16m-35 16 2-51m-2 51 42 14m-74-49 2-49m-2 49 34-16m33 35 37-16m-37 16 43 15m-43-15 2-51m-35 16 35-16m-35 16 2-50m38 115 36-15m-36 15 42 14m-12-60 37-17m-37 17 1-52m-1 52 43 15m-37 16 37-16m-37 16 41 14m-82-80 36-17m-36 17 2-50m70 68 39-17m-39 17 43 16m-43-16 1-52m-37 17 1-51m-1 51 37-17m5 84 37-16m-37 16 41 15m-8-64 41-18m-41 18 1-53m-1 53 44 16m-40 17 40-17m-40 17 42 15m-84-83 39-18m-39 18 1-52m78 69 43 17m-43-17v-54m-40 19 40-19m-40 19 1-52m42 121 40-17m-40 17 41 16m-1-33v-53m0 53 42 16m-85-87 43 18m-43-18v-53m43 71v-1l-1-52m1 53 41 17m-42-70-42-18m42 18v-51m0 51 41 18m1 52 1 52m-1-52 40 16m-40-16-1-52m2 104v1l40 15m-40-16-41 17m196 44-37-15m37 15-2-51m2 51-40 15m3-30-38-14m38 14-2-51m2 51-41 16m76-52-37-15m37 15-3-49m-35 115-38-14m38 14-40 14m5-58-40-16m40 16-41 15m41-15-2-52m38 15-38-15m38 15-2-49m-37 116-39 15m39-15-38-15m1-31-40 16m40-16-1-52m0 83-39 16m39-16-39-15m78-52-39-16m39 16-2-50m-76 102-39 16m39-16-41-15m80-53-1-51m-79 104-39 16m-5-173v-51m0 51-39 20m39-71V61m0 51 42 18m-42-18-39 20m0 51v-51m0 51-39 18m78-140V12m0 49 42 19m-42-19-38 21m80 48V80m0 50 40 19m-121-17 1-50m-1 50-38 19m77-139v0l-38 21m38-21v-48m0 48 41 20m1 48-1-48m1 48 40 19m-120-17V33m0 49-38 19m38-68-37 20m37-20 1-48m37-21-37 21m37-21 41 20m0 48v-48m0 48 40 19m-118-66-37 21m115-22 39 19m1 48-1-48m1 48 38 18m-38-18 1 48m0 0 39 18m-39-18v50m-158-48-36 20m36-20-1 50m1-50 1-48m0 0-36 20m36-20 1-47m267 99 2 47m-2-47-36-17m36 17-2-46m2 46 35 17m-33 30-37-17m37 17 36 17m-36-17 2 48m-40-112 1 47m-1-47-38-19m38 19-2-47m36 18-36-18m36 18 35 18m2 45-2-45m2 45 3 47m-73-34 2 48m-2-48-37-18m110 52 2 47m-36-16 2 49m-2-49-37-17m37 17 36 16m-73-33 1 50m-1-50-38-17m-1-49-2-48m2 48 1 49m-3-97-1-46m37 18-37-18m81 226-38-16m38 16 36 15m-112 116-38 14m38-14-38-14m38 14 37 13m-75-27-38 14m38-14-39-15m115-118-38-17m-335-88 3-45m-3 45 33-18m-33 18-2 47m0 0 33-18m-33 18-2 47m105-149-1 48m1-48-34 19m34-19 2-47m-3 95-35 18m35-18-1 48m-32-77-2 47m2-47-34 18m34-18 1-46m35-20-35 20m35-20 35-20m-73 133-2 48m2-48-34 18m68 12-2 50m2-50-36 18m36-18 36-18m-72 36-1 50m1-50-34 18m2-48 2-47m-2 47-2 48m4-95 2-45m33-19-33 19m62 154-35 18m35-18 37-18m45 151 38-16m-38 16 41 14m-41-14-37 15m0 0 41 14m-41-14-35 15m-45-145-35 16m270 141-37 14m37-14-38-14m38 14 37 13m-74 1-38-13m38 13 37 13m-37-13-36 13m35-41-37 15m37-15-39-14m114 41 38-14m-38 14-37 14m-75-26-36 14m36-14-39-14m114 40-36 13m-37-13-35 14m35-14-38-12m38 12 37 13m-75-25-35 13m35-13-39-13m36-15 37-15m-37 15-36 15m73-30 38-15m-69 84-38-13m38 13 37 12m-75-25-39-13m149 25-35 13m-114-38 35-13m-35 13-40-13m75 0-40-14m151-31-41-15m230-72-2-48m-311-15 1-50m200 65-1-50m1 50-40-17m-188 183-35 14m-45-143 2-48m-2 48-34 17m36-65-33 17m299-23-1-50m-259-84-32 18m291 66 40 17M1895 3l38 20m-334 199-3 48" stroke="url(#h)" stroke-width="3" stroke-miterlimit="10" stroke-linecap="round" stroke-linejoin="round"/></g><defs><radialGradient id="b" cx="0" cy="0" r="1" gradientUnits="userSpaceOnUse" gradientTransform="matrix(0 311.5 -300 0 94 235.5)"><stop stop-color="#2F2A4B"/><stop offset="1" stop-color="#15008F" stop-opacity="0"/></radialGradient><radialGradient id="d" cx="0" cy="0" r="1" gradientUnits="userSpaceOnUse" gradientTransform="matrix(0 311.5 -300 0 1249 234.5)"><stop stop-color="#2F2A4B"/><stop offset="1" stop-color="#15008F" stop-opacity="0"/></radialGradient><radialGradient id="f" cx="0" cy="0" r="1" gradientUnits="userSpaceOnUse" gradientTransform="matrix(0 -311.5 300 0 671 181.5)"><stop stop-color="#2F2A4B"/><stop offset="1" stop-color="#15008F" stop-opacity="0"/></radialGradient><radialGradient id="h" cx="0" cy="0" r="1" gradientUnits="userSpaceOnUse" gradientTransform="matrix(0 -311.5 300 0 1826 181.5)"><stop stop-color="#2F2A4B"/><stop offset="1" stop-color="#15008F" stop-opacity="0"/></radialGradient><clipPath id="a"><path fill="#fff" transform="translate(-208)" d="M0 0h604v281H0z"/></clipPath><clipPath id="c"><path fill="#fff" transform="translate(947)" d="M0 0h604v281H0z"/></clipPath><clipPath id="e"><path fill="#fff" transform="matrix(1 0 0 -1 369 281)" d="M0 0h604v281H0z"/></clipPath><clipPath id="g"><path fill="#fff" transform="matrix(1 0 0 -1 1524 281)" d="M0 0h604v281H0z"/></clipPath></defs></svg>
