<svg width="40" height="40" viewBox="0 0 40 40" fill="none" xmlns="http://www.w3.org/2000/svg">
<g id="dora/glassmorphism/bell">
<circle id="Ellipse 4" cx="20" cy="30.1875" r="5" fill="#9863E0"/>
<g id="Group 27">
<g id="Rectangle 2" filter="url(#filter0_b_535_10307)">
<path d="M10.5616 14.7931C10.6096 9.64667 14.7952 5.5 19.9418 5.5C25.1226 5.5 29.3225 9.69986 29.3225 14.8807V18V22.5952C29.3225 23.6088 29.8969 24.5348 30.805 24.9851C32.7818 25.9652 32.7818 28.7848 30.805 29.7649L29.9522 30.1877C29.538 30.3931 29.0819 30.5 28.6196 30.5H11.145C10.6653 30.5 10.1925 30.3849 9.76645 30.1645L9.01574 29.7761C7.07263 28.7707 7.07807 25.9898 9.0251 24.9921C9.91546 24.5358 10.4791 23.6232 10.4885 22.6228L10.5316 18L10.5616 14.7931Z" fill="white" fill-opacity="0.32"/>
<path d="M19.9418 5.40625C14.7438 5.40625 10.5164 9.59436 10.4678 14.7922L10.4379 17.9991L10.3947 22.622C10.3857 23.5875 9.84168 24.4683 8.98234 24.9087C6.96747 25.9412 6.96184 28.819 8.97266 29.8593L9.72337 30.2478C10.1628 30.4751 10.6503 30.5938 11.145 30.5938H28.6196C29.0964 30.5938 29.5667 30.4835 29.9939 30.2717L30.8467 29.8489C32.8929 28.8343 32.8929 25.9157 30.8467 24.9011C29.9705 24.4667 29.4162 23.5732 29.4162 22.5952V18V14.8807C29.4162 9.64809 25.1744 5.40625 19.9418 5.40625Z" stroke="url(#paint0_linear_535_10307)" stroke-opacity="0.5" stroke-width="0.1875"/>
</g>
<g id="Vector 5" filter="url(#filter1_d_535_10307)">
<path d="M20 8L20 2.375" stroke="white" stroke-width="1.5" stroke-linecap="round" stroke-linejoin="round"/>
</g>
</g>
</g>
<defs>
<filter id="filter0_b_535_10307" x="3.62402" y="1.5625" width="32.6011" height="32.875" filterUnits="userSpaceOnUse" color-interpolation-filters="sRGB">
<feFlood flood-opacity="0" result="BackgroundImageFix"/>
<feGaussianBlur in="BackgroundImageFix" stdDeviation="1.875"/>
<feComposite in2="SourceAlpha" operator="in" result="effect1_backgroundBlur_535_10307"/>
<feBlend mode="normal" in="SourceGraphic" in2="effect1_backgroundBlur_535_10307" result="shape"/>
</filter>
<filter id="filter1_d_535_10307" x="18.5" y="1.625" width="3" height="8.625" filterUnits="userSpaceOnUse" color-interpolation-filters="sRGB">
<feFlood flood-opacity="0" result="BackgroundImageFix"/>
<feColorMatrix in="SourceAlpha" type="matrix" values="0 0 0 0 0 0 0 0 0 0 0 0 0 0 0 0 0 0 127 0" result="hardAlpha"/>
<feOffset dy="0.75"/>
<feGaussianBlur stdDeviation="0.375"/>
<feComposite in2="hardAlpha" operator="out"/>
<feColorMatrix type="matrix" values="0 0 0 0 0 0 0 0 0 0 0 0 0 0 0 0 0 0 0.1 0"/>
<feBlend mode="normal" in2="BackgroundImageFix" result="effect1_dropShadow_535_10307"/>
<feBlend mode="normal" in="SourceGraphic" in2="effect1_dropShadow_535_10307" result="shape"/>
</filter>
<linearGradient id="paint0_linear_535_10307" x1="10.6484" y1="5.49996" x2="44.1012" y2="34.4582" gradientUnits="userSpaceOnUse">
<stop stop-opacity="0"/>
<stop offset="1" stop-color="white"/>
</linearGradient>
</defs>
</svg>
