<svg width="1182" height="281" viewBox="0 0 1182 281" fill="none" xmlns="http://www.w3.org/2000/svg">
<g style="mix-blend-mode:screen" clip-path="url(#clip0_5004_26355)">
<path d="M655 19L622 5M655 19L612 32M655 19L688 33M655 19L696 6M622 5L580 18M622 5L663 -8M612 32L580 18M612 32L645 47M612 32L615 82M688 33L645 47M688 33L722 48M688 33L729 20M696 6L663 -8M696 6L729 20M696 6L736 -7M580 18L583 67M663 -8L703 -20M583 67L586 115M583 67L615 82M586 115L589 162M586 115L618 130M615 82L618 130M615 82L648 97M589 162L592 208M589 162L620 178M618 130L620 178M618 130L650 146M592 208L595 253M592 208L623 225M620 178L623 225M620 178L653 194M595 253L597 298M595 253L626 270M623 225L626 270M623 225L655 241M597 298L600 341M597 298L628 315M626 270L628 315M626 270L657 288M600 341L603 384L633 402M600 341L630 359M628 315L630 359M628 315L660 333M633 402L664 421M633 402L630 359M630 359L662 377M664 421L696 440M664 421L662 377M696 440L728 460M696 440L694 396M662 377L694 396M662 377L660 333M728 460L762 481M728 460L727 416M694 396L727 416M694 396L692 351M762 481L797 502M762 481L761 436M727 416L761 436M727 416L725 370M797 502L833 524M797 502L796 456M761 436L760 390M761 436L796 456M833 524L870 546M833 524L832 478M796 456L832 478M796 456L795 410M870 546L909 525M870 546V500M832 478L870 500M832 478V431M909 525L947 504H948M909 525L910 479M870 500L869 452M870 500L910 479M948 504L985 484M948 504V459M910 479V432M910 479L948 459M985 484L1021 465M985 484L986 439M948 459L986 439M948 459L949 413M1021 465L1057 446M1021 465L1023 420M986 439L1023 420M986 439L987 393M1057 446L1091 427M1057 446L1059 402M1023 420L1059 402M1023 420L1024 375M1091 427L1125 409M1091 427L1093 384M1059 402L1060 357M1059 402L1093 384M1125 409L1157 392L1160 349M1125 409L1127 366M1093 384L1127 366M1093 384L1095 339M1160 349L1163 305M1160 349L1127 366M1127 366L1129 322M1163 305L1165 261M1163 305L1129 322M1165 261L1168 216M1165 261L1132 277M1129 322L1095 339M1129 322L1132 277M1168 216L1171 169M1168 216L1134 231M1132 277L1134 231M1132 277L1097 294M1171 169L1174 122M1171 169L1137 184M1134 231L1137 184M1134 231L1100 247M1174 122L1177 74M1174 122L1140 137M1137 184L1140 137M1137 184L1102 200M1177 74L1180 25M1177 74L1142 88M1140 137L1104 152M1140 137L1142 88M1180 25L1140 11M1180 25L1145 38M1142 88L1145 38M1142 88L1107 103M1140 11L1100 -3M1140 11L1105 24M1145 38L1109 52M1145 38L1105 24M1100 -3L1062 -16M1100 -3L1065 10M1105 24L1069 37M1105 24L1065 10M1062 -16L1025 -29M1062 -16L1027 -4M1065 10L1029 23M1065 10L1027 -4M1025 -29L989 -42M1025 -29L990 -17M1027 -4L990 -17M1027 -4L991 9M989 -42L954 -54M989 -42L954 -30M990 -17L954 -30M990 -17L954 -5M954 -54L920 -66M954 -54L919 -42M954 -30L919 -42M954 -30L918 -18M920 -66L887 -77L852 -66M920 -66L885 -54M919 -42L883 -31M919 -42L885 -54M852 -66L816 -55M852 -66L885 -54M885 -54L849 -43M816 -55L780 -44M816 -55L849 -43M780 -44L742 -32M780 -44L812 -31M849 -43L812 -31M849 -43L883 -31M742 -32L703 -20M742 -32L775 -19M812 -31L775 -19M812 -31L846 -19M703 -20L736 -7M775 -19L736 -7M775 -19L808 -6M736 -7L769 7M645 47L680 62M645 47L648 97M680 62L715 78M680 62L682 113M680 62L722 48M648 97L650 146M648 97L682 113M715 78L752 94M715 78L758 63M715 78L717 129M682 113L717 129M682 113L684 163M722 48L758 63M722 48L764 34M752 94L789 111M752 94L753 146M752 94L795 79M758 63L795 79M758 63L799 49M717 129L753 146M717 129L719 179M789 111L828 128M789 111L832 95M789 111L790 163M753 146L754 197M753 146L790 163M795 79L832 95M795 79L836 64M828 128L869 146M828 128L829 181M828 128L872 112M832 95L872 112M832 95L874 80M790 163L829 181M790 163L791 215M869 146L912 129M869 146V200M829 181L869 200M829 181L830 233M872 112L912 129M872 112L913 96M912 129V182M912 129L954 113M869 200L912 182M869 200V253M912 182V183L911 235M912 182L953 165M911 235L869 253M911 235V286M911 235L952 217M953 165L954 113M953 165L993 149M953 165L952 217M954 113V112L994 97M954 113L913 96M1109 52L1072 67M1109 52L1107 103M1109 52L1069 37M1072 67L1034 81M1072 67L1070 118M1072 67L1031 51M1107 103L1070 118M1107 103L1104 152M1069 37L1031 51M1069 37L1029 23M1034 81L994 97M1034 81L993 66M1034 81L1032 133M1070 118L1032 133M1070 118L1068 167M1031 51L992 36M1031 51L993 66M994 97L954 81M994 97L993 149M993 66L954 50M993 66L954 81M1032 133L993 149M1032 133L1030 183M954 81L915 65M954 81L913 96M993 149L992 200M913 96L874 80M869 253V304M869 253L830 233M869 304V355M869 304L911 286M869 304L830 284M830 233V284M830 233L791 215M869 355V404M869 355L911 336M869 355L831 334M911 286V336M911 286L951 267M830 284L831 334M830 284L792 265M869 404V404L831 383M869 404V452M869 404L910 384M911 336L910 384M911 336L951 317M831 334V383M831 334L793 315M831 383L794 363M831 383L832 431M869 452L832 431M869 452L910 432M910 384V432M910 384L950 365M832 431L795 410M910 432L949 413M950 365L949 413M950 365L988 347M950 365L951 317M951 317L990 299M951 317V267M793 315L757 295M793 315L792 265M793 315L794 363M794 363L758 343M794 363L795 410M1062 311L1064 264M1062 311L1026 328M1062 311L1060 357M1062 311L1097 294M1064 264L1027 281M1064 264L1100 247M1064 264L1066 216M1026 328L1027 281M1026 328L988 347M1026 328L1024 375M1060 357L1024 375M1060 357L1095 339M1097 294L1095 339M1097 294L1100 247M1027 281L1029 233M1027 281L990 299M1100 247L1102 200M1066 216L1068 167M1066 216L1029 233M1066 216L1102 200M1029 233L1030 183M1029 233L991 250M990 299L988 347M990 299L991 250M988 347L987 393M1024 375L987 393M1068 167L1030 183M1068 167L1104 152M992 36L954 22M992 36L954 50M992 36L1029 23M954 50L916 36M954 50L915 65M1030 183L992 200M657 288L660 333M657 288L690 306M657 288L655 241M655 241L688 259M655 241L653 194M758 343L757 295M758 343L724 324M758 343L760 390M757 295L722 277M757 295L756 247M724 324L722 277M724 324L690 306M724 324L725 370M760 390L725 370M760 390L795 410M722 277L720 229M722 277L688 259M756 247L754 197M756 247L720 229M756 247L792 265M720 229L719 179M720 229L686 211M688 259L690 306M688 259L686 211M690 306L692 351M725 370L692 351M754 197L719 179M754 197L791 215M836 64L874 80M836 64L877 50M836 64L799 49M799 49L840 35M799 49L764 34M719 179L684 163M954 22L917 8M954 22L916 36M954 22L991 9M917 8L879 21M917 8L954 -5M917 8L881 -5M916 36L879 21M916 36L877 50M991 9L1029 23M991 9L954 -5M879 21L843 7M879 21L840 35M954 -5L918 -18M881 -5L846 -19M881 -5L843 7M881 -5L918 -18M843 7L808 -6M843 7L804 20M840 35L877 50M840 35L804 20M877 50L915 65M846 -19L808 -6M846 -19L883 -31M808 -6L769 7M918 -18L883 -31M769 7L804 20M769 7L729 20M804 20L764 34M915 65L874 80M1104 152L1102 200M791 215L792 265M992 200L991 250M992 200L952 217M764 34L729 20M684 163L686 211M684 163L650 146M686 211L653 194M952 217L951 267M692 351L660 333M951 267L991 250M949 413L987 393M653 194L650 146" stroke="url(#paint0_radial_5004_26355)" stroke-width="3" stroke-miterlimit="10" stroke-linecap="round" stroke-linejoin="round"/>
</g>
<g style="mix-blend-mode:screen" clip-path="url(#clip1_5004_26355)">
<path d="M77 397L44 411M77 397L34 384M77 397L110 383M77 397L118 410M44 411L2 398M44 411L85 424M34 384L2 398M34 384L67 369M34 384L37 334M110 383L67 369M110 383L144 368M110 383L151 396M118 410L85 424M118 410L151 396M118 410L158 423M2 398L5 349M85 424L125 436M5 349L8 301M5 349L37 334M8 301L11 254M8 301L40 286M37 334L40 286M37 334L70 319M11 254L14 208M11 254L42 238M40 286L42 238M40 286L72 270M14 208L17 163M14 208L45 191M42 238L45 191M42 238L75 222M17 163L19 118M17 163L48 146M45 191L48 146M45 191L77 175M19 118L22 75M19 118L50 101M48 146L50 101M48 146L79 128M22 75L25 32L55 14M22 75L52 57M50 101L52 57M50 101L82 83M55 14L86 -5M55 14L52 57M52 57L84 39M86 -5L118 -24M86 -5L84 39M118 -24L150 -44M118 -24L116 20M84 39L116 20M84 39L82 83M150 -44L184 -65M150 -44L149 0M116 20L149 0M116 20L114 65M184 -65L219 -86M184 -65L183 -20M149 0L183 -20M149 0L147 46M219 -86L255 -108M219 -86L218 -40M183 -20L182 26M183 -20L218 -40M255 -108L292 -130M255 -108L254 -62M218 -40L254 -62M218 -40L217 6M292 -130L331 -109M292 -130V-84M254 -62L292 -84M254 -62V-15M331 -109L369 -88H370M331 -109L332 -63M292 -84L291 -36M292 -84L332 -63M370 -88L407 -68M370 -88V-43M332 -63V-16M332 -63L370 -43M407 -68L443 -49M407 -68L408 -23M370 -43L408 -23M370 -43L371 3M443 -49L479 -30M443 -49L445 -4M408 -23L445 -4M408 -23L409 23M479 -30L513 -11M479 -30L481 14M445 -4L481 14M445 -4L446 41M513 -11L547 7M513 -11L515 32M481 14L482 59M481 14L515 32M547 7L579 24L582 67M547 7L549 50M515 32L549 50M515 32L517 77M582 67L585 111M582 67L549 50M549 50L551 94M585 111L587 155M585 111L551 94M587 155L590 200M587 155L554 139M551 94L517 77M551 94L554 139M590 200L593 247M590 200L556 185M554 139L556 185M554 139L519 122M593 247L596 294M593 247L559 232M556 185L559 232M556 185L522 169M596 294L599 342M596 294L562 279M559 232L562 279M559 232L524 216M599 342L602 391M599 342L564 328M562 279L526 264M562 279L564 328M602 391L562 405M602 391L567 378M564 328L567 378M564 328L529 313M562 405L522 419M562 405L527 392M567 378L531 364M567 378L527 392M522 419L484 432M522 419L487 406M527 392L491 379M527 392L487 406M484 432L447 445M484 432L449 420M487 406L451 393M487 406L449 420M447 445L411 458M447 445L412 433M449 420L412 433M449 420L413 407M411 458L376 470M411 458L376 446M412 433L376 446M412 433L376 421M376 470L342 482M376 470L341 458M376 446L341 458M376 446L340 434M342 482L309 493L274 482M342 482L307 470M341 458L305 447M341 458L307 470M274 482L238 471M274 482L307 470M307 470L271 459M238 471L202 460M238 471L271 459M202 460L164 448M202 460L234 447M271 459L234 447M271 459L305 447M164 448L125 436M164 448L197 435M234 447L197 435M234 447L268 435M125 436L158 423M197 435L158 423M197 435L230 422M158 423L191 409M67 369L102 354M67 369L70 319M102 354L137 338M102 354L104 303M102 354L144 368M70 319L72 270M70 319L104 303M137 338L174 322M137 338L180 353M137 338L139 287M104 303L139 287M104 303L106 253M144 368L180 353M144 368L186 382M174 322L211 305M174 322L175 270M174 322L217 337M180 353L217 337M180 353L221 367M139 287L175 270M139 287L141 237M211 305L250 288M211 305L254 321M211 305L212 253M175 270L176 219M175 270L212 253M217 337L254 321M217 337L258 352M250 288L291 270M250 288L251 235M250 288L294 304M254 321L294 304M254 321L296 336M212 253L251 235M212 253L213 201M291 270L334 287M291 270V216M251 235L291 216M251 235L252 183M294 304L334 287M294 304L335 320M334 287V234M334 287L376 303M291 216L334 234M291 216V163M334 234V233L333 181M334 234L375 251M333 181L291 163M333 181V130M333 181L374 199M375 251L376 303M375 251L415 267M375 251L374 199M376 303V304L416 319M376 303L335 320M531 364L494 349M531 364L529 313M531 364L491 379M494 349L456 335M494 349L492 298M494 349L453 365M529 313L492 298M529 313L526 264M491 379L453 365M491 379L451 393M456 335L416 319M456 335L415 350M456 335L454 283M492 298L454 283M492 298L490 249M453 365L414 380M453 365L415 350M416 319L376 335M416 319L415 267M415 350L376 366M415 350L376 335M454 283L415 267M454 283L452 233M376 335L337 351M376 335L335 320M415 267L414 216M335 320L296 336M291 163V112M291 163L252 183M291 112V61M291 112L333 130M291 112L252 132M252 183V132M252 183L213 201M291 61V12M291 61L333 80M291 61L253 82M333 130V80M333 130L373 149M252 132L253 82M252 132L214 151M291 12V12L253 33M291 12V-36M291 12L332 32M333 80L332 32M333 80L373 99M253 82V33M253 82L215 101M253 33L216 53M253 33L254 -15M291 -36L254 -15M291 -36L332 -16M332 32V-16M332 32L372 51M254 -15L217 6M332 -16L371 3M372 51L371 3M372 51L410 69M372 51L373 99M373 99L412 117M373 99V149M215 101L179 121M215 101L214 151M215 101L216 53M216 53L180 73M216 53L217 6M484 105L486 152M484 105L448 88M484 105L482 59M484 105L519 122M486 152L449 135M486 152L522 169M486 152L488 200M448 88L449 135M448 88L410 69M448 88L446 41M482 59L446 41M482 59L517 77M519 122L517 77M519 122L522 169M449 135L451 183M449 135L412 117M522 169L524 216M488 200L490 249M488 200L451 183M488 200L524 216M451 183L452 233M451 183L413 166M412 117L410 69M412 117L413 166M410 69L409 23M446 41L409 23M490 249L452 233M490 249L526 264M414 380L376 394M414 380L376 366M414 380L451 393M376 366L338 380M376 366L337 351M452 233L414 216M79 128L82 83M79 128L112 110M79 128L77 175M77 175L110 157M77 175L75 222M180 73L179 121M180 73L146 92M180 73L182 26M179 121L144 139M179 121L178 169M146 92L144 139M146 92L112 110M146 92L147 46M182 26L147 46M182 26L217 6M144 139L142 187M144 139L110 157M178 169L176 219M178 169L142 187M178 169L214 151M142 187L141 237M142 187L108 205M110 157L112 110M110 157L108 205M112 110L114 65M147 46L114 65M176 219L141 237M176 219L213 201M258 352L296 336M258 352L299 366M258 352L221 367M221 367L262 381M221 367L186 382M141 237L106 253M376 394L339 408M376 394L338 380M376 394L413 407M339 408L301 395M339 408L376 421M339 408L303 421M338 380L301 395M338 380L299 366M413 407L451 393M413 407L376 421M301 395L265 409M301 395L262 381M376 421L340 434M303 421L268 435M303 421L265 409M303 421L340 434M265 409L230 422M265 409L226 396M262 381L299 366M262 381L226 396M299 366L337 351M268 435L230 422M268 435L305 447M230 422L191 409M340 434L305 447M191 409L226 396M191 409L151 396M226 396L186 382M337 351L296 336M526 264L524 216M213 201L214 151M414 216L413 166M414 216L374 199M186 382L151 396M106 253L108 205M106 253L72 270M108 205L75 222M374 199L373 149M114 65L82 83M373 149L413 166M371 3L409 23M75 222L72 270" stroke="url(#paint1_radial_5004_26355)" stroke-width="3" stroke-miterlimit="10" stroke-linecap="round" stroke-linejoin="round"/>
</g>
<defs>
<radialGradient id="paint0_radial_5004_26355" cx="0" cy="0" r="1" gradientUnits="userSpaceOnUse" gradientTransform="translate(880 234.5) rotate(90) scale(311.5 300)">
<stop stop-color="#2F2A4B"/>
<stop offset="1" stop-color="#15008F" stop-opacity="0"/>
</radialGradient>
<radialGradient id="paint1_radial_5004_26355" cx="0" cy="0" r="1" gradientUnits="userSpaceOnUse" gradientTransform="translate(302 181.5) rotate(-90) scale(311.5 300)">
<stop stop-color="#2F2A4B"/>
<stop offset="1" stop-color="#15008F" stop-opacity="0"/>
</radialGradient>
<clipPath id="clip0_5004_26355">
<rect width="604" height="281" fill="white" transform="translate(578)"/>
</clipPath>
<clipPath id="clip1_5004_26355">
<rect width="604" height="281" fill="white" transform="matrix(1 0 0 -1 0 281)"/>
</clipPath>
</defs>
</svg>
