<svg width="1920" height="2216" viewBox="0 0 1920 2216" fill="none" xmlns="http://www.w3.org/2000/svg">
<path fill-rule="evenodd" clip-rule="evenodd" d="M9.89249 1552.6C-133.901 1343.84 -249.733 1115.06 -228.148 860.249C-201.545 546.207 -320.711 163.705 -25.8039 36.6999C268.003 -89.832 734.562 207.519 1045.55 264.759C1406.78 331.243 1798.49 116.179 2054.82 371.957C2319.1 635.657 2244.58 1097.57 2110.72 1452.01C1986.83 1780.04 1715.06 2055.27 1377.97 2164.12C1087.3 2257.99 804.952 2084.7 530.861 1962.18C320.02 1867.93 139.687 1741.03 9.89249 1552.6Z" fill="url(#paint0_linear_3053_26525)"/>
<path fill-rule="evenodd" clip-rule="evenodd" d="M-8.10195 1568.27C-152.978 1357.64 -269.907 1126.96 -249.221 870.591C-223.727 554.629 -344.568 169.227 -49.5 42.4994C244.467 -83.7554 713.129 217.238 1025 276C1387.24 344.252 1778.99 129.259 2036.83 387.632C2302.65 654.008 2229.68 1118.61 2096.85 1474.83C1973.91 1804.52 1702.59 2080.5 1365.18 2188.81C1074.23 2282.2 790.636 2106.74 515.502 1982.42C303.86 1886.79 122.67 1758.4 -8.10195 1568.27Z" fill="url(#paint1_linear_3053_26525)"/>
<defs>
<linearGradient id="paint0_linear_3053_26525" x1="831.708" y1="1585.63" x2="379.522" y2="-130.213" gradientUnits="userSpaceOnUse">
<stop offset="0.117494" stop-color="#AAAAAA"/>
<stop offset="0.959351" stop-color="#3732BD"/>
<stop offset="1" stop-color="#3732BD"/>
</linearGradient>
<linearGradient id="paint1_linear_3053_26525" x1="815.597" y1="1604.56" x2="363.563" y2="-125.938" gradientUnits="userSpaceOnUse">
<stop offset="0.117494" stop-color="#070C29"/>
<stop offset="0.959351" stop-color="#3732BD"/>
<stop offset="1" stop-color="#3732BD"/>
</linearGradient>
</defs>
</svg>
