<svg width="85" height="85" fill="none" xmlns="http://www.w3.org/2000/svg"><g clip-path="url(#a)"><g filter="url(#b)"><path d="m48.674 70.975-23.172-4.81a2.958 2.958 0 0 1-1.475-5.005L39.22 46.185a3.071 3.071 0 0 1 4.82 1.001l7.978 19.785a2.958 2.958 0 0 1-3.345 4.004Z" fill="url(#c)"/></g><g filter="url(#d)"><path d="m68.188 20.64-40.552-8.418a8.875 8.875 0 0 0-10.494 6.886L11.73 45.177a8.875 8.875 0 0 0 6.886 10.493l40.552 8.419a8.875 8.875 0 0 0 10.494-6.886l5.412-26.07a8.875 8.875 0 0 0-6.886-10.493Z" fill="#fff" fill-opacity=".2"/></g></g><defs><filter id="b" x="21.144" y="43.413" width="33.09" height="29.623" filterUnits="userSpaceOnUse" color-interpolation-filters="sRGB"><feFlood flood-opacity="0" result="BackgroundImageFix"/><feColorMatrix in="SourceAlpha" values="0 0 0 0 0 0 0 0 0 0 0 0 0 0 0 0 0 0 127 0" result="hardAlpha"/><feOffset/><feGaussianBlur stdDeviation="1"/><feComposite in2="hardAlpha" operator="out"/><feColorMatrix values="0 0 0 0 0.12549 0 0 0 0 0.447059 0 0 0 0 0.996078 0 0 0 0.5 0"/><feBlend in2="BackgroundImageFix" result="effect1_dropShadow_347_1429"/><feBlend in="SourceGraphic" in2="effect1_dropShadow_347_1429" result="shape"/></filter><filter id="d" x="7.543" y="8.035" width="71.718" height="60.241" filterUnits="userSpaceOnUse" color-interpolation-filters="sRGB"><feFlood flood-opacity="0" result="BackgroundImageFix"/><feGaussianBlur in="BackgroundImageFix" stdDeviation="2"/><feComposite in2="SourceAlpha" operator="in" result="effect1_backgroundBlur_347_1429"/><feBlend in="SourceGraphic" in2="effect1_backgroundBlur_347_1429" result="shape"/><feColorMatrix in="SourceAlpha" values="0 0 0 0 0 0 0 0 0 0 0 0 0 0 0 0 0 0 127 0" result="hardAlpha"/><feOffset dy="-4"/><feGaussianBlur stdDeviation="2"/><feComposite in2="hardAlpha" operator="arithmetic" k2="-1" k3="1"/><feColorMatrix values="0 0 0 0 1 0 0 0 0 1 0 0 0 0 1 0 0 0 0.05 0"/><feBlend in2="shape" result="effect2_innerShadow_347_1429"/><feColorMatrix in="SourceAlpha" values="0 0 0 0 0 0 0 0 0 0 0 0 0 0 0 0 0 0 127 0" result="hardAlpha"/><feOffset dx="-4" dy="-4"/><feGaussianBlur stdDeviation="2"/><feComposite in2="hardAlpha" operator="arithmetic" k2="-1" k3="1"/><feColorMatrix values="0 0 0 0 1 0 0 0 0 1 0 0 0 0 1 0 0 0 0.05 0"/><feBlend in2="effect2_innerShadow_347_1429" result="effect3_innerShadow_347_1429"/></filter><linearGradient id="c" x1="41.882" y1="45.477" x2="37.088" y2="68.569" gradientUnits="userSpaceOnUse"><stop offset=".451" stop-color="#fff"/><stop offset="1" stop-color="#fff"/></linearGradient><clipPath id="a"><path fill="#fff" transform="rotate(11.728 4.92 73.078)" d="M0 0h71v71H0z"/></clipPath></defs></svg>
