<svg width="40" height="40" fill="none" xmlns="http://www.w3.org/2000/svg"><path fill-rule="evenodd" clip-rule="evenodd" d="M6.8 22.936c.535-1.43 2.016-2.425 3.557-2.43l3.834.003c1.067-.003 2.044.289 2.74 1.083l3.562 4.057c.8.914 1.155 2.344.824 3.514-.33 1.17-1.295 2.047-2.463 2.43L8.724 35.1c-1.34.44-2.856-.087-3.834-1.084-.977-.997-1.04-2.476-.55-3.784l2.46-7.296Z" fill="url(#a)"/><g filter="url(#b)"><path d="M39.597 17.136c0 9.45-7.841 17.11-17.514 17.11-9.672 0-17.514-7.66-17.514-17.11C4.57 7.687 12.411.027 22.083.027c9.673 0 17.514 7.66 17.514 17.11Z" fill="#fff" fill-opacity=".03"/></g><g filter="url(#c)"><ellipse cx="22.272" cy="17.331" rx="1.713" ry="1.75" fill="#fff" fill-opacity=".1"/></g><g filter="url(#d)"><ellipse cx="29.126" cy="17.331" rx="1.713" ry="1.75" fill="#fff" fill-opacity=".1"/></g><g filter="url(#e)"><ellipse cx="15.419" cy="17.331" rx="1.713" ry="1.75" fill="#fff" fill-opacity=".1"/></g><defs><filter id="b" x="-30.333" y="-34.875" width="104.833" height="104.023" filterUnits="userSpaceOnUse" color-interpolation-filters="sRGB"><feFlood flood-opacity="0" result="BackgroundImageFix"/><feGaussianBlur in="BackgroundImageFix" stdDeviation="17.451"/><feComposite in2="SourceAlpha" operator="in" result="effect1_backgroundBlur_347_1449"/><feBlend in="SourceGraphic" in2="effect1_backgroundBlur_347_1449" result="shape"/><feColorMatrix in="SourceAlpha" values="0 0 0 0 0 0 0 0 0 0 0 0 0 0 0 0 0 0 127 0" result="hardAlpha"/><feOffset dy="1.745"/><feGaussianBlur stdDeviation=".873"/><feComposite in2="hardAlpha" operator="arithmetic" k2="-1" k3="1"/><feColorMatrix values="0 0 0 0 1 0 0 0 0 1 0 0 0 0 1 0 0 0 0.15 0"/><feBlend in2="shape" result="effect2_innerShadow_347_1449"/><feColorMatrix in="SourceAlpha" values="0 0 0 0 0 0 0 0 0 0 0 0 0 0 0 0 0 0 127 0" result="hardAlpha"/><feOffset/><feGaussianBlur stdDeviation="13.088"/><feComposite in2="hardAlpha" operator="arithmetic" k2="-1" k3="1"/><feColorMatrix values="0 0 0 0 1 0 0 0 0 1 0 0 0 0 1 0 0 0 0.05 0"/><feBlend in2="effect2_innerShadow_347_1449" result="effect3_innerShadow_347_1449"/></filter><filter id="c" x="20.559" y="15.581" width="3.427" height="5.245" filterUnits="userSpaceOnUse" color-interpolation-filters="sRGB"><feFlood flood-opacity="0" result="BackgroundImageFix"/><feBlend in="SourceGraphic" in2="BackgroundImageFix" result="shape"/><feColorMatrix in="SourceAlpha" values="0 0 0 0 0 0 0 0 0 0 0 0 0 0 0 0 0 0 127 0" result="hardAlpha"/><feOffset dy="1.745"/><feGaussianBlur stdDeviation=".873"/><feComposite in2="hardAlpha" operator="arithmetic" k2="-1" k3="1"/><feColorMatrix values="0 0 0 0 1 0 0 0 0 1 0 0 0 0 1 0 0 0 0.15 0"/><feBlend in2="shape" result="effect1_innerShadow_347_1449"/></filter><filter id="d" x="27.413" y="15.581" width="3.427" height="5.245" filterUnits="userSpaceOnUse" color-interpolation-filters="sRGB"><feFlood flood-opacity="0" result="BackgroundImageFix"/><feBlend in="SourceGraphic" in2="BackgroundImageFix" result="shape"/><feColorMatrix in="SourceAlpha" values="0 0 0 0 0 0 0 0 0 0 0 0 0 0 0 0 0 0 127 0" result="hardAlpha"/><feOffset dy="1.745"/><feGaussianBlur stdDeviation=".873"/><feComposite in2="hardAlpha" operator="arithmetic" k2="-1" k3="1"/><feColorMatrix values="0 0 0 0 1 0 0 0 0 1 0 0 0 0 1 0 0 0 0.15 0"/><feBlend in2="shape" result="effect1_innerShadow_347_1449"/></filter><filter id="e" x="13.706" y="15.581" width="3.427" height="5.245" filterUnits="userSpaceOnUse" color-interpolation-filters="sRGB"><feFlood flood-opacity="0" result="BackgroundImageFix"/><feBlend in="SourceGraphic" in2="BackgroundImageFix" result="shape"/><feColorMatrix in="SourceAlpha" values="0 0 0 0 0 0 0 0 0 0 0 0 0 0 0 0 0 0 127 0" result="hardAlpha"/><feOffset dy="1.745"/><feGaussianBlur stdDeviation=".873"/><feComposite in2="hardAlpha" operator="arithmetic" k2="-1" k3="1"/><feColorMatrix values="0 0 0 0 1 0 0 0 0 1 0 0 0 0 1 0 0 0 0.15 0"/><feBlend in2="shape" result="effect1_innerShadow_347_1449"/></filter><linearGradient id="a" x1="0" y1="29.19" x2="20.53" y2="20.983" gradientUnits="userSpaceOnUse"><stop stop-color="#fff" stop-opacity=".2"/><stop offset="1" stop-color="#fff"/></linearGradient></defs></svg>
