<svg width="47" height="50" fill="none" xmlns="http://www.w3.org/2000/svg"><g filter="url(#a)"><rect width="47" height="47" rx="13.823" fill="#070C29"/><rect x=".173" y=".173" width="46.654" height="46.654" rx="13.651" stroke="url(#b)" stroke-width=".346"/><rect x=".173" y=".173" width="46.654" height="46.654" rx="13.651" stroke="url(#c)" stroke-width=".346"/></g><g filter="url(#d)"><path d="m19.686 34.373.183.538c.633 1.867 2.638 2.86 4.478 2.217 1.84-.643 2.818-2.677 2.184-4.544l-.183-.538m-5.147-19.778-.46-1.354c-.507-1.493-2.11-2.287-3.583-1.772-1.47.515-2.253 2.142-1.748 3.635l.46 1.354m-2.356 8.255c-1.253-3.69.68-7.714 4.318-8.985l2.635-.92c3.637-1.272 7.602.69 8.855 4.382l1.398 4.124a3.104 3.104 0 0 0 1.56 1.788l1.252.62a3.103 3.103 0 0 1 1.559 1.787c.523 1.54-.285 3.218-1.802 3.748l-15.58 5.444c-1.517.53-3.171-.288-3.694-1.828a3.164 3.164 0 0 1 .143-2.383l.61-1.272c.358-.744.41-1.6.143-2.383l-1.397-4.122Z" stroke="url(#e)" stroke-width="2.765" stroke-linecap="round" stroke-linejoin="round"/></g><defs><linearGradient id="b" x1="8.294" y1="42.507" x2="43.489" y2="5.132" gradientUnits="userSpaceOnUse"><stop stop-color="#070B29"/><stop offset="1" stop-color="#fff" stop-opacity="0"/></linearGradient><linearGradient id="c" x1="8.294" y1="42.507" x2="43.489" y2="5.132" gradientUnits="userSpaceOnUse"><stop stop-color="#fff" stop-opacity="0"/><stop offset="1" stop-color="#fff" stop-opacity=".16"/></linearGradient><linearGradient id="e" x1="27.301" y1=".13" x2="11.504" y2="71.311" gradientUnits="userSpaceOnUse"><stop stop-color="#fff" stop-opacity=".88"/><stop offset="1" stop-color="#fff" stop-opacity="0"/></linearGradient><filter id="a" x="-16.588" y="-16.588" width="80.177" height="80.177" filterUnits="userSpaceOnUse" color-interpolation-filters="sRGB"><feFlood flood-opacity="0" result="BackgroundImageFix"/><feGaussianBlur in="BackgroundImageFix" stdDeviation="8.294"/><feComposite in2="SourceAlpha" operator="in" result="effect1_backgroundBlur_348_2168"/><feBlend in="SourceGraphic" in2="effect1_backgroundBlur_348_2168" result="shape"/></filter><filter id="d" x="2.074" y="-2.074" width="44.926" height="51.149" filterUnits="userSpaceOnUse" color-interpolation-filters="sRGB"><feFlood flood-opacity="0" result="BackgroundImageFix"/><feGaussianBlur in="BackgroundImageFix" stdDeviation="4.838"/><feComposite in2="SourceAlpha" operator="in" result="effect1_backgroundBlur_348_2168"/><feColorMatrix in="SourceAlpha" values="0 0 0 0 0 0 0 0 0 0 0 0 0 0 0 0 0 0 127 0" result="hardAlpha"/><feOffset dx="3.456" dy="3.456"/><feGaussianBlur stdDeviation="3.456"/><feColorMatrix values="0 0 0 0 0.879167 0 0 0 0 0.337014 0 0 0 0 0.368217 0 0 0 0.12 0"/><feBlend in2="effect1_backgroundBlur_348_2168" result="effect2_dropShadow_348_2168"/><feBlend in="SourceGraphic" in2="effect2_dropShadow_348_2168" result="shape"/><feColorMatrix in="SourceAlpha" values="0 0 0 0 0 0 0 0 0 0 0 0 0 0 0 0 0 0 127 0" result="hardAlpha"/><feOffset dy=".138"/><feComposite in2="hardAlpha" operator="arithmetic" k2="-1" k3="1"/><feColorMatrix values="0 0 0 0 1 0 0 0 0 1 0 0 0 0 1 0 0 0 0.25 0"/><feBlend in2="shape" result="effect3_innerShadow_348_2168"/><feColorMatrix in="SourceAlpha" values="0 0 0 0 0 0 0 0 0 0 0 0 0 0 0 0 0 0 127 0" result="hardAlpha"/><feOffset dy="-.138"/><feComposite in2="hardAlpha" operator="arithmetic" k2="-1" k3="1"/><feColorMatrix values="0 0 0 0 0 0 0 0 0 0 0 0 0 0 0 0 0 0 0.25 0"/><feBlend in2="effect3_innerShadow_348_2168" result="effect4_innerShadow_348_2168"/></filter></defs></svg>
