<svg width="419" height="194" fill="none" xmlns="http://www.w3.org/2000/svg"><ellipse cx="362" cy="56" rx="57" ry="56" fill="url(#a)" fill-opacity=".4"/><path fill-rule="evenodd" clip-rule="evenodd" d="M318.128 77.724c-2.833-2.71-2.902-7.556 0-10.332l17.282-16.531c2.903-2.777 7.968-2.711 10.802 0 2.833 2.71 2.362 7.038-.54 9.815L328.39 77.207c-2.903 2.777-7.428 3.227-10.262.517Z" fill="url(#b)"/><g filter="url(#c)"><path d="m372.517 24.692-45.563 43.37-19.4-18.673c-2.846-2.718-1.639-7.202 2.244-8.222l62.719-16.475Z" fill="#fff" fill-opacity=".19"/></g><g filter="url(#d)"><path d="M373.264 24.703 327.652 68.09l19.421 18.682c2.859 2.726 7.897 1.472 8.97-2.248l17.221-59.822Z" fill="#fff" fill-opacity=".19"/></g><path d="M1.086 171.644C5.608 178.319 11.7 181.98 19.4 184.25c14.19 4.184 29.212 6.366 43.953 7.326 32.395 2.11 66.648 2.399 98.809-2.47 9.979-1.511 26.064-1.874 31.005-12.692 3.527-7.721 5.368-15.976 8.178-23.936 10.954-31.036 48.469-35.786 74.873-48.638 15.383-7.487 31.391-13.333 43.783-25.724" stroke="#515784" stroke-linecap="round" stroke-dasharray="6 6"/><defs><filter id="c" x="272.094" y="-9.204" width="134.318" height="111.162" filterUnits="userSpaceOnUse" color-interpolation-filters="sRGB"><feFlood flood-opacity="0" result="BackgroundImageFix"/><feGaussianBlur in="BackgroundImageFix" stdDeviation="16.948"/><feComposite in2="SourceAlpha" operator="in" result="effect1_backgroundBlur_446_47373"/><feBlend in="SourceGraphic" in2="effect1_backgroundBlur_446_47373" result="shape"/><feColorMatrix in="SourceAlpha" values="0 0 0 0 0 0 0 0 0 0 0 0 0 0 0 0 0 0 127 0" result="hardAlpha"/><feOffset dy="1.695"/><feGaussianBlur stdDeviation=".847"/><feComposite in2="hardAlpha" operator="arithmetic" k2="-1" k3="1"/><feColorMatrix values="0 0 0 0 1 0 0 0 0 1 0 0 0 0 1 0 0 0 0.15 0"/><feBlend in2="shape" result="effect2_innerShadow_446_47373"/><feColorMatrix in="SourceAlpha" values="0 0 0 0 0 0 0 0 0 0 0 0 0 0 0 0 0 0 127 0" result="hardAlpha"/><feOffset/><feGaussianBlur stdDeviation="12.711"/><feComposite in2="hardAlpha" operator="arithmetic" k2="-1" k3="1"/><feColorMatrix values="0 0 0 0 1 0 0 0 0 1 0 0 0 0 1 0 0 0 0.05 0"/><feBlend in2="effect2_innerShadow_446_47373" result="effect3_innerShadow_446_47373"/></filter><filter id="d" x="293.756" y="-9.193" width="113.403" height="131.329" filterUnits="userSpaceOnUse" color-interpolation-filters="sRGB"><feFlood flood-opacity="0" result="BackgroundImageFix"/><feGaussianBlur in="BackgroundImageFix" stdDeviation="16.948"/><feComposite in2="SourceAlpha" operator="in" result="effect1_backgroundBlur_446_47373"/><feBlend in="SourceGraphic" in2="effect1_backgroundBlur_446_47373" result="shape"/><feColorMatrix in="SourceAlpha" values="0 0 0 0 0 0 0 0 0 0 0 0 0 0 0 0 0 0 127 0" result="hardAlpha"/><feOffset dy="1.695"/><feGaussianBlur stdDeviation=".847"/><feComposite in2="hardAlpha" operator="arithmetic" k2="-1" k3="1"/><feColorMatrix values="0 0 0 0 1 0 0 0 0 1 0 0 0 0 1 0 0 0 0.15 0"/><feBlend in2="shape" result="effect2_innerShadow_446_47373"/><feColorMatrix in="SourceAlpha" values="0 0 0 0 0 0 0 0 0 0 0 0 0 0 0 0 0 0 127 0" result="hardAlpha"/><feOffset/><feGaussianBlur stdDeviation="12.711"/><feComposite in2="hardAlpha" operator="arithmetic" k2="-1" k3="1"/><feColorMatrix values="0 0 0 0 1 0 0 0 0 1 0 0 0 0 1 0 0 0 0.05 0"/><feBlend in2="effect2_innerShadow_446_47373" result="effect3_innerShadow_446_47373"/></filter><radialGradient id="a" cx="0" cy="0" r="1" gradientUnits="userSpaceOnUse" gradientTransform="matrix(0 56 -57 0 362 56)"><stop offset=".25" stop-color="#4B30B3" stop-opacity=".64"/><stop offset="1" stop-color="#5037AD" stop-opacity="0"/></radialGradient><linearGradient id="b" x1="312.727" y1="72.558" x2="350.555" y2="73.637" gradientUnits="userSpaceOnUse"><stop stop-color="#fff" stop-opacity=".12"/><stop offset="1" stop-color="#fff"/></linearGradient></defs></svg>
