<svg width="85" height="85" fill="none" xmlns="http://www.w3.org/2000/svg"><path d="M53.741 60.746a2.497 2.497 0 0 1-3.549 1.247l-9.615-7.473-6.17 5.695a1.063 1.063 0 0 1-1.01.138l1.184-10.586.035.032.025-.209s17.301-15.753 18.006-16.423c.715-.67.478-.814.478-.814.042-.815-1.279 0-1.279 0L28.921 47.1l-9.545-3.251s-1.466-.524-1.604-1.682c-.145-1.148 1.65-1.771 1.65-1.771l37.957-15.08s3.12-1.389 3.12.913L53.74 60.746Z" fill="#fff" fill-opacity=".68"/><g filter="url(#a)"><path d="M42.479 7.083C22.919 7.083 7.062 22.94 7.062 42.5c0 19.56 15.856 35.417 35.417 35.417 19.56 0 35.416-15.856 35.416-35.417 0-19.56-15.856-35.416-35.416-35.416ZM53.74 60.748a2.496 2.496 0 0 1-3.549 1.246l-9.615-7.472-6.17 5.695a1.063 1.063 0 0 1-1.01.138l1.184-10.586.035.032.025-.21s17.301-15.753 18.006-16.422c.715-.67.478-.815.478-.815.042-.814-1.279 0-1.279 0L28.921 47.101l-9.545-3.252s-1.466-.527-1.604-1.682c-.145-1.147 1.65-1.77 1.65-1.77L57.38 25.315s3.12-1.388 3.12.914L53.74 60.747Z" fill="#fff" fill-opacity=".1"/></g><defs><filter id="a" x="-.071" y="-.05" width="85.1" height="85.1" filterUnits="userSpaceOnUse" color-interpolation-filters="sRGB"><feFlood flood-opacity="0" result="BackgroundImageFix"/><feGaussianBlur in="BackgroundImageFix" stdDeviation="3.567"/><feComposite in2="SourceAlpha" operator="in" result="effect1_backgroundBlur_347_1470"/><feBlend in="SourceGraphic" in2="effect1_backgroundBlur_347_1470" result="shape"/><feColorMatrix in="SourceAlpha" values="0 0 0 0 0 0 0 0 0 0 0 0 0 0 0 0 0 0 127 0" result="hardAlpha"/><feOffset dy="-7.133"/><feGaussianBlur stdDeviation="3.567"/><feComposite in2="hardAlpha" operator="arithmetic" k2="-1" k3="1"/><feColorMatrix values="0 0 0 0 1 0 0 0 0 1 0 0 0 0 1 0 0 0 0.05 0"/><feBlend in2="shape" result="effect2_innerShadow_347_1470"/><feColorMatrix in="SourceAlpha" values="0 0 0 0 0 0 0 0 0 0 0 0 0 0 0 0 0 0 127 0" result="hardAlpha"/><feOffset dx="-7.133" dy="-7.133"/><feGaussianBlur stdDeviation="3.567"/><feComposite in2="hardAlpha" operator="arithmetic" k2="-1" k3="1"/><feColorMatrix values="0 0 0 0 1 0 0 0 0 1 0 0 0 0 1 0 0 0 0.05 0"/><feBlend in2="effect2_innerShadow_347_1470" result="effect3_innerShadow_347_1470"/></filter></defs></svg>
