<svg width="121" height="118" viewBox="0 0 121 118" fill="none" xmlns="http://www.w3.org/2000/svg">
<ellipse cx="60.2103" cy="59" rx="60.2103" ry="59" fill="url(#paint0_radial_446_47385)" fill-opacity="0.4"/>
<path d="M73.7412 80.7462C73.609 81.0771 73.4076 81.3758 73.1504 81.6224C72.8932 81.869 72.5862 82.0576 72.25 82.1757C71.9139 82.2938 71.5563 82.3386 71.2014 82.3071C70.8465 82.2755 70.5025 82.1684 70.1924 81.9929L60.5768 74.52L54.4072 80.215C54.264 80.3207 54.0965 80.3887 53.9202 80.4129C53.7438 80.437 53.5642 80.4165 53.3979 80.3531L54.5808 69.767L54.6162 69.7989L54.641 69.59C54.641 69.59 71.942 53.8366 72.6468 53.1672C73.3622 52.4979 73.1249 52.3527 73.1249 52.3527C73.1674 51.5381 71.8464 52.3527 71.8464 52.3527L48.9212 67.1002L39.3764 63.8489C39.3764 63.8489 37.9102 63.3247 37.772 62.1666C37.6268 61.0191 39.4224 60.3958 39.4224 60.3958L77.3785 45.3154C77.3785 45.3154 80.4987 43.927 80.4987 46.2291L73.7412 80.7462Z" fill="white" fill-opacity="0.68"/>
<g filter="url(#filter0_bii_446_47385)">
<path d="M62.4787 27.0835C42.9181 27.0835 27.062 42.9395 27.062 62.5002C27.062 82.0608 42.9181 97.9168 62.4787 97.9168C82.0393 97.9168 97.8953 82.0608 97.8953 62.5002C97.8953 42.9395 82.0393 27.0835 62.4787 27.0835ZM73.7412 80.7468C73.609 81.0777 73.4076 81.3765 73.1504 81.623C72.8932 81.8696 72.5862 82.0583 72.25 82.1764C71.9139 82.2944 71.5563 82.3392 71.2014 82.3077C70.8465 82.2761 70.5025 82.169 70.1924 81.9935L60.5768 74.5206L54.4072 80.2156C54.264 80.3213 54.0965 80.3894 53.9202 80.4135C53.7438 80.4376 53.5642 80.4171 53.3978 80.3537L54.5808 69.7677L54.6162 69.7995L54.641 69.5906C54.641 69.5906 71.942 53.8372 72.6468 53.1679C73.3622 52.4985 73.1249 52.3533 73.1249 52.3533C73.1674 51.5387 71.8464 52.3533 71.8464 52.3533L48.9212 67.1008L39.3764 63.8495C39.3764 63.8495 37.9101 63.3218 37.772 62.1672C37.6268 61.0197 39.4224 60.3964 39.4224 60.3964L77.3785 45.316C77.3785 45.316 80.4987 43.9277 80.4987 46.2297L73.7412 80.7468Z" fill="white" fill-opacity="0.1"/>
</g>
<defs>
<filter id="filter0_bii_446_47385" x="23.062" y="23.0835" width="78.8335" height="78.8333" filterUnits="userSpaceOnUse" color-interpolation-filters="sRGB">
<feFlood flood-opacity="0" result="BackgroundImageFix"/>
<feGaussianBlur in="BackgroundImageFix" stdDeviation="2"/>
<feComposite in2="SourceAlpha" operator="in" result="effect1_backgroundBlur_446_47385"/>
<feBlend mode="normal" in="SourceGraphic" in2="effect1_backgroundBlur_446_47385" result="shape"/>
<feColorMatrix in="SourceAlpha" type="matrix" values="0 0 0 0 0 0 0 0 0 0 0 0 0 0 0 0 0 0 127 0" result="hardAlpha"/>
<feOffset dy="-4"/>
<feGaussianBlur stdDeviation="2"/>
<feComposite in2="hardAlpha" operator="arithmetic" k2="-1" k3="1"/>
<feColorMatrix type="matrix" values="0 0 0 0 1 0 0 0 0 1 0 0 0 0 1 0 0 0 0.05 0"/>
<feBlend mode="normal" in2="shape" result="effect2_innerShadow_446_47385"/>
<feColorMatrix in="SourceAlpha" type="matrix" values="0 0 0 0 0 0 0 0 0 0 0 0 0 0 0 0 0 0 127 0" result="hardAlpha"/>
<feOffset dx="-4" dy="-4"/>
<feGaussianBlur stdDeviation="2"/>
<feComposite in2="hardAlpha" operator="arithmetic" k2="-1" k3="1"/>
<feColorMatrix type="matrix" values="0 0 0 0 1 0 0 0 0 1 0 0 0 0 1 0 0 0 0.05 0"/>
<feBlend mode="normal" in2="effect2_innerShadow_446_47385" result="effect3_innerShadow_446_47385"/>
</filter>
<radialGradient id="paint0_radial_446_47385" cx="0" cy="0" r="1" gradientUnits="userSpaceOnUse" gradientTransform="translate(60.2103 59) rotate(90) scale(59 60.2103)">
<stop offset="0.25" stop-color="#6F55D5" stop-opacity="0.64"/>
<stop offset="1" stop-color="#5037AD" stop-opacity="0"/>
</radialGradient>
</defs>
</svg>
