<svg width="65" height="59" fill="none" xmlns="http://www.w3.org/2000/svg"><g filter="url(#a)"><rect x="3" y="6.198" width="47.393" height="47.393" rx="8" transform="rotate(-3.87 3 6.198)" fill="#B2E7FE" fill-opacity=".08"/><rect x="3.266" y="6.431" width="46.893" height="46.893" rx="7.75" transform="rotate(-3.87 3.266 6.43)" stroke="url(#b)" stroke-width=".5"/><rect x="3.266" y="6.431" width="46.893" height="46.893" rx="7.75" transform="rotate(-3.87 3.266 6.43)" stroke="url(#c)" stroke-width=".5"/></g><g filter="url(#d)"><path fill-rule="evenodd" clip-rule="evenodd" d="M5.107 14.702c-.037-.554-.056-.831-.055-1.066a6.5 6.5 0 0 1 5.595-6.406c.232-.033.51-.051 1.063-.089l30.07-2.034a16.35 16.35 0 0 1 1.067-.055 6.5 6.5 0 0 1 6.406 5.595c.032.232.051.51.089 1.063l.004.082a.5.5 0 0 1-.43.493c-.018.003-.04.004-.082.007L5.689 15.21a.5.5 0 0 1-.575-.426l-.007-.082Zm4.103-1.646a1.911 1.911 0 1 0-.258-3.813 1.911 1.911 0 0 0 .258 3.813Zm5.338-.36a1.911 1.911 0 1 0-.257-3.814 1.911 1.911 0 0 0 .258 3.813Zm5.34-.362a1.911 1.911 0 1 0-.259-3.813 1.911 1.911 0 0 0 .258 3.813Zm1.49 16.372a6.88 6.88 0 1 1 13.727-.929 6.88 6.88 0 0 1-13.727.929Zm-1.412 13.12a1.529 1.529 0 0 1 1.422-1.629l15.254-1.031a1.529 1.529 0 1 1 .206 3.05l-15.253 1.032a1.529 1.529 0 0 1-1.629-1.422Z" fill="url(#e)"/></g><defs><linearGradient id="b" x1="11.364" y1="49.061" x2="46.853" y2="11.373" gradientUnits="userSpaceOnUse"><stop stop-color="#3AC1FD" stop-opacity=".16"/><stop offset="1" stop-color="#fff" stop-opacity="0"/></linearGradient><linearGradient id="c" x1="11.364" y1="49.061" x2="46.853" y2="11.373" gradientUnits="userSpaceOnUse"><stop stop-color="#fff" stop-opacity="0"/><stop offset="1" stop-color="#fff" stop-opacity=".16"/></linearGradient><linearGradient id="e" x1="32.127" y1="-6.699" x2="23.16" y2="96.512" gradientUnits="userSpaceOnUse"><stop stop-color="#fff" stop-opacity=".88"/><stop offset="1" stop-color="#fff" stop-opacity="0"/></linearGradient><filter id="a" x="-20.384" y="-20.384" width="97.251" height="97.251" filterUnits="userSpaceOnUse" color-interpolation-filters="sRGB"><feFlood flood-opacity="0" result="BackgroundImageFix"/><feGaussianBlur in="BackgroundImageFix" stdDeviation="12"/><feComposite in2="SourceAlpha" operator="in" result="effect1_backgroundBlur_348_2159"/><feBlend in="SourceGraphic" in2="effect1_backgroundBlur_348_2159" result="shape"/></filter><filter id="d" x="-18.948" y="-18.948" width="92.294" height="86.199" filterUnits="userSpaceOnUse" color-interpolation-filters="sRGB"><feFlood flood-opacity="0" result="BackgroundImageFix"/><feGaussianBlur in="BackgroundImageFix" stdDeviation="12"/><feComposite in2="SourceAlpha" operator="in" result="effect1_backgroundBlur_348_2159"/><feColorMatrix in="SourceAlpha" values="0 0 0 0 0 0 0 0 0 0 0 0 0 0 0 0 0 0 127 0" result="hardAlpha"/><feOffset dx="5" dy="5"/><feGaussianBlur stdDeviation="5"/><feColorMatrix values="0 0 0 0 0.258824 0 0 0 0 0.631373 0 0 0 0 0.996078 0 0 0 0.12 0"/><feBlend in2="effect1_backgroundBlur_348_2159" result="effect2_dropShadow_348_2159"/><feBlend in="SourceGraphic" in2="effect2_dropShadow_348_2159" result="shape"/><feColorMatrix in="SourceAlpha" values="0 0 0 0 0 0 0 0 0 0 0 0 0 0 0 0 0 0 127 0" result="hardAlpha"/><feOffset dy=".2"/><feComposite in2="hardAlpha" operator="arithmetic" k2="-1" k3="1"/><feColorMatrix values="0 0 0 0 1 0 0 0 0 1 0 0 0 0 1 0 0 0 0.25 0"/><feBlend in2="shape" result="effect3_innerShadow_348_2159"/><feColorMatrix in="SourceAlpha" values="0 0 0 0 0 0 0 0 0 0 0 0 0 0 0 0 0 0 127 0" result="hardAlpha"/><feOffset dy="-.2"/><feComposite in2="hardAlpha" operator="arithmetic" k2="-1" k3="1"/><feColorMatrix values="0 0 0 0 0.612986 0 0 0 0 0.697287 0 0 0 0 0.758333 0 0 0 0.25 0"/><feBlend in2="effect3_innerShadow_348_2159" result="effect4_innerShadow_348_2159"/></filter></defs></svg>
