<svg width="91" height="90" viewBox="0 0 91 90" fill="none" xmlns="http://www.w3.org/2000/svg">
<g id="card">
<g id="vuesax/bold/card">
<g id="card_2">
<path id="Vector" d="M83 28.3125C83 30.7875 80.975 32.8125 78.5 32.8125H12.5C10.025 32.8125 8 30.7875 8 28.3125V28.275C8 19.6875 14.9375 12.75 23.525 12.75H67.4375C76.025 12.75 83 19.725 83 28.3125Z" fill="#EAE0FF"/>
<path id="Vector_2" d="M8 42.9375V61.725C8 70.3125 14.9375 77.25 23.525 77.25H67.4375C76.025 77.25 83 70.275 83 61.6875V42.9375C83 40.4625 80.975 38.4375 78.5 38.4375H12.5C10.025 38.4375 8 40.4625 8 42.9375ZM30.5 64.6875H23C21.4625 64.6875 20.1875 63.4125 20.1875 61.875C20.1875 60.3375 21.4625 59.0625 23 59.0625H30.5C32.0375 59.0625 33.3125 60.3375 33.3125 61.875C33.3125 63.4125 32.0375 64.6875 30.5 64.6875ZM54.875 64.6875H39.875C38.3375 64.6875 37.0625 63.4125 37.0625 61.875C37.0625 60.3375 38.3375 59.0625 39.875 59.0625H54.875C56.4125 59.0625 57.6875 60.3375 57.6875 61.875C57.6875 63.4125 56.4125 64.6875 54.875 64.6875Z" fill="#EAE0FF"/>
</g>
</g>
</g>
</svg>
