<svg width="137" height="80" viewBox="0 0 137 80" fill="none" xmlns="http://www.w3.org/2000/svg">
<g clip-path="url(#clip0_395_57449)">
<path d="M67.434 0.257812H9.78111C4.52174 0.257812 0.257812 4.54965 0.257812 9.84343V35.1296C0.257812 40.4234 4.52174 44.7152 9.78111 44.7152V60.2764L20.2485 44.7152H67.4289C72.6882 44.7152 76.9522 40.4234 76.9522 35.1296V9.84343C76.9522 4.54965 72.6882 0.257812 67.4289 0.257812H67.434Z" fill="#B5AACD" stroke="#797C8B" stroke-opacity="0.592157" stroke-miterlimit="10" stroke-linecap="round"/>
<path d="M69.5663 12.0287H127.214C132.473 12.0287 136.737 16.3205 136.737 21.6143V46.9005C136.737 52.1943 132.473 56.4861 127.214 56.4861V72.0472L116.747 56.4861H69.5663C64.3069 56.4861 60.043 52.1943 60.043 46.9005V21.6143C60.043 16.3205 64.3069 12.0287 69.5663 12.0287Z" fill="#B5AACD" stroke="#797C8B" stroke-opacity="0.592157" stroke-miterlimit="10" stroke-linecap="round"/>
</g>
<defs>
<clipPath id="clip0_395_57449">
<rect width="137" height="80" fill="white"/>
</clipPath>
</defs>
</svg>
