<svg width="16" height="16" fill="none" xmlns="http://www.w3.org/2000/svg"><g fill="#EAE0FF"><path d="M14 14.667H2a.504.504 0 0 1-.5-.5c0-.274.227-.5.5-.5h12c.273 0 .5.226.5.5 0 .273-.227.5-.5.5ZM12.677 2.32c-1.294-1.293-2.56-1.327-3.887 0l-.807.807a.278.278 0 0 0-.067.266 5.42 5.42 0 0 0 3.687 3.687.267.267 0 0 0 .273-.067l.8-.806c.66-.654.98-1.287.98-1.927.007-.66-.313-1.3-.98-1.96ZM10.406 7.687a5.867 5.867 0 0 1-.987-.573 4.026 4.026 0 0 1-.373-.287.814.814 0 0 1-.114-.1 5.639 5.639 0 0 1-.686-.694c-.02-.013-.054-.06-.1-.12-.067-.08-.18-.213-.28-.366a3.66 3.66 0 0 1-.26-.394c-.107-.18-.2-.36-.294-.546-.122-.262-.466-.34-.67-.136l-3.75 3.75a.803.803 0 0 0-.186.366l-.36 2.553c-.067.453.06.88.34 1.167.24.233.573.36.933.36.08 0 .16-.007.24-.02l2.56-.36c.12-.02.287-.1.367-.187l3.755-3.755c.2-.2.125-.545-.135-.658Z"/></g></svg>
