<svg width="24" height="24" viewBox="0 0 24 24" fill="none" xmlns="http://www.w3.org/2000/svg">
<g id="Icon-Eye-24&#209;&#128;&#209;&#133;">
<path id="Vector" d="M21.8792 11.1597C19.9962 7.48577 16.2684 5 12 5C7.73159 5 4.00276 7.4875 2.12081 11.1601C2.04138 11.3172 2 11.4908 2 11.6669C2 11.8429 2.04138 12.0165 2.12081 12.1736C4.0038 15.8476 7.73159 18.3334 12 18.3334C16.2684 18.3334 19.9972 15.8459 21.8792 12.1733C21.9586 12.0162 22 11.8426 22 11.6665C22 11.4904 21.9586 11.3169 21.8792 11.1597ZM12 16.6667C11.0111 16.6667 10.0444 16.3734 9.22214 15.824C8.3999 15.2746 7.75903 14.4937 7.38059 13.5801C7.00215 12.6665 6.90314 11.6611 7.09606 10.6912C7.28899 9.72132 7.7652 8.8304 8.46446 8.13114C9.16372 7.43187 10.0546 6.95567 11.0245 6.76274C11.9945 6.56982 12.9998 6.66883 13.9134 7.04727C14.8271 7.42571 15.6079 8.06658 16.1574 8.88882C16.7068 9.71107 17 10.6778 17 11.6667C17.0003 12.3234 16.8712 12.9737 16.6201 13.5805C16.3689 14.1873 16.0006 14.7386 15.5363 15.2029C15.0719 15.6673 14.5206 16.0356 13.9138 16.2867C13.307 16.5379 12.6567 16.667 12 16.6667ZM12 8.33334C11.7025 8.3375 11.4069 8.38176 11.1212 8.46494C11.3567 8.78496 11.4697 9.17879 11.4397 9.57499C11.4097 9.97119 11.2388 10.3435 10.9578 10.6245C10.6769 10.9054 10.3045 11.0764 9.90831 11.1064C9.51211 11.1364 9.11828 11.0234 8.79826 10.7879C8.61602 11.4592 8.64892 12.1709 8.89231 12.8226C9.13571 13.4743 9.57735 14.0333 10.1551 14.4208C10.7328 14.8084 11.4175 15.005 12.1128 14.9831C12.8082 14.9611 13.4791 14.7216 14.0312 14.2984C14.5833 13.8751 14.9888 13.2894 15.1906 12.6236C15.3923 11.9578 15.3803 11.2456 15.156 10.587C14.9318 9.92847 14.5066 9.35683 13.9405 8.95255C13.3744 8.54826 12.6957 8.3317 12 8.33334Z" fill="#EAE0FF"/>
</g>
</svg>
