<svg width="25" height="24" viewBox="0 0 25 24" fill="none" xmlns="http://www.w3.org/2000/svg">
<g id="ic">
<path id="Vector" d="M18.2883 5.61194C17.6417 5.05176 16.807 4.75725 15.952 4.78767C15.0971 4.8181 14.2854 5.17121 13.6803 5.77594L6.89429 12.5599C6.75697 12.7073 6.59137 12.8255 6.40737 12.9075C6.22337 12.9895 6.02474 13.0336 5.82334 13.0371C5.62193 13.0407 5.42187 13.0036 5.2351 12.9282C5.04832 12.8527 4.87865 12.7405 4.73621 12.598C4.59378 12.4556 4.48149 12.2859 4.40605 12.0991C4.3306 11.9124 4.29355 11.7123 4.29711 11.5109C4.30066 11.3095 4.34475 11.1109 4.42673 10.9269C4.50871 10.7429 4.62692 10.5773 4.77429 10.4399L11.5583 3.65594C12.1543 3.05189 12.8648 2.57273 13.6482 2.24648C14.4316 1.92024 15.2722 1.75345 16.1208 1.75589C16.9694 1.75832 17.809 1.92991 18.5905 2.26064C19.372 2.59137 20.0798 3.07459 20.6723 3.68205C21.2649 4.28951 21.7304 5.00901 22.0417 5.79849C22.3529 6.58797 22.5036 7.43158 22.485 8.27999C22.4663 9.12839 22.2788 9.96458 21.9332 10.7396C21.5876 11.5147 21.091 12.2131 20.4723 12.7939L11.0263 21.7859C10.2962 22.4983 9.31293 22.8915 8.29292 22.8789C7.2729 22.8663 6.29966 22.4491 5.58729 21.7189C4.87492 20.9888 4.48177 20.0056 4.49434 18.9856C4.5069 17.9656 4.92415 16.9923 5.65429 16.2799L14.1403 7.79194C14.2787 7.64874 14.4443 7.53455 14.6273 7.45602C14.8104 7.3775 15.0072 7.33621 15.2064 7.33457C15.4056 7.33294 15.6031 7.37098 15.7874 7.44649C15.9717 7.522 16.1391 7.63346 16.2799 7.77436C16.4207 7.91527 16.532 8.0828 16.6073 8.26718C16.6826 8.45156 16.7205 8.64909 16.7187 8.84826C16.7168 9.04743 16.6754 9.24424 16.5967 9.42721C16.518 9.61017 16.4036 9.77564 16.2603 9.91394L7.78029 18.4019C7.63193 18.5609 7.5505 18.771 7.5529 18.9884C7.5553 19.2059 7.64134 19.4141 7.79317 19.5697C7.945 19.7254 8.15096 19.8167 8.36829 19.8245C8.58561 19.8324 8.79762 19.7563 8.96029 19.6119L18.4043 10.6199C18.746 10.2948 19.0159 9.90174 19.1967 9.4661C19.3776 9.03047 19.4654 8.56183 19.4545 8.09027C19.4435 7.61871 19.3341 7.15465 19.1333 6.72785C18.9325 6.30105 18.6447 5.92095 18.2883 5.61194Z" fill="#EAE0FF"/>
</g>
</svg>
