<svg width="13" height="14" viewBox="0 0 13 14" fill="none" xmlns="http://www.w3.org/2000/svg">
<g id="Group">
<path id="Vector" d="M12.75 4.60123V4.64686C12.75 5.18436 12.75 5.45373 12.6206 5.67373C12.4912 5.89373 12.2556 6.02436 11.7856 6.28623L11.29 6.56123C11.6312 5.40623 11.7456 4.16498 11.7875 3.10373L11.7937 2.96561L11.795 2.93311C12.2019 3.07436 12.4306 3.17998 12.5731 3.37748C12.75 3.62311 12.75 3.94936 12.75 4.60123ZM0.25 4.60123V4.64686C0.25 5.18436 0.25 5.45373 0.379375 5.67373C0.50875 5.89373 0.744375 6.02436 1.21438 6.28623L1.71062 6.56123C1.36875 5.40623 1.25437 4.16498 1.2125 3.10373L1.20625 2.96561L1.20563 2.93311C0.798125 3.07436 0.569375 3.17998 0.426875 3.37748C0.25 3.62311 0.25 3.94998 0.25 4.60123Z" fill="white"/>
<path id="Vector_2" fill-rule="evenodd" clip-rule="evenodd" d="M6.49925 0.749903C7.61425 0.749903 8.53238 0.848028 9.23488 0.966778C9.94675 1.08678 10.3024 1.14678 10.5999 1.51303C10.8974 1.87928 10.8811 2.2749 10.8499 3.06615C10.7424 5.78428 10.1561 9.17865 6.968 9.47865V11.6874H7.86175C8.00618 11.6875 8.14613 11.7376 8.25779 11.8292C8.36945 11.9208 8.44594 12.0483 8.47425 12.1899L8.593 12.7812H10.2493C10.3736 12.7812 10.4928 12.8305 10.5807 12.9184C10.6686 13.0064 10.718 13.1256 10.718 13.2499C10.718 13.3742 10.6686 13.4935 10.5807 13.5814C10.4928 13.6693 10.3736 13.7187 10.2493 13.7187H2.74925C2.62493 13.7187 2.5057 13.6693 2.41779 13.5814C2.32989 13.4935 2.2805 13.3742 2.2805 13.2499C2.2805 13.1256 2.32989 13.0064 2.41779 12.9184C2.5057 12.8305 2.62493 12.7812 2.74925 12.7812H4.4055L4.52425 12.1899C4.55256 12.0483 4.62905 11.9208 4.74071 11.8292C4.85237 11.7376 4.99232 11.6875 5.13675 11.6874H6.0305V9.47865C2.843 9.17865 2.25675 5.78365 2.14925 3.06615C2.11738 2.2749 2.10175 1.87865 2.39925 1.51303C2.69613 1.14678 3.05175 1.08678 3.76363 0.966778C4.66789 0.818576 5.58293 0.746033 6.49925 0.749903ZM7.09425 3.37428L7.033 3.26428C6.7955 2.8374 6.67675 2.6249 6.49925 2.6249C6.32175 2.6249 6.203 2.8374 5.9655 3.26428L5.90425 3.37428C5.83675 3.49553 5.803 3.55553 5.7505 3.59553C5.69738 3.63553 5.63175 3.65053 5.5005 3.6799L5.38175 3.7074C4.9205 3.81178 4.68988 3.86365 4.63488 4.0399C4.57988 4.21678 4.73738 4.40053 5.05175 4.76803L5.133 4.86303C5.22238 4.9674 5.26738 5.01928 5.28738 5.08428C5.30738 5.14928 5.3005 5.21865 5.28738 5.35803L5.27488 5.4849C5.22738 5.97553 5.20363 6.22115 5.34675 6.3299C5.4905 6.43865 5.70675 6.33928 6.13863 6.14053L6.24988 6.08928C6.373 6.03303 6.43425 6.0049 6.49925 6.0049C6.56425 6.0049 6.6255 6.03303 6.74863 6.08928L6.85988 6.14053C7.29175 6.3399 7.508 6.43865 7.65175 6.3299C7.7955 6.22115 7.77112 5.97553 7.72363 5.4849L7.71113 5.35803C7.698 5.21865 7.69113 5.14928 7.71113 5.08428C7.73113 5.0199 7.77613 4.9674 7.8655 4.86303L7.94675 4.76803C8.26113 4.40053 8.41863 4.21678 8.36363 4.0399C8.30863 3.86365 8.078 3.81178 7.61675 3.7074L7.498 3.6799C7.36675 3.65053 7.30113 3.63615 7.248 3.59553C7.1955 3.55553 7.16175 3.49553 7.09425 3.37428Z" fill="white"/>
</g>
</svg>
