<svg width="24" height="24" viewBox="0 0 24 24" fill="none" xmlns="http://www.w3.org/2000/svg">
<g id="Icon-info-circle-24&#209;&#128;&#209;&#133;">
<path id="Vector" d="M2.4 24C1.74 24 1.1748 23.706 0.704402 23.118C0.234002 22.53 -0.000797963 21.824 2.03735e-06 21V3C2.03735e-06 2.175 0.235202 1.4685 0.705602 0.880502C1.176 0.292502 1.7408 -0.000997453 2.4 2.54669e-06H21.6C22.26 2.54669e-06 22.8252 0.294002 23.2956 0.882002C23.766 1.47 24.0008 2.176 24 3V21C24 21.825 23.7648 22.5315 23.2944 23.1195C22.824 23.7075 22.2592 24.001 21.6 24H2.4ZM12 13.5L21.6 6V3L12 10.5L2.4 3V6L12 13.5Z" fill="#EAE0FF"/>
</g>
</svg>
