<svg width="111" height="40" fill="none" xmlns="http://www.w3.org/2000/svg"><mask id="a" style="mask-type:alpha" maskUnits="userSpaceOnUse" x="0" y="4" width="111" height="35"><rect y="4.353" width="111" height="34.098" rx="17.049" fill="#fff"/></mask><mask id="b" style="mask-type:alpha" maskUnits="userSpaceOnUse" x="0" y="4" width="111" height="35"><rect y="4.353" width="111" height="34.098" rx="17.049" fill="#fff"/></mask><g filter="url(#c)"><rect y="4.353" width="111" height="34.098" rx="17.049" fill="#fff" fill-opacity=".22"/></g><g clip-path="url(#d)"><path d="M65.1 36.577H45.87a5.705 5.705 0 0 1-3.643-1.319l-1.455-1.21a5.663 5.663 0 0 1-1.997-5.12l.965-7.235a5.67 5.67 0 0 1 2.658-4.091l3.64-2.245a13.475 13.475 0 0 1-1.12-4.79C44.918 6.42 51.938 0 55.484 0c3.546 0 10.567 6.421 10.567 10.567a13.477 13.477 0 0 1-1.12 4.79l3.804 2.345a5.708 5.708 0 0 1 2.593 3.726l.905 7.546a5.665 5.665 0 0 1-2.008 5.046l-1.484 1.238a5.7 5.7 0 0 1-3.643 1.319Z" fill="url(#e)"/><g filter="url(#f)"><path d="M55.485 19.507c-2.917 0-6.503-4.48-6.503-8.128a.813.813 0 0 1 .407-.706l4.077-2.328a4.076 4.076 0 0 1 4.032 0l4.083 2.33a.812.812 0 0 1 .406.704c0 3.647-3.585 8.128-6.502 8.128Z" fill="#fff" fill-opacity=".1"/></g><path d="M49.132 11.379c0 1.78.878 3.78 2.125 5.338 1.251 1.564 2.838 2.64 4.228 2.64 1.39 0 2.977-1.076 4.228-2.64 1.247-1.559 2.124-3.559 2.124-5.338a.662.662 0 0 0-.33-.574l-4.084-2.33-8.29 2.904Zm0 0c0-.117.03-.231.089-.332m-.089.332.089-.332m0 0a.663.663 0 0 1 .243-.244m-.243.243.243-.242m0 0 4.076-2.329a3.925 3.925 0 0 1 3.883 0l-7.96 2.328Z" stroke="url(#g)" stroke-opacity=".1" stroke-width=".3"/><g filter="url(#h)"><path d="M46.331 19.17a.813.813 0 0 0 1.321-.949 15.005 15.005 0 0 1-1.611-2.867l-.01-.005v.008l-1.382.854a16.431 16.431 0 0 0 1.682 2.958Z" fill="#fff" fill-opacity=".1"/></g><g filter="url(#i)"><path d="M64.643 19.17a.813.813 0 0 1-1.32-.949 14.973 14.973 0 0 0 1.611-2.867l.01-.005v.008l1.38.854a16.385 16.385 0 0 1-1.68 2.958Z" fill="#fff" fill-opacity=".1"/></g><g filter="url(#j)"><path d="M66.507 24.541a.867.867 0 0 0-.613-.253H45.075a.867.867 0 0 0-.867.867v13.88a.867.867 0 0 0 .867.867h20.819a.867.867 0 0 0 .867-.867v-13.88a.868.868 0 0 0-.254-.614Z" fill="#1D1D1D" fill-opacity=".05"/><path d="M66.507 24.541a.867.867 0 0 0-.613-.253H45.075a.867.867 0 0 0-.867.867v13.88a.867.867 0 0 0 .867.867h20.819a.867.867 0 0 0 .867-.867v-13.88a.868.868 0 0 0-.254-.614Z" fill="url(#k)" fill-opacity=".2"/><path d="M66.507 24.541a.867.867 0 0 0-.613-.253H45.075a.867.867 0 0 0-.867.867v13.88a.867.867 0 0 0 .867.867h20.819a.867.867 0 0 0 .867-.867v-13.88a.868.868 0 0 0-.254-.614Zm0 0-.106.107m.106-.107-.106.107m0 0a.717.717 0 0 0-.507-.21H45.075a.718.718 0 0 0-.717.718v13.879a.718.718 0 0 0 .717.717h20.819a.718.718 0 0 0 .717-.718V25.157a.718.718 0 0 0-.21-.508Z" stroke="url(#l)" stroke-opacity=".1" stroke-width=".3"/></g><g filter="url(#m)"><path d="M55.485 34.697a2.602 2.602 0 1 0 0-5.204 2.602 2.602 0 0 0 0 5.204Z" fill="#fff" fill-opacity=".1"/></g></g><defs><filter id="c" x="-80" y="-75.647" width="271" height="194.098" filterUnits="userSpaceOnUse" color-interpolation-filters="sRGB"><feFlood flood-opacity="0" result="BackgroundImageFix"/><feGaussianBlur in="BackgroundImageFix" stdDeviation="40"/><feComposite in2="SourceAlpha" operator="in" result="effect1_backgroundBlur_347_1475"/><feBlend in="SourceGraphic" in2="effect1_backgroundBlur_347_1475" result="shape"/></filter><filter id="f" x="48.982" y="7.811" width="13.005" height="13.696" filterUnits="userSpaceOnUse" color-interpolation-filters="sRGB"><feFlood flood-opacity="0" result="BackgroundImageFix"/><feBlend in="SourceGraphic" in2="BackgroundImageFix" result="shape"/><feColorMatrix in="SourceAlpha" values="0 0 0 0 0 0 0 0 0 0 0 0 0 0 0 0 0 0 127 0" result="hardAlpha"/><feOffset dy="2"/><feGaussianBlur stdDeviation="1"/><feComposite in2="hardAlpha" operator="arithmetic" k2="-1" k3="1"/><feColorMatrix values="0 0 0 0 1 0 0 0 0 1 0 0 0 0 1 0 0 0 0.1 0"/><feBlend in2="shape" result="effect1_innerShadow_347_1475"/></filter><filter id="h" x="44.649" y="15.349" width="3.155" height="6.159" filterUnits="userSpaceOnUse" color-interpolation-filters="sRGB"><feFlood flood-opacity="0" result="BackgroundImageFix"/><feBlend in="SourceGraphic" in2="BackgroundImageFix" result="shape"/><feColorMatrix in="SourceAlpha" values="0 0 0 0 0 0 0 0 0 0 0 0 0 0 0 0 0 0 127 0" result="hardAlpha"/><feOffset dy="2"/><feGaussianBlur stdDeviation="1"/><feComposite in2="hardAlpha" operator="arithmetic" k2="-1" k3="1"/><feColorMatrix values="0 0 0 0 1 0 0 0 0 1 0 0 0 0 1 0 0 0 0.1 0"/><feBlend in2="shape" result="effect1_innerShadow_347_1475"/></filter><filter id="i" x="63.17" y="15.349" width="3.155" height="6.159" filterUnits="userSpaceOnUse" color-interpolation-filters="sRGB"><feFlood flood-opacity="0" result="BackgroundImageFix"/><feBlend in="SourceGraphic" in2="BackgroundImageFix" result="shape"/><feColorMatrix in="SourceAlpha" values="0 0 0 0 0 0 0 0 0 0 0 0 0 0 0 0 0 0 127 0" result="hardAlpha"/><feOffset dy="2"/><feGaussianBlur stdDeviation="1"/><feComposite in2="hardAlpha" operator="arithmetic" k2="-1" k3="1"/><feColorMatrix values="0 0 0 0 1 0 0 0 0 1 0 0 0 0 1 0 0 0 0.1 0"/><feBlend in2="shape" result="effect1_innerShadow_347_1475"/></filter><filter id="j" x="38.208" y="18.288" width="34.553" height="27.614" filterUnits="userSpaceOnUse" color-interpolation-filters="sRGB"><feFlood flood-opacity="0" result="BackgroundImageFix"/><feGaussianBlur in="BackgroundImageFix" stdDeviation="3"/><feComposite in2="SourceAlpha" operator="in" result="effect1_backgroundBlur_347_1475"/><feBlend in="SourceGraphic" in2="effect1_backgroundBlur_347_1475" result="shape"/><feColorMatrix in="SourceAlpha" values="0 0 0 0 0 0 0 0 0 0 0 0 0 0 0 0 0 0 127 0" result="hardAlpha"/><feOffset dy="1"/><feGaussianBlur stdDeviation="1.5"/><feComposite in2="hardAlpha" operator="arithmetic" k2="-1" k3="1"/><feColorMatrix values="0 0 0 0 1 0 0 0 0 1 0 0 0 0 1 0 0 0 0.15 0"/><feBlend in2="shape" result="effect2_innerShadow_347_1475"/></filter><filter id="m" x="52.882" y="29.493" width="5.205" height="7.205" filterUnits="userSpaceOnUse" color-interpolation-filters="sRGB"><feFlood flood-opacity="0" result="BackgroundImageFix"/><feBlend in="SourceGraphic" in2="BackgroundImageFix" result="shape"/><feColorMatrix in="SourceAlpha" values="0 0 0 0 0 0 0 0 0 0 0 0 0 0 0 0 0 0 127 0" result="hardAlpha"/><feOffset dy="2"/><feGaussianBlur stdDeviation="1"/><feComposite in2="hardAlpha" operator="arithmetic" k2="-1" k3="1"/><feColorMatrix values="0 0 0 0 1 0 0 0 0 1 0 0 0 0 1 0 0 0 0.1 0"/><feBlend in2="shape" result="effect1_innerShadow_347_1475"/></filter><linearGradient id="e" x1="38.725" y1="0" x2="78.63" y2="9.294" gradientUnits="userSpaceOnUse"><stop stop-color="#75A5FF"/><stop offset=".703" stop-color="#2339FF"/></linearGradient><linearGradient id="g" x1="49.389" y1="8.343" x2="61.987" y2="8.343" gradientUnits="userSpaceOnUse"><stop stop-color="#3CDEB6"/><stop offset=".656" stop-color="#364AFF"/></linearGradient><linearGradient id="k" x1="44.208" y1="24.288" x2="69.135" y2="33.431" gradientUnits="userSpaceOnUse"><stop stop-color="#87FFE1"/><stop offset=".776" stop-color="#5C6DFF"/></linearGradient><linearGradient id="l" x1="44.913" y1="24.998" x2="66.761" y2="24.998" gradientUnits="userSpaceOnUse"><stop stop-color="#3CDEB6"/><stop offset=".656" stop-color="#364AFF"/></linearGradient><clipPath id="d"><path fill="#fff" transform="translate(35.549)" d="M0 0h39.902v39.902H0z"/></clipPath></defs></svg>
