<svg width="30" height="30" fill="none" xmlns="http://www.w3.org/2000/svg"><path d="M15 22.5a4.375 4.375 0 1 1 0-8.75 4.375 4.375 0 0 1 0 8.75Z" fill="url(#a)"/><path d="M18.3 20.965a4.314 4.314 0 0 1-6.6 0 6.235 6.235 0 0 0-2.95 5.285A1.25 1.25 0 0 0 10 27.5h10a1.25 1.25 0 0 0 1.25-1.25 6.236 6.236 0 0 0-2.95-5.285Z" fill="url(#b)"/><path d="M26.25 15c-.306 0-.601-.111-.83-.315L15 5.423 4.58 14.685a1.25 1.25 0 0 1-1.66-1.87l11.25-10a1.249 1.249 0 0 1 1.66 0l11.25 10A1.25 1.25 0 0 1 26.25 15Z" fill="url(#c)"/><g filter="url(#d)"><path d="m15 5.422-10 8.89V26.25a1.25 1.25 0 0 0 1.25 1.25H10a1.25 1.25 0 0 1-1.25-1.25 6.235 6.235 0 0 1 2.95-5.285 4.336 4.336 0 0 1-1.075-2.84 4.375 4.375 0 1 1 8.75 0 4.336 4.336 0 0 1-1.075 2.84 6.234 6.234 0 0 1 2.95 5.285A1.25 1.25 0 0 1 20 27.5h3.75A1.25 1.25 0 0 0 25 26.25V14.31L15 5.422Z" fill="#fff" fill-opacity=".2"/></g><defs><linearGradient id="a" x1="15" y1="13.75" x2="15" y2="22.5" gradientUnits="userSpaceOnUse"><stop offset=".451" stop-color="#9A63E4"/><stop offset="1" stop-color="#D6BCFF"/></linearGradient><linearGradient id="b" x1="15" y1="20.965" x2="15" y2="27.5" gradientUnits="userSpaceOnUse"><stop offset=".451" stop-color="#9A63E4"/><stop offset="1" stop-color="#D6BCFF"/></linearGradient><linearGradient id="c" x1="15" y1="2.5" x2="15" y2="15.001" gradientUnits="userSpaceOnUse"><stop offset=".451" stop-color="#9A63E4"/><stop offset="1" stop-color="#D6BCFF"/></linearGradient><filter id="d" x="0" y=".422" width="30" height="32.078" filterUnits="userSpaceOnUse" color-interpolation-filters="sRGB"><feFlood flood-opacity="0" result="BackgroundImageFix"/><feGaussianBlur in="BackgroundImageFix" stdDeviation="2.5"/><feComposite in2="SourceAlpha" operator="in" result="effect1_backgroundBlur_302_48105"/><feBlend in="SourceGraphic" in2="effect1_backgroundBlur_302_48105" result="shape"/><feColorMatrix in="SourceAlpha" values="0 0 0 0 0 0 0 0 0 0 0 0 0 0 0 0 0 0 127 0" result="hardAlpha"/><feOffset dy="-5"/><feGaussianBlur stdDeviation="2.5"/><feComposite in2="hardAlpha" operator="arithmetic" k2="-1" k3="1"/><feColorMatrix values="0 0 0 0 1 0 0 0 0 1 0 0 0 0 1 0 0 0 0.05 0"/><feBlend in2="shape" result="effect2_innerShadow_302_48105"/><feColorMatrix in="SourceAlpha" values="0 0 0 0 0 0 0 0 0 0 0 0 0 0 0 0 0 0 127 0" result="hardAlpha"/><feOffset dx="-5" dy="-5"/><feGaussianBlur stdDeviation="2.5"/><feComposite in2="hardAlpha" operator="arithmetic" k2="-1" k3="1"/><feColorMatrix values="0 0 0 0 1 0 0 0 0 1 0 0 0 0 1 0 0 0 0.05 0"/><feBlend in2="effect2_innerShadow_302_48105" result="effect3_innerShadow_302_48105"/></filter></defs></svg>
