<svg width="30" height="30" viewBox="0 0 30 30" fill="none" xmlns="http://www.w3.org/2000/svg">
<path d="M15 22.5C14.1347 22.5 13.2888 22.2434 12.5694 21.7627C11.8499 21.2819 11.2892 20.5987 10.958 19.7992C10.6269 18.9998 10.5403 18.1201 10.7091 17.2715C10.8779 16.4228 11.2946 15.6433 11.9064 15.0314C12.5183 14.4196 13.2978 14.0029 14.1465 13.8341C14.9951 13.6653 15.8748 13.7519 16.6742 14.083C17.4737 14.4142 18.157 14.9749 18.6377 15.6944C19.1184 16.4138 19.375 17.2597 19.375 18.125C19.3737 19.2849 18.9123 20.3969 18.0921 21.2171C17.2719 22.0373 16.1599 22.4987 15 22.5Z" fill="url(#paint0_linear_302_48105)"/>
<path d="M18.3 20.9648C17.895 21.4456 17.3898 21.8321 16.8197 22.0972C16.2497 22.3623 15.6287 22.4997 15 22.4997C14.3713 22.4997 13.7503 22.3623 13.1803 22.0972C12.6102 21.8321 12.105 21.4456 11.7 20.9648C10.7999 21.5228 10.0568 22.3007 9.5407 23.2254C9.02457 24.15 8.75245 25.1909 8.75 26.2498C8.75 26.5814 8.8817 26.8993 9.11612 27.1337C9.35054 27.3681 9.66848 27.4998 10 27.4998H20C20.3315 27.4998 20.6495 27.3681 20.8839 27.1337C21.1183 26.8993 21.25 26.5814 21.25 26.2498C21.2475 25.1909 20.9754 24.15 20.4593 23.2254C19.9432 22.3007 19.2001 21.5228 18.3 20.9648Z" fill="url(#paint1_linear_302_48105)"/>
<path d="M26.25 15.0003C25.944 15.0008 25.6486 14.8887 25.42 14.6853L15 5.42277L4.58001 14.6853C4.33203 14.9054 4.00676 15.018 3.67576 14.9983C3.34476 14.9786 3.03514 14.8282 2.81501 14.5803C2.59488 14.3323 2.48227 14.007 2.50196 13.676C2.52166 13.345 2.67203 13.0354 2.92001 12.8153L14.17 2.81527C14.3986 2.61187 14.694 2.49951 15 2.49951C15.306 2.49951 15.6014 2.61187 15.83 2.81527L27.08 12.8153C27.2697 12.9836 27.4037 13.2056 27.4643 13.4519C27.5248 13.6982 27.509 13.9571 27.4189 14.1942C27.3289 14.4312 27.1688 14.6353 26.96 14.7793C26.7513 14.9233 26.5036 15.0003 26.25 15.0003Z" fill="url(#paint2_linear_302_48105)"/>
<g filter="url(#filter0_bii_302_48105)">
<path d="M15 5.42236L5 14.3111V26.2499C5 26.5814 5.1317 26.8993 5.36612 27.1337C5.60054 27.3682 5.91848 27.4999 6.25 27.4999H10C9.66848 27.4999 9.35054 27.3682 9.11612 27.1337C8.8817 26.8993 8.75 26.5814 8.75 26.2499C8.75245 25.1909 9.02457 24.15 9.5407 23.2254C10.0568 22.3007 10.7999 21.5228 11.7 20.9649C11.0111 20.1787 10.6293 19.1702 10.625 18.1249C10.625 16.9645 11.0859 15.8517 11.9064 15.0313C12.7269 14.2108 13.8397 13.7499 15 13.7499C16.1603 13.7499 17.2731 14.2108 18.0936 15.0313C18.9141 15.8517 19.375 16.9645 19.375 18.1249C19.3707 19.1702 18.9889 20.1787 18.3 20.9649C19.2001 21.5228 19.9432 22.3007 20.4593 23.2254C20.9754 24.15 21.2475 25.1909 21.25 26.2499C21.25 26.5814 21.1183 26.8993 20.8839 27.1337C20.6495 27.3682 20.3315 27.4999 20 27.4999H23.75C24.0815 27.4999 24.3995 27.3682 24.6339 27.1337C24.8683 26.8993 25 26.5814 25 26.2499V14.3111L15 5.42236Z" fill="white" fill-opacity="0.2"/>
</g>
<defs>
<filter id="filter0_bii_302_48105" x="0" y="0.422363" width="30" height="32.0776" filterUnits="userSpaceOnUse" color-interpolation-filters="sRGB">
<feFlood flood-opacity="0" result="BackgroundImageFix"/>
<feGaussianBlur in="BackgroundImageFix" stdDeviation="2.5"/>
<feComposite in2="SourceAlpha" operator="in" result="effect1_backgroundBlur_302_48105"/>
<feBlend mode="normal" in="SourceGraphic" in2="effect1_backgroundBlur_302_48105" result="shape"/>
<feColorMatrix in="SourceAlpha" type="matrix" values="0 0 0 0 0 0 0 0 0 0 0 0 0 0 0 0 0 0 127 0" result="hardAlpha"/>
<feOffset dy="-5"/>
<feGaussianBlur stdDeviation="2.5"/>
<feComposite in2="hardAlpha" operator="arithmetic" k2="-1" k3="1"/>
<feColorMatrix type="matrix" values="0 0 0 0 1 0 0 0 0 1 0 0 0 0 1 0 0 0 0.05 0"/>
<feBlend mode="normal" in2="shape" result="effect2_innerShadow_302_48105"/>
<feColorMatrix in="SourceAlpha" type="matrix" values="0 0 0 0 0 0 0 0 0 0 0 0 0 0 0 0 0 0 127 0" result="hardAlpha"/>
<feOffset dx="-5" dy="-5"/>
<feGaussianBlur stdDeviation="2.5"/>
<feComposite in2="hardAlpha" operator="arithmetic" k2="-1" k3="1"/>
<feColorMatrix type="matrix" values="0 0 0 0 1 0 0 0 0 1 0 0 0 0 1 0 0 0 0.05 0"/>
<feBlend mode="normal" in2="effect2_innerShadow_302_48105" result="effect3_innerShadow_302_48105"/>
</filter>
<linearGradient id="paint0_linear_302_48105" x1="15" y1="13.75" x2="15" y2="22.5" gradientUnits="userSpaceOnUse">
<stop offset="0.451042" stop-color="#9A63E4"/>
<stop offset="1" stop-color="#D6BCFF"/>
</linearGradient>
<linearGradient id="paint1_linear_302_48105" x1="15" y1="20.9648" x2="15" y2="27.4998" gradientUnits="userSpaceOnUse">
<stop offset="0.451042" stop-color="#9A63E4"/>
<stop offset="1" stop-color="#D6BCFF"/>
</linearGradient>
<linearGradient id="paint2_linear_302_48105" x1="15.0001" y1="2.49951" x2="15.0001" y2="15.0005" gradientUnits="userSpaceOnUse">
<stop offset="0.451042" stop-color="#9A63E4"/>
<stop offset="1" stop-color="#D6BCFF"/>
</linearGradient>
</defs>
</svg>
