<svg width="24" height="24" viewBox="0 0 24 24" fill="none" xmlns="http://www.w3.org/2000/svg">
<g id="ic">
<path id="Vector" d="M12 23C5.9247 23 1 18.0753 1 12C1 5.9247 5.9247 1 12 1C18.0753 1 23 5.9247 23 12C23 18.0753 18.0753 23 12 23ZM6.5 12C6.5 13.4587 7.07946 14.8576 8.11091 15.8891C9.14236 16.9205 10.5413 17.5 12 17.5C13.4587 17.5 14.8576 16.9205 15.8891 15.8891C16.9205 14.8576 17.5 13.4587 17.5 12H15.3C15.3 12.8752 14.9523 13.7146 14.3335 14.3335C13.7146 14.9523 12.8752 15.3 12 15.3C11.1248 15.3 10.2854 14.9523 9.66655 14.3335C9.04768 13.7146 8.7 12.8752 8.7 12H6.5Z" fill="#8729FF"/>
</g>
</svg>
