<svg width="137" height="80" fill="none" xmlns="http://www.w3.org/2000/svg"><g clip-path="url(#a)" fill="#B5AACD" stroke="#797C8B" stroke-opacity=".592" stroke-miterlimit="10" stroke-linecap="round"><path d="M67.434.258H9.781C4.521.258.258 4.55.258 9.843V35.13c0 5.293 4.264 9.585 9.523 9.585v15.561l10.467-15.56h47.18c5.26 0 9.524-4.293 9.524-9.586V9.843c0-5.293-4.264-9.585-9.523-9.585h.005Z"/><path d="M69.57 12.029h57.648c5.259 0 9.523 4.292 9.523 9.585v25.287c0 5.293-4.264 9.585-9.523 9.585v15.561l-10.467-15.56h-47.18c-5.26 0-9.524-4.293-9.524-9.586V21.614c0-5.293 4.264-9.585 9.523-9.585Z"/></g><defs><clipPath id="a"><path fill="#fff" d="M0 0h137v80H0z"/></clipPath></defs></svg>
