<svg width="15" height="15" viewBox="0 0 15 15" fill="none" xmlns="http://www.w3.org/2000/svg">
<g id="Icon">
<path id="Shape" fill-rule="evenodd" clip-rule="evenodd" d="M9.55806 3.93306L3.75 9.74112L1.69194 7.68306C1.44786 7.43898 1.05214 7.43898 0.808058 7.68306C0.563981 7.92714 0.563981 8.32286 0.808058 8.56694L3.30806 11.0669C3.55214 11.311 3.94786 11.311 4.19194 11.0669L10.4419 4.81694C10.686 4.57286 10.686 4.17714 10.4419 3.93306C10.1979 3.68898 9.80214 3.68898 9.55806 3.93306ZM7.05806 11.0669C7.30214 11.311 7.69786 11.311 7.94194 11.0669L14.1919 4.81694C14.436 4.57286 14.436 4.17714 14.1919 3.93306C13.9479 3.68898 13.5521 3.68898 13.3081 3.93306L7.05806 10.1831C6.81398 10.4271 6.81398 10.8229 7.05806 11.0669Z" fill="#EAE0FF"/>
</g>
</svg>
