<svg width="24" height="24" viewBox="0 0 24 24" fill="none" xmlns="http://www.w3.org/2000/svg">
<g id="Icon-Close-24&#209;&#128;&#209;&#133;">
<path id="Union" d="M19.6818 4.31819C19.2576 3.89394 18.5697 3.89394 18.1454 4.31819L12 10.4636L5.85455 4.31819C5.4303 3.89394 4.74245 3.89394 4.31819 4.31819C3.89394 4.74245 3.89394 5.4303 4.31819 5.85455L10.4636 12L4.31819 18.1454C3.89394 18.5697 3.89394 19.2576 4.31819 19.6818C4.74244 20.1061 5.4303 20.1061 5.85455 19.6818L12 13.5364L18.1454 19.6818C18.5697 20.1061 19.2576 20.1061 19.6818 19.6818C20.1061 19.2576 20.1061 18.5697 19.6818 18.1454L13.5364 12L19.6818 5.85455C20.1061 5.4303 20.1061 4.74245 19.6818 4.31819Z" fill="#EAE0FF"/>
</g>
</svg>
