<svg width="25" height="27" viewBox="0 0 25 27" fill="none" xmlns="http://www.w3.org/2000/svg">
<g id="Group">
<path id="Vector" d="M19.75 18V25.5M19.75 25.5L23.5 21.75M19.75 25.5L16 21.75M1 5.5V13C1 13 1 16.75 9.75 16.75C18.5 16.75 18.5 13 18.5 13V5.5" stroke="#EAE0FF" stroke-width="2" stroke-linecap="round" stroke-linejoin="round"/>
<path id="Vector_2" d="M9.75 24.25C1 24.25 1 20.5 1 20.5V13M9.75 1.75C18.5 1.75 18.5 5.5 18.5 5.5C18.5 5.5 18.5 9.25 9.75 9.25C1 9.25 1 5.5 1 5.5C1 5.5 1 1.75 9.75 1.75Z" stroke="#EAE0FF" stroke-width="2" stroke-linecap="round" stroke-linejoin="round"/>
</g>
</svg>
