<svg width="1920" height="293" viewBox="0 0 1920 293" fill="none" xmlns="http://www.w3.org/2000/svg">
<path d="M0 53.5003C0 53.5003 243.625 -0.14715 402 0.000303408C644.141 0.225747 778.899 183.932 1021 179.5C1220.9 175.841 1404.81 36.3881 1604.5 26.5C1764.65 18.5697 1920 53.5003 1920 53.5003" stroke="#6F7598" stroke-width="0.5"/>
<path d="M0 45.929C0 45.929 248.53 3.66246 406.905 3.80991C649.046 4.03535 784.09 169.074 1026.19 164.643C1226.09 160.984 1405.23 38.465 1604.93 29.0477C1765.45 21.4951 1919.6 50.2623 1919.6 50.2623" stroke="#6F7598" stroke-width="0.5"/>
<path d="M0 107.046C0 107.046 346.625 292.398 505 292.546C747.141 292.771 887.899 84.4775 1130 80.0459C1329.9 76.3868 1413.56 292.546 1613.5 292.546C1781.5 292.546 1911.5 198.046 1911.5 198.046" stroke="#6F7598" stroke-width="0.5"/>
<path d="M0 38.3577C0 38.3577 253.435 7.47212 411.81 7.61958C653.951 7.84502 789.28 154.217 1031.38 149.786C1231.28 146.127 1405.64 40.5419 1605.36 31.5955C1766.26 24.4205 1919.19 47.0243 1919.19 47.0243" stroke="#6F7598" stroke-width="0.5"/>
<path d="M0 30.7866C0 30.7866 258.339 11.282 416.714 11.4294C658.855 11.6548 794.471 139.361 1036.57 134.929C1236.47 131.27 1406.06 42.619 1605.79 34.1434C1767.06 27.3461 1918.79 43.7865 1918.79 43.7865" stroke="#6F7598" stroke-width="0.5"/>
<path d="M0 23.2163C0 23.2163 263.244 15.0926 421.619 15.2401C663.76 15.4655 799.661 124.505 1041.76 120.073C1241.66 116.414 1406.48 44.6969 1606.21 36.6922C1767.86 30.2725 1918.38 40.5496 1918.38 40.5496" stroke="#6F7598" stroke-width="0.5"/>
<path d="M0 19.0476C0 19.0476 268.149 22.3049 426.524 22.4523C668.665 22.6777 804.852 113.05 1046.95 108.619C1246.85 104.96 1406.89 50.1764 1606.64 42.6426C1768.66 36.6005 1917.98 40.7142 1917.98 40.7142" stroke="#6F7598" stroke-width="0.5"/>
<path d="M0 22.8571C0 22.8571 273.054 37.4953 431.429 37.6428C673.57 37.8682 810.042 109.574 1052.14 105.143C1252.05 101.483 1407.31 63.6341 1607.07 56.5712C1769.47 50.9067 1917.57 48.857 1917.57 48.857" stroke="#6F7598" stroke-width="0.5"/>
<path d="M0 26.6667C0 26.6667 277.958 52.6858 436.333 52.8332C678.474 53.0587 815.233 106.098 1057.33 101.666C1257.24 98.0073 1407.73 77.0918 1607.5 70.4997C1770.27 65.2129 1917.17 56.9998 1917.17 56.9998" stroke="#6F7598" stroke-width="0.5"/>
<path d="M0 30.4762C0 30.4762 282.863 67.8762 441.238 68.0237C683.379 68.2491 820.423 102.622 1062.52 98.1902C1262.43 94.5311 1408.14 90.5495 1607.93 84.4283C1771.07 79.5191 1916.76 65.1427 1916.76 65.1427" stroke="#6F7598" stroke-width="0.5"/>
<path d="M0 34.2857C0 34.2857 287.768 83.0667 446.143 83.2141C688.284 83.4396 825.614 99.1455 1067.71 94.714C1267.62 91.0549 1408.56 104.007 1608.36 98.3569C1771.87 93.8253 1916.36 73.2855 1916.36 73.2855" stroke="#6F7598" stroke-width="0.5"/>
<path d="M0 38.0952C0 38.0952 292.673 98.2572 451.048 98.4046C693.189 98.63 830.804 95.6693 1072.9 91.2378C1272.81 87.5787 1408.98 117.465 1608.79 112.285C1772.67 108.131 1915.95 81.4283 1915.95 81.4283" stroke="#6F7598" stroke-width="0.5"/>
<path d="M0 41.9048C0 41.9048 297.578 113.448 455.952 113.595C698.093 113.821 835.995 92.1931 1078.1 87.7616C1278 84.1025 1409.39 130.923 1609.21 126.214C1773.48 122.438 1915.55 89.5712 1915.55 89.5712" stroke="#6F7598" stroke-width="0.5"/>
<g clip-path="url(#clip0_347_1727)">
<path d="M1152.17 99.5745C1153.93 99.5745 1155.36 98.1456 1155.36 96.383C1155.36 94.6204 1153.93 93.1915 1152.17 93.1915C1150.41 93.1915 1148.98 94.6204 1148.98 96.383C1148.98 98.1456 1150.41 99.5745 1152.17 99.5745Z" fill="url(#paint0_linear_347_1727)"/>
<path d="M1129.19 99.5745C1130.95 99.5745 1132.38 98.1456 1132.38 96.383C1132.38 94.6204 1130.95 93.1915 1129.19 93.1915C1127.43 93.1915 1126 94.6204 1126 96.383C1126 98.1456 1127.43 99.5745 1129.19 99.5745Z" fill="url(#paint1_linear_347_1727)"/>
<path fill-rule="evenodd" clip-rule="evenodd" d="M1135.57 82.18C1134.83 81.9165 1134.3 81.2066 1134.3 80.3745C1134.3 79.3188 1135.16 78.4596 1136.21 78.4596C1137.27 78.4596 1138.13 79.3188 1138.13 80.3745C1138.13 81.2066 1137.59 81.9165 1136.85 82.18V88.0851H1135.57V82.18Z" fill="url(#paint2_linear_347_1727)"/>
<path d="M1135.57 95.1064C1136.28 95.1064 1136.85 94.5349 1136.85 93.8298C1136.85 93.1247 1136.28 92.5532 1135.57 92.5532C1134.87 92.5532 1134.3 93.1247 1134.3 93.8298C1134.3 94.5349 1134.87 95.1064 1135.57 95.1064Z" fill="url(#paint3_linear_347_1727)"/>
<path d="M1143.23 98.2979H1138.13C1137.42 98.2979 1136.85 98.8694 1136.85 99.5745C1136.85 100.28 1137.42 100.851 1138.13 100.851H1143.23C1143.94 100.851 1144.51 100.28 1144.51 99.5745C1144.51 98.8694 1143.94 98.2979 1143.23 98.2979Z" fill="url(#paint4_linear_347_1727)"/>
<path d="M1145.79 95.1064C1146.49 95.1064 1147.06 94.5349 1147.06 93.8298C1147.06 93.1247 1146.49 92.5532 1145.79 92.5532C1145.08 92.5532 1144.51 93.1247 1144.51 93.8298C1144.51 94.5349 1145.08 95.1064 1145.79 95.1064Z" fill="url(#paint5_linear_347_1727)"/>
<g filter="url(#filter0_bi_347_1727)">
<path d="M1129.19 91.2766C1129.19 89.5143 1130.62 88.0851 1132.38 88.0851H1148.98C1150.74 88.0851 1152.17 89.5143 1152.17 91.2766V101.489C1152.17 103.252 1150.74 104.681 1148.98 104.681H1132.38C1130.62 104.681 1129.19 103.252 1129.19 101.489V91.2766Z" fill="#1D1D1D" fill-opacity="0.05"/>
<path d="M1129.19 91.2766C1129.19 89.5143 1130.62 88.0851 1132.38 88.0851H1148.98C1150.74 88.0851 1152.17 89.5143 1152.17 91.2766V101.489C1152.17 103.252 1150.74 104.681 1148.98 104.681H1132.38C1130.62 104.681 1129.19 103.252 1129.19 101.489V91.2766Z" fill="url(#paint6_linear_347_1727)" fill-opacity="0.2"/>
<path d="M1129.34 91.2766C1129.34 89.5971 1130.7 88.2351 1132.38 88.2351H1148.98C1150.66 88.2351 1152.02 89.5971 1152.02 91.2766V101.489C1152.02 103.169 1150.66 104.531 1148.98 104.531H1132.38C1130.7 104.531 1129.34 103.169 1129.34 101.489V91.2766Z" stroke="url(#paint7_linear_347_1727)" stroke-opacity="0.1" stroke-width="0.3"/>
</g>
<path d="M1154.45 76.5045H1143.51C1143 76.5045 1142.6 78.5458 1142.6 81.0638C1142.6 83.5818 1143 85.6231 1143.51 85.6231H1154.45C1154.95 85.6231 1155.36 83.5818 1155.36 81.0638C1155.36 78.5458 1154.95 76.5045 1154.45 76.5045Z" fill="url(#paint8_linear_347_1727)"/>
<g filter="url(#filter1_bi_347_1727)">
<path d="M1153.77 75.3192H1144.19C1142.96 75.3192 1141.96 76.3194 1141.96 77.5532V88.034C1141.96 88.2626 1142.08 88.4732 1142.28 88.5875C1142.38 88.6443 1142.49 88.6723 1142.6 88.6723C1142.71 88.6723 1142.82 88.643 1142.92 88.5849L1145.96 86.8085H1153.77C1155 86.8085 1156 85.8083 1156 84.5745V77.5532C1156 76.3194 1155 75.3192 1153.77 75.3192Z" fill="#1D1D1D" fill-opacity="0.05"/>
<path d="M1153.77 75.3192H1144.19C1142.96 75.3192 1141.96 76.3194 1141.96 77.5532V88.034C1141.96 88.2626 1142.08 88.4732 1142.28 88.5875C1142.38 88.6443 1142.49 88.6723 1142.6 88.6723C1142.71 88.6723 1142.82 88.643 1142.92 88.5849L1145.96 86.8085H1153.77C1155 86.8085 1156 85.8083 1156 84.5745V77.5532C1156 76.3194 1155 75.3192 1153.77 75.3192Z" fill="url(#paint9_linear_347_1727)" fill-opacity="0.2"/>
<path d="M1142.35 88.4576L1142.35 88.4574C1142.2 88.3699 1142.11 88.2088 1142.11 88.034V77.5532C1142.11 76.4022 1143.04 75.4692 1144.19 75.4692H1153.77C1154.92 75.4692 1155.85 76.4022 1155.85 77.5532V84.5745C1155.85 85.7255 1154.92 86.6585 1153.77 86.6585H1145.96H1145.92L1145.88 86.679L1142.84 88.4554L1142.84 88.4555C1142.77 88.4999 1142.68 88.5223 1142.6 88.5223C1142.51 88.5223 1142.43 88.5008 1142.35 88.4576Z" stroke="url(#paint10_linear_347_1727)" stroke-opacity="0.1" stroke-width="0.3"/>
</g>
<g filter="url(#filter2_i_347_1727)">
<path d="M1148.98 82.9787H1145.15C1144.8 82.9787 1144.51 83.2645 1144.51 83.617C1144.51 83.9696 1144.8 84.2553 1145.15 84.2553H1148.98C1149.33 84.2553 1149.62 83.9696 1149.62 83.617C1149.62 83.2645 1149.33 82.9787 1148.98 82.9787Z" fill="white" fill-opacity="0.1"/>
</g>
<g filter="url(#filter3_i_347_1727)">
<path d="M1152.81 77.8723H1145.15C1144.8 77.8723 1144.51 78.1581 1144.51 78.5106C1144.51 78.8632 1144.8 79.1489 1145.15 79.1489H1152.81C1153.16 79.1489 1153.45 78.8632 1153.45 78.5106C1153.45 78.1581 1153.16 77.8723 1152.81 77.8723Z" fill="white" fill-opacity="0.1"/>
</g>
<g filter="url(#filter4_i_347_1727)">
<path d="M1152.81 80.4255H1145.15C1144.8 80.4255 1144.51 80.7113 1144.51 81.0638C1144.51 81.4164 1144.8 81.7021 1145.15 81.7021H1152.81C1153.16 81.7021 1153.45 81.4164 1153.45 81.0638C1153.45 80.7113 1153.16 80.4255 1152.81 80.4255Z" fill="white" fill-opacity="0.1"/>
</g>
<g filter="url(#filter5_i_347_1727)">
<path d="M1135.57 95.1064C1136.28 95.1064 1136.85 94.5349 1136.85 93.8298C1136.85 93.1248 1136.28 92.5532 1135.57 92.5532C1134.87 92.5532 1134.3 93.1248 1134.3 93.8298C1134.3 94.5349 1134.87 95.1064 1135.57 95.1064Z" fill="white" fill-opacity="0.16"/>
</g>
<g filter="url(#filter6_i_347_1727)">
<path d="M1143.23 98.2979H1138.13C1137.42 98.2979 1136.85 98.8694 1136.85 99.5745C1136.85 100.28 1137.42 100.851 1138.13 100.851H1143.23C1143.94 100.851 1144.51 100.28 1144.51 99.5745C1144.51 98.8694 1143.94 98.2979 1143.23 98.2979Z" fill="white" fill-opacity="0.16"/>
</g>
<g filter="url(#filter7_i_347_1727)">
<path d="M1145.79 95.1064C1146.49 95.1064 1147.06 94.5349 1147.06 93.8298C1147.06 93.1248 1146.49 92.5532 1145.79 92.5532C1145.08 92.5532 1144.51 93.1248 1144.51 93.8298C1144.51 94.5349 1145.08 95.1064 1145.79 95.1064Z" fill="white" fill-opacity="0.16"/>
</g>
</g>
<path d="M0 45.7143C0 45.7143 302.482 128.638 460.857 128.786C702.998 129.011 841.185 88.7169 1083.29 84.2854C1283.19 80.6263 1409.81 144.38 1609.64 140.143C1774.28 136.744 1915.14 97.714 1915.14 97.714" stroke="#6F7598" stroke-width="0.5"/>
<path d="M0 49.5238C0 49.5238 307.387 143.829 465.762 143.976C707.903 144.201 846.376 85.2408 1088.48 80.8092C1288.38 77.1501 1410.23 157.838 1610.07 154.071C1775.08 151.05 1914.74 105.857 1914.74 105.857" stroke="#6F7598" stroke-width="0.5"/>
<path d="M0 53.3333C0 53.3333 312.292 159.019 470.667 159.166C712.808 159.392 851.566 81.7646 1093.67 77.3331C1293.57 73.6739 1410.65 171.296 1610.5 168C1775.88 165.356 1914.33 114 1914.33 114" stroke="#6F7598" stroke-width="0.5"/>
<path d="M746.438 91.5813C746.398 91.6825 746.336 91.7739 746.258 91.8493C746.179 91.9248 746.085 91.9825 745.982 92.0186C745.88 92.0547 745.77 92.0684 745.662 92.0588C745.553 92.0491 745.448 92.0164 745.353 91.9627L742.412 89.6768L740.525 91.4188C740.481 91.4512 740.43 91.472 740.376 91.4794C740.322 91.4868 740.267 91.4805 740.216 91.4611L740.578 88.223L740.588 88.2327L740.596 88.1688C740.596 88.1688 745.888 83.3502 746.104 83.1454C746.323 82.9407 746.25 82.8962 746.25 82.8962C746.263 82.6471 745.859 82.8962 745.859 82.8962L738.846 87.4072L735.927 86.4127C735.927 86.4127 735.478 86.2524 735.436 85.8982C735.392 85.5472 735.941 85.3565 735.941 85.3565L747.551 80.7437C747.551 80.7437 748.505 80.319 748.505 81.0232L746.438 91.5813Z" fill="white" fill-opacity="0.78"/>
<g filter="url(#filter8_bii_347_1727)">
<path d="M742.992 75.1667C737.008 75.1667 732.158 80.0167 732.158 86C732.158 91.9832 737.008 96.8333 742.992 96.8333C748.975 96.8333 753.825 91.9832 753.825 86C753.825 80.0167 748.975 75.1667 742.992 75.1667ZM746.437 91.5813C746.396 91.6825 746.334 91.7739 746.256 91.8493C746.177 91.9248 746.083 91.9825 745.98 92.0186C745.878 92.0547 745.768 92.0684 745.66 92.0588C745.551 92.0491 745.446 92.0163 745.351 91.9627L742.41 89.6768L740.523 91.4188C740.479 91.4512 740.428 91.472 740.374 91.4794C740.32 91.4867 740.265 91.4805 740.214 91.4611L740.576 88.223L740.587 88.2327L740.594 88.1688C740.594 88.1688 745.886 83.3502 746.102 83.1454C746.321 82.9407 746.248 82.8962 746.248 82.8962C746.261 82.6471 745.857 82.8962 745.857 82.8962L738.845 87.4072L735.925 86.4127C735.925 86.4127 735.476 86.2513 735.434 85.8982C735.39 85.5472 735.939 85.3565 735.939 85.3565L747.549 80.7437C747.549 80.7437 748.504 80.319 748.504 81.0232L746.437 91.5813Z" fill="white" fill-opacity="0.2"/>
</g>
<path d="M0 57.1429C0 57.1429 317.197 174.209 475.571 174.357C717.713 174.582 856.757 78.2884 1098.86 73.8569C1298.76 70.1978 1411.06 184.754 1610.93 181.928C1776.69 179.663 1913.93 122.143 1913.93 122.143" stroke="#6F7598" stroke-width="0.5"/>
<path d="M0 60.9524C0 60.9524 322.101 189.4 480.476 189.547C722.617 189.773 861.947 74.8122 1104.05 70.3807C1303.95 66.7216 1411.48 198.211 1611.36 195.857C1777.49 193.969 1913.52 130.285 1913.52 130.285" stroke="#6F7598" stroke-width="0.5"/>
<path d="M0 64.7619C0 64.7619 327.006 204.59 485.381 204.738C727.522 204.963 867.137 71.336 1109.24 66.9045C1309.14 63.2454 1411.9 211.669 1611.79 209.785C1778.29 208.275 1913.12 138.428 1913.12 138.428" stroke="#6F7598" stroke-width="0.5"/>
<path d="M0 73.7744C0 73.7744 331.911 224.984 490.286 225.131C732.427 225.357 872.328 73.0628 1114.43 68.6313C1314.33 64.9722 1412.31 230.33 1612.21 228.917C1779.09 227.784 1912.71 151.774 1912.71 151.774" stroke="#6F7598" stroke-width="0.5"/>
<path d="M0 84.8642C0 84.8642 336.816 247.455 495.19 247.602C737.332 247.827 877.518 76.8668 1119.62 72.4353C1319.52 68.7762 1412.73 251.068 1612.64 250.126C1779.9 249.371 1912.31 167.197 1912.31 167.197" stroke="#6F7598" stroke-width="0.5"/>
<path d="M0 95.9548C0 95.9548 341.72 269.926 500.095 270.074C742.236 270.299 882.709 80.6718 1124.81 76.2403C1324.71 72.5812 1413.15 271.806 1613.07 271.336C1780.7 270.958 1911.9 182.621 1911.9 182.621" stroke="#6F7598" stroke-width="0.5"/>
<g clip-path="url(#clip1_347_1727)">
<path d="M634.217 250.5H619.761C618.76 250.499 617.791 250.149 617.022 249.509L615.928 248.599C615.371 248.137 614.941 247.542 614.679 246.868C614.416 246.195 614.329 245.465 614.426 244.749L615.152 239.31C615.235 238.681 615.457 238.078 615.803 237.546C616.149 237.014 616.609 236.565 617.15 236.234L619.887 234.546C619.387 233.408 619.102 232.187 619.044 230.944C619.044 227.828 624.323 223 626.989 223C629.655 223 634.933 227.828 634.933 230.944C634.876 232.187 634.591 233.408 634.092 234.546L636.952 236.309C637.451 236.618 637.882 237.026 638.217 237.508C638.552 237.99 638.785 238.535 638.901 239.111L639.581 244.784C639.668 245.492 639.575 246.21 639.311 246.873C639.047 247.536 638.621 248.122 638.072 248.577L636.956 249.508C636.187 250.148 635.218 250.499 634.217 250.5Z" fill="url(#paint11_linear_347_1727)"/>
<g filter="url(#filter9_i_347_1727)">
<path d="M626.989 237.666C624.796 237.666 622.1 234.297 622.1 231.555C622.1 231.448 622.128 231.342 622.182 231.249C622.235 231.156 622.313 231.078 622.406 231.025L625.471 229.274C625.933 229.011 626.455 228.873 626.987 228.873C627.518 228.873 628.04 229.011 628.502 229.274L631.572 231.026C631.665 231.08 631.742 231.157 631.796 231.25C631.85 231.342 631.878 231.448 631.878 231.555C631.878 234.297 629.182 237.666 626.989 237.666Z" fill="white" fill-opacity="0.1"/>
</g>
<path d="M622.288 231.555L622.288 231.555C622.287 231.48 622.307 231.407 622.344 231.342C622.381 231.278 622.435 231.225 622.499 231.187C622.499 231.187 622.499 231.187 622.499 231.187L625.564 229.437C625.564 229.437 625.564 229.437 625.564 229.437C625.997 229.19 626.488 229.06 626.987 229.06C627.485 229.06 627.976 229.19 628.409 229.437L631.479 231.188C631.479 231.188 631.479 231.188 631.479 231.189C631.543 231.226 631.597 231.279 631.634 231.343L631.796 231.25L631.634 231.343C631.671 231.408 631.69 231.481 631.69 231.555C631.69 232.871 631.04 234.359 630.11 235.522C629.174 236.692 627.999 237.479 626.989 237.479C625.979 237.479 624.804 236.692 623.868 235.522C622.938 234.359 622.288 232.871 622.288 231.555Z" stroke="url(#paint12_linear_347_1727)" stroke-opacity="0.1" stroke-width="0.375"/>
<g filter="url(#filter10_i_347_1727)">
<path d="M620.105 237.412C620.2 237.544 620.343 237.633 620.503 237.659C620.662 237.685 620.826 237.647 620.958 237.552C621.09 237.458 621.178 237.315 621.205 237.155C621.231 236.995 621.193 236.831 621.098 236.7C620.617 236.027 620.211 235.304 619.887 234.544L619.88 234.54V234.546L618.841 235.188C619.184 235.971 619.608 236.717 620.105 237.412Z" fill="white" fill-opacity="0.1"/>
</g>
<g filter="url(#filter11_i_347_1727)">
<path d="M633.874 237.412C633.78 237.544 633.637 237.633 633.477 237.659C633.317 237.685 633.153 237.647 633.021 237.552C632.89 237.458 632.801 237.315 632.775 237.155C632.748 236.995 632.787 236.831 632.881 236.7C633.363 236.028 633.77 235.305 634.093 234.544L634.1 234.54V234.546L635.139 235.188C634.795 235.971 634.372 236.717 633.874 237.412Z" fill="white" fill-opacity="0.1"/>
</g>
<g filter="url(#filter12_bi_347_1727)">
<path d="M635.277 241.451C635.154 241.329 634.988 241.261 634.816 241.261H619.163C618.99 241.261 618.825 241.33 618.702 241.452C618.58 241.574 618.511 241.74 618.511 241.913V252.348C618.511 252.521 618.58 252.687 618.702 252.809C618.825 252.931 618.99 253 619.163 253H634.816C634.989 253 635.154 252.931 635.277 252.809C635.399 252.687 635.468 252.521 635.468 252.348V241.913C635.468 241.827 635.451 241.742 635.418 241.663C635.385 241.584 635.337 241.512 635.277 241.451Z" fill="#1D1D1D" fill-opacity="0.05"/>
<path d="M635.277 241.451C635.154 241.329 634.988 241.261 634.816 241.261H619.163C618.99 241.261 618.825 241.33 618.702 241.452C618.58 241.574 618.511 241.74 618.511 241.913V252.348C618.511 252.521 618.58 252.687 618.702 252.809C618.825 252.931 618.99 253 619.163 253H634.816C634.989 253 635.154 252.931 635.277 252.809C635.399 252.687 635.468 252.521 635.468 252.348V241.913C635.468 241.827 635.451 241.742 635.418 241.663C635.385 241.584 635.337 241.512 635.277 241.451Z" fill="url(#paint13_linear_347_1727)" fill-opacity="0.2"/>
<path d="M635.468 252.348V241.913C635.468 241.827 635.451 241.742 635.418 241.663C635.385 241.584 635.337 241.512 635.277 241.451C635.154 241.329 634.988 241.261 634.816 241.261H619.163C618.99 241.261 618.825 241.33 618.702 241.452C618.58 241.574 618.511 241.74 618.511 241.913V252.348C618.511 252.521 618.58 252.687 618.702 252.809C618.825 252.931 618.99 253 619.163 253H634.816C634.989 253 635.154 252.931 635.277 252.809C635.399 252.687 635.468 252.521 635.468 252.348ZM634.816 241.448L634.816 241.448C634.939 241.448 635.057 241.497 635.144 241.584C635.187 241.627 635.222 241.678 635.245 241.735C635.268 241.791 635.28 241.852 635.28 241.913V241.913V252.348C635.28 252.471 635.231 252.589 635.144 252.676C635.057 252.764 634.939 252.812 634.816 252.812H619.163C619.04 252.812 618.922 252.764 618.835 252.676C618.748 252.589 618.699 252.471 618.699 252.348V241.913C618.699 241.79 618.748 241.672 618.835 241.584C618.922 241.497 619.04 241.448 619.163 241.448L634.816 241.448Z" stroke="url(#paint14_linear_347_1727)" stroke-opacity="0.1" stroke-width="0.375"/>
</g>
<g filter="url(#filter13_i_347_1727)">
<path d="M626.989 249.087C628.069 249.087 628.945 248.211 628.945 247.13C628.945 246.05 628.069 245.174 626.989 245.174C625.908 245.174 625.032 246.05 625.032 247.13C625.032 248.211 625.908 249.087 626.989 249.087Z" fill="white" fill-opacity="0.1"/>
</g>
</g>
<g filter="url(#filter14_b_347_1727)">
<rect x="366.588" y="156.231" width="30.9346" height="30.9346" rx="5.2218" transform="rotate(-3.86916 366.588 156.231)" fill="#B2E7FE" fill-opacity="0.08"/>
<rect x="366.762" y="156.383" width="30.6082" height="30.6082" rx="5.05862" transform="rotate(-3.86916 366.762 156.383)" stroke="url(#paint15_linear_347_1727)" stroke-width="0.326363"/>
<rect x="366.762" y="156.383" width="30.6082" height="30.6082" rx="5.05862" transform="rotate(-3.86916 366.762 156.383)" stroke="url(#paint16_linear_347_1727)" stroke-width="0.326363"/>
</g>
<g filter="url(#filter15_bdii_347_1727)">
<path fill-rule="evenodd" clip-rule="evenodd" d="M367.964 161.782C367.94 161.42 367.927 161.239 367.928 161.086C367.938 158.979 369.493 157.198 371.58 156.904C371.731 156.883 371.912 156.871 372.274 156.846L391.902 155.519C392.263 155.494 392.444 155.482 392.598 155.483C394.705 155.493 396.485 157.048 396.779 159.134C396.8 159.286 396.812 159.467 396.837 159.829C396.839 159.857 396.84 159.871 396.84 159.882C396.839 160.044 396.719 160.181 396.559 160.204C396.547 160.206 396.533 160.207 396.505 160.208L368.344 162.113C368.316 162.115 368.302 162.116 368.29 162.116C368.128 162.115 367.991 161.995 367.968 161.835C367.967 161.823 367.966 161.809 367.964 161.782ZM370.641 160.707C371.329 160.661 371.848 160.066 371.802 159.379C371.755 158.691 371.16 158.172 370.473 158.218C369.786 158.265 369.266 158.86 369.313 159.547C369.359 160.234 369.954 160.754 370.641 160.707ZM374.126 160.472C374.813 160.425 375.333 159.83 375.286 159.143C375.24 158.456 374.645 157.936 373.958 157.983C373.27 158.029 372.751 158.624 372.797 159.311C372.844 159.999 373.439 160.518 374.126 160.472ZM377.611 160.236C378.298 160.19 378.817 159.595 378.771 158.907C378.724 158.22 378.13 157.701 377.442 157.747C376.755 157.794 376.235 158.388 376.282 159.076C376.328 159.763 376.923 160.283 377.611 160.236ZM378.586 170.922C378.419 168.448 380.289 166.306 382.763 166.139C385.238 165.971 387.379 167.842 387.547 170.316C387.714 172.79 385.844 174.932 383.369 175.099C380.895 175.267 378.753 173.397 378.586 170.922ZM377.664 179.486C377.626 178.936 378.042 178.46 378.592 178.423L388.548 177.75C389.098 177.712 389.574 178.128 389.611 178.678C389.648 179.228 389.233 179.704 388.683 179.741L378.727 180.414C378.177 180.451 377.701 180.036 377.664 179.486Z" fill="url(#paint17_linear_347_1727)"/>
</g>
<g filter="url(#filter16_b_347_1727)">
<rect x="1450" y="247" width="35" height="35" rx="10.2941" fill="#070C29"/>
<rect x="1450.13" y="247.129" width="34.7426" height="34.7426" rx="10.1654" stroke="url(#paint18_linear_347_1727)" stroke-width="0.257353"/>
<rect x="1450.13" y="247.129" width="34.7426" height="34.7426" rx="10.1654" stroke="url(#paint19_linear_347_1727)" stroke-width="0.257353"/>
</g>
<g filter="url(#filter17_bdii_347_1727)">
<path d="M1464.66 272.597L1464.8 272.998C1465.27 274.388 1466.76 275.127 1468.13 274.648C1469.5 274.17 1470.23 272.655 1469.76 271.264L1469.62 270.864M1465.79 256.136L1465.45 255.128C1465.07 254.016 1463.88 253.425 1462.78 253.808C1461.68 254.191 1461.1 255.403 1461.48 256.515L1461.82 257.523M1460.07 263.671C1459.13 260.922 1460.57 257.926 1463.28 256.979L1465.24 256.294C1467.95 255.347 1470.9 256.809 1471.84 259.557L1472.88 262.629C1473.08 263.212 1473.49 263.69 1474.04 263.96L1474.97 264.421C1475.52 264.692 1475.94 265.17 1476.13 265.752C1476.52 266.899 1475.92 268.149 1474.79 268.544L1463.19 272.598C1462.06 272.993 1460.83 272.383 1460.44 271.237C1460.24 270.653 1460.28 270.016 1460.54 269.461L1461 268.515C1461.27 267.961 1461.3 267.323 1461.11 266.74L1460.07 263.671Z" stroke="url(#paint20_linear_347_1727)" stroke-width="2.05882" stroke-linecap="round" stroke-linejoin="round"/>
</g>
<path fill-rule="evenodd" clip-rule="evenodd" d="M1347.93 67.6292C1348.32 66.5928 1349.39 65.8711 1350.51 65.8674L1353.29 65.8694C1354.06 65.8669 1354.77 66.0787 1355.27 66.6546L1357.86 69.5957C1358.44 70.2587 1358.69 71.2955 1358.45 72.1436C1358.21 72.9917 1357.52 73.6276 1356.67 73.9059L1349.33 76.4481C1348.35 76.7676 1347.25 76.3853 1346.55 75.6623C1345.84 74.9394 1345.79 73.8671 1346.15 72.9187L1347.93 67.6292Z" fill="url(#paint21_linear_347_1727)"/>
<g filter="url(#filter18_bii_347_1727)">
<path d="M1371.71 63.4237C1371.71 70.2742 1366.02 75.8276 1359.01 75.8276C1352 75.8276 1346.31 70.2742 1346.31 63.4237C1346.31 56.5731 1352 51.0197 1359.01 51.0197C1366.02 51.0197 1371.71 56.5731 1371.71 63.4237Z" fill="white" fill-opacity="0.03"/>
</g>
<g filter="url(#filter19_i_347_1727)">
<ellipse cx="1359.15" cy="63.5648" rx="1.24216" ry="1.26859" fill="white" fill-opacity="0.1"/>
</g>
<g filter="url(#filter20_i_347_1727)">
<ellipse cx="1364.12" cy="63.5648" rx="1.24216" ry="1.26859" fill="white" fill-opacity="0.1"/>
</g>
<g filter="url(#filter21_i_347_1727)">
<ellipse cx="1354.18" cy="63.5648" rx="1.24216" ry="1.26859" fill="white" fill-opacity="0.1"/>
</g>
<defs>
<filter id="filter0_bi_347_1727" x="1123.19" y="82.0851" width="34.9785" height="28.5957" filterUnits="userSpaceOnUse" color-interpolation-filters="sRGB">
<feFlood flood-opacity="0" result="BackgroundImageFix"/>
<feGaussianBlur in="BackgroundImageFix" stdDeviation="3"/>
<feComposite in2="SourceAlpha" operator="in" result="effect1_backgroundBlur_347_1727"/>
<feBlend mode="normal" in="SourceGraphic" in2="effect1_backgroundBlur_347_1727" result="shape"/>
<feColorMatrix in="SourceAlpha" type="matrix" values="0 0 0 0 0 0 0 0 0 0 0 0 0 0 0 0 0 0 127 0" result="hardAlpha"/>
<feOffset dy="1"/>
<feGaussianBlur stdDeviation="1.5"/>
<feComposite in2="hardAlpha" operator="arithmetic" k2="-1" k3="1"/>
<feColorMatrix type="matrix" values="0 0 0 0 1 0 0 0 0 1 0 0 0 0 1 0 0 0 0.15 0"/>
<feBlend mode="normal" in2="shape" result="effect2_innerShadow_347_1727"/>
</filter>
<filter id="filter1_bi_347_1727" x="1135.96" y="69.3192" width="26.0425" height="25.3532" filterUnits="userSpaceOnUse" color-interpolation-filters="sRGB">
<feFlood flood-opacity="0" result="BackgroundImageFix"/>
<feGaussianBlur in="BackgroundImageFix" stdDeviation="3"/>
<feComposite in2="SourceAlpha" operator="in" result="effect1_backgroundBlur_347_1727"/>
<feBlend mode="normal" in="SourceGraphic" in2="effect1_backgroundBlur_347_1727" result="shape"/>
<feColorMatrix in="SourceAlpha" type="matrix" values="0 0 0 0 0 0 0 0 0 0 0 0 0 0 0 0 0 0 127 0" result="hardAlpha"/>
<feOffset dy="1"/>
<feGaussianBlur stdDeviation="1.5"/>
<feComposite in2="hardAlpha" operator="arithmetic" k2="-1" k3="1"/>
<feColorMatrix type="matrix" values="0 0 0 0 1 0 0 0 0 1 0 0 0 0 1 0 0 0 0.15 0"/>
<feBlend mode="normal" in2="shape" result="effect2_innerShadow_347_1727"/>
</filter>
<filter id="filter2_i_347_1727" x="1144.51" y="82.9787" width="5.10645" height="3.2766" filterUnits="userSpaceOnUse" color-interpolation-filters="sRGB">
<feFlood flood-opacity="0" result="BackgroundImageFix"/>
<feBlend mode="normal" in="SourceGraphic" in2="BackgroundImageFix" result="shape"/>
<feColorMatrix in="SourceAlpha" type="matrix" values="0 0 0 0 0 0 0 0 0 0 0 0 0 0 0 0 0 0 127 0" result="hardAlpha"/>
<feOffset dy="2"/>
<feGaussianBlur stdDeviation="1"/>
<feComposite in2="hardAlpha" operator="arithmetic" k2="-1" k3="1"/>
<feColorMatrix type="matrix" values="0 0 0 0 1 0 0 0 0 1 0 0 0 0 1 0 0 0 0.1 0"/>
<feBlend mode="normal" in2="shape" result="effect1_innerShadow_347_1727"/>
</filter>
<filter id="filter3_i_347_1727" x="1144.51" y="77.8723" width="8.93604" height="3.2766" filterUnits="userSpaceOnUse" color-interpolation-filters="sRGB">
<feFlood flood-opacity="0" result="BackgroundImageFix"/>
<feBlend mode="normal" in="SourceGraphic" in2="BackgroundImageFix" result="shape"/>
<feColorMatrix in="SourceAlpha" type="matrix" values="0 0 0 0 0 0 0 0 0 0 0 0 0 0 0 0 0 0 127 0" result="hardAlpha"/>
<feOffset dy="2"/>
<feGaussianBlur stdDeviation="1"/>
<feComposite in2="hardAlpha" operator="arithmetic" k2="-1" k3="1"/>
<feColorMatrix type="matrix" values="0 0 0 0 1 0 0 0 0 1 0 0 0 0 1 0 0 0 0.1 0"/>
<feBlend mode="normal" in2="shape" result="effect1_innerShadow_347_1727"/>
</filter>
<filter id="filter4_i_347_1727" x="1144.51" y="80.4255" width="8.93604" height="3.2766" filterUnits="userSpaceOnUse" color-interpolation-filters="sRGB">
<feFlood flood-opacity="0" result="BackgroundImageFix"/>
<feBlend mode="normal" in="SourceGraphic" in2="BackgroundImageFix" result="shape"/>
<feColorMatrix in="SourceAlpha" type="matrix" values="0 0 0 0 0 0 0 0 0 0 0 0 0 0 0 0 0 0 127 0" result="hardAlpha"/>
<feOffset dy="2"/>
<feGaussianBlur stdDeviation="1"/>
<feComposite in2="hardAlpha" operator="arithmetic" k2="-1" k3="1"/>
<feColorMatrix type="matrix" values="0 0 0 0 1 0 0 0 0 1 0 0 0 0 1 0 0 0 0.1 0"/>
<feBlend mode="normal" in2="shape" result="effect1_innerShadow_347_1727"/>
</filter>
<filter id="filter5_i_347_1727" x="1134.3" y="92.5532" width="2.55322" height="4.55319" filterUnits="userSpaceOnUse" color-interpolation-filters="sRGB">
<feFlood flood-opacity="0" result="BackgroundImageFix"/>
<feBlend mode="normal" in="SourceGraphic" in2="BackgroundImageFix" result="shape"/>
<feColorMatrix in="SourceAlpha" type="matrix" values="0 0 0 0 0 0 0 0 0 0 0 0 0 0 0 0 0 0 127 0" result="hardAlpha"/>
<feOffset dy="2"/>
<feGaussianBlur stdDeviation="1"/>
<feComposite in2="hardAlpha" operator="arithmetic" k2="-1" k3="1"/>
<feColorMatrix type="matrix" values="0 0 0 0 1 0 0 0 0 1 0 0 0 0 1 0 0 0 0.4 0"/>
<feBlend mode="normal" in2="shape" result="effect1_innerShadow_347_1727"/>
</filter>
<filter id="filter6_i_347_1727" x="1136.85" y="98.2979" width="7.65967" height="4.55319" filterUnits="userSpaceOnUse" color-interpolation-filters="sRGB">
<feFlood flood-opacity="0" result="BackgroundImageFix"/>
<feBlend mode="normal" in="SourceGraphic" in2="BackgroundImageFix" result="shape"/>
<feColorMatrix in="SourceAlpha" type="matrix" values="0 0 0 0 0 0 0 0 0 0 0 0 0 0 0 0 0 0 127 0" result="hardAlpha"/>
<feOffset dy="2"/>
<feGaussianBlur stdDeviation="1"/>
<feComposite in2="hardAlpha" operator="arithmetic" k2="-1" k3="1"/>
<feColorMatrix type="matrix" values="0 0 0 0 1 0 0 0 0 1 0 0 0 0 1 0 0 0 0.4 0"/>
<feBlend mode="normal" in2="shape" result="effect1_innerShadow_347_1727"/>
</filter>
<filter id="filter7_i_347_1727" x="1144.51" y="92.5532" width="2.55322" height="4.55319" filterUnits="userSpaceOnUse" color-interpolation-filters="sRGB">
<feFlood flood-opacity="0" result="BackgroundImageFix"/>
<feBlend mode="normal" in="SourceGraphic" in2="BackgroundImageFix" result="shape"/>
<feColorMatrix in="SourceAlpha" type="matrix" values="0 0 0 0 0 0 0 0 0 0 0 0 0 0 0 0 0 0 127 0" result="hardAlpha"/>
<feOffset dy="2"/>
<feGaussianBlur stdDeviation="1"/>
<feComposite in2="hardAlpha" operator="arithmetic" k2="-1" k3="1"/>
<feColorMatrix type="matrix" values="0 0 0 0 1 0 0 0 0 1 0 0 0 0 1 0 0 0 0.4 0"/>
<feBlend mode="normal" in2="shape" result="effect1_innerShadow_347_1727"/>
</filter>
<filter id="filter8_bii_347_1727" x="728.158" y="71.1667" width="29.6665" height="29.6667" filterUnits="userSpaceOnUse" color-interpolation-filters="sRGB">
<feFlood flood-opacity="0" result="BackgroundImageFix"/>
<feGaussianBlur in="BackgroundImageFix" stdDeviation="2"/>
<feComposite in2="SourceAlpha" operator="in" result="effect1_backgroundBlur_347_1727"/>
<feBlend mode="normal" in="SourceGraphic" in2="effect1_backgroundBlur_347_1727" result="shape"/>
<feColorMatrix in="SourceAlpha" type="matrix" values="0 0 0 0 0 0 0 0 0 0 0 0 0 0 0 0 0 0 127 0" result="hardAlpha"/>
<feOffset dy="-4"/>
<feGaussianBlur stdDeviation="2"/>
<feComposite in2="hardAlpha" operator="arithmetic" k2="-1" k3="1"/>
<feColorMatrix type="matrix" values="0 0 0 0 1 0 0 0 0 1 0 0 0 0 1 0 0 0 0.05 0"/>
<feBlend mode="normal" in2="shape" result="effect2_innerShadow_347_1727"/>
<feColorMatrix in="SourceAlpha" type="matrix" values="0 0 0 0 0 0 0 0 0 0 0 0 0 0 0 0 0 0 127 0" result="hardAlpha"/>
<feOffset dx="-4" dy="-4"/>
<feGaussianBlur stdDeviation="2"/>
<feComposite in2="hardAlpha" operator="arithmetic" k2="-1" k3="1"/>
<feColorMatrix type="matrix" values="0 0 0 0 1 0 0 0 0 1 0 0 0 0 1 0 0 0 0.05 0"/>
<feBlend mode="normal" in2="effect2_innerShadow_347_1727" result="effect3_innerShadow_347_1727"/>
</filter>
<filter id="filter9_i_347_1727" x="622.1" y="228.873" width="9.77783" height="10.7935" filterUnits="userSpaceOnUse" color-interpolation-filters="sRGB">
<feFlood flood-opacity="0" result="BackgroundImageFix"/>
<feBlend mode="normal" in="SourceGraphic" in2="BackgroundImageFix" result="shape"/>
<feColorMatrix in="SourceAlpha" type="matrix" values="0 0 0 0 0 0 0 0 0 0 0 0 0 0 0 0 0 0 127 0" result="hardAlpha"/>
<feOffset dy="2"/>
<feGaussianBlur stdDeviation="1"/>
<feComposite in2="hardAlpha" operator="arithmetic" k2="-1" k3="1"/>
<feColorMatrix type="matrix" values="0 0 0 0 1 0 0 0 0 1 0 0 0 0 1 0 0 0 0.1 0"/>
<feBlend mode="normal" in2="shape" result="effect1_innerShadow_347_1727"/>
</filter>
<filter id="filter10_i_347_1727" x="618.841" y="234.54" width="2.37207" height="5.12708" filterUnits="userSpaceOnUse" color-interpolation-filters="sRGB">
<feFlood flood-opacity="0" result="BackgroundImageFix"/>
<feBlend mode="normal" in="SourceGraphic" in2="BackgroundImageFix" result="shape"/>
<feColorMatrix in="SourceAlpha" type="matrix" values="0 0 0 0 0 0 0 0 0 0 0 0 0 0 0 0 0 0 127 0" result="hardAlpha"/>
<feOffset dy="2"/>
<feGaussianBlur stdDeviation="1"/>
<feComposite in2="hardAlpha" operator="arithmetic" k2="-1" k3="1"/>
<feColorMatrix type="matrix" values="0 0 0 0 1 0 0 0 0 1 0 0 0 0 1 0 0 0 0.1 0"/>
<feBlend mode="normal" in2="shape" result="effect1_innerShadow_347_1727"/>
</filter>
<filter id="filter11_i_347_1727" x="632.767" y="234.54" width="2.37207" height="5.12708" filterUnits="userSpaceOnUse" color-interpolation-filters="sRGB">
<feFlood flood-opacity="0" result="BackgroundImageFix"/>
<feBlend mode="normal" in="SourceGraphic" in2="BackgroundImageFix" result="shape"/>
<feColorMatrix in="SourceAlpha" type="matrix" values="0 0 0 0 0 0 0 0 0 0 0 0 0 0 0 0 0 0 127 0" result="hardAlpha"/>
<feOffset dy="2"/>
<feGaussianBlur stdDeviation="1"/>
<feComposite in2="hardAlpha" operator="arithmetic" k2="-1" k3="1"/>
<feColorMatrix type="matrix" values="0 0 0 0 1 0 0 0 0 1 0 0 0 0 1 0 0 0 0.1 0"/>
<feBlend mode="normal" in2="shape" result="effect1_innerShadow_347_1727"/>
</filter>
<filter id="filter12_bi_347_1727" x="612.511" y="235.261" width="28.9565" height="23.7391" filterUnits="userSpaceOnUse" color-interpolation-filters="sRGB">
<feFlood flood-opacity="0" result="BackgroundImageFix"/>
<feGaussianBlur in="BackgroundImageFix" stdDeviation="3"/>
<feComposite in2="SourceAlpha" operator="in" result="effect1_backgroundBlur_347_1727"/>
<feBlend mode="normal" in="SourceGraphic" in2="effect1_backgroundBlur_347_1727" result="shape"/>
<feColorMatrix in="SourceAlpha" type="matrix" values="0 0 0 0 0 0 0 0 0 0 0 0 0 0 0 0 0 0 127 0" result="hardAlpha"/>
<feOffset dy="1"/>
<feGaussianBlur stdDeviation="1.5"/>
<feComposite in2="hardAlpha" operator="arithmetic" k2="-1" k3="1"/>
<feColorMatrix type="matrix" values="0 0 0 0 1 0 0 0 0 1 0 0 0 0 1 0 0 0 0.15 0"/>
<feBlend mode="normal" in2="shape" result="effect2_innerShadow_347_1727"/>
</filter>
<filter id="filter13_i_347_1727" x="625.032" y="245.174" width="3.91309" height="5.91306" filterUnits="userSpaceOnUse" color-interpolation-filters="sRGB">
<feFlood flood-opacity="0" result="BackgroundImageFix"/>
<feBlend mode="normal" in="SourceGraphic" in2="BackgroundImageFix" result="shape"/>
<feColorMatrix in="SourceAlpha" type="matrix" values="0 0 0 0 0 0 0 0 0 0 0 0 0 0 0 0 0 0 127 0" result="hardAlpha"/>
<feOffset dy="2"/>
<feGaussianBlur stdDeviation="1"/>
<feComposite in2="hardAlpha" operator="arithmetic" k2="-1" k3="1"/>
<feColorMatrix type="matrix" values="0 0 0 0 1 0 0 0 0 1 0 0 0 0 1 0 0 0 0.1 0"/>
<feBlend mode="normal" in2="shape" result="effect1_innerShadow_347_1727"/>
</filter>
<filter id="filter14_b_347_1727" x="351.324" y="138.88" width="63.4783" height="63.4783" filterUnits="userSpaceOnUse" color-interpolation-filters="sRGB">
<feFlood flood-opacity="0" result="BackgroundImageFix"/>
<feGaussianBlur in="BackgroundImageFix" stdDeviation="7.8327"/>
<feComposite in2="SourceAlpha" operator="in" result="effect1_backgroundBlur_347_1727"/>
<feBlend mode="normal" in="SourceGraphic" in2="effect1_backgroundBlur_347_1727" result="shape"/>
</filter>
<filter id="filter15_bdii_347_1727" x="352.263" y="139.818" width="60.2424" height="56.2643" filterUnits="userSpaceOnUse" color-interpolation-filters="sRGB">
<feFlood flood-opacity="0" result="BackgroundImageFix"/>
<feGaussianBlur in="BackgroundImageFix" stdDeviation="7.8327"/>
<feComposite in2="SourceAlpha" operator="in" result="effect1_backgroundBlur_347_1727"/>
<feColorMatrix in="SourceAlpha" type="matrix" values="0 0 0 0 0 0 0 0 0 0 0 0 0 0 0 0 0 0 127 0" result="hardAlpha"/>
<feOffset dx="3.26363" dy="3.26363"/>
<feGaussianBlur stdDeviation="3.26363"/>
<feColorMatrix type="matrix" values="0 0 0 0 0.258824 0 0 0 0 0.631373 0 0 0 0 0.996078 0 0 0 0.12 0"/>
<feBlend mode="normal" in2="effect1_backgroundBlur_347_1727" result="effect2_dropShadow_347_1727"/>
<feBlend mode="normal" in="SourceGraphic" in2="effect2_dropShadow_347_1727" result="shape"/>
<feColorMatrix in="SourceAlpha" type="matrix" values="0 0 0 0 0 0 0 0 0 0 0 0 0 0 0 0 0 0 127 0" result="hardAlpha"/>
<feOffset dy="0.130545"/>
<feComposite in2="hardAlpha" operator="arithmetic" k2="-1" k3="1"/>
<feColorMatrix type="matrix" values="0 0 0 0 1 0 0 0 0 1 0 0 0 0 1 0 0 0 0.25 0"/>
<feBlend mode="normal" in2="shape" result="effect3_innerShadow_347_1727"/>
<feColorMatrix in="SourceAlpha" type="matrix" values="0 0 0 0 0 0 0 0 0 0 0 0 0 0 0 0 0 0 127 0" result="hardAlpha"/>
<feOffset dy="-0.130545"/>
<feComposite in2="hardAlpha" operator="arithmetic" k2="-1" k3="1"/>
<feColorMatrix type="matrix" values="0 0 0 0 0.612986 0 0 0 0 0.697287 0 0 0 0 0.758333 0 0 0 0.25 0"/>
<feBlend mode="normal" in2="effect3_innerShadow_347_1727" result="effect4_innerShadow_347_1727"/>
</filter>
<filter id="filter16_b_347_1727" x="1437.65" y="234.647" width="59.7059" height="59.7059" filterUnits="userSpaceOnUse" color-interpolation-filters="sRGB">
<feFlood flood-opacity="0" result="BackgroundImageFix"/>
<feGaussianBlur in="BackgroundImageFix" stdDeviation="6.17647"/>
<feComposite in2="SourceAlpha" operator="in" result="effect1_backgroundBlur_347_1727"/>
<feBlend mode="normal" in="SourceGraphic" in2="effect1_backgroundBlur_347_1727" result="shape"/>
</filter>
<filter id="filter17_bdii_347_1727" x="1451.55" y="245.455" width="33.4558" height="38.0895" filterUnits="userSpaceOnUse" color-interpolation-filters="sRGB">
<feFlood flood-opacity="0" result="BackgroundImageFix"/>
<feGaussianBlur in="BackgroundImageFix" stdDeviation="3.60294"/>
<feComposite in2="SourceAlpha" operator="in" result="effect1_backgroundBlur_347_1727"/>
<feColorMatrix in="SourceAlpha" type="matrix" values="0 0 0 0 0 0 0 0 0 0 0 0 0 0 0 0 0 0 127 0" result="hardAlpha"/>
<feOffset dx="2.57353" dy="2.57353"/>
<feGaussianBlur stdDeviation="2.57353"/>
<feColorMatrix type="matrix" values="0 0 0 0 0.879167 0 0 0 0 0.337014 0 0 0 0 0.368217 0 0 0 0.12 0"/>
<feBlend mode="normal" in2="effect1_backgroundBlur_347_1727" result="effect2_dropShadow_347_1727"/>
<feBlend mode="normal" in="SourceGraphic" in2="effect2_dropShadow_347_1727" result="shape"/>
<feColorMatrix in="SourceAlpha" type="matrix" values="0 0 0 0 0 0 0 0 0 0 0 0 0 0 0 0 0 0 127 0" result="hardAlpha"/>
<feOffset dy="0.102941"/>
<feComposite in2="hardAlpha" operator="arithmetic" k2="-1" k3="1"/>
<feColorMatrix type="matrix" values="0 0 0 0 1 0 0 0 0 1 0 0 0 0 1 0 0 0 0.25 0"/>
<feBlend mode="normal" in2="shape" result="effect3_innerShadow_347_1727"/>
<feColorMatrix in="SourceAlpha" type="matrix" values="0 0 0 0 0 0 0 0 0 0 0 0 0 0 0 0 0 0 127 0" result="hardAlpha"/>
<feOffset dy="-0.102941"/>
<feComposite in2="hardAlpha" operator="arithmetic" k2="-1" k3="1"/>
<feColorMatrix type="matrix" values="0 0 0 0 0 0 0 0 0 0 0 0 0 0 0 0 0 0 0.25 0"/>
<feBlend mode="normal" in2="effect3_innerShadow_347_1727" result="effect4_innerShadow_347_1727"/>
</filter>
<filter id="filter18_bii_347_1727" x="1304.14" y="8.84561" width="109.743" height="109.156" filterUnits="userSpaceOnUse" color-interpolation-filters="sRGB">
<feFlood flood-opacity="0" result="BackgroundImageFix"/>
<feGaussianBlur in="BackgroundImageFix" stdDeviation="21.087"/>
<feComposite in2="SourceAlpha" operator="in" result="effect1_backgroundBlur_347_1727"/>
<feBlend mode="normal" in="SourceGraphic" in2="effect1_backgroundBlur_347_1727" result="shape"/>
<feColorMatrix in="SourceAlpha" type="matrix" values="0 0 0 0 0 0 0 0 0 0 0 0 0 0 0 0 0 0 127 0" result="hardAlpha"/>
<feOffset dy="2.1087"/>
<feGaussianBlur stdDeviation="1.05435"/>
<feComposite in2="hardAlpha" operator="arithmetic" k2="-1" k3="1"/>
<feColorMatrix type="matrix" values="0 0 0 0 1 0 0 0 0 1 0 0 0 0 1 0 0 0 0.15 0"/>
<feBlend mode="normal" in2="shape" result="effect2_innerShadow_347_1727"/>
<feColorMatrix in="SourceAlpha" type="matrix" values="0 0 0 0 0 0 0 0 0 0 0 0 0 0 0 0 0 0 127 0" result="hardAlpha"/>
<feOffset/>
<feGaussianBlur stdDeviation="15.8153"/>
<feComposite in2="hardAlpha" operator="arithmetic" k2="-1" k3="1"/>
<feColorMatrix type="matrix" values="0 0 0 0 1 0 0 0 0 1 0 0 0 0 1 0 0 0 0.05 0"/>
<feBlend mode="normal" in2="effect2_innerShadow_347_1727" result="effect3_innerShadow_347_1727"/>
</filter>
<filter id="filter19_i_347_1727" x="1357.91" y="62.2962" width="2.48438" height="4.64587" filterUnits="userSpaceOnUse" color-interpolation-filters="sRGB">
<feFlood flood-opacity="0" result="BackgroundImageFix"/>
<feBlend mode="normal" in="SourceGraphic" in2="BackgroundImageFix" result="shape"/>
<feColorMatrix in="SourceAlpha" type="matrix" values="0 0 0 0 0 0 0 0 0 0 0 0 0 0 0 0 0 0 127 0" result="hardAlpha"/>
<feOffset dy="2.1087"/>
<feGaussianBlur stdDeviation="1.05435"/>
<feComposite in2="hardAlpha" operator="arithmetic" k2="-1" k3="1"/>
<feColorMatrix type="matrix" values="0 0 0 0 1 0 0 0 0 1 0 0 0 0 1 0 0 0 0.15 0"/>
<feBlend mode="normal" in2="shape" result="effect1_innerShadow_347_1727"/>
</filter>
<filter id="filter20_i_347_1727" x="1362.88" y="62.2962" width="2.48438" height="4.64587" filterUnits="userSpaceOnUse" color-interpolation-filters="sRGB">
<feFlood flood-opacity="0" result="BackgroundImageFix"/>
<feBlend mode="normal" in="SourceGraphic" in2="BackgroundImageFix" result="shape"/>
<feColorMatrix in="SourceAlpha" type="matrix" values="0 0 0 0 0 0 0 0 0 0 0 0 0 0 0 0 0 0 127 0" result="hardAlpha"/>
<feOffset dy="2.1087"/>
<feGaussianBlur stdDeviation="1.05435"/>
<feComposite in2="hardAlpha" operator="arithmetic" k2="-1" k3="1"/>
<feColorMatrix type="matrix" values="0 0 0 0 1 0 0 0 0 1 0 0 0 0 1 0 0 0 0.15 0"/>
<feBlend mode="normal" in2="shape" result="effect1_innerShadow_347_1727"/>
</filter>
<filter id="filter21_i_347_1727" x="1352.94" y="62.2962" width="2.48438" height="4.64587" filterUnits="userSpaceOnUse" color-interpolation-filters="sRGB">
<feFlood flood-opacity="0" result="BackgroundImageFix"/>
<feBlend mode="normal" in="SourceGraphic" in2="BackgroundImageFix" result="shape"/>
<feColorMatrix in="SourceAlpha" type="matrix" values="0 0 0 0 0 0 0 0 0 0 0 0 0 0 0 0 0 0 127 0" result="hardAlpha"/>
<feOffset dy="2.1087"/>
<feGaussianBlur stdDeviation="1.05435"/>
<feComposite in2="hardAlpha" operator="arithmetic" k2="-1" k3="1"/>
<feColorMatrix type="matrix" values="0 0 0 0 1 0 0 0 0 1 0 0 0 0 1 0 0 0 0.15 0"/>
<feBlend mode="normal" in2="shape" result="effect1_innerShadow_347_1727"/>
</filter>
<linearGradient id="paint0_linear_347_1727" x1="1148.98" y1="93.1915" x2="1156.5" y2="95.1007" gradientUnits="userSpaceOnUse">
<stop stop-color="#75A5FF"/>
<stop offset="0.703125" stop-color="#2339FF"/>
</linearGradient>
<linearGradient id="paint1_linear_347_1727" x1="1126" y1="93.1915" x2="1133.52" y2="95.1007" gradientUnits="userSpaceOnUse">
<stop stop-color="#75A5FF"/>
<stop offset="0.703125" stop-color="#2339FF"/>
</linearGradient>
<linearGradient id="paint2_linear_347_1727" x1="1134.3" y1="78.4596" x2="1139.05" y2="78.9399" gradientUnits="userSpaceOnUse">
<stop stop-color="#75A5FF"/>
<stop offset="0.703125" stop-color="#2339FF"/>
</linearGradient>
<linearGradient id="paint3_linear_347_1727" x1="1134.3" y1="92.5532" x2="1137.31" y2="93.3169" gradientUnits="userSpaceOnUse">
<stop stop-color="#75A5FF"/>
<stop offset="0.703125" stop-color="#2339FF"/>
</linearGradient>
<linearGradient id="paint4_linear_347_1727" x1="1136.85" y1="98.2979" x2="1142.93" y2="102.928" gradientUnits="userSpaceOnUse">
<stop stop-color="#75A5FF"/>
<stop offset="0.703125" stop-color="#2339FF"/>
</linearGradient>
<linearGradient id="paint5_linear_347_1727" x1="1144.51" y1="92.5532" x2="1147.52" y2="93.3169" gradientUnits="userSpaceOnUse">
<stop stop-color="#75A5FF"/>
<stop offset="0.703125" stop-color="#2339FF"/>
</linearGradient>
<linearGradient id="paint6_linear_347_1727" x1="1129.19" y1="88.0851" x2="1154.84" y2="97.1009" gradientUnits="userSpaceOnUse">
<stop stop-color="#87FFE1"/>
<stop offset="0.776042" stop-color="#5C6DFF"/>
</linearGradient>
<linearGradient id="paint7_linear_347_1727" x1="1129.91" y1="88.8395" x2="1152.17" y2="88.8395" gradientUnits="userSpaceOnUse">
<stop stop-color="#3CDEB6"/>
<stop offset="0.65625" stop-color="#364AFF"/>
</linearGradient>
<linearGradient id="paint8_linear_347_1727" x1="1142.6" y1="76.5045" x2="1156.81" y2="81.5566" gradientUnits="userSpaceOnUse">
<stop stop-color="#75A5FF"/>
<stop offset="0.703125" stop-color="#2339FF"/>
</linearGradient>
<linearGradient id="paint9_linear_347_1727" x1="1141.96" y1="75.3192" x2="1158.39" y2="79.7081" gradientUnits="userSpaceOnUse">
<stop stop-color="#87FFE1"/>
<stop offset="0.776042" stop-color="#5C6DFF"/>
</linearGradient>
<linearGradient id="paint10_linear_347_1727" x1="1142.4" y1="75.9261" x2="1156" y2="75.9261" gradientUnits="userSpaceOnUse">
<stop stop-color="#3CDEB6"/>
<stop offset="0.65625" stop-color="#364AFF"/>
</linearGradient>
<linearGradient id="paint11_linear_347_1727" x1="614.388" y1="223" x2="644.39" y2="229.988" gradientUnits="userSpaceOnUse">
<stop stop-color="#929292"/>
<stop offset="0.703125" stop-color="#1021B8"/>
</linearGradient>
<linearGradient id="paint12_linear_347_1727" x1="622.406" y1="229.273" x2="631.878" y2="229.273" gradientUnits="userSpaceOnUse">
<stop stop-color="#3CDEB6"/>
<stop offset="0.65625" stop-color="#364AFF"/>
</linearGradient>
<linearGradient id="paint13_linear_347_1727" x1="618.511" y1="241.261" x2="637.252" y2="248.135" gradientUnits="userSpaceOnUse">
<stop stop-color="#87FFE1"/>
<stop offset="0.776042" stop-color="#5C6DFF"/>
</linearGradient>
<linearGradient id="paint14_linear_347_1727" x1="619.041" y1="241.794" x2="635.468" y2="241.794" gradientUnits="userSpaceOnUse">
<stop stop-color="#3CDEB6"/>
<stop offset="0.65625" stop-color="#364AFF"/>
</linearGradient>
<linearGradient id="paint15_linear_347_1727" x1="372.047" y1="184.208" x2="395.212" y2="159.609" gradientUnits="userSpaceOnUse">
<stop stop-color="#3AC1FD" stop-opacity="0.16"/>
<stop offset="1" stop-color="white" stop-opacity="0"/>
</linearGradient>
<linearGradient id="paint16_linear_347_1727" x1="372.047" y1="184.208" x2="395.212" y2="159.609" gradientUnits="userSpaceOnUse">
<stop stop-color="white" stop-opacity="0"/>
<stop offset="1" stop-color="white" stop-opacity="0.16"/>
</linearGradient>
<linearGradient id="paint17_linear_347_1727" x1="385.601" y1="147.812" x2="379.748" y2="215.181" gradientUnits="userSpaceOnUse">
<stop stop-color="white" stop-opacity="0.88"/>
<stop offset="1" stop-color="white" stop-opacity="0"/>
</linearGradient>
<linearGradient id="paint18_linear_347_1727" x1="1456.18" y1="278.654" x2="1482.39" y2="250.822" gradientUnits="userSpaceOnUse">
<stop stop-color="#070B29"/>
<stop offset="1" stop-color="white" stop-opacity="0"/>
</linearGradient>
<linearGradient id="paint19_linear_347_1727" x1="1456.18" y1="278.654" x2="1482.39" y2="250.822" gradientUnits="userSpaceOnUse">
<stop stop-color="white" stop-opacity="0"/>
<stop offset="1" stop-color="white" stop-opacity="0.16"/>
</linearGradient>
<linearGradient id="paint20_linear_347_1727" x1="1470.33" y1="247.096" x2="1458.57" y2="300.104" gradientUnits="userSpaceOnUse">
<stop stop-color="white" stop-opacity="0.88"/>
<stop offset="1" stop-color="white" stop-opacity="0"/>
</linearGradient>
<linearGradient id="paint21_linear_347_1727" x1="1343" y1="72.1634" x2="1357.88" y2="66.2134" gradientUnits="userSpaceOnUse">
<stop stop-color="#4262FF"/>
<stop offset="1" stop-color="#6C7DCE"/>
</linearGradient>
<clipPath id="clip0_347_1727">
<rect width="30" height="30" fill="white" transform="translate(1126 75)"/>
</clipPath>
<clipPath id="clip1_347_1727">
<rect width="30" height="30" fill="white" transform="translate(612 223)"/>
</clipPath>
</defs>
</svg>
