<svg width="1920" height="3445" viewBox="0 0 1920 3445" fill="none" xmlns="http://www.w3.org/2000/svg">
<path fill-rule="evenodd" clip-rule="evenodd" d="M9.89257 2344.6C-133.9 2135.84 -249.733 1907.06 -228.147 1652.25C-201.545 1338.21 -320.711 955.706 -25.8037 828.7C268.003 702.168 734.562 999.519 1045.55 1056.76C1406.78 1123.24 1798.49 908.18 2054.82 1163.96C2319.1 1427.66 2244.58 1889.57 2110.72 2244.01C1986.83 2572.04 1715.06 2847.27 1377.97 2956.12C1087.3 3049.99 804.953 2876.7 530.861 2754.18C320.02 2659.93 139.687 2533.03 9.89257 2344.6Z" fill="url(#paint0_linear_447_48565)"/>
<path fill-rule="evenodd" clip-rule="evenodd" d="M-8.10195 2360.27C-152.978 2149.64 -269.907 1918.96 -249.221 1662.59C-223.727 1346.63 -344.568 961.227 -49.5 834.499C244.467 708.244 713.129 1009.24 1025 1068C1387.24 1136.25 1778.99 921.259 2036.83 1179.63C2302.65 1446.01 2229.68 1910.61 2096.85 2266.83C1973.91 2596.52 1702.59 2872.5 1365.18 2980.81C1074.23 3074.2 790.636 2898.74 515.502 2774.42C303.86 2678.79 122.67 2550.4 -8.10195 2360.27Z" fill="url(#paint1_linear_447_48565)"/>
<defs>
<linearGradient id="paint0_linear_447_48565" x1="831.708" y1="2377.63" x2="379.522" y2="661.787" gradientUnits="userSpaceOnUse">
<stop offset="0.117494" stop-color="#AAAAAA"/>
<stop offset="0.959351" stop-color="#3732BD"/>
<stop offset="1" stop-color="#3732BD"/>
</linearGradient>
<linearGradient id="paint1_linear_447_48565" x1="815.597" y1="2396.56" x2="363.563" y2="666.062" gradientUnits="userSpaceOnUse">
<stop offset="0.117494" stop-color="#070C29"/>
<stop offset="0.959351" stop-color="#3732BD"/>
<stop offset="1" stop-color="#3732BD"/>
</linearGradient>
</defs>
</svg>
