<svg width="1920" height="293" fill="none" xmlns="http://www.w3.org/2000/svg"><path d="M0 53.5S243.625-.147 402 0c242.141.226 376.899 183.932 619 179.5 199.9-3.659 383.81-143.112 583.5-153 160.15-7.93 315.5 27 315.5 27" stroke="#6F7598" stroke-width=".5"/><path d="M0 45.929S248.53 3.662 406.905 3.809c242.141.226 377.185 165.265 619.285 160.834 199.9-3.659 379.04-126.178 578.74-135.595 160.52-7.553 314.67 21.214 314.67 21.214" stroke="#6F7598" stroke-width=".5"/><path d="M0 107.046s346.625 185.352 505 185.5c242.141.225 382.899-208.068 625-212.5 199.9-3.66 283.56 212.5 483.5 212.5 168 0 298-94.5 298-94.5" stroke="#6F7598" stroke-width=".5"/><path d="M0 38.358S253.435 7.472 411.81 7.62c242.141.225 377.47 146.597 619.57 142.166 199.9-3.659 374.26-109.244 573.98-118.19 160.9-7.175 313.83 15.428 313.83 15.428" stroke="#6F7598" stroke-width=".5"/><path d="M0 30.787s258.339-19.505 416.714-19.358c242.141.226 377.757 127.932 619.856 123.5 199.9-3.659 369.49-92.31 569.22-100.786 161.27-6.797 313 9.643 313 9.643" stroke="#6F7598" stroke-width=".5"/><path d="M0 23.216s263.244-8.123 421.619-7.976c242.141.226 378.042 109.265 620.141 104.833 199.9-3.659 364.72-75.376 564.45-83.38 161.65-6.42 312.17 3.857 312.17 3.857" stroke="#6F7598" stroke-width=".5"/><path d="M0 19.048s268.149 3.257 426.524 3.404c242.141.226 378.328 90.598 620.426 86.167 199.9-3.659 359.94-58.443 559.69-65.976 162.02-6.043 311.34-1.929 311.34-1.929" stroke="#6F7598" stroke-width=".5"/><path d="M0 22.857s273.054 14.638 431.429 14.786c242.141.225 378.613 71.931 620.711 67.5 199.91-3.66 355.17-41.509 554.93-48.572 162.4-5.664 310.5-7.714 310.5-7.714" stroke="#6F7598" stroke-width=".5"/><path d="M0 26.667s277.958 26.019 436.333 26.166c242.141.226 378.9 53.265 620.997 48.833 199.91-3.659 350.4-24.574 550.17-31.166 162.77-5.287 309.67-13.5 309.67-13.5" stroke="#6F7598" stroke-width=".5"/><path d="M0 30.476s282.863 37.4 441.238 37.548c242.141.225 379.185 34.598 621.282 30.166 199.91-3.659 345.62-7.64 545.41-13.762 163.14-4.909 308.83-19.285 308.83-19.285" stroke="#6F7598" stroke-width=".5"/><path d="M0 34.286s287.768 48.78 446.143 48.928c242.141.226 379.471 15.931 621.567 11.5 199.91-3.66 340.85 9.293 540.65 3.643 163.51-4.532 308-25.072 308-25.072" stroke="#6F7598" stroke-width=".5"/><path d="M0 38.095s292.673 60.162 451.048 60.31c242.141.225 379.756-2.736 621.852-7.167 199.91-3.66 336.08 26.227 535.89 21.047 163.88-4.154 307.16-30.857 307.16-30.857" stroke="#6F7598" stroke-width=".5"/><path d="M0 41.905s297.578 71.543 455.952 71.69c242.141.226 380.043-21.402 622.148-25.833 199.9-3.66 331.29 43.161 531.11 38.452 164.27-3.776 306.34-36.643 306.34-36.643" stroke="#6F7598" stroke-width=".5"/><g clip-path="url(#a)"><path d="M1152.17 99.575a3.192 3.192 0 0 0 0-6.383 3.192 3.192 0 0 0 0 6.383Z" fill="url(#b)"/><path d="M1129.19 99.575a3.192 3.192 0 0 0 0-6.383 3.192 3.192 0 0 0 0 6.383Z" fill="url(#c)"/><path fill-rule="evenodd" clip-rule="evenodd" d="M1135.57 82.18a1.917 1.917 0 0 1 .64-3.72c1.06 0 1.92.859 1.92 1.915 0 .832-.54 1.541-1.28 1.805v5.905h-1.28V82.18Z" fill="url(#d)"/><path d="M1135.57 95.106a1.276 1.276 0 1 0 0-2.553c-.7 0-1.27.572-1.27 1.277s.57 1.276 1.27 1.276Z" fill="url(#e)"/><path d="M1143.23 98.298h-5.1a1.276 1.276 0 1 0 0 2.553h5.1a1.276 1.276 0 1 0 0-2.553Z" fill="url(#f)"/><path d="M1145.79 95.106c.7 0 1.27-.571 1.27-1.276a1.274 1.274 0 1 0-2.55 0c0 .705.57 1.276 1.28 1.276Z" fill="url(#g)"/><g filter="url(#h)"><path d="M1129.19 91.277a3.192 3.192 0 0 1 3.19-3.192h16.6c1.76 0 3.19 1.43 3.19 3.192v10.212a3.192 3.192 0 0 1-3.19 3.192h-16.6a3.192 3.192 0 0 1-3.19-3.192V91.277Z" fill="#1D1D1D" fill-opacity=".05"/><path d="M1129.19 91.277a3.192 3.192 0 0 1 3.19-3.192h16.6c1.76 0 3.19 1.43 3.19 3.192v10.212a3.192 3.192 0 0 1-3.19 3.192h-16.6a3.192 3.192 0 0 1-3.19-3.192V91.277Z" fill="url(#i)" fill-opacity=".2"/><path d="M1129.34 91.277a3.04 3.04 0 0 1 3.04-3.042h16.6a3.04 3.04 0 0 1 3.04 3.042v10.212a3.04 3.04 0 0 1-3.04 3.042h-16.6a3.04 3.04 0 0 1-3.04-3.042V91.277Z" stroke="url(#j)" stroke-opacity=".1" stroke-width=".3"/></g><path d="M1154.45 76.504h-10.94c-.51 0-.91 2.042-.91 4.56s.4 4.56.91 4.56h10.94c.5 0 .91-2.042.91-4.56s-.41-4.56-.91-4.56Z" fill="url(#k)"/><g filter="url(#l)"><path d="M1153.77 75.32h-9.58c-1.23 0-2.23 1-2.23 2.233v10.481a.635.635 0 0 0 .64.638c.11 0 .22-.029.32-.087l3.04-1.776h7.81c1.23 0 2.23-1 2.23-2.234v-7.022c0-1.234-1-2.234-2.23-2.234Z" fill="#1D1D1D" fill-opacity=".05"/><path d="M1153.77 75.32h-9.58c-1.23 0-2.23 1-2.23 2.233v10.481a.635.635 0 0 0 .64.638c.11 0 .22-.029.32-.087l3.04-1.776h7.81c1.23 0 2.23-1 2.23-2.234v-7.022c0-1.234-1-2.234-2.23-2.234Z" fill="url(#m)" fill-opacity=".2"/><path d="M1142.35 88.458a.487.487 0 0 1-.24-.424v-10.48c0-1.152.93-2.085 2.08-2.085h9.58c1.15 0 2.08.933 2.08 2.084v7.022c0 1.15-.93 2.084-2.08 2.084h-7.85l-.04.02-3.04 1.776a.464.464 0 0 1-.24.067.51.51 0 0 1-.25-.064Z" stroke="url(#n)" stroke-opacity=".1" stroke-width=".3"/></g><g filter="url(#o)"><path d="M1148.98 82.979h-3.83c-.35 0-.64.285-.64.638 0 .353.29.638.64.638h3.83c.35 0 .64-.285.64-.638a.641.641 0 0 0-.64-.638Z" fill="#fff" fill-opacity=".1"/></g><g filter="url(#p)"><path d="M1152.81 77.872h-7.66c-.35 0-.64.286-.64.639 0 .352.29.638.64.638h7.66c.35 0 .64-.286.64-.638a.641.641 0 0 0-.64-.639Z" fill="#fff" fill-opacity=".1"/></g><g filter="url(#q)"><path d="M1152.81 80.425h-7.66c-.35 0-.64.286-.64.639 0 .352.29.638.64.638h7.66c.35 0 .64-.286.64-.638a.641.641 0 0 0-.64-.638Z" fill="#fff" fill-opacity=".1"/></g><g filter="url(#r)"><path d="M1135.57 95.106a1.276 1.276 0 1 0 0-2.553c-.7 0-1.27.572-1.27 1.277s.57 1.276 1.27 1.276Z" fill="#fff" fill-opacity=".16"/></g><g filter="url(#s)"><path d="M1143.23 98.298h-5.1a1.276 1.276 0 1 0 0 2.553h5.1a1.276 1.276 0 1 0 0-2.553Z" fill="#fff" fill-opacity=".16"/></g><g filter="url(#t)"><path d="M1145.79 95.106c.7 0 1.27-.571 1.27-1.276a1.274 1.274 0 1 0-2.55 0c0 .705.57 1.276 1.28 1.276Z" fill="#fff" fill-opacity=".16"/></g></g><path d="M0 45.714s302.482 82.924 460.857 83.072c242.141.225 380.328-40.07 622.433-44.5 199.9-3.66 326.52 60.094 526.35 55.857 164.64-3.399 305.5-42.429 305.5-42.429" stroke="#6F7598" stroke-width=".5"/><path d="M0 49.524s307.387 94.305 465.762 94.452c242.141.225 380.614-58.735 622.718-63.167 199.9-3.659 321.75 77.029 521.59 73.262 165.01-3.021 304.67-48.214 304.67-48.214" stroke="#6F7598" stroke-width=".5"/><path d="M0 53.333S312.292 159.02 470.667 159.166c242.141.226 380.899-77.401 623.003-81.833 199.9-3.66 316.98 93.963 516.83 90.667 165.38-2.644 303.83-54 303.83-54" stroke="#6F7598" stroke-width=".5"/><path d="M746.438 91.581a.765.765 0 0 1-.776.478.765.765 0 0 1-.309-.096l-2.941-2.286-1.887 1.742a.325.325 0 0 1-.309.042l.362-3.238.01.01.008-.064s5.292-4.819 5.508-5.024c.219-.204.146-.249.146-.249.013-.249-.391 0-.391 0l-7.013 4.511-2.919-.994s-.449-.16-.491-.515c-.044-.35.505-.541.505-.541l11.61-4.613s.954-.425.954.28l-2.067 10.557Z" fill="#fff" fill-opacity=".78"/><g filter="url(#u)"><path d="M742.992 75.167c-5.984 0-10.834 4.85-10.834 10.833 0 5.983 4.85 10.833 10.834 10.833 5.983 0 10.833-4.85 10.833-10.833 0-5.983-4.85-10.833-10.833-10.833Zm3.445 16.414a.766.766 0 0 1-1.086.381l-2.941-2.285-1.887 1.742a.325.325 0 0 1-.309.042l.362-3.238.011.01.007-.064s5.292-4.819 5.508-5.024c.219-.204.146-.249.146-.249.013-.249-.391 0-.391 0l-7.012 4.511-2.92-.994s-.449-.162-.491-.515c-.044-.35.505-.541.505-.541l11.61-4.613s.955-.425.955.28l-2.067 10.557Z" fill="#fff" fill-opacity=".2"/></g><path d="M0 57.143s317.197 117.066 475.571 117.214c242.142.225 381.186-96.069 623.289-100.5 199.9-3.66 312.2 110.897 512.07 108.071 165.76-2.265 303-59.785 303-59.785" stroke="#6F7598" stroke-width=".5"/><path d="M0 60.952S322.101 189.4 480.476 189.547c242.141.226 381.471-114.735 623.574-119.166 199.9-3.66 307.43 127.83 507.31 125.476 166.13-1.888 302.16-65.572 302.16-65.572" stroke="#6F7598" stroke-width=".5"/><path d="M0 64.762S327.006 204.59 485.381 204.738c242.141.225 381.756-133.402 623.859-137.834 199.9-3.659 302.66 144.765 502.55 142.881 166.5-1.51 301.33-71.357 301.33-71.357" stroke="#6F7598" stroke-width=".5"/><path d="M0 73.774s331.911 151.21 490.286 151.357c242.141.226 382.042-152.068 624.144-156.5 199.9-3.659 297.88 161.699 497.78 160.286 166.88-1.133 300.5-77.143 300.5-77.143" stroke="#6F7598" stroke-width=".5"/><path d="M0 84.864s336.816 162.591 495.19 162.738c242.142.225 382.328-170.735 624.43-175.167 199.9-3.659 293.11 178.633 493.02 177.691 167.26-.755 299.67-82.929 299.67-82.929" stroke="#6F7598" stroke-width=".5"/><path d="M0 95.955s341.72 173.971 500.095 174.119c242.141.225 382.614-189.402 624.715-193.834 199.9-3.659 288.34 195.566 488.26 195.096 167.63-.378 298.83-88.715 298.83-88.715" stroke="#6F7598" stroke-width=".5"/><g clip-path="url(#v)"><path d="M634.217 250.5h-14.456a4.288 4.288 0 0 1-2.739-.991l-1.094-.91a4.255 4.255 0 0 1-1.502-3.85l.726-5.439a4.257 4.257 0 0 1 1.998-3.076l2.737-1.688a10.126 10.126 0 0 1-.843-3.602c0-3.116 5.279-7.944 7.945-7.944 2.666 0 7.944 4.828 7.944 7.944a10.124 10.124 0 0 1-.841 3.602l2.86 1.763a4.293 4.293 0 0 1 1.949 2.802l.68 5.673a4.26 4.26 0 0 1-1.509 3.793l-1.116.931a4.289 4.289 0 0 1-2.739.992Z" fill="url(#w)"/><g filter="url(#x)"><path d="M626.989 237.666c-2.193 0-4.889-3.369-4.889-6.111a.61.61 0 0 1 .306-.53l3.065-1.751a3.063 3.063 0 0 1 3.031 0l3.07 1.752a.617.617 0 0 1 .306.529c0 2.742-2.696 6.111-4.889 6.111Z" fill="#fff" fill-opacity=".1"/></g><path d="M622.288 231.555a.419.419 0 0 1 .211-.368l3.065-1.75a2.873 2.873 0 0 1 2.845 0l3.07 1.751v.001c.064.037.118.09.155.154l.162-.093-.162.093a.428.428 0 0 1 .056.212c0 1.316-.65 2.804-1.58 3.967-.936 1.17-2.111 1.957-3.121 1.957-1.01 0-2.185-.787-3.121-1.957-.93-1.163-1.58-2.651-1.58-3.967Z" stroke="url(#y)" stroke-opacity=".1" stroke-width=".375"/><g filter="url(#z)"><path d="M620.105 237.412a.612.612 0 0 0 .993-.712 11.39 11.39 0 0 1-1.211-2.156l-.007-.004v.006l-1.039.642c.343.783.767 1.529 1.264 2.224Z" fill="#fff" fill-opacity=".1"/></g><g filter="url(#A)"><path d="M633.874 237.412a.607.607 0 0 1-.853.14.61.61 0 0 1-.14-.852c.482-.672.889-1.395 1.212-2.156l.007-.004v.006l1.039.642a12.336 12.336 0 0 1-1.265 2.224Z" fill="#fff" fill-opacity=".1"/></g><g filter="url(#B)"><path d="M635.277 241.451a.655.655 0 0 0-.461-.19h-15.653a.654.654 0 0 0-.652.652v10.435a.652.652 0 0 0 .652.652h15.653a.654.654 0 0 0 .652-.652v-10.435a.649.649 0 0 0-.191-.462Z" fill="#1D1D1D" fill-opacity=".05"/><path d="M635.277 241.451a.655.655 0 0 0-.461-.19h-15.653a.654.654 0 0 0-.652.652v10.435a.652.652 0 0 0 .652.652h15.653a.654.654 0 0 0 .652-.652v-10.435a.649.649 0 0 0-.191-.462Z" fill="url(#C)" fill-opacity=".2"/><path d="M635.468 252.348v-10.435a.649.649 0 0 0-.191-.462.655.655 0 0 0-.461-.19h-15.653a.654.654 0 0 0-.652.652v10.435a.652.652 0 0 0 .652.652h15.653a.654.654 0 0 0 .652-.652Zm-.652-10.9a.464.464 0 0 1 .464.465v10.435a.464.464 0 0 1-.464.464h-15.653a.464.464 0 0 1-.464-.464v-10.435a.468.468 0 0 1 .464-.465h15.653Z" stroke="url(#D)" stroke-opacity=".1" stroke-width=".375"/></g><g filter="url(#E)"><path d="M626.989 249.087a1.957 1.957 0 1 0-.001-3.913 1.957 1.957 0 0 0 .001 3.913Z" fill="#fff" fill-opacity=".1"/></g></g><g filter="url(#F)"><rect x="366.588" y="156.231" width="30.935" height="30.935" rx="5.222" transform="rotate(-3.87 366.588 156.231)" fill="#B2E7FE" fill-opacity=".08"/><rect x="366.762" y="156.383" width="30.608" height="30.608" rx="5.059" transform="rotate(-3.87 366.762 156.383)" stroke="url(#G)" stroke-width=".326"/><rect x="366.762" y="156.383" width="30.608" height="30.608" rx="5.059" transform="rotate(-3.87 366.762 156.383)" stroke="url(#H)" stroke-width=".326"/></g><g filter="url(#I)"><path fill-rule="evenodd" clip-rule="evenodd" d="M367.964 161.782c-.024-.362-.037-.543-.036-.696a4.244 4.244 0 0 1 3.652-4.182c.151-.021.332-.033.694-.058l19.628-1.327c.361-.025.542-.037.696-.036a4.243 4.243 0 0 1 4.181 3.651c.021.152.033.333.058.695a.328.328 0 0 1-.332.379l-28.161 1.905-.054.003a.328.328 0 0 1-.322-.281l-.004-.053Zm2.677-1.075a1.247 1.247 0 1 0-.166-2.489 1.247 1.247 0 0 0 .166 2.489Zm3.485-.235a1.248 1.248 0 1 0-.17-2.49 1.248 1.248 0 0 0 .17 2.49Zm3.485-.236a1.247 1.247 0 1 0-.169-2.489 1.247 1.247 0 0 0 .169 2.489Zm.975 10.686a4.49 4.49 0 1 1 8.96-.605 4.49 4.49 0 0 1-8.96.605Zm-.922 8.564a.997.997 0 0 1 .928-1.063l9.956-.673a.997.997 0 1 1 .135 1.991l-9.956.673a.998.998 0 0 1-1.063-.928Z" fill="url(#J)"/></g><g filter="url(#K)"><rect x="1450" y="247" width="35" height="35" rx="10.294" fill="#070C29"/><rect x="1450.13" y="247.129" width="34.743" height="34.743" rx="10.165" stroke="url(#L)" stroke-width=".257"/><rect x="1450.13" y="247.129" width="34.743" height="34.743" rx="10.165" stroke="url(#M)" stroke-width=".257"/></g><g filter="url(#N)"><path d="m1464.66 272.597.14.401c.47 1.39 1.96 2.129 3.33 1.65 1.37-.478 2.1-1.993 1.63-3.384l-.14-.4m-3.83-14.728-.34-1.008a2.093 2.093 0 0 0-2.67-1.32c-1.1.383-1.68 1.595-1.3 2.707l.34 1.008m-1.75 6.148c-.94-2.749.5-5.745 3.21-6.692l1.96-.685c2.71-.947 5.66.515 6.6 3.263l1.04 3.072c.2.583.61 1.061 1.16 1.331l.93.461c.55.271.97.749 1.16 1.331.39 1.147-.21 2.397-1.34 2.792l-11.6 4.054c-1.13.395-2.36-.215-2.75-1.361-.2-.584-.16-1.221.1-1.776l.46-.946c.27-.554.3-1.192.11-1.775l-1.04-3.069Z" stroke="url(#O)" stroke-width="2.059" stroke-linecap="round" stroke-linejoin="round"/></g><path fill-rule="evenodd" clip-rule="evenodd" d="M1347.93 67.63c.39-1.037 1.46-1.759 2.58-1.763l2.78.002c.77-.002 1.48.21 1.98.786l2.59 2.94c.58.664.83 1.7.59 2.549-.24.848-.93 1.484-1.78 1.762l-7.34 2.542c-.98.32-2.08-.063-2.78-.786-.71-.723-.76-1.795-.4-2.743l1.78-5.29Z" fill="url(#P)"/><g filter="url(#Q)"><path d="M1371.71 63.424c0 6.85-5.69 12.404-12.7 12.404-7.01 0-12.7-5.554-12.7-12.404s5.69-12.404 12.7-12.404c7.01 0 12.7 5.553 12.7 12.404Z" fill="#fff" fill-opacity=".03"/></g><g filter="url(#R)"><ellipse cx="1359.15" cy="63.565" rx="1.242" ry="1.269" fill="#fff" fill-opacity=".1"/></g><g filter="url(#S)"><ellipse cx="1364.12" cy="63.565" rx="1.242" ry="1.269" fill="#fff" fill-opacity=".1"/></g><g filter="url(#T)"><ellipse cx="1354.18" cy="63.565" rx="1.242" ry="1.269" fill="#fff" fill-opacity=".1"/></g><defs><linearGradient id="b" x1="1148.98" y1="93.192" x2="1156.5" y2="95.101" gradientUnits="userSpaceOnUse"><stop stop-color="#75A5FF"/><stop offset=".703" stop-color="#2339FF"/></linearGradient><linearGradient id="c" x1="1126" y1="93.192" x2="1133.52" y2="95.101" gradientUnits="userSpaceOnUse"><stop stop-color="#75A5FF"/><stop offset=".703" stop-color="#2339FF"/></linearGradient><linearGradient id="d" x1="1134.3" y1="78.46" x2="1139.05" y2="78.94" gradientUnits="userSpaceOnUse"><stop stop-color="#75A5FF"/><stop offset=".703" stop-color="#2339FF"/></linearGradient><linearGradient id="e" x1="1134.3" y1="92.553" x2="1137.31" y2="93.317" gradientUnits="userSpaceOnUse"><stop stop-color="#75A5FF"/><stop offset=".703" stop-color="#2339FF"/></linearGradient><linearGradient id="f" x1="1136.85" y1="98.298" x2="1142.93" y2="102.928" gradientUnits="userSpaceOnUse"><stop stop-color="#75A5FF"/><stop offset=".703" stop-color="#2339FF"/></linearGradient><linearGradient id="g" x1="1144.51" y1="92.553" x2="1147.52" y2="93.317" gradientUnits="userSpaceOnUse"><stop stop-color="#75A5FF"/><stop offset=".703" stop-color="#2339FF"/></linearGradient><linearGradient id="i" x1="1129.19" y1="88.085" x2="1154.84" y2="97.101" gradientUnits="userSpaceOnUse"><stop stop-color="#87FFE1"/><stop offset=".776" stop-color="#5C6DFF"/></linearGradient><linearGradient id="j" x1="1129.91" y1="88.84" x2="1152.17" y2="88.84" gradientUnits="userSpaceOnUse"><stop stop-color="#3CDEB6"/><stop offset=".656" stop-color="#364AFF"/></linearGradient><linearGradient id="k" x1="1142.6" y1="76.504" x2="1156.81" y2="81.557" gradientUnits="userSpaceOnUse"><stop stop-color="#75A5FF"/><stop offset=".703" stop-color="#2339FF"/></linearGradient><linearGradient id="m" x1="1141.96" y1="75.319" x2="1158.39" y2="79.708" gradientUnits="userSpaceOnUse"><stop stop-color="#87FFE1"/><stop offset=".776" stop-color="#5C6DFF"/></linearGradient><linearGradient id="n" x1="1142.4" y1="75.926" x2="1156" y2="75.926" gradientUnits="userSpaceOnUse"><stop stop-color="#3CDEB6"/><stop offset=".656" stop-color="#364AFF"/></linearGradient><linearGradient id="w" x1="614.388" y1="223" x2="644.39" y2="229.988" gradientUnits="userSpaceOnUse"><stop stop-color="#929292"/><stop offset=".703" stop-color="#1021B8"/></linearGradient><linearGradient id="y" x1="622.406" y1="229.273" x2="631.878" y2="229.273" gradientUnits="userSpaceOnUse"><stop stop-color="#3CDEB6"/><stop offset=".656" stop-color="#364AFF"/></linearGradient><linearGradient id="C" x1="618.511" y1="241.261" x2="637.252" y2="248.135" gradientUnits="userSpaceOnUse"><stop stop-color="#87FFE1"/><stop offset=".776" stop-color="#5C6DFF"/></linearGradient><linearGradient id="D" x1="619.041" y1="241.794" x2="635.468" y2="241.794" gradientUnits="userSpaceOnUse"><stop stop-color="#3CDEB6"/><stop offset=".656" stop-color="#364AFF"/></linearGradient><linearGradient id="G" x1="372.047" y1="184.208" x2="395.212" y2="159.609" gradientUnits="userSpaceOnUse"><stop stop-color="#3AC1FD" stop-opacity=".16"/><stop offset="1" stop-color="#fff" stop-opacity="0"/></linearGradient><linearGradient id="H" x1="372.047" y1="184.208" x2="395.212" y2="159.609" gradientUnits="userSpaceOnUse"><stop stop-color="#fff" stop-opacity="0"/><stop offset="1" stop-color="#fff" stop-opacity=".16"/></linearGradient><linearGradient id="J" x1="385.601" y1="147.812" x2="379.748" y2="215.181" gradientUnits="userSpaceOnUse"><stop stop-color="#fff" stop-opacity=".88"/><stop offset="1" stop-color="#fff" stop-opacity="0"/></linearGradient><linearGradient id="L" x1="1456.18" y1="278.654" x2="1482.39" y2="250.822" gradientUnits="userSpaceOnUse"><stop stop-color="#070B29"/><stop offset="1" stop-color="#fff" stop-opacity="0"/></linearGradient><linearGradient id="M" x1="1456.18" y1="278.654" x2="1482.39" y2="250.822" gradientUnits="userSpaceOnUse"><stop stop-color="#fff" stop-opacity="0"/><stop offset="1" stop-color="#fff" stop-opacity=".16"/></linearGradient><linearGradient id="O" x1="1470.33" y1="247.096" x2="1458.57" y2="300.104" gradientUnits="userSpaceOnUse"><stop stop-color="#fff" stop-opacity=".88"/><stop offset="1" stop-color="#fff" stop-opacity="0"/></linearGradient><linearGradient id="P" x1="1343" y1="72.163" x2="1357.88" y2="66.213" gradientUnits="userSpaceOnUse"><stop stop-color="#4262FF"/><stop offset="1" stop-color="#6C7DCE"/></linearGradient><filter id="h" x="1123.19" y="82.085" width="34.978" height="28.596" filterUnits="userSpaceOnUse" color-interpolation-filters="sRGB"><feFlood flood-opacity="0" result="BackgroundImageFix"/><feGaussianBlur in="BackgroundImageFix" stdDeviation="3"/><feComposite in2="SourceAlpha" operator="in" result="effect1_backgroundBlur_347_1727"/><feBlend in="SourceGraphic" in2="effect1_backgroundBlur_347_1727" result="shape"/><feColorMatrix in="SourceAlpha" values="0 0 0 0 0 0 0 0 0 0 0 0 0 0 0 0 0 0 127 0" result="hardAlpha"/><feOffset dy="1"/><feGaussianBlur stdDeviation="1.5"/><feComposite in2="hardAlpha" operator="arithmetic" k2="-1" k3="1"/><feColorMatrix values="0 0 0 0 1 0 0 0 0 1 0 0 0 0 1 0 0 0 0.15 0"/><feBlend in2="shape" result="effect2_innerShadow_347_1727"/></filter><filter id="l" x="1135.96" y="69.319" width="26.043" height="25.353" filterUnits="userSpaceOnUse" color-interpolation-filters="sRGB"><feFlood flood-opacity="0" result="BackgroundImageFix"/><feGaussianBlur in="BackgroundImageFix" stdDeviation="3"/><feComposite in2="SourceAlpha" operator="in" result="effect1_backgroundBlur_347_1727"/><feBlend in="SourceGraphic" in2="effect1_backgroundBlur_347_1727" result="shape"/><feColorMatrix in="SourceAlpha" values="0 0 0 0 0 0 0 0 0 0 0 0 0 0 0 0 0 0 127 0" result="hardAlpha"/><feOffset dy="1"/><feGaussianBlur stdDeviation="1.5"/><feComposite in2="hardAlpha" operator="arithmetic" k2="-1" k3="1"/><feColorMatrix values="0 0 0 0 1 0 0 0 0 1 0 0 0 0 1 0 0 0 0.15 0"/><feBlend in2="shape" result="effect2_innerShadow_347_1727"/></filter><filter id="o" x="1144.51" y="82.979" width="5.106" height="3.277" filterUnits="userSpaceOnUse" color-interpolation-filters="sRGB"><feFlood flood-opacity="0" result="BackgroundImageFix"/><feBlend in="SourceGraphic" in2="BackgroundImageFix" result="shape"/><feColorMatrix in="SourceAlpha" values="0 0 0 0 0 0 0 0 0 0 0 0 0 0 0 0 0 0 127 0" result="hardAlpha"/><feOffset dy="2"/><feGaussianBlur stdDeviation="1"/><feComposite in2="hardAlpha" operator="arithmetic" k2="-1" k3="1"/><feColorMatrix values="0 0 0 0 1 0 0 0 0 1 0 0 0 0 1 0 0 0 0.1 0"/><feBlend in2="shape" result="effect1_innerShadow_347_1727"/></filter><filter id="p" x="1144.51" y="77.872" width="8.936" height="3.277" filterUnits="userSpaceOnUse" color-interpolation-filters="sRGB"><feFlood flood-opacity="0" result="BackgroundImageFix"/><feBlend in="SourceGraphic" in2="BackgroundImageFix" result="shape"/><feColorMatrix in="SourceAlpha" values="0 0 0 0 0 0 0 0 0 0 0 0 0 0 0 0 0 0 127 0" result="hardAlpha"/><feOffset dy="2"/><feGaussianBlur stdDeviation="1"/><feComposite in2="hardAlpha" operator="arithmetic" k2="-1" k3="1"/><feColorMatrix values="0 0 0 0 1 0 0 0 0 1 0 0 0 0 1 0 0 0 0.1 0"/><feBlend in2="shape" result="effect1_innerShadow_347_1727"/></filter><filter id="q" x="1144.51" y="80.425" width="8.936" height="3.277" filterUnits="userSpaceOnUse" color-interpolation-filters="sRGB"><feFlood flood-opacity="0" result="BackgroundImageFix"/><feBlend in="SourceGraphic" in2="BackgroundImageFix" result="shape"/><feColorMatrix in="SourceAlpha" values="0 0 0 0 0 0 0 0 0 0 0 0 0 0 0 0 0 0 127 0" result="hardAlpha"/><feOffset dy="2"/><feGaussianBlur stdDeviation="1"/><feComposite in2="hardAlpha" operator="arithmetic" k2="-1" k3="1"/><feColorMatrix values="0 0 0 0 1 0 0 0 0 1 0 0 0 0 1 0 0 0 0.1 0"/><feBlend in2="shape" result="effect1_innerShadow_347_1727"/></filter><filter id="r" x="1134.3" y="92.553" width="2.553" height="4.553" filterUnits="userSpaceOnUse" color-interpolation-filters="sRGB"><feFlood flood-opacity="0" result="BackgroundImageFix"/><feBlend in="SourceGraphic" in2="BackgroundImageFix" result="shape"/><feColorMatrix in="SourceAlpha" values="0 0 0 0 0 0 0 0 0 0 0 0 0 0 0 0 0 0 127 0" result="hardAlpha"/><feOffset dy="2"/><feGaussianBlur stdDeviation="1"/><feComposite in2="hardAlpha" operator="arithmetic" k2="-1" k3="1"/><feColorMatrix values="0 0 0 0 1 0 0 0 0 1 0 0 0 0 1 0 0 0 0.4 0"/><feBlend in2="shape" result="effect1_innerShadow_347_1727"/></filter><filter id="s" x="1136.85" y="98.298" width="7.66" height="4.553" filterUnits="userSpaceOnUse" color-interpolation-filters="sRGB"><feFlood flood-opacity="0" result="BackgroundImageFix"/><feBlend in="SourceGraphic" in2="BackgroundImageFix" result="shape"/><feColorMatrix in="SourceAlpha" values="0 0 0 0 0 0 0 0 0 0 0 0 0 0 0 0 0 0 127 0" result="hardAlpha"/><feOffset dy="2"/><feGaussianBlur stdDeviation="1"/><feComposite in2="hardAlpha" operator="arithmetic" k2="-1" k3="1"/><feColorMatrix values="0 0 0 0 1 0 0 0 0 1 0 0 0 0 1 0 0 0 0.4 0"/><feBlend in2="shape" result="effect1_innerShadow_347_1727"/></filter><filter id="t" x="1144.51" y="92.553" width="2.553" height="4.553" filterUnits="userSpaceOnUse" color-interpolation-filters="sRGB"><feFlood flood-opacity="0" result="BackgroundImageFix"/><feBlend in="SourceGraphic" in2="BackgroundImageFix" result="shape"/><feColorMatrix in="SourceAlpha" values="0 0 0 0 0 0 0 0 0 0 0 0 0 0 0 0 0 0 127 0" result="hardAlpha"/><feOffset dy="2"/><feGaussianBlur stdDeviation="1"/><feComposite in2="hardAlpha" operator="arithmetic" k2="-1" k3="1"/><feColorMatrix values="0 0 0 0 1 0 0 0 0 1 0 0 0 0 1 0 0 0 0.4 0"/><feBlend in2="shape" result="effect1_innerShadow_347_1727"/></filter><filter id="u" x="728.158" y="71.167" width="29.666" height="29.667" filterUnits="userSpaceOnUse" color-interpolation-filters="sRGB"><feFlood flood-opacity="0" result="BackgroundImageFix"/><feGaussianBlur in="BackgroundImageFix" stdDeviation="2"/><feComposite in2="SourceAlpha" operator="in" result="effect1_backgroundBlur_347_1727"/><feBlend in="SourceGraphic" in2="effect1_backgroundBlur_347_1727" result="shape"/><feColorMatrix in="SourceAlpha" values="0 0 0 0 0 0 0 0 0 0 0 0 0 0 0 0 0 0 127 0" result="hardAlpha"/><feOffset dy="-4"/><feGaussianBlur stdDeviation="2"/><feComposite in2="hardAlpha" operator="arithmetic" k2="-1" k3="1"/><feColorMatrix values="0 0 0 0 1 0 0 0 0 1 0 0 0 0 1 0 0 0 0.05 0"/><feBlend in2="shape" result="effect2_innerShadow_347_1727"/><feColorMatrix in="SourceAlpha" values="0 0 0 0 0 0 0 0 0 0 0 0 0 0 0 0 0 0 127 0" result="hardAlpha"/><feOffset dx="-4" dy="-4"/><feGaussianBlur stdDeviation="2"/><feComposite in2="hardAlpha" operator="arithmetic" k2="-1" k3="1"/><feColorMatrix values="0 0 0 0 1 0 0 0 0 1 0 0 0 0 1 0 0 0 0.05 0"/><feBlend in2="effect2_innerShadow_347_1727" result="effect3_innerShadow_347_1727"/></filter><filter id="x" x="622.1" y="228.873" width="9.778" height="10.793" filterUnits="userSpaceOnUse" color-interpolation-filters="sRGB"><feFlood flood-opacity="0" result="BackgroundImageFix"/><feBlend in="SourceGraphic" in2="BackgroundImageFix" result="shape"/><feColorMatrix in="SourceAlpha" values="0 0 0 0 0 0 0 0 0 0 0 0 0 0 0 0 0 0 127 0" result="hardAlpha"/><feOffset dy="2"/><feGaussianBlur stdDeviation="1"/><feComposite in2="hardAlpha" operator="arithmetic" k2="-1" k3="1"/><feColorMatrix values="0 0 0 0 1 0 0 0 0 1 0 0 0 0 1 0 0 0 0.1 0"/><feBlend in2="shape" result="effect1_innerShadow_347_1727"/></filter><filter id="z" x="618.841" y="234.54" width="2.372" height="5.127" filterUnits="userSpaceOnUse" color-interpolation-filters="sRGB"><feFlood flood-opacity="0" result="BackgroundImageFix"/><feBlend in="SourceGraphic" in2="BackgroundImageFix" result="shape"/><feColorMatrix in="SourceAlpha" values="0 0 0 0 0 0 0 0 0 0 0 0 0 0 0 0 0 0 127 0" result="hardAlpha"/><feOffset dy="2"/><feGaussianBlur stdDeviation="1"/><feComposite in2="hardAlpha" operator="arithmetic" k2="-1" k3="1"/><feColorMatrix values="0 0 0 0 1 0 0 0 0 1 0 0 0 0 1 0 0 0 0.1 0"/><feBlend in2="shape" result="effect1_innerShadow_347_1727"/></filter><filter id="A" x="632.767" y="234.54" width="2.372" height="5.127" filterUnits="userSpaceOnUse" color-interpolation-filters="sRGB"><feFlood flood-opacity="0" result="BackgroundImageFix"/><feBlend in="SourceGraphic" in2="BackgroundImageFix" result="shape"/><feColorMatrix in="SourceAlpha" values="0 0 0 0 0 0 0 0 0 0 0 0 0 0 0 0 0 0 127 0" result="hardAlpha"/><feOffset dy="2"/><feGaussianBlur stdDeviation="1"/><feComposite in2="hardAlpha" operator="arithmetic" k2="-1" k3="1"/><feColorMatrix values="0 0 0 0 1 0 0 0 0 1 0 0 0 0 1 0 0 0 0.1 0"/><feBlend in2="shape" result="effect1_innerShadow_347_1727"/></filter><filter id="B" x="612.511" y="235.261" width="28.956" height="23.739" filterUnits="userSpaceOnUse" color-interpolation-filters="sRGB"><feFlood flood-opacity="0" result="BackgroundImageFix"/><feGaussianBlur in="BackgroundImageFix" stdDeviation="3"/><feComposite in2="SourceAlpha" operator="in" result="effect1_backgroundBlur_347_1727"/><feBlend in="SourceGraphic" in2="effect1_backgroundBlur_347_1727" result="shape"/><feColorMatrix in="SourceAlpha" values="0 0 0 0 0 0 0 0 0 0 0 0 0 0 0 0 0 0 127 0" result="hardAlpha"/><feOffset dy="1"/><feGaussianBlur stdDeviation="1.5"/><feComposite in2="hardAlpha" operator="arithmetic" k2="-1" k3="1"/><feColorMatrix values="0 0 0 0 1 0 0 0 0 1 0 0 0 0 1 0 0 0 0.15 0"/><feBlend in2="shape" result="effect2_innerShadow_347_1727"/></filter><filter id="E" x="625.032" y="245.174" width="3.913" height="5.913" filterUnits="userSpaceOnUse" color-interpolation-filters="sRGB"><feFlood flood-opacity="0" result="BackgroundImageFix"/><feBlend in="SourceGraphic" in2="BackgroundImageFix" result="shape"/><feColorMatrix in="SourceAlpha" values="0 0 0 0 0 0 0 0 0 0 0 0 0 0 0 0 0 0 127 0" result="hardAlpha"/><feOffset dy="2"/><feGaussianBlur stdDeviation="1"/><feComposite in2="hardAlpha" operator="arithmetic" k2="-1" k3="1"/><feColorMatrix values="0 0 0 0 1 0 0 0 0 1 0 0 0 0 1 0 0 0 0.1 0"/><feBlend in2="shape" result="effect1_innerShadow_347_1727"/></filter><filter id="F" x="351.324" y="138.88" width="63.478" height="63.478" filterUnits="userSpaceOnUse" color-interpolation-filters="sRGB"><feFlood flood-opacity="0" result="BackgroundImageFix"/><feGaussianBlur in="BackgroundImageFix" stdDeviation="7.833"/><feComposite in2="SourceAlpha" operator="in" result="effect1_backgroundBlur_347_1727"/><feBlend in="SourceGraphic" in2="effect1_backgroundBlur_347_1727" result="shape"/></filter><filter id="I" x="352.263" y="139.818" width="60.242" height="56.264" filterUnits="userSpaceOnUse" color-interpolation-filters="sRGB"><feFlood flood-opacity="0" result="BackgroundImageFix"/><feGaussianBlur in="BackgroundImageFix" stdDeviation="7.833"/><feComposite in2="SourceAlpha" operator="in" result="effect1_backgroundBlur_347_1727"/><feColorMatrix in="SourceAlpha" values="0 0 0 0 0 0 0 0 0 0 0 0 0 0 0 0 0 0 127 0" result="hardAlpha"/><feOffset dx="3.264" dy="3.264"/><feGaussianBlur stdDeviation="3.264"/><feColorMatrix values="0 0 0 0 0.258824 0 0 0 0 0.631373 0 0 0 0 0.996078 0 0 0 0.12 0"/><feBlend in2="effect1_backgroundBlur_347_1727" result="effect2_dropShadow_347_1727"/><feBlend in="SourceGraphic" in2="effect2_dropShadow_347_1727" result="shape"/><feColorMatrix in="SourceAlpha" values="0 0 0 0 0 0 0 0 0 0 0 0 0 0 0 0 0 0 127 0" result="hardAlpha"/><feOffset dy=".131"/><feComposite in2="hardAlpha" operator="arithmetic" k2="-1" k3="1"/><feColorMatrix values="0 0 0 0 1 0 0 0 0 1 0 0 0 0 1 0 0 0 0.25 0"/><feBlend in2="shape" result="effect3_innerShadow_347_1727"/><feColorMatrix in="SourceAlpha" values="0 0 0 0 0 0 0 0 0 0 0 0 0 0 0 0 0 0 127 0" result="hardAlpha"/><feOffset dy="-.131"/><feComposite in2="hardAlpha" operator="arithmetic" k2="-1" k3="1"/><feColorMatrix values="0 0 0 0 0.612986 0 0 0 0 0.697287 0 0 0 0 0.758333 0 0 0 0.25 0"/><feBlend in2="effect3_innerShadow_347_1727" result="effect4_innerShadow_347_1727"/></filter><filter id="K" x="1437.65" y="234.647" width="59.706" height="59.706" filterUnits="userSpaceOnUse" color-interpolation-filters="sRGB"><feFlood flood-opacity="0" result="BackgroundImageFix"/><feGaussianBlur in="BackgroundImageFix" stdDeviation="6.176"/><feComposite in2="SourceAlpha" operator="in" result="effect1_backgroundBlur_347_1727"/><feBlend in="SourceGraphic" in2="effect1_backgroundBlur_347_1727" result="shape"/></filter><filter id="N" x="1451.55" y="245.455" width="33.456" height="38.09" filterUnits="userSpaceOnUse" color-interpolation-filters="sRGB"><feFlood flood-opacity="0" result="BackgroundImageFix"/><feGaussianBlur in="BackgroundImageFix" stdDeviation="3.603"/><feComposite in2="SourceAlpha" operator="in" result="effect1_backgroundBlur_347_1727"/><feColorMatrix in="SourceAlpha" values="0 0 0 0 0 0 0 0 0 0 0 0 0 0 0 0 0 0 127 0" result="hardAlpha"/><feOffset dx="2.574" dy="2.574"/><feGaussianBlur stdDeviation="2.574"/><feColorMatrix values="0 0 0 0 0.879167 0 0 0 0 0.337014 0 0 0 0 0.368217 0 0 0 0.12 0"/><feBlend in2="effect1_backgroundBlur_347_1727" result="effect2_dropShadow_347_1727"/><feBlend in="SourceGraphic" in2="effect2_dropShadow_347_1727" result="shape"/><feColorMatrix in="SourceAlpha" values="0 0 0 0 0 0 0 0 0 0 0 0 0 0 0 0 0 0 127 0" result="hardAlpha"/><feOffset dy=".103"/><feComposite in2="hardAlpha" operator="arithmetic" k2="-1" k3="1"/><feColorMatrix values="0 0 0 0 1 0 0 0 0 1 0 0 0 0 1 0 0 0 0.25 0"/><feBlend in2="shape" result="effect3_innerShadow_347_1727"/><feColorMatrix in="SourceAlpha" values="0 0 0 0 0 0 0 0 0 0 0 0 0 0 0 0 0 0 127 0" result="hardAlpha"/><feOffset dy="-.103"/><feComposite in2="hardAlpha" operator="arithmetic" k2="-1" k3="1"/><feColorMatrix values="0 0 0 0 0 0 0 0 0 0 0 0 0 0 0 0 0 0 0.25 0"/><feBlend in2="effect3_innerShadow_347_1727" result="effect4_innerShadow_347_1727"/></filter><filter id="Q" x="1304.14" y="8.846" width="109.743" height="109.156" filterUnits="userSpaceOnUse" color-interpolation-filters="sRGB"><feFlood flood-opacity="0" result="BackgroundImageFix"/><feGaussianBlur in="BackgroundImageFix" stdDeviation="21.087"/><feComposite in2="SourceAlpha" operator="in" result="effect1_backgroundBlur_347_1727"/><feBlend in="SourceGraphic" in2="effect1_backgroundBlur_347_1727" result="shape"/><feColorMatrix in="SourceAlpha" values="0 0 0 0 0 0 0 0 0 0 0 0 0 0 0 0 0 0 127 0" result="hardAlpha"/><feOffset dy="2.109"/><feGaussianBlur stdDeviation="1.054"/><feComposite in2="hardAlpha" operator="arithmetic" k2="-1" k3="1"/><feColorMatrix values="0 0 0 0 1 0 0 0 0 1 0 0 0 0 1 0 0 0 0.15 0"/><feBlend in2="shape" result="effect2_innerShadow_347_1727"/><feColorMatrix in="SourceAlpha" values="0 0 0 0 0 0 0 0 0 0 0 0 0 0 0 0 0 0 127 0" result="hardAlpha"/><feOffset/><feGaussianBlur stdDeviation="15.815"/><feComposite in2="hardAlpha" operator="arithmetic" k2="-1" k3="1"/><feColorMatrix values="0 0 0 0 1 0 0 0 0 1 0 0 0 0 1 0 0 0 0.05 0"/><feBlend in2="effect2_innerShadow_347_1727" result="effect3_innerShadow_347_1727"/></filter><filter id="R" x="1357.91" y="62.296" width="2.484" height="4.646" filterUnits="userSpaceOnUse" color-interpolation-filters="sRGB"><feFlood flood-opacity="0" result="BackgroundImageFix"/><feBlend in="SourceGraphic" in2="BackgroundImageFix" result="shape"/><feColorMatrix in="SourceAlpha" values="0 0 0 0 0 0 0 0 0 0 0 0 0 0 0 0 0 0 127 0" result="hardAlpha"/><feOffset dy="2.109"/><feGaussianBlur stdDeviation="1.054"/><feComposite in2="hardAlpha" operator="arithmetic" k2="-1" k3="1"/><feColorMatrix values="0 0 0 0 1 0 0 0 0 1 0 0 0 0 1 0 0 0 0.15 0"/><feBlend in2="shape" result="effect1_innerShadow_347_1727"/></filter><filter id="S" x="1362.88" y="62.296" width="2.484" height="4.646" filterUnits="userSpaceOnUse" color-interpolation-filters="sRGB"><feFlood flood-opacity="0" result="BackgroundImageFix"/><feBlend in="SourceGraphic" in2="BackgroundImageFix" result="shape"/><feColorMatrix in="SourceAlpha" values="0 0 0 0 0 0 0 0 0 0 0 0 0 0 0 0 0 0 127 0" result="hardAlpha"/><feOffset dy="2.109"/><feGaussianBlur stdDeviation="1.054"/><feComposite in2="hardAlpha" operator="arithmetic" k2="-1" k3="1"/><feColorMatrix values="0 0 0 0 1 0 0 0 0 1 0 0 0 0 1 0 0 0 0.15 0"/><feBlend in2="shape" result="effect1_innerShadow_347_1727"/></filter><filter id="T" x="1352.94" y="62.296" width="2.484" height="4.646" filterUnits="userSpaceOnUse" color-interpolation-filters="sRGB"><feFlood flood-opacity="0" result="BackgroundImageFix"/><feBlend in="SourceGraphic" in2="BackgroundImageFix" result="shape"/><feColorMatrix in="SourceAlpha" values="0 0 0 0 0 0 0 0 0 0 0 0 0 0 0 0 0 0 127 0" result="hardAlpha"/><feOffset dy="2.109"/><feGaussianBlur stdDeviation="1.054"/><feComposite in2="hardAlpha" operator="arithmetic" k2="-1" k3="1"/><feColorMatrix values="0 0 0 0 1 0 0 0 0 1 0 0 0 0 1 0 0 0 0.15 0"/><feBlend in2="shape" result="effect1_innerShadow_347_1727"/></filter><clipPath id="a"><path fill="#fff" transform="translate(1126 75)" d="M0 0h30v30H0z"/></clipPath><clipPath id="v"><path fill="#fff" transform="translate(612 223)" d="M0 0h30v30H0z"/></clipPath></defs></svg>
