<svg width="1920" height="3445" fill="none" xmlns="http://www.w3.org/2000/svg"><path fill-rule="evenodd" clip-rule="evenodd" d="M9.893 2344.6c-143.793-208.76-259.626-437.54-238.04-692.35 26.602-314.04-92.564-696.544 202.343-823.55 293.808-126.532 760.366 170.819 1071.354 228.06 361.23 66.48 752.94-148.58 1009.27 107.2 264.28 263.7 189.76 725.61 55.9 1080.05-123.89 328.03-395.66 603.26-732.75 712.11-290.67 93.87-573.017-79.42-847.109-201.94-210.841-94.25-391.174-221.15-520.968-409.58Z" fill="url(#a)"/><path fill-rule="evenodd" clip-rule="evenodd" d="M-8.102 2360.27c-144.876-210.63-261.805-441.31-241.119-697.68 25.494-315.96-95.347-701.363 199.721-828.091C244.467 708.244 713.129 1009.24 1025 1068c362.24 68.25 753.99-146.741 1011.83 111.63 265.82 266.38 192.85 730.98 60.02 1087.2-122.94 329.69-394.26 605.67-731.67 713.98-290.95 93.39-574.544-82.07-849.678-206.39C303.86 2678.79 122.67 2550.4-8.102 2360.27Z" fill="url(#b)"/><ellipse cx="628.24" cy="1888.5" rx="444.761" ry="227.5" fill="url(#c)" fill-opacity=".7"/><ellipse cx="1794.5" cy="1929" rx="333.5" ry="327" fill="url(#d)" fill-opacity=".4"/><ellipse cx="308.303" cy="1888.5" rx="459.303" ry="227.5" fill="url(#e)" fill-opacity=".7"/><defs><radialGradient id="c" cx="0" cy="0" r="1" gradientUnits="userSpaceOnUse" gradientTransform="matrix(0 227.5 -444.761 0 628.24 1888.5)"><stop stop-color="#B33096" stop-opacity=".73"/><stop offset="1" stop-color="#AD379A" stop-opacity="0"/></radialGradient><radialGradient id="d" cx="0" cy="0" r="1" gradientUnits="userSpaceOnUse" gradientTransform="matrix(0 327 -333.5 0 1794.5 1929)"><stop stop-color="#8D70FE"/><stop offset="1" stop-color="#5037AD" stop-opacity="0"/></radialGradient><radialGradient id="e" cx="0" cy="0" r="1" gradientUnits="userSpaceOnUse" gradientTransform="matrix(0 227.5 -459.303 0 308.303 1888.5)"><stop stop-color="#B33096" stop-opacity=".73"/><stop offset="1" stop-color="#AD379A" stop-opacity="0"/></radialGradient><linearGradient id="a" x1="831.708" y1="2377.63" x2="379.522" y2="661.787" gradientUnits="userSpaceOnUse"><stop offset=".117" stop-color="#AAA"/><stop offset=".959" stop-color="#3732BD"/><stop offset="1" stop-color="#3732BD"/></linearGradient><linearGradient id="b" x1="815.597" y1="2396.56" x2="363.563" y2="666.062" gradientUnits="userSpaceOnUse"><stop offset=".117" stop-color="#070C29"/><stop offset=".959" stop-color="#3732BD"/><stop offset="1" stop-color="#3732BD"/></linearGradient></defs></svg>
