<svg width="1920" height="2211" fill="none" xmlns="http://www.w3.org/2000/svg"><path fill-rule="evenodd" clip-rule="evenodd" d="M-8.4 1547.6c-143.793-208.76-259.625-437.54-238.04-692.352 26.603-314.042-92.563-696.543 202.344-823.549C249.711-94.832 716.27 202.52 1027.26 259.758c361.23 66.485 752.93-148.579 1009.27 107.198 264.28 263.7 189.76 725.614 55.9 1080.054-123.89 328.03-395.66 603.26-732.75 712.11-290.68 93.87-573.02-79.42-847.112-201.94-210.84-94.25-391.173-221.15-520.968-409.58Z" fill="url(#a)"/><path fill-rule="evenodd" clip-rule="evenodd" d="M-26.394 1563.27c-144.876-210.63-261.806-441.31-241.12-697.68 25.495-315.962-95.346-701.364 199.722-828.091 293.967-126.255 762.628 174.739 1074.502 233.5 362.24 68.252 753.99-146.74 1011.83 111.632 265.82 266.376 192.85 730.979 60.02 1087.199-122.94 329.69-394.26 605.67-731.67 713.98-290.95 93.39-574.546-82.07-849.68-206.39-211.642-95.63-392.832-224.02-523.604-414.15Z" fill="url(#b)"/><defs><linearGradient id="a" x1="813.416" y1="1580.62" x2="361.229" y2="-135.213" gradientUnits="userSpaceOnUse"><stop offset=".117" stop-color="#AAA"/><stop offset=".959" stop-color="#3732BD"/><stop offset="1" stop-color="#3732BD"/></linearGradient><linearGradient id="b" x1="797.305" y1="1599.56" x2="345.271" y2="-130.939" gradientUnits="userSpaceOnUse"><stop offset=".117" stop-color="#070C29"/><stop offset=".959" stop-color="#3732BD"/><stop offset="1" stop-color="#3732BD"/></linearGradient></defs></svg>
