<svg width="1920" height="2211" viewBox="0 0 1920 2211" fill="none" xmlns="http://www.w3.org/2000/svg">
<path fill-rule="evenodd" clip-rule="evenodd" d="M-8.39969 1547.6C-152.193 1338.84 -268.025 1110.06 -246.44 855.248C-219.837 541.206 -339.003 158.705 -44.096 31.6994C249.711 -94.8325 716.27 202.519 1027.26 259.758C1388.49 326.243 1780.19 111.179 2036.53 366.956C2300.81 630.656 2226.29 1092.57 2092.43 1447.01C1968.54 1775.04 1696.77 2050.27 1359.68 2159.12C1069 2252.99 786.66 2079.7 512.568 1957.18C301.728 1862.93 121.395 1736.03 -8.39969 1547.6Z" fill="url(#paint0_linear_349_20358)"/>
<path fill-rule="evenodd" clip-rule="evenodd" d="M-26.3943 1563.27C-171.27 1352.64 -288.2 1121.96 -267.514 865.59C-242.019 549.628 -362.86 164.226 -67.7923 37.4988C226.175 -88.7561 694.836 212.238 1006.71 270.999C1368.95 339.251 1760.7 124.259 2018.54 382.631C2284.36 649.007 2211.39 1113.61 2078.56 1469.83C1955.62 1799.52 1684.3 2075.5 1346.89 2183.81C1055.94 2277.2 772.344 2101.74 497.21 1977.42C285.568 1881.79 104.378 1753.4 -26.3943 1563.27Z" fill="url(#paint1_linear_349_20358)"/>
<defs>
<linearGradient id="paint0_linear_349_20358" x1="813.416" y1="1580.62" x2="361.229" y2="-135.213" gradientUnits="userSpaceOnUse">
<stop offset="0.117494" stop-color="#AAAAAA"/>
<stop offset="0.959351" stop-color="#3732BD"/>
<stop offset="1" stop-color="#3732BD"/>
</linearGradient>
<linearGradient id="paint1_linear_349_20358" x1="797.305" y1="1599.56" x2="345.271" y2="-130.939" gradientUnits="userSpaceOnUse">
<stop offset="0.117494" stop-color="#070C29"/>
<stop offset="0.959351" stop-color="#3732BD"/>
<stop offset="1" stop-color="#3732BD"/>
</linearGradient>
</defs>
</svg>
