<svg width="1922" height="166" viewBox="0 0 1922 166" fill="none" xmlns="http://www.w3.org/2000/svg">
<path d="M1 30.992C1 30.992 244.625 0.917508 403 1.00017C645.141 1.12655 779.899 104.111 1022 101.627C1221.9 99.5756 1405.81 21.399 1605.5 15.8558C1765.65 11.4101 1921 30.992 1921 30.992" stroke="#A47BD6" stroke-width="0.5"/>
<path d="M1 61.0096C1 61.0096 347.625 164.917 506 165C748.141 165.126 888.899 48.3577 1131 45.8734C1330.9 43.8221 1414.56 165 1614.5 165C1782.5 165 1912.5 112.024 1912.5 112.024" stroke="#A47BD6" stroke-width="0.5"/>
<path d="M1 26.7477C1 26.7477 249.53 3.0533 407.905 3.13596C650.046 3.26234 785.09 95.7825 1027.19 93.2982C1227.09 91.247 1406.23 22.5634 1605.93 17.2842C1766.45 13.0502 1920.6 29.1769 1920.6 29.1769" stroke="#A47BD6" stroke-width="0.5"/>
<path d="M1 22.5034C1 22.5034 254.435 5.18912 412.81 5.27178C654.951 5.39816 790.28 87.4539 1032.38 84.9696C1232.28 82.9183 1406.64 23.7279 1606.36 18.7126C1767.26 14.6903 1920.19 27.3619 1920.19 27.3619" stroke="#A47BD6" stroke-width="0.5"/>
<path d="M1 18.2583C1 18.2583 259.339 7.32405 417.714 7.40672C659.855 7.5331 795.471 79.1244 1037.57 76.6401C1237.47 74.5888 1407.06 24.8915 1606.79 20.1401C1768.06 16.3295 1919.79 25.546 1919.79 25.546" stroke="#A47BD6" stroke-width="0.5"/>
<path d="M1 14.0155C1 14.0155 264.244 9.46142 422.619 9.54408C664.76 9.67046 800.661 70.7973 1042.76 68.313C1242.66 66.2618 1407.48 26.0574 1607.21 21.5701C1768.86 17.9712 1919.38 23.7325 1919.38 23.7325" stroke="#A47BD6" stroke-width="0.5"/>
<path d="M1 11.6777C1 11.6777 269.149 13.5037 427.524 13.5864C669.665 13.7128 805.852 64.3752 1047.95 61.8909C1247.85 59.8396 1407.89 29.1284 1607.64 24.905C1769.66 21.5178 1918.98 23.8239 1918.98 23.8239" stroke="#A47BD6" stroke-width="0.5"/>
<path d="M1 13.8135C1 13.8135 274.054 22.0196 432.429 22.1022C674.57 22.2286 811.042 62.4266 1053.14 59.9423C1253.05 57.891 1408.31 36.6729 1608.07 32.7134C1770.47 29.5379 1918.57 28.3889 1918.57 28.3889" stroke="#A47BD6" stroke-width="0.5"/>
<path d="M1 15.9492C1 15.9492 278.958 30.5354 437.333 30.6181C679.474 30.7445 816.233 60.478 1058.33 57.9937C1258.24 55.9424 1408.73 44.2173 1608.5 40.5218C1771.27 37.5581 1918.17 32.9539 1918.17 32.9539" stroke="#A47BD6" stroke-width="0.5"/>
<path d="M1 18.085C1 18.085 283.863 39.0513 442.238 39.1339C684.379 39.2603 821.423 58.5294 1063.52 56.0451C1263.43 53.9938 1409.14 51.7618 1608.93 48.3303C1772.07 45.5782 1917.76 37.5188 1917.76 37.5188" stroke="#A47BD6" stroke-width="0.5"/>
<path d="M1 20.2207C1 20.2207 288.768 47.5671 447.143 47.6498C689.284 47.7761 826.614 56.5808 1068.71 54.0965C1268.62 52.0452 1409.56 59.3063 1609.36 56.1387C1772.87 53.5983 1917.36 42.0838 1917.36 42.0838" stroke="#A47BD6" stroke-width="0.5"/>
<path d="M1 22.3555C1 22.3555 293.673 56.082 452.048 56.1646C694.189 56.291 831.804 54.6312 1073.9 52.1469C1273.81 50.0957 1409.98 66.8498 1609.79 63.9462C1773.67 61.6175 1916.95 46.6478 1916.95 46.6478" stroke="#A47BD6" stroke-width="0.5"/>
<path d="M1 24.4922C1 24.4922 298.578 64.5988 456.952 64.6814C699.093 64.8078 836.995 52.6836 1079.1 50.1993C1279 48.1481 1410.39 74.3952 1610.21 71.7556C1774.48 69.6386 1916.55 51.2138 1916.55 51.2138" stroke="#A47BD6" stroke-width="0.5"/>
<path d="M1 26.627C1 26.627 303.482 73.1137 461.857 73.1963C703.998 73.3227 842.185 50.734 1084.29 48.2498C1284.19 46.1985 1410.81 81.9387 1610.64 79.563C1775.28 77.6577 1916.14 55.7778 1916.14 55.7778" stroke="#A47BD6" stroke-width="0.5"/>
<path d="M1 28.7627C1 28.7627 308.387 81.6295 466.762 81.7122C708.903 81.8385 847.376 48.7855 1089.48 46.3012C1289.38 44.2499 1411.23 89.4832 1611.07 87.3715C1776.08 85.6779 1915.74 60.3427 1915.74 60.3427" stroke="#A47BD6" stroke-width="0.5"/>
<path d="M1 30.8984C1 30.8984 313.292 90.1453 471.667 90.228C713.808 90.3544 852.566 46.8369 1094.67 44.3526C1294.57 42.3013 1411.65 97.0277 1611.5 95.1799C1776.88 93.698 1915.33 64.9077 1915.33 64.9077" stroke="#A47BD6" stroke-width="0.5"/>
<path d="M1 33.0342C1 33.0342 318.197 98.6612 476.571 98.7438C718.713 98.8702 857.757 44.8883 1099.86 42.404C1299.76 40.3527 1412.06 104.572 1611.93 102.988C1777.69 101.718 1914.93 69.4727 1914.93 69.4727" stroke="#A47BD6" stroke-width="0.5"/>
<path d="M1 35.1699C1 35.1699 323.101 107.177 481.476 107.26C723.617 107.386 862.947 42.9397 1105.05 40.4554C1304.95 38.4041 1412.48 112.117 1612.36 110.797C1778.49 109.738 1914.52 74.0377 1914.52 74.0377" stroke="#A47BD6" stroke-width="0.5"/>
<path d="M1 37.3047C1 37.3047 328.006 115.692 486.381 115.775C728.522 115.901 868.137 40.9901 1110.24 38.5058C1310.14 36.4545 1412.9 119.66 1612.79 118.604C1779.29 117.757 1914.12 78.6017 1914.12 78.6017" stroke="#A47BD6" stroke-width="0.5"/>
<path d="M1 42.3572C1 42.3572 332.911 127.125 491.286 127.207C733.427 127.334 873.328 41.9583 1115.43 39.474C1315.33 37.4227 1413.31 130.121 1613.21 129.329C1780.09 128.694 1913.71 86.0834 1913.71 86.0834" stroke="#A47BD6" stroke-width="0.5"/>
<path d="M1 48.5742C1 48.5742 337.816 139.722 496.19 139.804C738.332 139.931 878.518 44.0909 1120.62 41.6066C1320.52 39.5554 1413.73 141.747 1613.64 141.219C1780.9 140.796 1913.31 94.7296 1913.31 94.7296" stroke="#A47BD6" stroke-width="0.5"/>
<path d="M1 54.7917C1 54.7917 342.72 152.319 501.095 152.402C743.236 152.528 883.709 46.2241 1125.81 43.7398C1325.71 41.6886 1414.15 153.373 1614.07 153.109C1781.7 152.898 1912.9 103.376 1912.9 103.376" stroke="#A47BD6" stroke-width="0.5"/>
</svg>
