<svg width="1922" height="166" fill="none" xmlns="http://www.w3.org/2000/svg"><path d="M1 30.992S244.625.918 403 1c242.141.127 376.899 103.111 619 100.627 199.9-2.051 383.81-80.228 583.5-85.771C1765.65 11.41 1921 30.992 1921 30.992" stroke="#A47BD6" stroke-width=".5"/><path d="M1 61.01S347.625 164.917 506 165c242.141.126 382.899-116.642 625-119.127C1330.9 43.823 1414.56 165 1614.5 165c168 0 298-52.976 298-52.976" stroke="#A47BD6" stroke-width=".5"/><path d="M1 26.748S249.53 3.053 407.905 3.136c242.141.126 377.185 92.647 619.285 90.162 199.9-2.051 379.04-70.735 578.74-76.014 160.52-4.234 314.67 11.893 314.67 11.893" stroke="#A47BD6" stroke-width=".5"/><path d="M1 22.503S254.435 5.19 412.81 5.272c242.141.126 377.47 82.182 619.57 79.698 199.9-2.052 374.26-61.242 573.98-66.257 160.9-4.023 313.83 8.649 313.83 8.649" stroke="#A47BD6" stroke-width=".5"/><path d="M1 18.258S259.339 7.324 417.714 7.407c242.141.126 377.757 71.717 619.856 69.233 199.9-2.051 369.49-51.748 569.22-56.5 161.27-3.81 313 5.406 313 5.406" stroke="#A47BD6" stroke-width=".5"/><path d="M1 14.015s263.244-4.554 421.619-4.47c242.141.125 378.042 61.252 620.141 58.768 199.9-2.051 364.72-42.256 564.45-46.743 161.65-3.599 312.17 2.163 312.17 2.163" stroke="#A47BD6" stroke-width=".5"/><path d="M1 11.678s268.149 1.826 426.524 1.908c242.141.127 378.328 50.79 620.426 48.305 199.9-2.051 359.94-32.763 559.69-36.986 162.02-3.387 311.34-1.081 311.34-1.081" stroke="#A47BD6" stroke-width=".5"/><path d="M1 13.813s273.054 8.207 431.429 8.29c242.141.126 378.613 40.324 620.711 37.84 199.91-2.052 355.17-23.27 554.93-27.23 162.4-3.175 310.5-4.324 310.5-4.324" stroke="#A47BD6" stroke-width=".5"/><path d="M1 15.95s277.958 14.585 436.333 14.668c242.141.127 378.9 29.86 620.997 27.376 199.91-2.052 350.4-13.777 550.17-17.472 162.77-2.964 309.67-7.568 309.67-7.568" stroke="#A47BD6" stroke-width=".5"/><path d="M1 18.085s282.863 20.966 441.238 21.049c242.141.126 379.185 19.395 621.282 16.911 199.91-2.051 345.62-4.283 545.41-7.715 163.14-2.752 308.83-10.811 308.83-10.811" stroke="#A47BD6" stroke-width=".5"/><path d="M1 20.22s287.768 27.347 446.143 27.43c242.141.126 379.471 8.93 621.567 6.447 199.91-2.052 340.85 5.21 540.65 2.042 163.51-2.54 308-14.055 308-14.055" stroke="#A47BD6" stroke-width=".5"/><path d="M1 22.355s292.673 33.727 451.048 33.81c242.141.126 379.756-1.534 621.852-4.018 199.91-2.051 336.08 14.703 535.89 11.8 163.88-2.33 307.16-17.3 307.16-17.3" stroke="#A47BD6" stroke-width=".5"/><path d="M1 24.492S298.578 64.6 456.952 64.682c242.141.126 380.043-11.998 622.148-14.483 199.9-2.05 331.29 24.196 531.11 21.557 164.27-2.117 306.34-20.542 306.34-20.542" stroke="#A47BD6" stroke-width=".5"/><path d="M1 26.627s302.482 46.487 460.857 46.57c242.141.126 380.328-22.463 622.433-24.947 199.9-2.051 326.52 33.689 526.35 31.313 164.64-1.905 305.5-23.785 305.5-23.785" stroke="#A47BD6" stroke-width=".5"/><path d="M1 28.763s307.387 52.866 465.762 52.95c242.141.126 380.614-32.927 622.718-35.412 199.9-2.051 321.75 43.182 521.59 41.07 165.01-1.693 304.67-27.028 304.67-27.028" stroke="#A47BD6" stroke-width=".5"/><path d="M1 30.898s312.292 59.247 470.667 59.33c242.141.126 380.899-43.391 623.003-45.875 199.9-2.052 316.98 52.675 516.83 50.827 165.38-1.482 303.83-30.272 303.83-30.272" stroke="#A47BD6" stroke-width=".5"/><path d="M1 33.034s317.197 65.627 475.571 65.71c242.142.126 381.186-53.856 623.289-56.34 199.9-2.051 312.2 62.168 512.07 60.584 165.76-1.27 303-33.515 303-33.515" stroke="#A47BD6" stroke-width=".5"/><path d="M1 35.17s322.101 72.007 480.476 72.09c242.141.126 381.471-64.32 623.574-66.805 199.9-2.05 307.43 71.662 507.31 70.342 166.13-1.059 302.16-36.76 302.16-36.76" stroke="#A47BD6" stroke-width=".5"/><path d="M1 37.305s327.006 78.387 485.381 78.47c242.141.126 381.756-74.785 623.859-77.27 199.9-2.05 302.66 81.155 502.55 80.099 166.5-.847 301.33-40.002 301.33-40.002" stroke="#A47BD6" stroke-width=".5"/><path d="M1 42.357s331.911 84.768 490.286 84.85c242.141.127 382.042-85.249 624.144-87.733 199.9-2.051 297.88 90.647 497.78 89.855 166.88-.635 300.5-43.246 300.5-43.246" stroke="#A47BD6" stroke-width=".5"/><path d="M1 48.574s336.816 91.148 495.19 91.23c242.142.127 382.328-95.713 624.43-98.197 199.9-2.052 293.11 100.14 493.02 99.612 167.26-.423 299.67-46.49 299.67-46.49" stroke="#A47BD6" stroke-width=".5"/><path d="M1 54.792s341.72 97.527 500.095 97.61c242.141.126 382.614-106.178 624.715-108.662 199.9-2.051 288.34 109.633 488.26 109.369 167.63-.211 298.83-49.733 298.83-49.733" stroke="#A47BD6" stroke-width=".5"/></svg>
