<svg width="40" height="40" fill="none" xmlns="http://www.w3.org/2000/svg"><g clip-path="url(#a)"><path d="m17.417 23.181-.397 5.584c.568 0 .814-.244 1.11-.537l2.662-2.545 5.518 4.041c1.012.564 1.725.267 1.998-.931l3.622-16.972.001-.001c.321-1.496-.54-2.081-1.527-1.714l-21.29 8.151c-1.453.564-1.43 1.374-.247 1.741l5.443 1.693 12.643-7.911c.595-.394 1.136-.176.691.218l-10.227 9.183Z" fill="#EAE0FF"/></g><rect x=".5" y=".5" width="39" height="39" rx="7.5" stroke="#EAE0FF"/><defs><clipPath id="a"><path fill="#fff" transform="translate(8 8)" d="M0 0h24v24H0z"/></clipPath></defs></svg>
