<svg width="136" height="40" viewBox="0 0 136 40" fill="none" xmlns="http://www.w3.org/2000/svg">
<path d="M20 35.6999L26.14 16.8115H13.8667L20 35.7015V35.6999Z" fill="url(#paint0_linear_2007_10732)"/>
<path d="M5.2666 16.8118L9.55993 17.5002L13.8666 16.8118L10.1666 5.43685C10.1247 5.30895 10.0435 5.19756 9.93458 5.11858C9.82563 5.0396 9.6945 4.99707 9.55993 4.99707C9.42537 4.99707 9.29424 5.0396 9.18529 5.11858C9.07633 5.19756 8.99513 5.30895 8.95327 5.43685L5.2666 16.8118Z" fill="url(#paint1_linear_2007_10732)"/>
<path d="M34.7418 16.8118L30.4393 17.5001L26.1401 16.8118L29.8335 5.43676C29.8757 5.30947 29.957 5.19873 30.0657 5.12024C30.1745 5.04175 30.3052 4.99951 30.4393 4.99951C30.5734 4.99951 30.7041 5.04175 30.8129 5.12024C30.9216 5.19873 31.0029 5.30947 31.0451 5.43676L34.7418 16.8118Z" fill="url(#paint2_linear_2007_10732)"/>
<g filter="url(#filter0_bii_2007_10732)">
<path d="M5.26651 16.8115L3.39484 22.5515C3.31223 22.8067 3.3124 23.0814 3.39532 23.3364C3.47823 23.5915 3.63966 23.8137 3.85651 23.9715L19.9982 35.7015L5.26484 16.8115H5.26651Z" fill="white" fill-opacity="0.2"/>
</g>
<g filter="url(#filter1_bii_2007_10732)">
<path d="M34.7419 16.8115L36.6052 22.5515C36.688 22.8065 36.6881 23.0811 36.6055 23.3361C36.5228 23.5911 36.3618 23.8135 36.1452 23.9715L19.9985 35.7015L34.7419 16.8115Z" fill="white" fill-opacity="0.2"/>
</g>
<g filter="url(#filter2_bii_2007_10732)">
<path d="M19.9985 35.7015L26.1402 16.8115H34.7419L19.9985 35.7015Z" fill="white" fill-opacity="0.2"/>
</g>
<g filter="url(#filter3_bii_2007_10732)">
<path d="M19.9985 35.7015L5.26514 16.8115H13.8668L19.9985 35.7015Z" fill="white" fill-opacity="0.2"/>
</g>
<path d="M61.6455 14.8154C63.3936 14.8154 64.7998 15.2939 65.8643 16.251C66.9287 17.1982 67.4609 18.7217 67.4609 20.8213V31.5H62.9932V21.9346C62.9932 20.7627 62.7783 19.8789 62.3486 19.2832C61.9287 18.6875 61.2646 18.3896 60.3564 18.3896C58.9893 18.3896 58.0566 18.8535 57.5586 19.7812C57.0605 20.709 56.8115 22.0469 56.8115 23.7949V31.5H52.3438V15.123H55.7568L56.3574 17.2178H56.6064C56.958 16.6514 57.3926 16.1924 57.9102 15.8408C58.4375 15.4893 59.0186 15.2305 59.6533 15.0645C60.2979 14.8984 60.9619 14.8154 61.6455 14.8154ZM78.7695 14.7861C80.9668 14.7861 82.6514 15.2646 83.8232 16.2217C84.9951 17.1787 85.5811 18.6338 85.5811 20.5869V31.5H82.4609L81.5967 29.2734H81.4795C81.0107 29.8594 80.5322 30.3379 80.0439 30.709C79.5557 31.0801 78.9941 31.3535 78.3594 31.5293C77.7246 31.7051 76.9531 31.793 76.0449 31.793C75.0781 31.793 74.209 31.6074 73.4375 31.2363C72.6758 30.8652 72.0752 30.2988 71.6357 29.5371C71.1963 28.7656 70.9766 27.7891 70.9766 26.6074C70.9766 24.8691 71.5869 23.5898 72.8076 22.7695C74.0283 21.9395 75.8594 21.4805 78.3008 21.3926L81.1426 21.3047V20.5869C81.1426 19.7275 80.918 19.0977 80.4688 18.6973C80.0195 18.2969 79.3945 18.0967 78.5938 18.0967C77.8027 18.0967 77.0264 18.209 76.2646 18.4336C75.5029 18.6582 74.7412 18.9414 73.9795 19.2832L72.5 16.2656C73.3691 15.8066 74.3408 15.4453 75.415 15.1816C76.499 14.918 77.6172 14.7861 78.7695 14.7861ZM81.1426 23.9121L79.4141 23.9707C77.9688 24.0098 76.9629 24.2686 76.3965 24.7471C75.8398 25.2256 75.5615 25.8555 75.5615 26.6367C75.5615 27.3203 75.7617 27.8086 76.1621 28.1016C76.5625 28.3848 77.085 28.5264 77.7295 28.5264C78.6865 28.5264 79.4922 28.2432 80.1465 27.6768C80.8105 27.1104 81.1426 26.3047 81.1426 25.2598V23.9121ZM109.429 14.8154C111.284 14.8154 112.686 15.2939 113.633 16.251C114.59 17.1982 115.068 18.7217 115.068 20.8213V31.5H110.586V21.9346C110.586 20.7627 110.386 19.8789 109.985 19.2832C109.585 18.6875 108.965 18.3896 108.125 18.3896C106.943 18.3896 106.104 18.8145 105.605 19.6641C105.107 20.5039 104.858 21.71 104.858 23.2822V31.5H100.391V21.9346C100.391 21.1533 100.303 20.499 100.127 19.9717C99.9512 19.4443 99.6826 19.0488 99.3213 18.7852C98.96 18.5215 98.4961 18.3896 97.9297 18.3896C97.0996 18.3896 96.4453 18.5996 95.9668 19.0195C95.498 19.4297 95.1611 20.04 94.9561 20.8506C94.7607 21.6514 94.6631 22.6328 94.6631 23.7949V31.5H90.1953V15.123H93.6084L94.209 17.2178H94.458C94.79 16.6514 95.2051 16.1924 95.7031 15.8408C96.2109 15.4893 96.7676 15.2305 97.373 15.0645C97.9785 14.8984 98.5938 14.8154 99.2188 14.8154C100.42 14.8154 101.436 15.0107 102.266 15.4014C103.105 15.792 103.75 16.3975 104.199 17.2178H104.595C105.083 16.3779 105.771 15.7676 106.66 15.3867C107.559 15.0059 108.481 14.8154 109.429 14.8154ZM126.421 14.8154C127.935 14.8154 129.238 15.1084 130.332 15.6943C131.426 16.2705 132.271 17.1104 132.866 18.2139C133.462 19.3174 133.76 20.665 133.76 22.2568V24.4248H123.198C123.247 25.6846 123.623 26.6758 124.326 27.3984C125.039 28.1113 126.025 28.4678 127.285 28.4678C128.33 28.4678 129.287 28.3604 130.156 28.1455C131.025 27.9307 131.919 27.6084 132.837 27.1787V30.6357C132.026 31.0361 131.177 31.3291 130.288 31.5146C129.409 31.7002 128.34 31.793 127.08 31.793C125.439 31.793 123.984 31.4902 122.715 30.8848C121.455 30.2793 120.464 29.3564 119.741 28.1162C119.028 26.876 118.672 25.3135 118.672 23.4287C118.672 21.5146 118.994 19.9229 119.639 18.6533C120.293 17.374 121.201 16.417 122.363 15.7822C123.525 15.1377 124.878 14.8154 126.421 14.8154ZM126.45 17.9941C125.581 17.9941 124.858 18.2725 124.282 18.8291C123.716 19.3857 123.389 20.2598 123.301 21.4512H129.57C129.561 20.7871 129.438 20.1963 129.204 19.6787C128.979 19.1611 128.638 18.751 128.179 18.4482C127.729 18.1455 127.153 17.9941 126.45 17.9941Z" fill="#E4E5EA"/>
<path d="M61.6455 14.8154C63.3936 14.8154 64.7998 15.2939 65.8643 16.251C66.9287 17.1982 67.4609 18.7217 67.4609 20.8213V31.5H62.9932V21.9346C62.9932 20.7627 62.7783 19.8789 62.3486 19.2832C61.9287 18.6875 61.2646 18.3896 60.3564 18.3896C58.9893 18.3896 58.0566 18.8535 57.5586 19.7812C57.0605 20.709 56.8115 22.0469 56.8115 23.7949V31.5H52.3438V15.123H55.7568L56.3574 17.2178H56.6064C56.958 16.6514 57.3926 16.1924 57.9102 15.8408C58.4375 15.4893 59.0186 15.2305 59.6533 15.0645C60.2979 14.8984 60.9619 14.8154 61.6455 14.8154ZM78.7695 14.7861C80.9668 14.7861 82.6514 15.2646 83.8232 16.2217C84.9951 17.1787 85.5811 18.6338 85.5811 20.5869V31.5H82.4609L81.5967 29.2734H81.4795C81.0107 29.8594 80.5322 30.3379 80.0439 30.709C79.5557 31.0801 78.9941 31.3535 78.3594 31.5293C77.7246 31.7051 76.9531 31.793 76.0449 31.793C75.0781 31.793 74.209 31.6074 73.4375 31.2363C72.6758 30.8652 72.0752 30.2988 71.6357 29.5371C71.1963 28.7656 70.9766 27.7891 70.9766 26.6074C70.9766 24.8691 71.5869 23.5898 72.8076 22.7695C74.0283 21.9395 75.8594 21.4805 78.3008 21.3926L81.1426 21.3047V20.5869C81.1426 19.7275 80.918 19.0977 80.4688 18.6973C80.0195 18.2969 79.3945 18.0967 78.5938 18.0967C77.8027 18.0967 77.0264 18.209 76.2646 18.4336C75.5029 18.6582 74.7412 18.9414 73.9795 19.2832L72.5 16.2656C73.3691 15.8066 74.3408 15.4453 75.415 15.1816C76.499 14.918 77.6172 14.7861 78.7695 14.7861ZM81.1426 23.9121L79.4141 23.9707C77.9688 24.0098 76.9629 24.2686 76.3965 24.7471C75.8398 25.2256 75.5615 25.8555 75.5615 26.6367C75.5615 27.3203 75.7617 27.8086 76.1621 28.1016C76.5625 28.3848 77.085 28.5264 77.7295 28.5264C78.6865 28.5264 79.4922 28.2432 80.1465 27.6768C80.8105 27.1104 81.1426 26.3047 81.1426 25.2598V23.9121ZM109.429 14.8154C111.284 14.8154 112.686 15.2939 113.633 16.251C114.59 17.1982 115.068 18.7217 115.068 20.8213V31.5H110.586V21.9346C110.586 20.7627 110.386 19.8789 109.985 19.2832C109.585 18.6875 108.965 18.3896 108.125 18.3896C106.943 18.3896 106.104 18.8145 105.605 19.6641C105.107 20.5039 104.858 21.71 104.858 23.2822V31.5H100.391V21.9346C100.391 21.1533 100.303 20.499 100.127 19.9717C99.9512 19.4443 99.6826 19.0488 99.3213 18.7852C98.96 18.5215 98.4961 18.3896 97.9297 18.3896C97.0996 18.3896 96.4453 18.5996 95.9668 19.0195C95.498 19.4297 95.1611 20.04 94.9561 20.8506C94.7607 21.6514 94.6631 22.6328 94.6631 23.7949V31.5H90.1953V15.123H93.6084L94.209 17.2178H94.458C94.79 16.6514 95.2051 16.1924 95.7031 15.8408C96.2109 15.4893 96.7676 15.2305 97.373 15.0645C97.9785 14.8984 98.5938 14.8154 99.2188 14.8154C100.42 14.8154 101.436 15.0107 102.266 15.4014C103.105 15.792 103.75 16.3975 104.199 17.2178H104.595C105.083 16.3779 105.771 15.7676 106.66 15.3867C107.559 15.0059 108.481 14.8154 109.429 14.8154ZM126.421 14.8154C127.935 14.8154 129.238 15.1084 130.332 15.6943C131.426 16.2705 132.271 17.1104 132.866 18.2139C133.462 19.3174 133.76 20.665 133.76 22.2568V24.4248H123.198C123.247 25.6846 123.623 26.6758 124.326 27.3984C125.039 28.1113 126.025 28.4678 127.285 28.4678C128.33 28.4678 129.287 28.3604 130.156 28.1455C131.025 27.9307 131.919 27.6084 132.837 27.1787V30.6357C132.026 31.0361 131.177 31.3291 130.288 31.5146C129.409 31.7002 128.34 31.793 127.08 31.793C125.439 31.793 123.984 31.4902 122.715 30.8848C121.455 30.2793 120.464 29.3564 119.741 28.1162C119.028 26.876 118.672 25.3135 118.672 23.4287C118.672 21.5146 118.994 19.9229 119.639 18.6533C120.293 17.374 121.201 16.417 122.363 15.7822C123.525 15.1377 124.878 14.8154 126.421 14.8154ZM126.45 17.9941C125.581 17.9941 124.858 18.2725 124.282 18.8291C123.716 19.3857 123.389 20.2598 123.301 21.4512H129.57C129.561 20.7871 129.438 20.1963 129.204 19.6787C128.979 19.1611 128.638 18.751 128.179 18.4482C127.729 18.1455 127.153 17.9941 126.45 17.9941Z" fill="#E4E5EA"/>
<defs>
<filter id="filter0_bii_2007_10732" x="-0.666992" y="12.8115" width="24.665" height="26.8901" filterUnits="userSpaceOnUse" color-interpolation-filters="sRGB">
<feFlood flood-opacity="0" result="BackgroundImageFix"/>
<feGaussianBlur in="BackgroundImageFix" stdDeviation="2"/>
<feComposite in2="SourceAlpha" operator="in" result="effect1_backgroundBlur_2007_10732"/>
<feBlend mode="normal" in="SourceGraphic" in2="effect1_backgroundBlur_2007_10732" result="shape"/>
<feColorMatrix in="SourceAlpha" type="matrix" values="0 0 0 0 0 0 0 0 0 0 0 0 0 0 0 0 0 0 127 0" result="hardAlpha"/>
<feOffset dy="-4"/>
<feGaussianBlur stdDeviation="2"/>
<feComposite in2="hardAlpha" operator="arithmetic" k2="-1" k3="1"/>
<feColorMatrix type="matrix" values="0 0 0 0 1 0 0 0 0 1 0 0 0 0 1 0 0 0 0.05 0"/>
<feBlend mode="normal" in2="shape" result="effect2_innerShadow_2007_10732"/>
<feColorMatrix in="SourceAlpha" type="matrix" values="0 0 0 0 0 0 0 0 0 0 0 0 0 0 0 0 0 0 127 0" result="hardAlpha"/>
<feOffset dx="-4" dy="-4"/>
<feGaussianBlur stdDeviation="2"/>
<feComposite in2="hardAlpha" operator="arithmetic" k2="-1" k3="1"/>
<feColorMatrix type="matrix" values="0 0 0 0 1 0 0 0 0 1 0 0 0 0 1 0 0 0 0.05 0"/>
<feBlend mode="normal" in2="effect2_innerShadow_2007_10732" result="effect3_innerShadow_2007_10732"/>
</filter>
<filter id="filter1_bii_2007_10732" x="15.9985" y="12.8115" width="24.6689" height="26.8901" filterUnits="userSpaceOnUse" color-interpolation-filters="sRGB">
<feFlood flood-opacity="0" result="BackgroundImageFix"/>
<feGaussianBlur in="BackgroundImageFix" stdDeviation="2"/>
<feComposite in2="SourceAlpha" operator="in" result="effect1_backgroundBlur_2007_10732"/>
<feBlend mode="normal" in="SourceGraphic" in2="effect1_backgroundBlur_2007_10732" result="shape"/>
<feColorMatrix in="SourceAlpha" type="matrix" values="0 0 0 0 0 0 0 0 0 0 0 0 0 0 0 0 0 0 127 0" result="hardAlpha"/>
<feOffset dy="-4"/>
<feGaussianBlur stdDeviation="2"/>
<feComposite in2="hardAlpha" operator="arithmetic" k2="-1" k3="1"/>
<feColorMatrix type="matrix" values="0 0 0 0 1 0 0 0 0 1 0 0 0 0 1 0 0 0 0.05 0"/>
<feBlend mode="normal" in2="shape" result="effect2_innerShadow_2007_10732"/>
<feColorMatrix in="SourceAlpha" type="matrix" values="0 0 0 0 0 0 0 0 0 0 0 0 0 0 0 0 0 0 127 0" result="hardAlpha"/>
<feOffset dx="-4" dy="-4"/>
<feGaussianBlur stdDeviation="2"/>
<feComposite in2="hardAlpha" operator="arithmetic" k2="-1" k3="1"/>
<feColorMatrix type="matrix" values="0 0 0 0 1 0 0 0 0 1 0 0 0 0 1 0 0 0 0.05 0"/>
<feBlend mode="normal" in2="effect2_innerShadow_2007_10732" result="effect3_innerShadow_2007_10732"/>
</filter>
<filter id="filter2_bii_2007_10732" x="15.9985" y="12.8115" width="22.7432" height="26.8901" filterUnits="userSpaceOnUse" color-interpolation-filters="sRGB">
<feFlood flood-opacity="0" result="BackgroundImageFix"/>
<feGaussianBlur in="BackgroundImageFix" stdDeviation="2"/>
<feComposite in2="SourceAlpha" operator="in" result="effect1_backgroundBlur_2007_10732"/>
<feBlend mode="normal" in="SourceGraphic" in2="effect1_backgroundBlur_2007_10732" result="shape"/>
<feColorMatrix in="SourceAlpha" type="matrix" values="0 0 0 0 0 0 0 0 0 0 0 0 0 0 0 0 0 0 127 0" result="hardAlpha"/>
<feOffset dy="-4"/>
<feGaussianBlur stdDeviation="2"/>
<feComposite in2="hardAlpha" operator="arithmetic" k2="-1" k3="1"/>
<feColorMatrix type="matrix" values="0 0 0 0 1 0 0 0 0 1 0 0 0 0 1 0 0 0 0.05 0"/>
<feBlend mode="normal" in2="shape" result="effect2_innerShadow_2007_10732"/>
<feColorMatrix in="SourceAlpha" type="matrix" values="0 0 0 0 0 0 0 0 0 0 0 0 0 0 0 0 0 0 127 0" result="hardAlpha"/>
<feOffset dx="-4" dy="-4"/>
<feGaussianBlur stdDeviation="2"/>
<feComposite in2="hardAlpha" operator="arithmetic" k2="-1" k3="1"/>
<feColorMatrix type="matrix" values="0 0 0 0 1 0 0 0 0 1 0 0 0 0 1 0 0 0 0.05 0"/>
<feBlend mode="normal" in2="effect2_innerShadow_2007_10732" result="effect3_innerShadow_2007_10732"/>
</filter>
<filter id="filter3_bii_2007_10732" x="1.26514" y="12.8115" width="22.7334" height="26.8901" filterUnits="userSpaceOnUse" color-interpolation-filters="sRGB">
<feFlood flood-opacity="0" result="BackgroundImageFix"/>
<feGaussianBlur in="BackgroundImageFix" stdDeviation="2"/>
<feComposite in2="SourceAlpha" operator="in" result="effect1_backgroundBlur_2007_10732"/>
<feBlend mode="normal" in="SourceGraphic" in2="effect1_backgroundBlur_2007_10732" result="shape"/>
<feColorMatrix in="SourceAlpha" type="matrix" values="0 0 0 0 0 0 0 0 0 0 0 0 0 0 0 0 0 0 127 0" result="hardAlpha"/>
<feOffset dy="-4"/>
<feGaussianBlur stdDeviation="2"/>
<feComposite in2="hardAlpha" operator="arithmetic" k2="-1" k3="1"/>
<feColorMatrix type="matrix" values="0 0 0 0 1 0 0 0 0 1 0 0 0 0 1 0 0 0 0.05 0"/>
<feBlend mode="normal" in2="shape" result="effect2_innerShadow_2007_10732"/>
<feColorMatrix in="SourceAlpha" type="matrix" values="0 0 0 0 0 0 0 0 0 0 0 0 0 0 0 0 0 0 127 0" result="hardAlpha"/>
<feOffset dx="-4" dy="-4"/>
<feGaussianBlur stdDeviation="2"/>
<feComposite in2="hardAlpha" operator="arithmetic" k2="-1" k3="1"/>
<feColorMatrix type="matrix" values="0 0 0 0 1 0 0 0 0 1 0 0 0 0 1 0 0 0 0.05 0"/>
<feBlend mode="normal" in2="effect2_innerShadow_2007_10732" result="effect3_innerShadow_2007_10732"/>
</filter>
<linearGradient id="paint0_linear_2007_10732" x1="20.0034" y1="16.8115" x2="20.0034" y2="35.7015" gradientUnits="userSpaceOnUse">
<stop offset="0.451042" stop-color="#7E59EC"/>
<stop offset="1" stop-color="#F6F3FF"/>
</linearGradient>
<linearGradient id="paint1_linear_2007_10732" x1="9.5666" y1="4.99707" x2="9.5666" y2="16.8118" gradientUnits="userSpaceOnUse">
<stop offset="0.451042" stop-color="#B181F0"/>
<stop offset="1" stop-color="#7E57EB"/>
</linearGradient>
<linearGradient id="paint2_linear_2007_10732" x1="30.441" y1="4.99951" x2="30.441" y2="16.8118" gradientUnits="userSpaceOnUse">
<stop offset="0.451042" stop-color="#B181F0"/>
<stop offset="1" stop-color="#7955EC"/>
</linearGradient>
</defs>
</svg>
