<svg width="50" height="31" viewBox="0 0 50 31" fill="none" xmlns="http://www.w3.org/2000/svg">
<g id="Group">
<path id="rect19" d="M31.2891 3.26221H17.9531V27.2216H31.2891V3.26221Z" fill="#44485E"/>
<path id="XMLID_330_" d="M18.84 15.2397C18.84 10.3719 21.1284 6.05149 24.64 3.26001C22.0556 1.22805 18.7956 0 15.2397 0C6.81594 0 0 6.81594 0 15.2397C0 23.6635 6.81594 30.4794 15.2397 30.4794C18.7956 30.4794 22.0556 29.2513 24.64 27.2194C21.1235 24.4674 18.84 20.1075 18.84 15.2397Z" fill="#EAE0FF"/>
<path id="path22" d="M49.2806 15.2397C49.2806 23.6635 42.4647 30.4794 34.0409 30.4794C30.485 30.4794 27.225 29.2513 24.6406 27.2194C28.1966 24.423 30.4406 20.1075 30.4406 15.2397C30.4406 10.3719 28.1522 6.05149 24.6406 3.26001C27.22 1.22805 30.48 0 34.036 0C42.4647 0 49.2806 6.86033 49.2806 15.2397Z" fill="#EAE0FF"/>
</g>
</svg>
