<svg width="108" height="68" fill="none" xmlns="http://www.w3.org/2000/svg"><g filter="url(#a)"><rect x="4" y="64" width="60" height="100" rx="30" transform="rotate(-90 4 64)" fill="url(#b)"/><rect x="2.25" y="65.75" width="63.5" height="103.5" rx="31.75" transform="rotate(-90 2.25 65.75)" stroke="url(#c)" stroke-width="3.5"/><rect x="2.25" y="65.75" width="63.5" height="103.5" rx="31.75" transform="rotate(-90 2.25 65.75)" stroke="url(#d)" stroke-width="3.5"/></g><path d="M60.287 22.262H46.95v23.96h13.336v-23.96Z" fill="#67596A"/><path d="M47.84 34.24c0-4.868 2.288-9.189 5.8-11.98a15.159 15.159 0 0 0-9.4-3.26C35.816 19 29 25.816 29 34.24c0 8.423 6.816 15.24 15.24 15.24 3.556 0 6.816-1.229 9.4-3.26a15.209 15.209 0 0 1-5.8-11.98Z" fill="#EAE0FF"/><path d="M78.282 34.24c0 8.423-6.816 15.24-15.24 15.24a15.158 15.158 0 0 1-9.4-3.26 15.157 15.157 0 0 0 5.8-11.98c0-4.868-2.288-9.189-5.8-11.98A15.134 15.134 0 0 1 63.037 19c8.43 0 15.245 6.86 15.245 15.24Z" fill="#3A1743"/><defs><radialGradient id="b" cx="0" cy="0" r="1" gradientUnits="userSpaceOnUse" gradientTransform="matrix(58.82911 96.41426 -158.47637 96.69757 5.17 67.586)"><stop stop-color="#fff" stop-opacity=".26"/><stop offset="1" stop-color="#fff" stop-opacity="0"/></radialGradient><radialGradient id="c" cx="0" cy="0" r="1" gradientUnits="userSpaceOnUse" gradientTransform="rotate(58.9 -54.236 36.32) scale(114.459 186.157)"><stop stop-color="#fff"/><stop offset="1" stop-color="#fff" stop-opacity="0"/></radialGradient><radialGradient id="d" cx="0" cy="0" r="1" gradientUnits="userSpaceOnUse" gradientTransform="rotate(58.9 -54.675 35.542) scale(114.459 186.157)"><stop stop-color="#18195E"/><stop offset="1" stop-color="#151515" stop-opacity="0"/></radialGradient><filter id="a" x="-41.5" y="-41.5" width="191" height="151" filterUnits="userSpaceOnUse" color-interpolation-filters="sRGB"><feFlood flood-opacity="0" result="BackgroundImageFix"/><feGaussianBlur in="BackgroundImageFix" stdDeviation="21"/><feComposite in2="SourceAlpha" operator="in" result="effect1_backgroundBlur_83_3210"/><feBlend in="SourceGraphic" in2="effect1_backgroundBlur_83_3210" result="shape"/></filter></defs></svg>
