<svg width="34" height="34" fill="none" xmlns="http://www.w3.org/2000/svg"><path d="M20 16.75a1.25 1.25 0 1 1 0-2.5 1.25 1.25 0 0 1 0 2.5Z" fill="url(#a)"/><path d="M15 16.75a1.25 1.25 0 1 1 0-2.5 1.25 1.25 0 0 1 0 2.5Z" fill="url(#b)"/><path d="M10 16.75a1.25 1.25 0 1 1 0-2.5 1.25 1.25 0 0 1 0 2.5Z" fill="url(#c)"/><g filter="url(#d)"><path d="M6.25 5.5h17.5a3.754 3.754 0 0 1 3.75 3.75v12.5a3.754 3.754 0 0 1-3.75 3.75H9.268l-4.634 4.634A1.25 1.25 0 0 1 2.5 29.25v-20A3.754 3.754 0 0 1 6.25 5.5ZM20 16.75a1.25 1.25 0 1 0 0-2.5 1.25 1.25 0 0 0 0 2.5Zm-5 0a1.25 1.25 0 1 0 0-2.5 1.25 1.25 0 0 0 0 2.5Zm-5 0a1.25 1.25 0 1 0 0-2.5 1.25 1.25 0 0 0 0 2.5Z" fill="#fff" fill-opacity=".32"/></g><defs><linearGradient id="a" x1="20" y1="14.25" x2="20" y2="16.75" gradientUnits="userSpaceOnUse"><stop offset=".451" stop-color="#D8C1F5"/><stop offset="1" stop-color="#9D68E5"/></linearGradient><linearGradient id="b" x1="15" y1="14.25" x2="15" y2="16.75" gradientUnits="userSpaceOnUse"><stop offset=".451" stop-color="#D8C1F5"/><stop offset="1" stop-color="#9D68E5"/></linearGradient><linearGradient id="c" x1="10" y1="14.25" x2="10" y2="16.75" gradientUnits="userSpaceOnUse"><stop offset=".451" stop-color="#D8C1F5"/><stop offset="1" stop-color="#9D68E5"/></linearGradient><filter id="d" x="-1.5" y="1.5" width="33" height="32.999" filterUnits="userSpaceOnUse" color-interpolation-filters="sRGB"><feFlood flood-opacity="0" result="BackgroundImageFix"/><feGaussianBlur in="BackgroundImageFix" stdDeviation="2"/><feComposite in2="SourceAlpha" operator="in" result="effect1_backgroundBlur_365_3758"/><feBlend in="SourceGraphic" in2="effect1_backgroundBlur_365_3758" result="shape"/><feColorMatrix in="SourceAlpha" values="0 0 0 0 0 0 0 0 0 0 0 0 0 0 0 0 0 0 127 0" result="hardAlpha"/><feOffset dy="-4"/><feGaussianBlur stdDeviation="2"/><feComposite in2="hardAlpha" operator="arithmetic" k2="-1" k3="1"/><feColorMatrix values="0 0 0 0 1 0 0 0 0 1 0 0 0 0 1 0 0 0 0.05 0"/><feBlend in2="shape" result="effect2_innerShadow_365_3758"/><feColorMatrix in="SourceAlpha" values="0 0 0 0 0 0 0 0 0 0 0 0 0 0 0 0 0 0 127 0" result="hardAlpha"/><feOffset dx="-4" dy="-4"/><feGaussianBlur stdDeviation="2"/><feComposite in2="hardAlpha" operator="arithmetic" k2="-1" k3="1"/><feColorMatrix values="0 0 0 0 1 0 0 0 0 1 0 0 0 0 1 0 0 0 0.05 0"/><feBlend in2="effect2_innerShadow_365_3758" result="effect3_innerShadow_365_3758"/></filter></defs></svg>
