<svg width="60" height="60" viewBox="0 0 60 60" fill="none" xmlns="http://www.w3.org/2000/svg">
<g id="30">
<g id="Vector" filter="url(#filter0_bii_83_3184)">
<path d="M30.0001 5C25.2679 4.9993 20.6327 6.3417 16.6333 8.87116C12.6339 11.4006 9.43448 15.0132 7.40705 19.2891C5.37961 23.565 4.60739 28.3284 5.18014 33.0258C5.75289 37.7232 7.64709 42.1616 10.6426 45.825L5.73256 50.7325C5.38303 51.0821 5.14502 51.5275 5.0486 52.0124C4.95218 52.4973 5.00169 52.9999 5.19086 53.4566C5.38004 53.9134 5.70039 54.3038 6.11141 54.5785C6.52244 54.8532 7.00568 54.9999 7.50006 55H30.0001C36.6305 55 42.9893 52.3661 47.6777 47.6777C52.3661 42.9893 55.0001 36.6304 55.0001 30C55.0001 23.3696 52.3661 17.0107 47.6777 12.3223C42.9893 7.63392 36.6305 5 30.0001 5ZM20.0001 32.5C19.5056 32.5 19.0223 32.3534 18.6111 32.0787C18.2 31.804 17.8796 31.4135 17.6904 30.9567C17.5011 30.4999 17.4516 29.9972 17.5481 29.5123C17.6446 29.0273 17.8827 28.5819 18.2323 28.2322C18.5819 27.8826 19.0274 27.6445 19.5123 27.548C19.9973 27.4516 20.5 27.5011 20.9568 27.6903C21.4136 27.8795 21.804 28.1999 22.0787 28.6111C22.3534 29.0222 22.5001 29.5055 22.5001 30C22.5001 30.663 22.2367 31.2989 21.7678 31.7678C21.299 32.2366 20.6631 32.5 20.0001 32.5ZM30.0001 32.5C29.5056 32.5 29.0223 32.3534 28.6111 32.0787C28.2 31.804 27.8796 31.4135 27.6904 30.9567C27.5011 30.4999 27.4516 29.9972 27.5481 29.5123C27.6446 29.0273 27.8827 28.5819 28.2323 28.2322C28.5819 27.8826 29.0274 27.6445 29.5123 27.548C29.9973 27.4516 30.5 27.5011 30.9568 27.6903C31.4136 27.8795 31.804 28.1999 32.0787 28.6111C32.3534 29.0222 32.5001 29.5055 32.5001 30C32.5001 30.663 32.2367 31.2989 31.7678 31.7678C31.299 32.2366 30.6631 32.5 30.0001 32.5ZM40.0001 32.5C39.5056 32.5 39.0223 32.3534 38.6111 32.0787C38.2 31.804 37.8796 31.4135 37.6904 30.9567C37.5011 30.4999 37.4516 29.9972 37.5481 29.5123C37.6446 29.0273 37.8827 28.5819 38.2323 28.2322C38.5819 27.8826 39.0274 27.6445 39.5123 27.548C39.9973 27.4516 40.5 27.5011 40.9568 27.6903C41.4136 27.8795 41.804 28.1999 42.0787 28.6111C42.3534 29.0222 42.5001 29.5055 42.5001 30C42.5001 30.663 42.2367 31.2989 41.7678 31.7678C41.299 32.2366 40.6631 32.5 40.0001 32.5Z" fill="white" fill-opacity="0.2"/>
</g>
<g id="Vector_2" filter="url(#filter1_d_83_3184)">
<path d="M40 34C42.2091 34 44 32.2091 44 30C44 27.7909 42.2091 26 40 26C37.7909 26 36 27.7909 36 30C36 32.2091 37.7909 34 40 34Z" fill="white"/>
</g>
<g id="Vector_3" filter="url(#filter2_d_83_3184)">
<path d="M30 34C32.2091 34 34 32.2091 34 30C34 27.7909 32.2091 26 30 26C27.7909 26 26 27.7909 26 30C26 32.2091 27.7909 34 30 34Z" fill="white"/>
</g>
<g id="Vector_4" filter="url(#filter3_d_83_3184)">
<path d="M19 34C21.2091 34 23 32.2091 23 30C23 27.7909 21.2091 26 19 26C16.7909 26 15 27.7909 15 30C15 32.2091 16.7909 34 19 34Z" fill="white"/>
</g>
</g>
<defs>
<filter id="filter0_bii_83_3184" x="0.996338" y="1" width="55.0037" height="55" filterUnits="userSpaceOnUse" color-interpolation-filters="sRGB">
<feFlood flood-opacity="0" result="BackgroundImageFix"/>
<feGaussianBlur in="BackgroundImageFix" stdDeviation="0.5"/>
<feComposite in2="SourceAlpha" operator="in" result="effect1_backgroundBlur_83_3184"/>
<feBlend mode="normal" in="SourceGraphic" in2="effect1_backgroundBlur_83_3184" result="shape"/>
<feColorMatrix in="SourceAlpha" type="matrix" values="0 0 0 0 0 0 0 0 0 0 0 0 0 0 0 0 0 0 127 0" result="hardAlpha"/>
<feOffset dy="-4"/>
<feGaussianBlur stdDeviation="2"/>
<feComposite in2="hardAlpha" operator="arithmetic" k2="-1" k3="1"/>
<feColorMatrix type="matrix" values="0 0 0 0 1 0 0 0 0 1 0 0 0 0 1 0 0 0 0.05 0"/>
<feBlend mode="normal" in2="shape" result="effect2_innerShadow_83_3184"/>
<feColorMatrix in="SourceAlpha" type="matrix" values="0 0 0 0 0 0 0 0 0 0 0 0 0 0 0 0 0 0 127 0" result="hardAlpha"/>
<feOffset dx="-4" dy="-4"/>
<feGaussianBlur stdDeviation="2"/>
<feComposite in2="hardAlpha" operator="arithmetic" k2="-1" k3="1"/>
<feColorMatrix type="matrix" values="0 0 0 0 1 0 0 0 0 1 0 0 0 0 1 0 0 0 0.05 0"/>
<feBlend mode="normal" in2="effect2_innerShadow_83_3184" result="effect3_innerShadow_83_3184"/>
</filter>
<filter id="filter1_d_83_3184" x="32" y="26" width="16" height="16" filterUnits="userSpaceOnUse" color-interpolation-filters="sRGB">
<feFlood flood-opacity="0" result="BackgroundImageFix"/>
<feColorMatrix in="SourceAlpha" type="matrix" values="0 0 0 0 0 0 0 0 0 0 0 0 0 0 0 0 0 0 127 0" result="hardAlpha"/>
<feOffset dy="4"/>
<feGaussianBlur stdDeviation="2"/>
<feComposite in2="hardAlpha" operator="out"/>
<feColorMatrix type="matrix" values="0 0 0 0 1 0 0 0 0 1 0 0 0 0 1 0 0 0 0.25 0"/>
<feBlend mode="normal" in2="BackgroundImageFix" result="effect1_dropShadow_83_3184"/>
<feBlend mode="normal" in="SourceGraphic" in2="effect1_dropShadow_83_3184" result="shape"/>
</filter>
<filter id="filter2_d_83_3184" x="22" y="26" width="16" height="16" filterUnits="userSpaceOnUse" color-interpolation-filters="sRGB">
<feFlood flood-opacity="0" result="BackgroundImageFix"/>
<feColorMatrix in="SourceAlpha" type="matrix" values="0 0 0 0 0 0 0 0 0 0 0 0 0 0 0 0 0 0 127 0" result="hardAlpha"/>
<feOffset dy="4"/>
<feGaussianBlur stdDeviation="2"/>
<feComposite in2="hardAlpha" operator="out"/>
<feColorMatrix type="matrix" values="0 0 0 0 1 0 0 0 0 1 0 0 0 0 1 0 0 0 0.25 0"/>
<feBlend mode="normal" in2="BackgroundImageFix" result="effect1_dropShadow_83_3184"/>
<feBlend mode="normal" in="SourceGraphic" in2="effect1_dropShadow_83_3184" result="shape"/>
</filter>
<filter id="filter3_d_83_3184" x="11" y="26" width="16" height="16" filterUnits="userSpaceOnUse" color-interpolation-filters="sRGB">
<feFlood flood-opacity="0" result="BackgroundImageFix"/>
<feColorMatrix in="SourceAlpha" type="matrix" values="0 0 0 0 0 0 0 0 0 0 0 0 0 0 0 0 0 0 127 0" result="hardAlpha"/>
<feOffset dy="4"/>
<feGaussianBlur stdDeviation="2"/>
<feComposite in2="hardAlpha" operator="out"/>
<feColorMatrix type="matrix" values="0 0 0 0 1 0 0 0 0 1 0 0 0 0 1 0 0 0 0.25 0"/>
<feBlend mode="normal" in2="BackgroundImageFix" result="effect1_dropShadow_83_3184"/>
<feBlend mode="normal" in="SourceGraphic" in2="effect1_dropShadow_83_3184" result="shape"/>
</filter>
</defs>
</svg>
