<svg width="34" height="34" viewBox="0 0 34 34" fill="none" xmlns="http://www.w3.org/2000/svg">
<path d="M20 16.75C19.3096 16.75 18.75 16.1904 18.75 15.5C18.75 14.8096 19.3096 14.25 20 14.25C20.6904 14.25 21.25 14.8096 21.25 15.5C21.25 16.1904 20.6904 16.75 20 16.75Z" fill="url(#paint0_linear_365_3758)"/>
<path d="M15 16.75C14.3096 16.75 13.75 16.1904 13.75 15.5C13.75 14.8096 14.3096 14.25 15 14.25C15.6904 14.25 16.25 14.8096 16.25 15.5C16.25 16.1904 15.6904 16.75 15 16.75Z" fill="url(#paint1_linear_365_3758)"/>
<path d="M10 16.75C9.30964 16.75 8.75 16.1904 8.75 15.5C8.75 14.8096 9.30964 14.25 10 14.25C10.6904 14.25 11.25 14.8096 11.25 15.5C11.25 16.1904 10.6904 16.75 10 16.75Z" fill="url(#paint2_linear_365_3758)"/>
<g filter="url(#filter0_bii_365_3758)">
<path d="M6.25 5.5H23.75C24.7443 5.50099 25.6975 5.8964 26.4006 6.59945C27.1036 7.30249 27.499 8.25574 27.5 9.25V21.75C27.499 22.7443 27.1036 23.6975 26.4006 24.4006C25.6975 25.1036 24.7443 25.499 23.75 25.5H9.2675L4.63375 30.1338C4.45894 30.3085 4.23623 30.4275 3.99379 30.4757C3.75135 30.5239 3.50006 30.4992 3.27168 30.4046C3.04331 30.31 2.8481 30.1498 2.71075 29.9443C2.57339 29.7388 2.50005 29.4972 2.5 29.25V9.25C2.50099 8.25574 2.8964 7.30249 3.59945 6.59945C4.30249 5.8964 5.25574 5.50099 6.25 5.5ZM20 16.75C20.2472 16.75 20.4889 16.6767 20.6945 16.5393C20.9 16.402 21.0602 16.2068 21.1548 15.9784C21.2495 15.7499 21.2742 15.4986 21.226 15.2561C21.1778 15.0137 21.0587 14.7909 20.8839 14.6161C20.7091 14.4413 20.4863 14.3222 20.2439 14.274C20.0014 14.2258 19.7501 14.2505 19.5216 14.3451C19.2932 14.4398 19.098 14.6 18.9607 14.8055C18.8233 15.0111 18.75 15.2528 18.75 15.5C18.75 15.8315 18.8817 16.1495 19.1161 16.3839C19.3505 16.6183 19.6685 16.75 20 16.75ZM15 16.75C15.2472 16.75 15.4889 16.6767 15.6945 16.5393C15.9 16.402 16.0602 16.2068 16.1549 15.9784C16.2495 15.7499 16.2742 15.4986 16.226 15.2561C16.1778 15.0137 16.0587 14.7909 15.8839 14.6161C15.7091 14.4413 15.4863 14.3222 15.2439 14.274C15.0014 14.2258 14.7501 14.2505 14.5216 14.3451C14.2932 14.4398 14.098 14.6 13.9607 14.8055C13.8233 15.0111 13.75 15.2528 13.75 15.5C13.75 15.8315 13.8817 16.1495 14.1161 16.3839C14.3505 16.6183 14.6685 16.75 15 16.75ZM10 16.75C10.2472 16.75 10.4889 16.6767 10.6945 16.5393C10.9 16.402 11.0602 16.2068 11.1549 15.9784C11.2495 15.7499 11.2742 15.4986 11.226 15.2561C11.1777 15.0137 11.0587 14.7909 10.8839 14.6161C10.7091 14.4413 10.4863 14.3222 10.2439 14.274C10.0014 14.2258 9.75005 14.2505 9.52165 14.3451C9.29324 14.4398 9.09801 14.6 8.96066 14.8055C8.82331 15.0111 8.75 15.2528 8.75 15.5C8.75 15.8315 8.88169 16.1495 9.11612 16.3839C9.35054 16.6183 9.66848 16.75 10 16.75Z" fill="white" fill-opacity="0.32"/>
</g>
<defs>
<filter id="filter0_bii_365_3758" x="-1.5" y="1.5" width="33" height="32.9995" filterUnits="userSpaceOnUse" color-interpolation-filters="sRGB">
<feFlood flood-opacity="0" result="BackgroundImageFix"/>
<feGaussianBlur in="BackgroundImageFix" stdDeviation="2"/>
<feComposite in2="SourceAlpha" operator="in" result="effect1_backgroundBlur_365_3758"/>
<feBlend mode="normal" in="SourceGraphic" in2="effect1_backgroundBlur_365_3758" result="shape"/>
<feColorMatrix in="SourceAlpha" type="matrix" values="0 0 0 0 0 0 0 0 0 0 0 0 0 0 0 0 0 0 127 0" result="hardAlpha"/>
<feOffset dy="-4"/>
<feGaussianBlur stdDeviation="2"/>
<feComposite in2="hardAlpha" operator="arithmetic" k2="-1" k3="1"/>
<feColorMatrix type="matrix" values="0 0 0 0 1 0 0 0 0 1 0 0 0 0 1 0 0 0 0.05 0"/>
<feBlend mode="normal" in2="shape" result="effect2_innerShadow_365_3758"/>
<feColorMatrix in="SourceAlpha" type="matrix" values="0 0 0 0 0 0 0 0 0 0 0 0 0 0 0 0 0 0 127 0" result="hardAlpha"/>
<feOffset dx="-4" dy="-4"/>
<feGaussianBlur stdDeviation="2"/>
<feComposite in2="hardAlpha" operator="arithmetic" k2="-1" k3="1"/>
<feColorMatrix type="matrix" values="0 0 0 0 1 0 0 0 0 1 0 0 0 0 1 0 0 0 0.05 0"/>
<feBlend mode="normal" in2="effect2_innerShadow_365_3758" result="effect3_innerShadow_365_3758"/>
</filter>
<linearGradient id="paint0_linear_365_3758" x1="20" y1="14.25" x2="20" y2="16.75" gradientUnits="userSpaceOnUse">
<stop offset="0.451042" stop-color="#D8C1F5"/>
<stop offset="1" stop-color="#9D68E5"/>
</linearGradient>
<linearGradient id="paint1_linear_365_3758" x1="15" y1="14.25" x2="15" y2="16.75" gradientUnits="userSpaceOnUse">
<stop offset="0.451042" stop-color="#D8C1F5"/>
<stop offset="1" stop-color="#9D68E5"/>
</linearGradient>
<linearGradient id="paint2_linear_365_3758" x1="10" y1="14.25" x2="10" y2="16.75" gradientUnits="userSpaceOnUse">
<stop offset="0.451042" stop-color="#D8C1F5"/>
<stop offset="1" stop-color="#9D68E5"/>
</linearGradient>
</defs>
</svg>
