<svg width="25" height="24" viewBox="0 0 25 24" fill="none" xmlns="http://www.w3.org/2000/svg">
<g id="vuesax/bold/message-2">
<g id="message-2">
<path id="Vector" d="M17.5 2.42993H7.5C4.5 2.42993 2.5 4.42993 2.5 7.42993V13.4299C2.5 16.4299 4.5 18.4299 7.5 18.4299H11.5L15.95 21.3899C16.61 21.8299 17.5 21.3599 17.5 20.5599V18.4299C20.5 18.4299 22.5 16.4299 22.5 13.4299V7.42993C22.5 4.42993 20.5 2.42993 17.5 2.42993ZM16 11.2499H9C8.59 11.2499 8.25 10.9099 8.25 10.4999C8.25 10.0899 8.59 9.74993 9 9.74993H16C16.41 9.74993 16.75 10.0899 16.75 10.4999C16.75 10.9099 16.41 11.2499 16 11.2499Z" fill="#EAE0FF"/>
</g>
</g>
</svg>
