<svg width="60" height="60" fill="none" xmlns="http://www.w3.org/2000/svg"><g filter="url(#a)"><path d="M30 5a25 25 0 0 0-19.357 40.825l-4.91 4.907A2.5 2.5 0 0 0 7.5 55H30a25 25 0 1 0 0-50ZM20 32.5a2.5 2.5 0 1 1 0-5 2.5 2.5 0 0 1 0 5Zm10 0a2.5 2.5 0 1 1 0-5 2.5 2.5 0 0 1 0 5Zm10 0a2.5 2.5 0 1 1 0-5 2.5 2.5 0 0 1 0 5Z" fill="#fff" fill-opacity=".2"/></g><g filter="url(#b)"><path d="M40 34a4 4 0 1 0 0-8 4 4 0 0 0 0 8Z" fill="#fff"/></g><g filter="url(#c)"><path d="M30 34a4 4 0 1 0 0-8 4 4 0 0 0 0 8Z" fill="#fff"/></g><g filter="url(#d)"><path d="M19 34a4 4 0 1 0 0-8 4 4 0 0 0 0 8Z" fill="#fff"/></g><defs><filter id="a" x=".996" y="1" width="55.004" height="55" filterUnits="userSpaceOnUse" color-interpolation-filters="sRGB"><feFlood flood-opacity="0" result="BackgroundImageFix"/><feGaussianBlur in="BackgroundImageFix" stdDeviation=".5"/><feComposite in2="SourceAlpha" operator="in" result="effect1_backgroundBlur_83_3184"/><feBlend in="SourceGraphic" in2="effect1_backgroundBlur_83_3184" result="shape"/><feColorMatrix in="SourceAlpha" values="0 0 0 0 0 0 0 0 0 0 0 0 0 0 0 0 0 0 127 0" result="hardAlpha"/><feOffset dy="-4"/><feGaussianBlur stdDeviation="2"/><feComposite in2="hardAlpha" operator="arithmetic" k2="-1" k3="1"/><feColorMatrix values="0 0 0 0 1 0 0 0 0 1 0 0 0 0 1 0 0 0 0.05 0"/><feBlend in2="shape" result="effect2_innerShadow_83_3184"/><feColorMatrix in="SourceAlpha" values="0 0 0 0 0 0 0 0 0 0 0 0 0 0 0 0 0 0 127 0" result="hardAlpha"/><feOffset dx="-4" dy="-4"/><feGaussianBlur stdDeviation="2"/><feComposite in2="hardAlpha" operator="arithmetic" k2="-1" k3="1"/><feColorMatrix values="0 0 0 0 1 0 0 0 0 1 0 0 0 0 1 0 0 0 0.05 0"/><feBlend in2="effect2_innerShadow_83_3184" result="effect3_innerShadow_83_3184"/></filter><filter id="b" x="32" y="26" width="16" height="16" filterUnits="userSpaceOnUse" color-interpolation-filters="sRGB"><feFlood flood-opacity="0" result="BackgroundImageFix"/><feColorMatrix in="SourceAlpha" values="0 0 0 0 0 0 0 0 0 0 0 0 0 0 0 0 0 0 127 0" result="hardAlpha"/><feOffset dy="4"/><feGaussianBlur stdDeviation="2"/><feComposite in2="hardAlpha" operator="out"/><feColorMatrix values="0 0 0 0 1 0 0 0 0 1 0 0 0 0 1 0 0 0 0.25 0"/><feBlend in2="BackgroundImageFix" result="effect1_dropShadow_83_3184"/><feBlend in="SourceGraphic" in2="effect1_dropShadow_83_3184" result="shape"/></filter><filter id="c" x="22" y="26" width="16" height="16" filterUnits="userSpaceOnUse" color-interpolation-filters="sRGB"><feFlood flood-opacity="0" result="BackgroundImageFix"/><feColorMatrix in="SourceAlpha" values="0 0 0 0 0 0 0 0 0 0 0 0 0 0 0 0 0 0 127 0" result="hardAlpha"/><feOffset dy="4"/><feGaussianBlur stdDeviation="2"/><feComposite in2="hardAlpha" operator="out"/><feColorMatrix values="0 0 0 0 1 0 0 0 0 1 0 0 0 0 1 0 0 0 0.25 0"/><feBlend in2="BackgroundImageFix" result="effect1_dropShadow_83_3184"/><feBlend in="SourceGraphic" in2="effect1_dropShadow_83_3184" result="shape"/></filter><filter id="d" x="11" y="26" width="16" height="16" filterUnits="userSpaceOnUse" color-interpolation-filters="sRGB"><feFlood flood-opacity="0" result="BackgroundImageFix"/><feColorMatrix in="SourceAlpha" values="0 0 0 0 0 0 0 0 0 0 0 0 0 0 0 0 0 0 127 0" result="hardAlpha"/><feOffset dy="4"/><feGaussianBlur stdDeviation="2"/><feComposite in2="hardAlpha" operator="out"/><feColorMatrix values="0 0 0 0 1 0 0 0 0 1 0 0 0 0 1 0 0 0 0.25 0"/><feBlend in2="BackgroundImageFix" result="effect1_dropShadow_83_3184"/><feBlend in="SourceGraphic" in2="effect1_dropShadow_83_3184" result="shape"/></filter></defs></svg>
