<svg width="68" height="19" viewBox="0 0 68 19" fill="none" xmlns="http://www.w3.org/2000/svg">
<g id="sim">
<g id="mir-logo">
<g id="Group-5">
<path id="Combined-Shape" fill-rule="evenodd" clip-rule="evenodd" d="M6.23615 0.0031207C6.83863 -0.000462474 8.62916 -0.160784 9.38759 2.38396C9.89848 4.09813 10.7123 6.90602 11.829 10.8076H12.2838C13.4815 6.69428 14.3042 3.88639 14.7519 2.38396C15.5183 -0.187292 17.4341 0.00317108 18.2004 0.00317108L24.1129 0.00317842V18.2876H18.0868V7.51228H17.6827L14.3234 18.2876H9.7895L6.43023 7.5043H6.02613V18.2876H0V0.00317842L6.23615 0.0031207ZM32.7663 0.00317842V10.7865H33.247L37.3333 1.91945C38.1265 0.154883 39.8171 0.00317842 39.8171 0.00317842H45.6486V18.2876H39.4966V7.5043H39.0158L35.0097 16.3714C34.2165 18.1279 32.4458 18.2876 32.4458 18.2876H26.6143V0.00317842H32.7663ZM66.9126 8.69207C66.0544 11.1096 63.3595 12.841 60.3759 12.841H53.9244V18.2876H48.0742V8.69207H66.9126Z" fill="#EAE0FF"/>
<path id="path24" fill-rule="evenodd" clip-rule="evenodd" d="M60.6563 0.00341797H47.7656C48.0724 4.07416 51.5987 7.55898 55.249 7.55898H67.3173C68.0137 4.17571 65.6163 0.00341797 60.6563 0.00341797Z" fill="url(#paint0_linear_414_57001)"/>
</g>
</g>
</g>
<defs>
<linearGradient id="paint0_linear_414_57001" x1="67.4356" y1="4.75619" x2="47.7656" y2="4.75619" gradientUnits="userSpaceOnUse">
<stop stop-color="#30344C"/>
<stop offset="1" stop-color="white"/>
</linearGradient>
</defs>
</svg>
