<svg width="108" height="68" fill="none" xmlns="http://www.w3.org/2000/svg"><g filter="url(#a)"><rect x="4" y="64" width="60" height="100" rx="30" transform="rotate(-90 4 64)" fill="url(#b)"/><rect x="2.25" y="65.75" width="63.5" height="103.5" rx="31.75" transform="rotate(-90 2.25 65.75)" stroke="url(#c)" stroke-width="3.5"/><rect x="2.25" y="65.75" width="63.5" height="103.5" rx="31.75" transform="rotate(-90 2.25 65.75)" stroke="url(#d)" stroke-width="3.5"/></g><path fill-rule="evenodd" clip-rule="evenodd" d="M26.236 25.003c.603-.003 2.393-.164 3.152 2.381a910.95 910.95 0 0 1 2.441 8.424h.455c1.197-4.114 2.02-6.922 2.468-8.424.766-2.571 2.682-2.38 3.448-2.38h5.913v18.284h-6.026V32.512h-.404l-3.36 10.776H29.79L26.43 32.504h-.404v10.784H20V25.003h6.236Zm26.53 0v10.783h.481l4.086-8.867c.794-1.764 2.484-1.916 2.484-1.916h5.832v18.285h-6.152V32.504h-.481l-4.006 8.867c-.793 1.757-2.564 1.917-2.564 1.917h-5.832V25.003h6.152Zm34.147 8.69c-.859 2.417-3.553 4.148-6.537 4.148h-6.452v5.447h-5.85v-9.596h18.839Z" fill="#EAE0FF"/><path fill-rule="evenodd" clip-rule="evenodd" d="M80.657 25.003h-12.89c.307 4.071 3.833 7.556 7.483 7.556H87.32c.696-3.383-1.701-7.556-6.662-7.556Z" fill="url(#e)"/><defs><radialGradient id="b" cx="0" cy="0" r="1" gradientUnits="userSpaceOnUse" gradientTransform="matrix(58.82911 96.41426 -158.47637 96.69757 5.17 67.586)"><stop stop-color="#fff" stop-opacity=".26"/><stop offset="1" stop-color="#fff" stop-opacity="0"/></radialGradient><radialGradient id="c" cx="0" cy="0" r="1" gradientUnits="userSpaceOnUse" gradientTransform="rotate(58.9 -54.236 36.32) scale(114.459 186.157)"><stop stop-color="#fff"/><stop offset="1" stop-color="#fff" stop-opacity="0"/></radialGradient><radialGradient id="d" cx="0" cy="0" r="1" gradientUnits="userSpaceOnUse" gradientTransform="rotate(58.9 -54.675 35.542) scale(114.459 186.157)"><stop stop-color="#18195E"/><stop offset="1" stop-color="#151515" stop-opacity="0"/></radialGradient><linearGradient id="e" x1="87.437" y1="29.756" x2="67.767" y2="29.756" gradientUnits="userSpaceOnUse"><stop stop-color="#412548"/><stop offset="1" stop-color="#fff"/></linearGradient><filter id="a" x="-41.5" y="-41.5" width="191" height="151" filterUnits="userSpaceOnUse" color-interpolation-filters="sRGB"><feFlood flood-opacity="0" result="BackgroundImageFix"/><feGaussianBlur in="BackgroundImageFix" stdDeviation="21"/><feComposite in2="SourceAlpha" operator="in" result="effect1_backgroundBlur_83_3216"/><feBlend in="SourceGraphic" in2="effect1_backgroundBlur_83_3216" result="shape"/></filter></defs></svg>
