<svg width="34" height="34" fill="none" xmlns="http://www.w3.org/2000/svg"><circle cx="15" cy="24.141" r="3.75" fill="#9863E0"/><g filter="url(#a)"><path d="M7.921 12.595a7.036 7.036 0 0 1 14.07.066v5.785a2 2 0 0 0 1.113 1.793c1.482.735 1.482 2.85 0 3.585l-.62.307c-.324.16-.68.244-1.041.244H8.379c-.373 0-.74-.09-1.072-.261l-.545-.282c-1.458-.754-1.453-2.84.007-3.588a2.018 2.018 0 0 0 1.097-1.777L7.9 15l.022-2.405Z" fill="#fff" fill-opacity=".32"/><path d="M14.956 5.531a7.13 7.13 0 0 0-7.129 7.063l-.022 2.405-.032 3.467a1.924 1.924 0 0 1-1.047 1.695c-1.528.783-1.532 2.965-.007 3.754l.545.282c.344.179.727.272 1.115.272h13.064c.375 0 .746-.087 1.082-.254l.62-.307c1.553-.77 1.553-2.984 0-3.753a1.907 1.907 0 0 1-1.06-1.709V12.66a7.13 7.13 0 0 0-7.129-7.129Z" stroke="url(#b)" stroke-opacity=".5" stroke-width=".188"/></g><g filter="url(#c)"><path d="M15 7.5V3.281" stroke="#fff" stroke-width="1.5" stroke-linecap="round" stroke-linejoin="round"/></g><defs><filter id="a" x="1.734" y="1.688" width="26.419" height="26.625" filterUnits="userSpaceOnUse" color-interpolation-filters="sRGB"><feFlood flood-opacity="0" result="BackgroundImageFix"/><feGaussianBlur in="BackgroundImageFix" stdDeviation="1.875"/><feComposite in2="SourceAlpha" operator="in" result="effect1_backgroundBlur_365_27825"/><feBlend in="SourceGraphic" in2="effect1_backgroundBlur_365_27825" result="shape"/></filter><filter id="c" x="13.5" y="2.531" width="3" height="7.219" filterUnits="userSpaceOnUse" color-interpolation-filters="sRGB"><feFlood flood-opacity="0" result="BackgroundImageFix"/><feColorMatrix in="SourceAlpha" values="0 0 0 0 0 0 0 0 0 0 0 0 0 0 0 0 0 0 127 0" result="hardAlpha"/><feOffset dy=".75"/><feGaussianBlur stdDeviation=".375"/><feComposite in2="hardAlpha" operator="out"/><feColorMatrix values="0 0 0 0 0 0 0 0 0 0 0 0 0 0 0 0 0 0 0.1 0"/><feBlend in2="BackgroundImageFix" result="effect1_dropShadow_365_27825"/><feBlend in="SourceGraphic" in2="effect1_dropShadow_365_27825" result="shape"/></filter><linearGradient id="b" x1="7.986" y1="5.625" x2="33.076" y2="27.344" gradientUnits="userSpaceOnUse"><stop stop-opacity="0"/><stop offset="1" stop-color="#fff"/></linearGradient></defs></svg>
