<svg width="25" height="24" viewBox="0 0 25 24" fill="none" xmlns="http://www.w3.org/2000/svg">
<g id="Icon-noun-bar-charts--24&#209;&#128;&#209;&#133;">
<path id="Vector" d="M15.5 18.8281L15.5 10.172C15.5 10.0774 15.6126 10 15.7501 10L19.2498 10C19.3874 10 19.5 10.0774 19.5 10.172L19.5 18.8281C19.5 18.9226 19.3874 19 19.2498 19L15.7501 19C15.6126 19 15.5 18.9226 15.5 18.8281Z" fill="#EAE0FF"/>
<path id="Vector_2" d="M10.5 18.7892L10.5 8.21077C10.5043 8.15011 10.5264 8.09413 10.5615 8.05485C10.5966 8.01556 10.6418 7.9961 10.6876 8.00065L13.3124 8.00065C13.3581 7.9961 13.4034 8.01556 13.4385 8.05485C13.4736 8.09413 13.4957 8.15011 13.5 8.21077L13.5 18.7892C13.4956 18.8499 13.4736 18.9059 13.4385 18.9452C13.4034 18.9844 13.3581 19.0039 13.3124 18.9994L10.6876 18.9994C10.6418 19.0039 10.5966 18.9844 10.5615 18.9452C10.5264 18.9059 10.5043 18.8499 10.5 18.7892Z" fill="#EAE0FF"/>
<path id="Vector_3" d="M8.4996 4.28655L8.4996 18.7134C8.50344 18.7849 8.47934 18.8551 8.43253 18.9087C8.38572 18.9624 8.31996 18.9952 8.24949 19L4.75048 19C4.68002 18.9952 4.61426 18.9624 4.56746 18.9087C4.52065 18.8551 4.49656 18.7849 4.5004 18.7134L4.5004 4.28655C4.49656 4.21504 4.52065 4.14488 4.56746 4.09125C4.61427 4.03762 4.68002 4.00483 4.75048 4L8.2495 4C8.31996 4.00484 8.38572 4.03762 8.43253 4.09125C8.47934 4.14488 8.50344 4.21504 8.4996 4.28655Z" fill="#EAE0FF"/>
</g>
</svg>
