<svg width="19" height="22" viewBox="0 0 19 22" fill="none" xmlns="http://www.w3.org/2000/svg">
<path d="M14.4524 4.11194C13.8058 3.55176 12.971 3.25725 12.1161 3.28767C11.2612 3.3181 10.4495 3.67121 9.84435 4.27594L3.05835 11.0599C2.92103 11.2073 2.75543 11.3255 2.57143 11.4075C2.38743 11.4895 2.1888 11.5336 1.9874 11.5371C1.78599 11.5407 1.58594 11.5036 1.39916 11.4282C1.21238 11.3527 1.04271 11.2405 0.900277 11.098C0.75784 10.9556 0.64555 10.7859 0.570108 10.5991C0.494666 10.4124 0.457617 10.2123 0.461171 10.0109C0.464725 9.80949 0.508808 9.61086 0.590792 9.42686C0.672776 9.24287 0.79098 9.07726 0.938354 8.93994L7.72235 2.15594C8.31839 1.55189 9.02888 1.07273 9.81228 0.746483C10.5957 0.420238 11.4363 0.253455 12.2849 0.255886C13.1335 0.258316 13.9731 0.429912 14.7546 0.76064C15.5361 1.09137 16.2438 1.57459 16.8364 2.18205C17.429 2.78951 17.8945 3.50901 18.2057 4.29849C18.517 5.08797 18.6677 5.93158 18.649 6.77999C18.6304 7.62839 18.4428 8.46458 18.0972 9.23963C17.7517 10.0147 17.255 10.7131 16.6364 11.2939L7.19035 20.2859C6.46021 20.9983 5.47699 21.3915 4.45698 21.3789C3.43697 21.3663 2.46373 20.9491 1.75135 20.2189C1.03898 19.4888 0.645835 18.5056 0.6584 17.4856C0.670965 16.4656 1.08821 15.4923 1.81835 14.7799L10.3044 6.29194C10.4428 6.14874 10.6084 6.03455 10.7914 5.95602C10.9744 5.8775 11.1713 5.83621 11.3705 5.83457C11.5696 5.83294 11.7671 5.87098 11.9514 5.94649C12.1358 6.022 12.3032 6.13346 12.4439 6.27436C12.5847 6.41527 12.696 6.5828 12.7714 6.76718C12.8467 6.95156 12.8845 7.14909 12.8827 7.34826C12.8809 7.54743 12.8394 7.74424 12.7607 7.92721C12.682 8.11017 12.5677 8.27564 12.4244 8.41394L3.94435 16.9019C3.79599 17.0609 3.71456 17.271 3.71696 17.4884C3.71936 17.7059 3.80541 17.9141 3.95724 18.0697C4.10907 18.2254 4.31502 18.3167 4.53235 18.3245C4.74967 18.3324 4.96168 18.2563 5.12435 18.1119L14.5684 9.11994C14.91 8.79476 15.18 8.40174 15.3608 7.9661C15.5417 7.53047 15.6294 7.06183 15.6185 6.59027C15.6076 6.11871 15.4982 5.65465 15.2974 5.22785C15.0966 4.80105 14.8087 4.42095 14.4524 4.11194Z" fill="white"/>
</svg>
