<svg width="35" height="36" viewBox="0 0 35 36" fill="none" xmlns="http://www.w3.org/2000/svg">
<g id="template-24&#209;&#128;&#209;&#133;">
<path id="Vector" d="M21.8748 13.625H18.9582V10.7083C18.9582 10.3216 18.8045 9.95063 18.531 9.67714C18.2575 9.40365 17.8866 9.25 17.4998 9.25C17.1131 9.25 16.7421 9.40365 16.4686 9.67714C16.1951 9.95063 16.0415 10.3216 16.0415 10.7083V13.625H13.1248C12.7381 13.625 12.3671 13.7786 12.0936 14.0521C11.8201 14.3256 11.6665 14.6966 11.6665 15.0833C11.6665 15.4701 11.8201 15.841 12.0936 16.1145C12.3671 16.388 12.7381 16.5417 13.1248 16.5417H16.0415V19.4583C16.0415 19.8451 16.1951 20.216 16.4686 20.4895C16.7421 20.763 17.1131 20.9167 17.4998 20.9167C17.8866 20.9167 18.2575 20.763 18.531 20.4895C18.8045 20.216 18.9582 19.8451 18.9582 19.4583V16.5417H21.8748C22.2616 16.5417 22.6325 16.388 22.906 16.1145C23.1795 15.841 23.3332 15.4701 23.3332 15.0833C23.3332 14.6966 23.1795 14.3256 22.906 14.0521C22.6325 13.7786 22.2616 13.625 21.8748 13.625Z" fill="url(#paint0_linear_535_10303)"/>
<g id="Vector_2" filter="url(#filter0_bii_535_10303)">
<path d="M27.7082 3.41675H7.2915C6.13154 3.41791 5.01941 3.87921 4.19919 4.69944C3.37897 5.51966 2.91766 6.63178 2.9165 7.79175V22.3751C2.91766 23.535 3.37897 24.6472 4.19919 25.4674C5.01941 26.2876 6.13154 26.7489 7.2915 26.7501H24.1878L29.5938 32.1561C29.7977 32.36 30.0576 32.4989 30.3404 32.5551C30.6233 32.6113 30.9164 32.5825 31.1829 32.4721C31.4493 32.3618 31.677 32.1749 31.8373 31.9351C31.9975 31.6954 32.0831 31.4135 32.0832 31.1251V7.79175C32.082 6.63178 31.6207 5.51966 30.8005 4.69944C29.9803 3.87921 28.8681 3.41791 27.7082 3.41675ZM21.8748 16.5417H18.9582V19.4584C18.9582 19.8452 18.8045 20.2161 18.531 20.4896C18.2575 20.7631 17.8866 20.9167 17.4998 20.9167C17.1131 20.9167 16.7421 20.7631 16.4686 20.4896C16.1951 20.2161 16.0415 19.8452 16.0415 19.4584V16.5417H13.1248C12.7381 16.5417 12.3671 16.3881 12.0936 16.1146C11.8201 15.8411 11.6665 15.4702 11.6665 15.0834C11.6665 14.6966 11.8201 14.3257 12.0936 14.0522C12.3671 13.7787 12.7381 13.6251 13.1248 13.6251H16.0415V10.7084C16.0415 10.3216 16.1951 9.95071 16.4686 9.67722C16.7421 9.40373 17.1131 9.25008 17.4998 9.25008C17.8866 9.25008 18.2575 9.40373 18.531 9.67722C18.8045 9.95071 18.9582 10.3216 18.9582 10.7084V13.6251H21.8748C22.2616 13.6251 22.6325 13.7787 22.906 14.0522C23.1795 14.3257 23.3332 14.6966 23.3332 15.0834C23.3332 15.4702 23.1795 15.8411 22.906 16.1146C22.6325 16.3881 22.2616 16.5417 21.8748 16.5417Z" fill="white" fill-opacity="0.2"/>
</g>
</g>
<defs>
<filter id="filter0_bii_535_10303" x="-1.0835" y="-0.583252" width="37.1665" height="37.1663" filterUnits="userSpaceOnUse" color-interpolation-filters="sRGB">
<feFlood flood-opacity="0" result="BackgroundImageFix"/>
<feGaussianBlur in="BackgroundImageFix" stdDeviation="2"/>
<feComposite in2="SourceAlpha" operator="in" result="effect1_backgroundBlur_535_10303"/>
<feBlend mode="normal" in="SourceGraphic" in2="effect1_backgroundBlur_535_10303" result="shape"/>
<feColorMatrix in="SourceAlpha" type="matrix" values="0 0 0 0 0 0 0 0 0 0 0 0 0 0 0 0 0 0 127 0" result="hardAlpha"/>
<feOffset dy="-4"/>
<feGaussianBlur stdDeviation="2"/>
<feComposite in2="hardAlpha" operator="arithmetic" k2="-1" k3="1"/>
<feColorMatrix type="matrix" values="0 0 0 0 1 0 0 0 0 1 0 0 0 0 1 0 0 0 0.05 0"/>
<feBlend mode="normal" in2="shape" result="effect2_innerShadow_535_10303"/>
<feColorMatrix in="SourceAlpha" type="matrix" values="0 0 0 0 0 0 0 0 0 0 0 0 0 0 0 0 0 0 127 0" result="hardAlpha"/>
<feOffset dx="-4" dy="-4"/>
<feGaussianBlur stdDeviation="2"/>
<feComposite in2="hardAlpha" operator="arithmetic" k2="-1" k3="1"/>
<feColorMatrix type="matrix" values="0 0 0 0 1 0 0 0 0 1 0 0 0 0 1 0 0 0 0.05 0"/>
<feBlend mode="normal" in2="effect2_innerShadow_535_10303" result="effect3_innerShadow_535_10303"/>
</filter>
<linearGradient id="paint0_linear_535_10303" x1="17.4998" y1="9.25" x2="17.4998" y2="20.9167" gradientUnits="userSpaceOnUse">
<stop offset="0.451042" stop-color="#B387EF"/>
<stop offset="1" stop-color="white"/>
</linearGradient>
</defs>
</svg>
