<svg width="24" height="24" viewBox="0 0 24 24" fill="none" xmlns="http://www.w3.org/2000/svg">
<path d="M11.5459 14.3643C10.2243 14.3643 8.93238 13.9724 7.83351 13.2381C6.73464 12.5039 5.87817 11.4603 5.37242 10.2393C4.86666 9.01828 4.73434 7.67472 4.99217 6.37851C5.25 5.08231 5.88641 3.89167 6.82092 2.95715C7.75544 2.02264 8.94608 1.38623 10.2423 1.1284C11.5385 0.870567 12.882 1.0029 14.103 1.50865C15.324 2.0144 16.3677 2.87087 17.1019 3.96974C17.8361 5.06861 18.228 6.36053 18.228 7.68213C18.226 9.45373 17.5214 11.1522 16.2687 12.4049C15.0159 13.6576 13.3175 14.3622 11.5459 14.3643Z" fill="url(#paint0_linear_365_27835)"/>
<path d="M16.5861 12.019C15.9675 12.7534 15.1959 13.3436 14.3253 13.7486C13.4547 14.1535 12.5061 14.3633 11.5459 14.3633C10.5857 14.3633 9.63715 14.1535 8.76654 13.7486C7.89592 13.3436 7.1243 12.7534 6.50566 12.019C5.13098 12.8712 3.99597 14.0594 3.20767 15.4717C2.41937 16.8839 2.00375 18.4737 2 20.0911C2 20.5974 2.20115 21.083 2.55919 21.4411C2.91723 21.7991 3.40283 22.0002 3.90918 22.0002H19.1826C19.689 22.0002 20.1746 21.7991 20.5326 21.4411C20.8907 21.083 21.0918 20.5974 21.0918 20.0911C21.0881 18.4737 20.6724 16.8839 19.8841 15.4717C19.0958 14.0594 17.9608 12.8712 16.5861 12.019Z" fill="url(#paint1_linear_365_27835)"/>
<defs>
<linearGradient id="paint0_linear_365_27835" x1="11.5459" y1="1" x2="11.5459" y2="14.3643" gradientUnits="userSpaceOnUse">
<stop offset="0.451042" stop-color="#9863E0"/>
<stop offset="1" stop-color="#E8D8FF"/>
</linearGradient>
<linearGradient id="paint1_linear_365_27835" x1="11.5459" y1="12.019" x2="11.5459" y2="22.0002" gradientUnits="userSpaceOnUse">
<stop offset="0.451042" stop-color="#9A63E4"/>
<stop offset="1" stop-color="#E5D6F9"/>
</linearGradient>
</defs>
</svg>
