<svg width="25" height="25" fill="none" xmlns="http://www.w3.org/2000/svg"><path d="M17.274 15.789c-.36-.21-.8-.206-1.158.006l-1.81 1.079a1.133 1.133 0 0 1-1.283-.077c-.642-.502-1.677-1.346-2.576-2.246-.9-.9-1.744-1.934-2.246-2.576a1.133 1.133 0 0 1-.077-1.283l1.079-1.81a1.14 1.14 0 0 0 .004-1.161L6.551 3.184a1.145 1.145 0 0 0-1.263-.534c-.48.117-1.104.402-1.758 1.057-2.047 2.047-3.134 5.5 4.564 13.199 7.699 7.698 11.151 6.612 13.199 4.564.656-.656.94-1.28 1.057-1.762a1.14 1.14 0 0 0-.53-1.258c-1.094-.64-3.453-2.02-4.546-2.661Z" fill="#EAE0FF"/></svg>
