<svg width="1061" height="55" viewBox="0 0 1061 55" fill="none" xmlns="http://www.w3.org/2000/svg">
<path d="M0.806641 20.1907C31.6575 29.5472 63.463 38.0988 95.772 40.2892C122.993 42.1347 150.04 44.8889 177.338 46.0955C210.485 47.5605 243.922 46.3188 277.105 46.3188C305.373 46.3188 333.836 47.3179 362.021 44.7556C399.022 41.3918 434.36 29.1465 470.944 22.8147C488.198 19.8283 505.735 18.1809 523.256 18.1809C541.367 18.1809 559.949 17.0086 577.968 18.9625C585.714 19.8024 592.791 22.5549 600.244 24.6571C607.961 26.8336 615.485 28.4135 622.855 31.7474C638.747 38.9365 656.479 43.2169 673.213 48.1053C688.24 52.4953 705.202 53.3532 720.779 53.3532C740.663 53.3532 761.929 55.4474 781.633 52.795C829.782 46.3133 876.747 33.566 924.109 23.2055C968.976 13.3908 1013.67 1.09717 1060 1.09717" stroke="#55527B" stroke-linecap="round" stroke-dasharray="5 5"/>
</svg>
