<svg xmlns="http://www.w3.org/2000/svg" fill="none" viewBox="0.32 0.72 208.11 445.53">
<path d="M30.2834 1.22168C26.4847 2.02141 25.0229 7.85377 23.8879 10.8939C21.0989 18.3645 18.3383 26.0152 16.1106 33.6731C13.4659 42.764 13.8815 55.1135 14.8078 64.5453C15.3994 70.5686 18.3143 76.6406 20.3743 82.2712C23.5271 90.889 28.1161 98.8213 32.0204 107.103C38.6552 121.177 43.3548 136.042 43.7456 151.674C44.4348 179.243 31.7727 204.648 15.9922 226.565C10.1176 234.724 4.11791 241.666 1.85882 251.832C-0.663351 263.181 1.45914 273.073 7.85957 282.546C16.1563 294.825 28.8705 304.229 35.4551 317.642C40.8691 328.671 34.9178 342.109 29.9676 352.186C20.6798 371.093 8.20234 398.086 22.4272 417.484C32.348 431.012 55.0704 440.443 71.578 435.328C78.8314 433.08 84.9919 428.977 92.6595 427.985C101.947 426.783 110.721 426.902 119.979 428.419C131.122 430.246 141.76 434.138 152.746 436.67C163.187 439.077 173.662 441.158 184.171 443.224C190.878 444.542 201.989 448.18 207.937 443.224" stroke="#505886" stroke-linecap="round" stroke-dasharray="5 5"/>
</svg>