<svg width="270" height="1077" viewBox="0 0 270 1077" fill="none" xmlns="http://www.w3.org/2000/svg" preserveAspectRatio="none">
<path d="M22.8995 1C17.6269 1.60105 16.1385 18.5759 16.1385 22.8885C16.1385 34.5473 14.8056 45.8229 19.519 56.569C30.5035 81.6125 31.0127 108.565 31.0127 135.491C31.0127 147.957 26.6383 158.66 20.4956 169.325C14.6602 179.457 10.7463 191.116 7.27408 202.312C3.47832 214.551 1.50972 229.24 1.2643 242.081C0.998183 256.006 -0.0688331 270.281 5.3209 283.315C13.4088 302.874 22.1475 322.217 28.3083 342.583C31.0063 351.503 33.5396 360.449 36.3464 369.327C38.4518 375.988 41.1467 385.505 41.7552 392.372C44.2538 420.57 33.3419 445.041 27.6322 471.987C25.5813 481.666 24.2517 491.908 24.2517 501.814C24.2517 513.008 21.6725 528.378 25.0029 539.117C26.6379 544.389 26.2825 550.184 28.6088 555.148C31.8339 562.031 33.5598 568.881 35.8205 576.112C37.4962 581.472 36.9737 586.627 37.924 591.989C38.9368 597.704 40.4781 601.921 40.4781 607.943C40.4781 617.429 35.1998 625.591 30.9376 633.608C24.7765 645.196 15.425 660.824 14.7863 674.147C14.2015 686.347 10.7297 697.554 10.7297 710.063C10.7297 723.586 13.3495 737.998 17.7912 750.757C23.096 765.996 22.7439 782.281 26.28 798.002C29.3712 811.745 29.6605 824.626 29.6605 838.619C29.6605 857.562 13.801 868.78 9.07702 886.712C3.51039 907.843 3.64652 940.552 13.1336 960.393C20.7676 976.359 34.6608 988.627 43.1825 1004.17C51.1121 1018.63 48.5085 1036.19 52.6479 1051.8C57.2993 1069.35 75.7571 1077.89 92.6881 1072.38C102.559 1069.17 110.81 1060.2 119.807 1055.04C128.71 1049.93 137.295 1045.77 147.602 1045.63C176.546 1045.25 205.725 1057.62 232.115 1069.22C245.549 1075.13 254.53 1077.74 269 1074.77" stroke="#515784" stroke-linecap="round" stroke-dasharray="5 5"/>
</svg>
