<svg width="1479" height="574" viewBox="0 0 1479 574" fill="none" xmlns="http://www.w3.org/2000/svg" preserveAspectRatio="none">
<path d="M297.696 1.23975C306.632 1.68656 313.015 7.1189 321.216 9.85281C328.593 12.3116 336.243 14.1415 343.577 16.9752C364.482 25.0521 388.02 26.4414 409.997 29.2322C424.674 31.0959 440.44 29.5635 455.216 29.5635C473.675 29.5635 492.002 29.8775 510.373 27.7415C547.557 23.4177 584.287 16.1125 621.514 11.6748C693.615 3.08006 770.086 -3.30965 841.479 13.1655C858.937 17.1944 875.531 23.6435 893.157 27.2446C912.665 31.2301 932.107 33.957 951.958 35.8576C970.578 37.6404 988.917 38.5078 1007.61 38.5078C1032.5 38.5078 1056.47 31.9015 1081.15 29.8947C1114.01 27.2237 1146.58 19.5058 1179.21 14.9875C1211.04 10.5797 1243.38 7.20264 1275.61 7.20264C1288.04 7.20264 1304.81 4.34862 1317.02 7.86518C1331.82 12.1305 1343.87 25.4732 1353.13 37.0171C1381.06 71.8357 1388.91 114.083 1388.91 157.766C1388.91 198.927 1353.56 232.127 1321.16 252.841C1270.29 285.365 1201.76 290.44 1142.94 290.44C1115.79 290.44 1087.64 292.545 1060.61 289.777C1045.85 288.266 1031.17 284.485 1016.64 281.578C995.248 277.3 973.776 274.845 952.123 272.22C902.283 266.179 851.116 254.215 800.732 254.663C768.579 254.948 731.372 255.625 701.268 267.996C686.169 274.201 670.881 279.436 655.47 284.808C627.607 294.52 601.195 304.784 571.658 308.329C541.645 311.93 511.729 311.31 481.552 311.31C457.661 311.31 433.081 310.764 409.5 306.507C382.24 301.585 356.442 291.481 329.498 285.471C300.865 279.083 272.741 269.592 243.864 264.435C221.054 260.362 194.471 254.62 170.985 257.975C149.188 261.089 130.672 286.269 116.987 300.875C95.5508 323.754 69.9341 342.868 46.4265 363.485C28.7035 379.029 9.91451 404.236 4.35497 427.586C0.175733 445.139 -0.0772562 471.438 5.51442 488.706C21.7718 538.913 78.9085 559.005 126.263 562.911C153.517 565.159 174.641 559.37 199.805 550.488C225.235 541.513 253.126 542.017 279.642 539.722C326.275 535.686 373.054 530.486 419.438 540.053C466.291 549.717 514.881 558.338 562.879 558.77C587.867 558.995 612.926 559.137 637.912 558.77C666.334 558.352 692.73 547.272 719.571 539.391C738.117 533.945 755.283 527.465 774.727 527.465C792.652 527.465 811.949 525.525 829.553 529.287C877.372 539.505 924.1 554.626 971.668 565.892C994.582 571.319 1018.15 572.187 1041.57 572.187C1059.58 572.187 1079.39 574.521 1097.05 570.365C1147.02 558.608 1193.94 531.271 1245.46 526.305C1278.48 523.123 1313.63 531.317 1346.01 522.661C1369.1 516.486 1393.03 510.967 1415.74 503.613C1428.03 499.633 1439.54 493.64 1451.85 489.783C1460.59 487.042 1469.66 485.639 1478.35 482.743" stroke="#585175" stroke-dasharray="5 5"/>
</svg>
