<svg width="112" height="52" viewBox="0 0 112 52" fill="none" xmlns="http://www.w3.org/2000/svg">
<g id="Qiwi_logo 1" clip-path="url(#clip0_414_56976)">
<g id="layer1">
<g id="g5493">
<path id="path5489" d="M54.7734 29.3296H56.5104V33.2226H57.7654L60.0174 29.3296H61.9164L59.2134 33.8986V33.9306L62.0774 38.9166H60.1144L57.7974 34.7336H56.5434V38.9166H54.8054V29.3286L54.7734 29.3296ZM65.9704 31.8716C68.0604 31.8716 69.7664 33.3836 69.7664 35.4746C69.7664 37.5986 68.0934 39.0786 66.0024 39.0786C63.9104 39.0786 62.2374 37.5986 62.2374 35.4746C62.2054 33.3516 63.8784 31.8716 65.9704 31.8716ZM71.1174 32.0316H72.7584V37.4376H74.9144V32.0326H76.5544V37.4376H78.7104V32.0326H80.3514V38.9166H71.1814V32.0316H71.1174ZM85.2104 31.8716C87.1724 31.8716 88.2664 33.3196 88.2664 35.1216C88.261 35.3478 88.2397 35.5734 88.2024 35.7966H83.4724C83.5694 36.9866 84.5024 37.6306 85.5324 37.6306C86.2394 37.6306 86.9474 37.3086 87.4944 36.8906L88.1704 38.1136C87.4624 38.7236 86.4004 39.1106 85.4034 39.1106C83.1184 39.1106 81.7034 37.4696 81.7034 35.5066C81.7034 33.3516 83.1504 31.8716 85.2104 31.8716ZM89.0704 37.4696C89.9074 37.3406 90.5184 36.6336 90.5184 34.1876V32.0326H95.5384V38.9166H93.8324V33.4146H92.1594V34.1866C92.1594 37.1786 91.3554 38.9166 89.0704 38.9806V37.4696ZM100.428 31.8716C102.39 31.8716 103.484 33.3196 103.484 35.1216C103.479 35.3478 103.458 35.5734 103.42 35.7966H98.6904C98.7874 36.9866 99.7204 37.6306 100.75 37.6306C101.457 37.6306 102.165 37.3086 102.712 36.8906L103.388 38.1136C102.68 38.7236 101.618 39.1106 100.621 39.1106C98.3374 39.1106 96.9214 37.4696 96.9214 35.5066C96.9214 33.3516 98.3694 31.8716 100.428 31.8716ZM104.9 32.0316H106.605V34.6706H107.442L109.115 32.0326H111.013L108.825 35.3136V35.3466L111.27 38.9166H109.276L107.474 36.1186H106.574V38.9166H104.867V32.0316H104.9ZM65.9704 37.5986C67.0964 37.5986 68.0294 36.7296 68.0294 35.4426C68.0294 34.1876 67.0964 33.2866 65.9694 33.2866C64.8444 33.2866 63.9434 34.1566 63.9434 35.4426C63.9434 36.7296 64.8434 37.5986 65.9704 37.5986ZM86.5294 34.6066C86.5294 33.7056 85.9174 33.1586 85.1454 33.1586C84.2774 33.1586 83.6334 33.7376 83.4724 34.6066H86.5294ZM101.747 34.6066C101.747 33.7056 101.136 33.1586 100.364 33.1586C99.4944 33.1586 98.8514 33.7376 98.6904 34.6066H101.747Z" fill="#2D3540"/>
<path id="path5491" d="M78.811 8.44852V24.6965C78.8124 24.756 78.8017 24.8151 78.7795 24.8703C78.7574 24.9256 78.7243 24.9757 78.6822 25.0178C78.6402 25.0598 78.59 25.0929 78.5348 25.1151C78.4796 25.1372 78.4205 25.1479 78.361 25.1465H75.047C74.9875 25.1479 74.9284 25.1372 74.8732 25.1151C74.818 25.0929 74.7678 25.0598 74.7258 25.0178C74.6837 24.9757 74.6506 24.9256 74.6285 24.8703C74.6063 24.8151 74.5956 24.756 74.597 24.6965V8.44852C74.5956 8.38906 74.6063 8.32993 74.6285 8.27471C74.6506 8.2195 74.6837 8.16934 74.7258 8.12728C74.7678 8.08522 74.818 8.05212 74.8732 8.02999C74.9284 8.00786 74.9875 7.99716 75.047 7.99853H78.361C78.4205 7.99716 78.4796 8.00786 78.5348 8.02999C78.59 8.05212 78.6402 8.08522 78.6822 8.12728C78.7243 8.16934 78.7574 8.2195 78.7795 8.27471C78.8017 8.32993 78.8124 8.38906 78.811 8.44852ZM104.679 7.99853C104.808 7.99853 104.969 8.06253 105.129 8.19152C105.226 8.28753 105.226 8.44852 105.194 8.57752L99.724 24.8575C99.6908 24.9418 99.6334 25.0143 99.559 25.0659C99.4846 25.1175 99.3965 25.1459 99.306 25.1475H96.346C96.153 25.1475 95.992 25.0505 95.928 24.8575L92.741 15.3665L89.556 24.8565C89.5228 24.9408 89.4654 25.0133 89.391 25.0649C89.3166 25.1165 89.2285 25.1449 89.138 25.1465H86.178C85.985 25.1465 85.824 25.0505 85.76 24.8565L80.29 8.57653C80.258 8.44853 80.258 8.31953 80.354 8.19152C80.419 8.06253 80.58 7.99853 80.708 7.99853H84.408C84.601 7.99853 84.762 8.12653 84.827 8.31953L87.754 17.9395L90.972 8.31953C91.0052 8.23528 91.0626 8.16277 91.137 8.11115C91.2114 8.05953 91.2995 8.03113 91.39 8.02952H93.996C94.189 8.02952 94.35 8.12653 94.414 8.31953L97.632 17.9395L100.56 8.31953C100.586 8.22839 100.641 8.14806 100.716 8.0903C100.791 8.03253 100.883 8.00037 100.978 7.99853H104.679ZM110.277 7.99853C110.502 7.99853 110.695 8.19152 110.727 8.44852V24.6965C110.728 24.756 110.718 24.8151 110.696 24.8703C110.673 24.9256 110.64 24.9757 110.598 25.0178C110.556 25.0598 110.506 25.0929 110.451 25.1151C110.396 25.1372 110.336 25.1479 110.277 25.1465H106.963C106.904 25.1479 106.844 25.1372 106.789 25.1151C106.734 25.0929 106.684 25.0598 106.642 25.0178C106.6 24.9757 106.567 24.9256 106.544 24.8703C106.522 24.8151 106.512 24.756 106.513 24.6965V8.44852C106.512 8.38906 106.522 8.32993 106.544 8.27471C106.567 8.2195 106.6 8.16934 106.642 8.12728C106.684 8.08522 106.734 8.05212 106.789 8.02999C106.844 8.00786 106.904 7.99716 106.963 7.99853H110.277ZM72.666 24.5685C72.859 24.7935 72.698 25.1145 72.408 25.1145H68.354C68.2742 25.1167 68.1949 25.1004 68.1224 25.0669C68.0499 25.0334 67.9861 24.9837 67.936 24.9215L67.261 24.0855C65.845 24.9855 64.171 25.5335 62.402 25.5335C57.448 25.5335 53.426 21.5115 53.426 16.5565C53.426 11.6015 57.448 7.57952 62.402 7.57952C67.357 7.57952 71.379 11.6015 71.379 16.5565C71.379 18.3265 70.864 19.9995 69.963 21.4145L72.666 24.5685ZM38.786 32.4505C39.623 32.7725 39.945 34.0265 40.009 34.5735C40.138 35.5715 39.849 35.9575 39.527 35.9575C39.205 35.9575 38.754 35.5715 38.272 34.7995C37.789 34.0265 37.596 33.1585 37.854 32.7075C38.014 32.4175 38.367 32.2895 38.786 32.4505ZM33.896 36.0865C34.411 36.0865 34.99 36.3115 35.505 36.7615C36.502 37.5985 36.792 38.5635 36.277 39.2715C35.987 39.6255 35.505 39.8505 34.958 39.8505C34.411 39.8505 33.832 39.6575 33.446 39.3035C32.545 38.5315 32.288 37.2435 32.866 36.5365C33.092 36.2465 33.446 36.0865 33.896 36.0865ZM22.636 45.3845C10.409 45.3845 0.5 35.4745 0.5 23.2485C0.5 11.0225 10.41 1.11353 22.635 1.11353C34.861 1.11353 44.771 11.0235 44.771 23.2485C44.771 27.3985 43.613 31.2925 41.651 34.6065C41.586 34.7025 41.425 34.6705 41.393 34.5415C40.621 29.1045 37.307 26.1115 32.481 25.2115C32.062 25.1465 31.998 24.8895 32.545 24.8255C34.025 24.6965 36.116 24.7285 37.21 24.9215C37.274 24.3745 37.307 23.7955 37.307 23.2165C37.307 15.1405 30.743 8.57653 22.667 8.57653C14.592 8.57653 8.028 15.1405 8.028 23.2165C8.028 31.2925 14.592 37.8565 22.668 37.8565H23.343C23.1137 36.5503 23.0165 35.2242 23.053 33.8985C23.086 32.9975 23.279 32.8685 23.665 33.5765C25.692 37.0835 28.588 40.2365 34.25 41.4915C38.883 42.5215 43.516 43.7115 48.503 50.0495C48.953 50.5965 48.278 51.1755 47.763 50.7255C42.68 46.2205 38.047 44.7405 33.832 44.7405C29.102 44.7735 25.886 45.3845 22.636 45.3845ZM64.622 20.9645L62.852 18.8085C62.66 18.5835 62.821 18.2295 63.11 18.2295H66.842C67.035 17.7145 67.132 17.1355 67.132 16.5565C67.132 13.8865 65.137 11.5695 62.402 11.5695C59.668 11.5695 57.672 13.8865 57.672 16.5565C57.672 19.2265 59.668 21.5115 62.402 21.5115C63.174 21.5435 63.947 21.3185 64.622 20.9645Z" fill="#FF8C00"/>
</g>
</g>
</g>
<defs>
<clipPath id="clip0_414_56976">
<rect width="111.774" height="50.7731" fill="white" transform="translate(0 0.613525)"/>
</clipPath>
</defs>
</svg>
