<svg width="61" height="60" fill="none" xmlns="http://www.w3.org/2000/svg"><path d="M38.435 42.88a1.763 1.763 0 0 1-2.505.88l-6.788-5.275-4.354 4.02a.75.75 0 0 1-.713.098l.835-7.473.025.023.018-.148s12.212-11.12 12.71-11.592c.505-.473.337-.575.337-.575.03-.575-.903 0-.903 0l-16.182 10.41-6.737-2.295s-1.036-.37-1.133-1.188c-.102-.81 1.165-1.25 1.165-1.25L41.002 17.87s2.203-.98 2.203.645l-4.77 24.365Z" fill="#fff" fill-opacity=".78"/><g filter="url(#a)"><path d="M30.485 5c-13.807 0-25 11.192-25 25 0 13.807 11.193 25 25 25 13.808 0 25-11.193 25-25 0-13.808-11.192-25-25-25Zm7.95 37.88a1.762 1.762 0 0 1-2.505.88l-6.787-5.275-4.355 4.02a.75.75 0 0 1-.713.097l.835-7.472.025.023.018-.148s12.212-11.12 12.71-11.593c.505-.472.337-.575.337-.575.03-.575-.902 0-.902 0l-16.183 10.41-6.737-2.294s-1.035-.373-1.133-1.188c-.102-.81 1.165-1.25 1.165-1.25L41.003 17.87s2.202-.98 2.202.645l-4.77 24.365Z" fill="#fff" fill-opacity=".2"/></g><defs><filter id="a" x="1.485" y="1" width="58" height="58" filterUnits="userSpaceOnUse" color-interpolation-filters="sRGB"><feFlood flood-opacity="0" result="BackgroundImageFix"/><feGaussianBlur in="BackgroundImageFix" stdDeviation="2"/><feComposite in2="SourceAlpha" operator="in" result="effect1_backgroundBlur_83_3179"/><feBlend in="SourceGraphic" in2="effect1_backgroundBlur_83_3179" result="shape"/><feColorMatrix in="SourceAlpha" values="0 0 0 0 0 0 0 0 0 0 0 0 0 0 0 0 0 0 127 0" result="hardAlpha"/><feOffset dy="-4"/><feGaussianBlur stdDeviation="2"/><feComposite in2="hardAlpha" operator="arithmetic" k2="-1" k3="1"/><feColorMatrix values="0 0 0 0 1 0 0 0 0 1 0 0 0 0 1 0 0 0 0.05 0"/><feBlend in2="shape" result="effect2_innerShadow_83_3179"/><feColorMatrix in="SourceAlpha" values="0 0 0 0 0 0 0 0 0 0 0 0 0 0 0 0 0 0 127 0" result="hardAlpha"/><feOffset dx="-4" dy="-4"/><feGaussianBlur stdDeviation="2"/><feComposite in2="hardAlpha" operator="arithmetic" k2="-1" k3="1"/><feColorMatrix values="0 0 0 0 1 0 0 0 0 1 0 0 0 0 1 0 0 0 0.05 0"/><feBlend in2="effect2_innerShadow_83_3179" result="effect3_innerShadow_83_3179"/></filter></defs></svg>
