<svg width="16" height="16" fill="none" xmlns="http://www.w3.org/2000/svg"><g fill="#EAE0FF"><path d="M14.05 3.487a74.222 74.222 0 0 0-3.228-.247v-.007l-.146-.866c-.1-.614-.247-1.534-1.807-1.534H7.122c-1.553 0-1.7.88-1.806 1.527l-.14.853c-.62.04-1.24.08-1.86.14l-1.36.134a.501.501 0 0 0-.454.546.497.497 0 0 0 .547.447l1.36-.133c3.493-.347 7.013-.214 10.547.14h.053a.505.505 0 0 0 .5-.454.511.511 0 0 0-.46-.546ZM12.821 5.427a.843.843 0 0 0-.607-.26H3.788a.832.832 0 0 0-.834.886l.414 6.84c.073 1.014.166 2.28 2.493 2.28h4.28c2.327 0 2.42-1.26 2.493-2.28l.414-6.833a.864.864 0 0 0-.227-.633Zm-3.713 6.406h-2.22a.504.504 0 0 1-.5-.5c0-.273.226-.5.5-.5h2.22c.273 0 .5.227.5.5 0 .274-.227.5-.5.5Zm.56-2.666H6.334a.504.504 0 0 1-.5-.5c0-.274.227-.5.5-.5h3.334c.273 0 .5.226.5.5 0 .273-.227.5-.5.5Z"/></g></svg>
