<svg width="60" height="60" viewBox="0 0 60 60" fill="none" xmlns="http://www.w3.org/2000/svg">
<path d="M18.2325 31.7675L28.2325 41.7675C28.7027 42.2337 29.3379 42.4954 30 42.4954C30.6622 42.4954 31.2974 42.2337 31.7675 41.7675L41.7675 31.7675C42.2229 31.296 42.4749 30.6645 42.4692 30.009C42.4635 29.3535 42.2006 28.7265 41.7371 28.2629C41.2736 27.7994 40.6465 27.5365 39.991 27.5308C39.3356 27.5251 38.7041 27.7771 38.2325 28.2325L32.5 33.965L32.5 20C32.5 19.337 32.2367 18.7011 31.7678 18.2322C31.299 17.7634 30.6631 17.5 30 17.5C29.337 17.5 28.7011 17.7634 28.2323 18.2322C27.7634 18.7011 27.5 19.337 27.5 20L27.5 33.965L21.7675 28.2325C21.296 27.7771 20.6645 27.5251 20.009 27.5308C19.3535 27.5365 18.7265 27.7994 18.263 28.263C17.7995 28.7265 17.5366 29.3535 17.5309 30.009C17.5252 30.6645 17.7771 31.296 18.2325 31.7675Z" fill="url(#paint0_linear_347_1439)"/>
<g filter="url(#filter0_bii_347_1439)">
<path d="M30 55C34.9445 55 39.778 53.5338 43.8893 50.7867C48.0005 48.0397 51.2048 44.1352 53.097 39.5671C54.9892 34.9989 55.4843 29.9723 54.5196 25.1227C53.555 20.2732 51.174 15.8186 47.6777 12.3223C44.1814 8.82602 39.7268 6.445 34.8773 5.48037C30.0277 4.51574 25.0011 5.01083 20.4329 6.90302C15.8648 8.79521 11.9603 11.9995 9.21326 16.1108C6.46623 20.222 5 25.0555 5 30C5.00728 36.6282 7.64354 42.9828 12.3304 47.6696C17.0172 52.3565 23.3718 54.9927 30 55ZM18.2325 28.2325C18.7013 27.7638 19.3371 27.5005 20 27.5005C20.6629 27.5005 21.2987 27.7638 21.7675 28.2325L27.5 33.965L27.5 20C27.5 19.337 27.7634 18.7011 28.2322 18.2322C28.7011 17.7634 29.337 17.5 30 17.5C30.663 17.5 31.2989 17.7634 31.7678 18.2322C32.2366 18.7011 32.5 19.337 32.5 20L32.5 33.965L38.2325 28.2325C38.704 27.7771 39.3355 27.5251 39.991 27.5308C40.6465 27.5365 41.2735 27.7994 41.737 28.263C42.2006 28.7265 42.4635 29.3535 42.4692 30.009C42.4749 30.6645 42.2229 31.296 41.7675 31.7675L31.7675 41.7675C31.2974 42.2338 30.6621 42.4954 30 42.4954C29.3379 42.4954 28.7026 42.2338 28.2325 41.7675L18.2325 31.7675C17.7638 31.2987 17.5005 30.6629 17.5005 30C17.5005 29.3371 17.7638 28.7013 18.2325 28.2325Z" fill="white"/>
</g>
<defs>
<filter id="filter0_bii_347_1439" x="1" y="1" width="58" height="58" filterUnits="userSpaceOnUse" color-interpolation-filters="sRGB">
<feFlood flood-opacity="0" result="BackgroundImageFix"/>
<feGaussianBlur in="BackgroundImageFix" stdDeviation="2"/>
<feComposite in2="SourceAlpha" operator="in" result="effect1_backgroundBlur_347_1439"/>
<feBlend mode="normal" in="SourceGraphic" in2="effect1_backgroundBlur_347_1439" result="shape"/>
<feColorMatrix in="SourceAlpha" type="matrix" values="0 0 0 0 0 0 0 0 0 0 0 0 0 0 0 0 0 0 127 0" result="hardAlpha"/>
<feOffset dy="-4"/>
<feGaussianBlur stdDeviation="2"/>
<feComposite in2="hardAlpha" operator="arithmetic" k2="-1" k3="1"/>
<feColorMatrix type="matrix" values="0 0 0 0 1 0 0 0 0 1 0 0 0 0 1 0 0 0 0.05 0"/>
<feBlend mode="normal" in2="shape" result="effect2_innerShadow_347_1439"/>
<feColorMatrix in="SourceAlpha" type="matrix" values="0 0 0 0 0 0 0 0 0 0 0 0 0 0 0 0 0 0 127 0" result="hardAlpha"/>
<feOffset dx="-4" dy="-4"/>
<feGaussianBlur stdDeviation="2"/>
<feComposite in2="hardAlpha" operator="arithmetic" k2="-1" k3="1"/>
<feColorMatrix type="matrix" values="0 0 0 0 1 0 0 0 0 1 0 0 0 0 1 0 0 0 0.05 0"/>
<feBlend mode="normal" in2="effect2_innerShadow_347_1439" result="effect3_innerShadow_347_1439"/>
</filter>
<linearGradient id="paint0_linear_347_1439" x1="30" y1="17.5" x2="30" y2="42.4954" gradientUnits="userSpaceOnUse">
<stop offset="0.451042" stop-color="#070C28" stop-opacity="0"/>
<stop offset="1" stop-color="#C5ADF2"/>
</linearGradient>
</defs>
</svg>
