<svg width="1938" height="401" viewBox="0 0 1938 401" fill="none" xmlns="http://www.w3.org/2000/svg">
<g clip-path="url(#clip0_5010_26387)">
<path fill-rule="evenodd" clip-rule="evenodd" d="M-31.6167 46.7867C160.743 -13.9126 417.442 84.7356 656.159 176.474C783.651 225.468 906.014 272.492 1010.71 292.218C1147.94 318.074 1289.41 303.28 1426.22 288.972C1650.55 265.512 1862.38 243.359 2022.54 403.85C2288.36 670.226 2215.39 1134.83 2082.56 1491.05C2070.59 1523.15 2057.21 1554.74 2042.51 1585.71C2062.33 1546.77 2080.02 1506.8 2095.42 1466.01C2229.29 1111.57 2303.81 649.656 2039.53 385.956C1880.3 227.077 1668.85 249.868 1444.91 274.004C1308.33 288.724 1167.11 303.945 1030.26 278.758C925.863 259.543 803.933 213.269 676.892 165.056C429.538 71.1826 162.809 -30.0436 -31.6167 46.7867Z" fill="url(#paint0_linear_5010_26387)"/>
</g>
<defs>
<linearGradient id="paint0_linear_5010_26387" x1="816.415" y1="1599.63" x2="364.229" y2="-116.213" gradientUnits="userSpaceOnUse">
<stop offset="0.117494" stop-color="#AAAAAA"/>
<stop offset="0.959351" stop-color="#9932BD"/>
<stop offset="1" stop-color="#BD326C"/>
</linearGradient>
<clipPath id="clip0_5010_26387">
<rect width="1938" height="401" fill="white"/>
</clipPath>
</defs>
</svg>
