<svg width="16" height="11" viewBox="0 0 16 11" fill="none" xmlns="http://www.w3.org/2000/svg">
<g id="Vector">
<path d="M10.209 1.41194C10.2784 1.32565 10.4715 1.08442 10.6375 0.878503C10.8035 0.67062 10.9441 0.5 10.9492 0.5C10.956 0.5 11.1728 0.741222 11.9012 1.56883L11.5353 2.01989C11.3337 2.26896 11.0763 2.58471 10.9628 2.72591C10.851 2.86515 10.6477 3.11618 10.5139 3.28484C10.3784 3.45154 10.2039 3.66922 10.1243 3.76532C10.0429 3.86142 9.88372 4.06146 9.76683 4.20658C9.64995 4.35171 9.4399 4.61058 9.30099 4.78512C9.1604 4.9577 8.77587 5.43426 8.44555 5.84414C8.11522 6.25403 7.72392 6.74039 7.57316 6.92278C7.42409 7.10713 7.21065 7.37188 7.09716 7.51113C6.98535 7.65233 6.67197 8.03868 6.40263 8.37207C6.13329 8.70547 5.81483 9.10358 5.69456 9.25459C5.57429 9.40756 5.42014 9.59779 5.35407 9.6782C5.28801 9.75861 5.10337 9.98218 4.94583 10.1744C4.6748 10.5038 4.65786 10.5215 4.63245 10.4882C4.6172 10.4685 4.51048 10.3293 4.39529 10.1763C4.2801 10.0253 4.06158 9.74292 3.91251 9.54876C3.76175 9.35657 3.55678 9.09181 3.45515 8.96238C3.35351 8.83098 3.09603 8.50151 2.88259 8.22695C2.66915 7.95238 2.42861 7.64252 2.3473 7.54054C2.26768 7.43856 2.16096 7.30128 2.11014 7.23656C2.06102 7.17185 1.96107 7.04437 1.88993 6.9522C1.81709 6.86002 1.65277 6.65018 1.52403 6.48348C1.3936 6.31678 1.21573 6.08733 1.12765 5.97162C1.03956 5.85591 0.832898 5.59116 0.668584 5.38131C0.505964 5.17147 0.329792 4.94986 0.1875 4.77335L0.229849 4.72629C0.253564 4.70079 0.467003 4.48114 1.13612 3.7967L1.22928 3.91829C1.2801 3.98497 1.36819 4.09676 1.42409 4.16736C1.48168 4.23796 1.5884 4.37524 1.66124 4.47134C1.73578 4.56743 1.8408 4.70471 1.8984 4.77532C1.9543 4.84592 2.19823 5.15774 2.44046 5.47153L2.50776 5.55816C2.74832 5.86783 3.07979 6.29454 3.27897 6.55016L3.90574 7.35423C4.03109 7.51505 4.24453 7.78765 4.37835 7.96023C4.51218 8.13477 4.63075 8.27598 4.64092 8.27598C4.65108 8.27598 4.74764 8.17007 4.85435 8.03868C4.96107 7.90924 5.13725 7.69351 5.24397 7.56015C5.35068 7.42483 5.56074 7.16596 5.7098 6.98161C5.85887 6.79923 6.23662 6.33051 6.54831 5.9422C6.86 5.55389 7.24961 5.07341 7.41223 4.87141C7.57485 4.67137 7.78829 4.40662 7.88654 4.28503C7.98479 4.16147 8.07626 4.04773 8.08982 4.03204C8.10337 4.01439 8.34052 3.72218 8.61494 3.3829C8.88936 3.04362 9.26542 2.5749 9.45176 2.34348C9.63809 2.11207 9.85661 1.84339 9.93623 1.74533C10.0158 1.64924 10.1395 1.49823 10.209 1.41194Z" fill="#070C29"/>
<path d="M10.2428 5.49898C10.4055 5.29894 11.3761 4.10068 12.4009 2.8377C13.4258 1.57275 14.2728 0.541184 14.2829 0.543145C14.2931 0.547068 14.5014 0.770639 14.7454 1.03932C14.9876 1.30996 15.1875 1.53353 15.1875 1.53941C15.1875 1.5453 13.5715 3.55744 11.5946 6.01084C9.61946 8.46425 7.99495 10.4744 7.98648 10.4784C7.97801 10.4803 7.95938 10.4705 7.94244 10.4587C7.9272 10.445 7.79676 10.2803 7.65108 10.092C7.5054 9.90373 7.31398 9.65467 7.2259 9.54092C7.13781 9.42521 6.97011 9.20948 6.64148 8.79176L6.72787 8.69174C6.7753 8.63487 6.96841 8.39953 7.15814 8.16811C7.34786 7.9367 7.50709 7.7445 7.51218 7.74058C7.51726 7.73862 7.60195 7.83864 7.7002 7.96415C7.79845 8.08967 7.8967 8.22106 7.96277 8.31128L8.61325 7.50916C8.97067 7.0679 9.36028 6.58742 9.47717 6.4423C9.59405 6.29717 9.7482 6.10694 9.81935 6.02065C9.88124 5.94375 10.04 5.74846 10.1889 5.56529L10.2428 5.49898Z" fill="#070C29"/>
</g>
</svg>
