<svg width="1938" height="322" viewBox="0 0 1938 322" fill="none" xmlns="http://www.w3.org/2000/svg">
<g clip-path="url(#clip0_3150_27306)">
<path fill-rule="evenodd" clip-rule="evenodd" d="M16.8341 21.5708C204.798 -18.6925 445.601 73.8469 670.451 160.256C797.942 209.25 920.305 256.274 1025 276C1162.23 301.856 1303.7 287.062 1440.52 272.754C1664.84 249.294 1876.67 227.141 2036.83 387.632C2302.65 654.008 2229.68 1118.61 2096.85 1474.83C2076.44 1529.57 2051.94 1582.83 2023.72 1634.08C2057.77 1575.87 2086.96 1514.91 2110.72 1452.01C2244.58 1097.57 2319.1 635.657 2054.82 371.957C1895.6 213.078 1684.14 235.869 1460.2 260.005C1323.62 274.725 1182.4 289.946 1045.55 264.759C941.155 245.544 819.225 199.27 692.184 151.057C458.613 62.4144 207.766 -32.7845 16.8341 21.5708Z" fill="url(#paint0_linear_3150_27306)"/>
</g>
<defs>
<linearGradient id="paint0_linear_3150_27306" x1="831.707" y1="1585.63" x2="379.521" y2="-130.213" gradientUnits="userSpaceOnUse">
<stop offset="0.117494" stop-color="#AAAAAA"/>
<stop offset="0.959351" stop-color="#3732BD"/>
<stop offset="1" stop-color="#3732BD"/>
</linearGradient>
<clipPath id="clip0_3150_27306">
<rect width="1938" height="322" fill="white"/>
</clipPath>
</defs>
</svg>
