<svg width="16" height="11" fill="none" xmlns="http://www.w3.org/2000/svg"><g fill="#070C29"><path d="m10.209 1.412.428-.533C10.803.67 10.944.5 10.95.5c.007 0 .224.241.952 1.069l-.366.45-.572.707-.45.559-.389.48c-.081.096-.24.296-.357.442l-.466.578-.855 1.06c-.33.409-.722.895-.873 1.078-.149.184-.362.449-.476.588-.112.141-.425.528-.694.861-.27.333-.588.732-.708.883-.12.153-.275.343-.34.423l-.41.496c-.27.33-.287.348-.313.314a40.74 40.74 0 0 1-.237-.312l-.482-.627-.458-.587-.572-.735c-.214-.275-.454-.584-.536-.686l-.237-.304-.22-.285a64.872 64.872 0 0 1-.366-.469c-.13-.166-.308-.396-.396-.511a77.185 77.185 0 0 0-.94-1.199l.042-.047c.024-.025.237-.245.906-.93l.093.122.195.25c.058.07.164.207.237.303.075.096.18.234.237.304.056.07.3.383.542.697l.068.086.771.992.627.804.472.606c.134.175.253.316.263.316.01 0 .107-.106.213-.237.107-.13.283-.345.39-.479.107-.135.317-.394.466-.578.149-.183.527-.651.838-1.04.312-.388.702-.869.864-1.07l.475-.587c.098-.124.19-.237.203-.253.013-.018.25-.31.525-.65.274-.338.65-.807.837-1.039l.484-.598c.08-.096.204-.247.273-.333ZM10.243 5.499 12.4 2.838C13.426 1.573 14.273.54 14.283.543c.01.004.218.228.462.496.243.271.443.495.443.5 0 .006-1.617 2.018-3.593 4.472-1.976 2.453-3.6 4.463-3.609 4.467-.008.002-.027-.008-.044-.02a9.899 9.899 0 0 1-.29-.366c-.147-.188-.338-.437-.426-.551a70.059 70.059 0 0 0-.585-.75l.087-.1.43-.523c.19-.231.35-.423.354-.427.005-.002.09.098.188.223.098.126.197.257.263.347l.65-.802.864-1.067.342-.421.37-.456.054-.066Z"/></g></svg>
