<svg width="40" height="40" viewBox="0 0 40 40" fill="none" xmlns="http://www.w3.org/2000/svg">
<g clip-path="url(#clip0_347_1490)">
<path d="M20.001 5.57178C10.0872 5.57178 2.04688 7.46531 2.04688 9.80157V30.2455C2.04688 30.4325 2.12912 30.6118 2.27551 30.744C2.4219 30.8762 2.62046 30.9505 2.82749 30.9505C3.03452 30.9505 3.23307 30.8762 3.37946 30.744C3.52586 30.6118 3.6081 30.4325 3.6081 30.2455C3.6081 28.8081 9.9943 26.7207 20.001 26.7207C30.0077 26.7207 36.3939 28.8081 36.3939 30.2455C36.3939 30.4325 36.4761 30.6118 36.6225 30.744C36.7689 30.8762 36.9674 30.9505 37.1745 30.9505C37.3815 30.9505 37.5801 30.8762 37.7264 30.744C37.8728 30.6118 37.9551 30.4325 37.9551 30.2455V9.80157C37.9551 7.46531 29.9148 5.57178 20.001 5.57178Z" fill="url(#paint0_linear_347_1490)"/>
<g filter="url(#filter0_bi_347_1490)">
<path d="M20.001 2.60864C8.9575 2.60864 0.000976562 4.94429 0.000976562 7.82603V33.0434C0.000976563 33.274 0.0925912 33.4952 0.255666 33.6583C0.418741 33.8214 0.639919 33.913 0.870542 33.913C1.10116 33.913 1.32234 33.8214 1.48542 33.6583C1.64849 33.4952 1.74011 33.274 1.74011 33.0434C1.74011 31.2704 8.85402 28.6956 20.001 28.6956C31.1479 28.6956 38.2618 31.2704 38.2618 33.0434C38.2618 33.274 38.3535 33.4952 38.5165 33.6583C38.6796 33.8214 38.9008 33.913 39.1314 33.913C39.362 33.913 39.5832 33.8214 39.7463 33.6583C39.9094 33.4952 40.001 33.274 40.001 33.0434V7.82603C40.001 4.94429 31.0445 2.60864 20.001 2.60864Z" fill="#F0F0F0" fill-opacity="0.05"/>
<path d="M20.001 2.60864C8.9575 2.60864 0.000976562 4.94429 0.000976562 7.82603V33.0434C0.000976563 33.274 0.0925912 33.4952 0.255666 33.6583C0.418741 33.8214 0.639919 33.913 0.870542 33.913C1.10116 33.913 1.32234 33.8214 1.48542 33.6583C1.64849 33.4952 1.74011 33.274 1.74011 33.0434C1.74011 31.2704 8.85402 28.6956 20.001 28.6956C31.1479 28.6956 38.2618 31.2704 38.2618 33.0434C38.2618 33.274 38.3535 33.4952 38.5165 33.6583C38.6796 33.8214 38.9008 33.913 39.1314 33.913C39.362 33.913 39.5832 33.8214 39.7463 33.6583C39.9094 33.4952 40.001 33.274 40.001 33.0434V7.82603C40.001 4.94429 31.0445 2.60864 20.001 2.60864Z" fill="url(#paint1_linear_347_1490)" fill-opacity="0.2"/>
<path d="M0.150977 7.82603C0.150977 7.18826 0.649222 6.54097 1.65172 5.92276C2.64589 5.30968 4.09442 4.75216 5.89753 4.28183C9.50152 3.34176 14.4882 2.75864 20.001 2.75864C25.5138 2.75864 30.5004 3.34176 34.1044 4.28183C35.9075 4.75216 37.3561 5.30968 38.3502 5.92276C39.3527 6.54097 39.851 7.18826 39.851 7.82603V33.0434C39.851 33.2343 39.7752 33.4173 39.6402 33.5522C39.5053 33.6872 39.3223 33.763 39.1314 33.763C38.9406 33.763 38.7575 33.6872 38.6226 33.5522C38.4877 33.4173 38.4118 33.2343 38.4118 33.0434C38.4118 32.7704 38.2753 32.5019 38.0458 32.2471C37.8154 31.9914 37.4798 31.7363 37.0517 31.4865C36.195 30.9867 34.9436 30.4944 33.351 30.0599C30.1638 29.1904 25.585 28.5456 20.001 28.5456C14.417 28.5456 9.83813 29.1904 6.65095 30.0599C5.05831 30.4944 3.80696 30.9867 2.95024 31.4865C2.52216 31.7363 2.1865 31.9914 1.95611 32.2471C1.72662 32.5019 1.59011 32.7704 1.59011 33.0434C1.59011 33.2343 1.5143 33.4173 1.37935 33.5522C1.24441 33.6872 1.06138 33.763 0.870542 33.763C0.679701 33.763 0.496677 33.6872 0.361732 33.5522C0.226788 33.4173 0.150977 33.2343 0.150977 33.0434V7.82603Z" stroke="url(#paint2_linear_347_1490)" stroke-opacity="0.1" stroke-width="0.3"/>
</g>
<g filter="url(#filter1_i_347_1490)">
<path d="M29.42 16.0394C29.267 15.8116 25.6192 10.4351 20.0009 10.4351C14.3826 10.4351 10.7348 15.8116 10.5818 16.0394C10.4864 16.1823 10.4355 16.3502 10.4355 16.522C10.4355 16.6938 10.4864 16.8617 10.5818 17.0046C10.7348 17.2325 14.3826 22.609 20.0009 22.609C25.6192 22.609 29.267 17.2325 29.42 17.0046C29.5154 16.8617 29.5662 16.6938 29.5662 16.522C29.5662 16.3502 29.5154 16.1823 29.42 16.0394Z" fill="white" fill-opacity="0.1"/>
</g>
<path d="M20.0008 19.1305C21.4415 19.1305 22.6095 17.9625 22.6095 16.5218C22.6095 15.081 21.4415 13.9131 20.0008 13.9131C18.56 13.9131 17.3921 15.081 17.3921 16.5218C17.3921 17.9625 18.56 19.1305 20.0008 19.1305Z" fill="url(#paint3_linear_347_1490)"/>
<g filter="url(#filter2_bi_347_1490)">
<path d="M20.0016 20.8697C22.4029 20.8697 24.3495 18.9231 24.3495 16.5219C24.3495 14.1207 22.4029 12.1741 20.0016 12.1741C17.6004 12.1741 15.6538 14.1207 15.6538 16.5219C15.6538 18.9231 17.6004 20.8697 20.0016 20.8697Z" fill="#F0F0F0" fill-opacity="0.05"/>
<path d="M20.0016 20.8697C22.4029 20.8697 24.3495 18.9231 24.3495 16.5219C24.3495 14.1207 22.4029 12.1741 20.0016 12.1741C17.6004 12.1741 15.6538 14.1207 15.6538 16.5219C15.6538 18.9231 17.6004 20.8697 20.0016 20.8697Z" fill="url(#paint4_linear_347_1490)" fill-opacity="0.2"/>
</g>
<g filter="url(#filter3_i_347_1490)">
<path d="M20.0008 19.1305C21.4415 19.1305 22.6095 17.9625 22.6095 16.5218C22.6095 15.081 21.4415 13.9131 20.0008 13.9131C18.56 13.9131 17.3921 15.081 17.3921 16.5218C17.3921 17.9625 18.56 19.1305 20.0008 19.1305Z" fill="url(#paint5_linear_347_1490)"/>
</g>
<g filter="url(#filter4_bi_347_1490)">
<path d="M6.29576 11.6259L6.21489 11.6042C2.38967 10.6538 0.000976562 9.31288 0.000976562 7.82593V32.9433C0.000976562 34.7511 1.96793 36.2364 5.84706 37.3572C5.97657 37.3946 6.11297 37.4013 6.24552 37.3769C6.37806 37.3524 6.50311 37.2975 6.6108 37.2165C6.71849 37.1355 6.80587 37.0305 6.86604 36.9099C6.9262 36.7893 6.95752 36.6564 6.9575 36.5216V12.4703C6.95749 12.2758 6.8923 12.087 6.77235 11.9339C6.65239 11.7808 6.48459 11.6724 6.29576 11.6259Z" fill="#F0F0F0" fill-opacity="0.05"/>
<path d="M6.29576 11.6259L6.21489 11.6042C2.38967 10.6538 0.000976562 9.31288 0.000976562 7.82593V32.9433C0.000976562 34.7511 1.96793 36.2364 5.84706 37.3572C5.97657 37.3946 6.11297 37.4013 6.24552 37.3769C6.37806 37.3524 6.50311 37.2975 6.6108 37.2165C6.71849 37.1355 6.80587 37.0305 6.86604 36.9099C6.9262 36.7893 6.95752 36.6564 6.9575 36.5216V12.4703C6.95749 12.2758 6.8923 12.087 6.77235 11.9339C6.65239 11.7808 6.48459 11.6724 6.29576 11.6259Z" fill="url(#paint6_linear_347_1490)" fill-opacity="0.2"/>
<path d="M6.25682 11.7708L6.25681 11.7708L6.25991 11.7716C6.41617 11.81 6.55502 11.8998 6.65429 12.0264C6.75355 12.1531 6.8075 12.3094 6.8075 12.4703V36.5216C6.80751 36.6331 6.7816 36.7431 6.73181 36.8429C6.68202 36.9427 6.60972 37.0296 6.52061 37.0966C6.43149 37.1637 6.32801 37.2091 6.21833 37.2293C6.10865 37.2496 5.99578 37.244 5.88862 37.2131C3.95684 36.6549 2.51532 36.0097 1.55973 35.2882C0.606163 34.5682 0.150977 33.7846 0.150977 32.9433V8.77558C0.445388 9.23268 0.944785 9.65718 1.59677 10.0452C2.68981 10.6956 4.25877 11.2726 6.17733 11.7494L6.25682 11.7708Z" stroke="url(#paint7_linear_347_1490)" stroke-opacity="0.1" stroke-width="0.3"/>
</g>
<g filter="url(#filter5_bi_347_1490)">
<path d="M33.7062 11.6259L33.787 11.6042C37.6123 10.6538 40.001 9.31288 40.001 7.82593V32.9433C40.001 34.7511 38.034 36.2364 34.1549 37.3572C34.0254 37.3946 33.889 37.4013 33.7564 37.3769C33.6239 37.3524 33.4988 37.2975 33.3911 37.2165C33.2834 37.1355 33.1961 37.0305 33.1359 36.9099C33.0757 36.7893 33.0444 36.6564 33.0444 36.5216V12.4703C33.0444 12.2758 33.1096 12.087 33.2296 11.9339C33.3495 11.7808 33.5173 11.6724 33.7062 11.6259Z" fill="#F0F0F0" fill-opacity="0.05"/>
<path d="M33.7062 11.6259L33.787 11.6042C37.6123 10.6538 40.001 9.31288 40.001 7.82593V32.9433C40.001 34.7511 38.034 36.2364 34.1549 37.3572C34.0254 37.3946 33.889 37.4013 33.7564 37.3769C33.6239 37.3524 33.4988 37.2975 33.3911 37.2165C33.2834 37.1355 33.1961 37.0305 33.1359 36.9099C33.0757 36.7893 33.0444 36.6564 33.0444 36.5216V12.4703C33.0444 12.2758 33.1096 12.087 33.2296 11.9339C33.3495 11.7808 33.5173 11.6724 33.7062 11.6259Z" fill="url(#paint8_linear_347_1490)" fill-opacity="0.2"/>
<path d="M33.742 11.7716L33.742 11.7716L33.7451 11.7708L33.8246 11.7494C35.7432 11.2726 37.3121 10.6956 38.4052 10.0452C39.0571 9.65718 39.5565 9.23268 39.851 8.77558V32.9433C39.851 33.7846 39.3958 34.5682 38.4422 35.2882C37.4866 36.0097 36.0451 36.6549 34.1133 37.2131C34.0062 37.244 33.8933 37.2496 33.7836 37.2293C33.6739 37.2091 33.5704 37.1637 33.4813 37.0966C33.3922 37.0296 33.3199 36.9427 33.2701 36.8429C33.2203 36.7431 33.1944 36.6331 33.1944 36.5216V12.4703C33.1944 12.3094 33.2484 12.1531 33.3476 12.0264C33.4469 11.8998 33.5858 11.81 33.742 11.7716Z" stroke="url(#paint9_linear_347_1490)" stroke-opacity="0.1" stroke-width="0.3"/>
</g>
<g filter="url(#filter6_i_347_1490)">
<path d="M18.2617 15.6522C18.7419 15.6522 19.1312 15.2629 19.1312 14.7827C19.1312 14.3024 18.7419 13.9131 18.2617 13.9131C17.7814 13.9131 17.3921 14.3024 17.3921 14.7827C17.3921 15.2629 17.7814 15.6522 18.2617 15.6522Z" fill="white" fill-opacity="0.1"/>
</g>
</g>
<defs>
<filter id="filter0_bi_347_1490" x="-5.99902" y="-3.39136" width="52" height="43.3044" filterUnits="userSpaceOnUse" color-interpolation-filters="sRGB">
<feFlood flood-opacity="0" result="BackgroundImageFix"/>
<feGaussianBlur in="BackgroundImageFix" stdDeviation="3"/>
<feComposite in2="SourceAlpha" operator="in" result="effect1_backgroundBlur_347_1490"/>
<feBlend mode="normal" in="SourceGraphic" in2="effect1_backgroundBlur_347_1490" result="shape"/>
<feColorMatrix in="SourceAlpha" type="matrix" values="0 0 0 0 0 0 0 0 0 0 0 0 0 0 0 0 0 0 127 0" result="hardAlpha"/>
<feOffset dy="1"/>
<feGaussianBlur stdDeviation="1.5"/>
<feComposite in2="hardAlpha" operator="arithmetic" k2="-1" k3="1"/>
<feColorMatrix type="matrix" values="0 0 0 0 1 0 0 0 0 1 0 0 0 0 1 0 0 0 0.15 0"/>
<feBlend mode="normal" in2="shape" result="effect2_innerShadow_347_1490"/>
</filter>
<filter id="filter1_i_347_1490" x="10.4355" y="10.4351" width="19.1309" height="14.1738" filterUnits="userSpaceOnUse" color-interpolation-filters="sRGB">
<feFlood flood-opacity="0" result="BackgroundImageFix"/>
<feBlend mode="normal" in="SourceGraphic" in2="BackgroundImageFix" result="shape"/>
<feColorMatrix in="SourceAlpha" type="matrix" values="0 0 0 0 0 0 0 0 0 0 0 0 0 0 0 0 0 0 127 0" result="hardAlpha"/>
<feOffset dy="2"/>
<feGaussianBlur stdDeviation="1"/>
<feComposite in2="hardAlpha" operator="arithmetic" k2="-1" k3="1"/>
<feColorMatrix type="matrix" values="0 0 0 0 1 0 0 0 0 1 0 0 0 0 1 0 0 0 0.1 0"/>
<feBlend mode="normal" in2="shape" result="effect1_innerShadow_347_1490"/>
</filter>
<filter id="filter2_bi_347_1490" x="9.65381" y="6.17407" width="20.6958" height="20.6956" filterUnits="userSpaceOnUse" color-interpolation-filters="sRGB">
<feFlood flood-opacity="0" result="BackgroundImageFix"/>
<feGaussianBlur in="BackgroundImageFix" stdDeviation="3"/>
<feComposite in2="SourceAlpha" operator="in" result="effect1_backgroundBlur_347_1490"/>
<feBlend mode="normal" in="SourceGraphic" in2="effect1_backgroundBlur_347_1490" result="shape"/>
<feColorMatrix in="SourceAlpha" type="matrix" values="0 0 0 0 0 0 0 0 0 0 0 0 0 0 0 0 0 0 127 0" result="hardAlpha"/>
<feOffset dy="1"/>
<feGaussianBlur stdDeviation="1.5"/>
<feComposite in2="hardAlpha" operator="arithmetic" k2="-1" k3="1"/>
<feColorMatrix type="matrix" values="0 0 0 0 1 0 0 0 0 1 0 0 0 0 1 0 0 0 0.4 0"/>
<feBlend mode="normal" in2="shape" result="effect2_innerShadow_347_1490"/>
</filter>
<filter id="filter3_i_347_1490" x="17.3921" y="13.9131" width="5.21729" height="7.21729" filterUnits="userSpaceOnUse" color-interpolation-filters="sRGB">
<feFlood flood-opacity="0" result="BackgroundImageFix"/>
<feBlend mode="normal" in="SourceGraphic" in2="BackgroundImageFix" result="shape"/>
<feColorMatrix in="SourceAlpha" type="matrix" values="0 0 0 0 0 0 0 0 0 0 0 0 0 0 0 0 0 0 127 0" result="hardAlpha"/>
<feOffset dy="2"/>
<feGaussianBlur stdDeviation="1"/>
<feComposite in2="hardAlpha" operator="arithmetic" k2="-1" k3="1"/>
<feColorMatrix type="matrix" values="0 0 0 0 1 0 0 0 0 1 0 0 0 0 1 0 0 0 0.4 0"/>
<feBlend mode="normal" in2="shape" result="effect1_innerShadow_347_1490"/>
</filter>
<filter id="filter4_bi_347_1490" x="-5.99902" y="1.82593" width="18.9565" height="41.5654" filterUnits="userSpaceOnUse" color-interpolation-filters="sRGB">
<feFlood flood-opacity="0" result="BackgroundImageFix"/>
<feGaussianBlur in="BackgroundImageFix" stdDeviation="3"/>
<feComposite in2="SourceAlpha" operator="in" result="effect1_backgroundBlur_347_1490"/>
<feBlend mode="normal" in="SourceGraphic" in2="effect1_backgroundBlur_347_1490" result="shape"/>
<feColorMatrix in="SourceAlpha" type="matrix" values="0 0 0 0 0 0 0 0 0 0 0 0 0 0 0 0 0 0 127 0" result="hardAlpha"/>
<feOffset dy="1"/>
<feGaussianBlur stdDeviation="1.5"/>
<feComposite in2="hardAlpha" operator="arithmetic" k2="-1" k3="1"/>
<feColorMatrix type="matrix" values="0 0 0 0 1 0 0 0 0 1 0 0 0 0 1 0 0 0 0.15 0"/>
<feBlend mode="normal" in2="shape" result="effect2_innerShadow_347_1490"/>
</filter>
<filter id="filter5_bi_347_1490" x="27.0444" y="1.82593" width="18.9565" height="41.5654" filterUnits="userSpaceOnUse" color-interpolation-filters="sRGB">
<feFlood flood-opacity="0" result="BackgroundImageFix"/>
<feGaussianBlur in="BackgroundImageFix" stdDeviation="3"/>
<feComposite in2="SourceAlpha" operator="in" result="effect1_backgroundBlur_347_1490"/>
<feBlend mode="normal" in="SourceGraphic" in2="effect1_backgroundBlur_347_1490" result="shape"/>
<feColorMatrix in="SourceAlpha" type="matrix" values="0 0 0 0 0 0 0 0 0 0 0 0 0 0 0 0 0 0 127 0" result="hardAlpha"/>
<feOffset dy="1"/>
<feGaussianBlur stdDeviation="1.5"/>
<feComposite in2="hardAlpha" operator="arithmetic" k2="-1" k3="1"/>
<feColorMatrix type="matrix" values="0 0 0 0 1 0 0 0 0 1 0 0 0 0 1 0 0 0 0.15 0"/>
<feBlend mode="normal" in2="shape" result="effect2_innerShadow_347_1490"/>
</filter>
<filter id="filter6_i_347_1490" x="17.3921" y="13.9131" width="1.73926" height="3.73901" filterUnits="userSpaceOnUse" color-interpolation-filters="sRGB">
<feFlood flood-opacity="0" result="BackgroundImageFix"/>
<feBlend mode="normal" in="SourceGraphic" in2="BackgroundImageFix" result="shape"/>
<feColorMatrix in="SourceAlpha" type="matrix" values="0 0 0 0 0 0 0 0 0 0 0 0 0 0 0 0 0 0 127 0" result="hardAlpha"/>
<feOffset dy="2"/>
<feGaussianBlur stdDeviation="1"/>
<feComposite in2="hardAlpha" operator="arithmetic" k2="-1" k3="1"/>
<feColorMatrix type="matrix" values="0 0 0 0 1 0 0 0 0 1 0 0 0 0 1 0 0 0 0.1 0"/>
<feBlend mode="normal" in2="shape" result="effect1_innerShadow_347_1490"/>
</filter>
<linearGradient id="paint0_linear_347_1490" x1="2.04688" y1="5.57178" x2="41.9256" y2="19.8989" gradientUnits="userSpaceOnUse">
<stop stop-color="#F6E2FF"/>
<stop offset="0.703125" stop-color="#5C3C91"/>
</linearGradient>
<linearGradient id="paint1_linear_347_1490" x1="0.000976563" y1="2.60864" x2="45.3807" y2="17.3321" gradientUnits="userSpaceOnUse">
<stop stop-color="#6B5FB6"/>
<stop offset="0.776042" stop-color="#9126E6"/>
</linearGradient>
<linearGradient id="paint2_linear_347_1490" x1="1.25098" y1="4.03157" x2="40.001" y2="4.03157" gradientUnits="userSpaceOnUse">
<stop stop-color="#3CDEB6"/>
<stop offset="0.65625" stop-color="#364AFF"/>
</linearGradient>
<linearGradient id="paint3_linear_347_1490" x1="17.3921" y1="13.9131" x2="23.538" y2="15.4736" gradientUnits="userSpaceOnUse">
<stop stop-color="#F6E2FF"/>
<stop offset="0.703125" stop-color="#5C3C91"/>
</linearGradient>
<linearGradient id="paint4_linear_347_1490" x1="15.6538" y1="12.1741" x2="25.897" y2="14.775" gradientUnits="userSpaceOnUse">
<stop stop-color="#6B5FB6"/>
<stop offset="0.776042" stop-color="#9126E6"/>
</linearGradient>
<linearGradient id="paint5_linear_347_1490" x1="17.3921" y1="13.9131" x2="23.538" y2="15.4736" gradientUnits="userSpaceOnUse">
<stop stop-color="#F6E2FF"/>
<stop offset="0.703125" stop-color="#5C3C91"/>
</linearGradient>
<linearGradient id="paint6_linear_347_1490" x1="0.000976563" y1="7.82593" x2="8.69286" y2="8.34523" gradientUnits="userSpaceOnUse">
<stop stop-color="#6B5FB6"/>
<stop offset="0.776042" stop-color="#9126E6"/>
</linearGradient>
<linearGradient id="paint7_linear_347_1490" x1="0.218368" y1="9.16981" x2="6.9575" y2="9.16981" gradientUnits="userSpaceOnUse">
<stop stop-color="#3CDEB6"/>
<stop offset="0.65625" stop-color="#364AFF"/>
</linearGradient>
<linearGradient id="paint8_linear_347_1490" x1="33.0444" y1="7.82593" x2="41.7363" y2="8.34523" gradientUnits="userSpaceOnUse">
<stop stop-color="#6B5FB6"/>
<stop offset="0.776042" stop-color="#9126E6"/>
</linearGradient>
<linearGradient id="paint9_linear_347_1490" x1="33.2618" y1="9.16981" x2="40.001" y2="9.16981" gradientUnits="userSpaceOnUse">
<stop stop-color="#3CDEB6"/>
<stop offset="0.65625" stop-color="#364AFF"/>
</linearGradient>
<clipPath id="clip0_347_1490">
<rect width="40" height="40" fill="white" transform="translate(0.000976562)"/>
</clipPath>
</defs>
</svg>
