<svg width="40" height="40" fill="none" xmlns="http://www.w3.org/2000/svg"><g clip-path="url(#a)"><path d="M20.001 5.572c-9.914 0-17.954 1.893-17.954 4.23v20.444c0 .187.082.366.229.498a.825.825 0 0 0 .551.207.825.825 0 0 0 .552-.207.672.672 0 0 0 .23-.498c0-1.438 6.385-3.525 16.392-3.525s16.393 2.087 16.393 3.524c0 .188.082.367.229.499a.825.825 0 0 0 .552.207.825.825 0 0 0 .551-.207.672.672 0 0 0 .23-.498V9.802c0-2.337-8.041-4.23-17.955-4.23Z" fill="url(#b)"/><g filter="url(#c)"><path d="M20.001 2.609c-11.044 0-20 2.335-20 5.217v25.217a.87.87 0 0 0 1.74 0c0-1.773 7.113-4.347 18.26-4.347 11.147 0 18.26 2.574 18.26 4.347a.87.87 0 0 0 1.74 0V7.826c0-2.882-8.956-5.217-20-5.217Z" fill="#F0F0F0" fill-opacity=".05"/><path d="M20.001 2.609c-11.044 0-20 2.335-20 5.217v25.217a.87.87 0 0 0 1.74 0c0-1.773 7.113-4.347 18.26-4.347 11.147 0 18.26 2.574 18.26 4.347a.87.87 0 0 0 1.74 0V7.826c0-2.882-8.956-5.217-20-5.217Z" fill="url(#d)" fill-opacity=".2"/><path d="M.151 7.826c0-.638.498-1.285 1.5-1.903.995-.613 2.443-1.17 4.247-1.641 3.604-.94 8.59-1.523 14.103-1.523s10.5.583 14.103 1.523c1.803.47 3.252 1.028 4.246 1.64 1.003.619 1.501 1.266 1.501 1.904v25.217a.72.72 0 1 1-1.44 0c0-.273-.136-.541-.365-.796-.23-.256-.566-.51-.994-.76-.857-.5-2.108-.993-3.701-1.427-3.187-.87-7.766-1.514-13.35-1.514s-10.163.644-13.35 1.514c-1.593.434-2.844.927-3.7 1.427-.429.25-.764.504-.995.76-.23.255-.366.523-.366.796a.72.72 0 1 1-1.439 0V7.826Z" stroke="url(#e)" stroke-opacity=".1" stroke-width=".3"/></g><g filter="url(#f)"><path d="M29.42 16.04c-.153-.228-3.8-5.605-9.42-5.605-5.617 0-9.265 5.377-9.418 5.604a.87.87 0 0 0 0 .966c.153.228 3.8 5.604 9.419 5.604 5.618 0 9.266-5.377 9.419-5.604a.869.869 0 0 0 0-.966Z" fill="#fff" fill-opacity=".1"/></g><path d="M20 19.13a2.609 2.609 0 1 0 0-5.217 2.609 2.609 0 0 0 0 5.218Z" fill="url(#g)"/><g filter="url(#h)"><path d="M20.002 20.87a4.348 4.348 0 1 0 0-8.696 4.348 4.348 0 0 0 0 8.696Z" fill="#F0F0F0" fill-opacity=".05"/><path d="M20.002 20.87a4.348 4.348 0 1 0 0-8.696 4.348 4.348 0 0 0 0 8.696Z" fill="url(#i)" fill-opacity=".2"/></g><g filter="url(#j)"><path d="M20 19.13a2.609 2.609 0 1 0 0-5.217 2.609 2.609 0 0 0 0 5.218Z" fill="url(#k)"/></g><g filter="url(#l)"><path d="m6.296 11.626-.081-.022C2.39 10.654 0 9.313 0 7.826v25.117c0 1.808 1.967 3.293 5.846 4.414a.869.869 0 0 0 1.11-.835V12.47a.87.87 0 0 0-.661-.844Z" fill="#F0F0F0" fill-opacity=".05"/><path d="m6.296 11.626-.081-.022C2.39 10.654 0 9.313 0 7.826v25.117c0 1.808 1.967 3.293 5.846 4.414a.869.869 0 0 0 1.11-.835V12.47a.87.87 0 0 0-.661-.844Z" fill="url(#m)" fill-opacity=".2"/><path d="m6.257 11.77.003.002a.72.72 0 0 1 .548.698v24.052a.72.72 0 0 1-.92.691c-1.931-.558-3.373-1.203-4.328-1.925C.606 34.568.15 33.785.15 32.943V8.776c.294.457.794.881 1.446 1.27 1.093.65 2.662 1.227 4.58 1.703l.08.022Z" stroke="url(#n)" stroke-opacity=".1" stroke-width=".3"/></g><g filter="url(#o)"><path d="m33.706 11.626.081-.022c3.825-.95 6.214-2.291 6.214-3.778v25.117c0 1.808-1.967 3.293-5.846 4.414a.87.87 0 0 1-1.11-.835V12.47a.87.87 0 0 1 .661-.844Z" fill="#F0F0F0" fill-opacity=".05"/><path d="m33.706 11.626.081-.022c3.825-.95 6.214-2.291 6.214-3.778v25.117c0 1.808-1.967 3.293-5.846 4.414a.87.87 0 0 1-1.11-.835V12.47a.87.87 0 0 1 .661-.844Z" fill="url(#p)" fill-opacity=".2"/><path d="m33.742 11.772.003-.001.08-.022c1.918-.476 3.487-1.053 4.58-1.704.652-.388 1.151-.812 1.446-1.27v24.168c0 .842-.455 1.625-1.409 2.345-.955.722-2.397 1.367-4.329 1.925a.718.718 0 0 1-.919-.691V12.47a.72.72 0 0 1 .548-.698Z" stroke="url(#q)" stroke-opacity=".1" stroke-width=".3"/></g><g filter="url(#r)"><path d="M18.262 15.652a.87.87 0 1 0 0-1.739.87.87 0 0 0 0 1.74Z" fill="#fff" fill-opacity=".1"/></g></g><defs><linearGradient id="b" x1="2.047" y1="5.572" x2="41.926" y2="19.899" gradientUnits="userSpaceOnUse"><stop stop-color="#F6E2FF"/><stop offset=".703" stop-color="#5C3C91"/></linearGradient><linearGradient id="d" x1=".001" y1="2.609" x2="45.381" y2="17.332" gradientUnits="userSpaceOnUse"><stop stop-color="#6B5FB6"/><stop offset=".776" stop-color="#9126E6"/></linearGradient><linearGradient id="e" x1="1.251" y1="4.032" x2="40.001" y2="4.032" gradientUnits="userSpaceOnUse"><stop stop-color="#3CDEB6"/><stop offset=".656" stop-color="#364AFF"/></linearGradient><linearGradient id="g" x1="17.392" y1="13.913" x2="23.538" y2="15.474" gradientUnits="userSpaceOnUse"><stop stop-color="#F6E2FF"/><stop offset=".703" stop-color="#5C3C91"/></linearGradient><linearGradient id="i" x1="15.654" y1="12.174" x2="25.897" y2="14.775" gradientUnits="userSpaceOnUse"><stop stop-color="#6B5FB6"/><stop offset=".776" stop-color="#9126E6"/></linearGradient><linearGradient id="k" x1="17.392" y1="13.913" x2="23.538" y2="15.474" gradientUnits="userSpaceOnUse"><stop stop-color="#F6E2FF"/><stop offset=".703" stop-color="#5C3C91"/></linearGradient><linearGradient id="m" x1=".001" y1="7.826" x2="8.693" y2="8.345" gradientUnits="userSpaceOnUse"><stop stop-color="#6B5FB6"/><stop offset=".776" stop-color="#9126E6"/></linearGradient><linearGradient id="n" x1=".218" y1="9.17" x2="6.957" y2="9.17" gradientUnits="userSpaceOnUse"><stop stop-color="#3CDEB6"/><stop offset=".656" stop-color="#364AFF"/></linearGradient><linearGradient id="p" x1="33.044" y1="7.826" x2="41.736" y2="8.345" gradientUnits="userSpaceOnUse"><stop stop-color="#6B5FB6"/><stop offset=".776" stop-color="#9126E6"/></linearGradient><linearGradient id="q" x1="33.262" y1="9.17" x2="40.001" y2="9.17" gradientUnits="userSpaceOnUse"><stop stop-color="#3CDEB6"/><stop offset=".656" stop-color="#364AFF"/></linearGradient><filter id="c" x="-5.999" y="-3.391" width="52" height="43.304" filterUnits="userSpaceOnUse" color-interpolation-filters="sRGB"><feFlood flood-opacity="0" result="BackgroundImageFix"/><feGaussianBlur in="BackgroundImageFix" stdDeviation="3"/><feComposite in2="SourceAlpha" operator="in" result="effect1_backgroundBlur_347_1490"/><feBlend in="SourceGraphic" in2="effect1_backgroundBlur_347_1490" result="shape"/><feColorMatrix in="SourceAlpha" values="0 0 0 0 0 0 0 0 0 0 0 0 0 0 0 0 0 0 127 0" result="hardAlpha"/><feOffset dy="1"/><feGaussianBlur stdDeviation="1.5"/><feComposite in2="hardAlpha" operator="arithmetic" k2="-1" k3="1"/><feColorMatrix values="0 0 0 0 1 0 0 0 0 1 0 0 0 0 1 0 0 0 0.15 0"/><feBlend in2="shape" result="effect2_innerShadow_347_1490"/></filter><filter id="f" x="10.435" y="10.435" width="19.131" height="14.174" filterUnits="userSpaceOnUse" color-interpolation-filters="sRGB"><feFlood flood-opacity="0" result="BackgroundImageFix"/><feBlend in="SourceGraphic" in2="BackgroundImageFix" result="shape"/><feColorMatrix in="SourceAlpha" values="0 0 0 0 0 0 0 0 0 0 0 0 0 0 0 0 0 0 127 0" result="hardAlpha"/><feOffset dy="2"/><feGaussianBlur stdDeviation="1"/><feComposite in2="hardAlpha" operator="arithmetic" k2="-1" k3="1"/><feColorMatrix values="0 0 0 0 1 0 0 0 0 1 0 0 0 0 1 0 0 0 0.1 0"/><feBlend in2="shape" result="effect1_innerShadow_347_1490"/></filter><filter id="h" x="9.654" y="6.174" width="20.696" height="20.696" filterUnits="userSpaceOnUse" color-interpolation-filters="sRGB"><feFlood flood-opacity="0" result="BackgroundImageFix"/><feGaussianBlur in="BackgroundImageFix" stdDeviation="3"/><feComposite in2="SourceAlpha" operator="in" result="effect1_backgroundBlur_347_1490"/><feBlend in="SourceGraphic" in2="effect1_backgroundBlur_347_1490" result="shape"/><feColorMatrix in="SourceAlpha" values="0 0 0 0 0 0 0 0 0 0 0 0 0 0 0 0 0 0 127 0" result="hardAlpha"/><feOffset dy="1"/><feGaussianBlur stdDeviation="1.5"/><feComposite in2="hardAlpha" operator="arithmetic" k2="-1" k3="1"/><feColorMatrix values="0 0 0 0 1 0 0 0 0 1 0 0 0 0 1 0 0 0 0.4 0"/><feBlend in2="shape" result="effect2_innerShadow_347_1490"/></filter><filter id="j" x="17.392" y="13.913" width="5.217" height="7.217" filterUnits="userSpaceOnUse" color-interpolation-filters="sRGB"><feFlood flood-opacity="0" result="BackgroundImageFix"/><feBlend in="SourceGraphic" in2="BackgroundImageFix" result="shape"/><feColorMatrix in="SourceAlpha" values="0 0 0 0 0 0 0 0 0 0 0 0 0 0 0 0 0 0 127 0" result="hardAlpha"/><feOffset dy="2"/><feGaussianBlur stdDeviation="1"/><feComposite in2="hardAlpha" operator="arithmetic" k2="-1" k3="1"/><feColorMatrix values="0 0 0 0 1 0 0 0 0 1 0 0 0 0 1 0 0 0 0.4 0"/><feBlend in2="shape" result="effect1_innerShadow_347_1490"/></filter><filter id="l" x="-5.999" y="1.826" width="18.956" height="41.565" filterUnits="userSpaceOnUse" color-interpolation-filters="sRGB"><feFlood flood-opacity="0" result="BackgroundImageFix"/><feGaussianBlur in="BackgroundImageFix" stdDeviation="3"/><feComposite in2="SourceAlpha" operator="in" result="effect1_backgroundBlur_347_1490"/><feBlend in="SourceGraphic" in2="effect1_backgroundBlur_347_1490" result="shape"/><feColorMatrix in="SourceAlpha" values="0 0 0 0 0 0 0 0 0 0 0 0 0 0 0 0 0 0 127 0" result="hardAlpha"/><feOffset dy="1"/><feGaussianBlur stdDeviation="1.5"/><feComposite in2="hardAlpha" operator="arithmetic" k2="-1" k3="1"/><feColorMatrix values="0 0 0 0 1 0 0 0 0 1 0 0 0 0 1 0 0 0 0.15 0"/><feBlend in2="shape" result="effect2_innerShadow_347_1490"/></filter><filter id="o" x="27.044" y="1.826" width="18.956" height="41.565" filterUnits="userSpaceOnUse" color-interpolation-filters="sRGB"><feFlood flood-opacity="0" result="BackgroundImageFix"/><feGaussianBlur in="BackgroundImageFix" stdDeviation="3"/><feComposite in2="SourceAlpha" operator="in" result="effect1_backgroundBlur_347_1490"/><feBlend in="SourceGraphic" in2="effect1_backgroundBlur_347_1490" result="shape"/><feColorMatrix in="SourceAlpha" values="0 0 0 0 0 0 0 0 0 0 0 0 0 0 0 0 0 0 127 0" result="hardAlpha"/><feOffset dy="1"/><feGaussianBlur stdDeviation="1.5"/><feComposite in2="hardAlpha" operator="arithmetic" k2="-1" k3="1"/><feColorMatrix values="0 0 0 0 1 0 0 0 0 1 0 0 0 0 1 0 0 0 0.15 0"/><feBlend in2="shape" result="effect2_innerShadow_347_1490"/></filter><filter id="r" x="17.392" y="13.913" width="1.739" height="3.739" filterUnits="userSpaceOnUse" color-interpolation-filters="sRGB"><feFlood flood-opacity="0" result="BackgroundImageFix"/><feBlend in="SourceGraphic" in2="BackgroundImageFix" result="shape"/><feColorMatrix in="SourceAlpha" values="0 0 0 0 0 0 0 0 0 0 0 0 0 0 0 0 0 0 127 0" result="hardAlpha"/><feOffset dy="2"/><feGaussianBlur stdDeviation="1"/><feComposite in2="hardAlpha" operator="arithmetic" k2="-1" k3="1"/><feColorMatrix values="0 0 0 0 1 0 0 0 0 1 0 0 0 0 1 0 0 0 0.1 0"/><feBlend in2="shape" result="effect1_innerShadow_347_1490"/></filter><clipPath id="a"><path fill="#fff" transform="translate(.001)" d="M0 0h40v40H0z"/></clipPath></defs></svg>
