<svg width="55" height="19" viewBox="0 0 55 19" fill="none" xmlns="http://www.w3.org/2000/svg">
<g id="Frame" clip-path="url(#clip0_414_56990)">
<g id="g4158">
<path id="polygon9" d="M23.7724 18.0213H19.3281L22.1079 0.318359H26.5519L23.7724 18.0213Z" fill="#EAE0FF"/>
<path id="path11" d="M39.8863 0.752219C39.0097 0.394025 37.6193 -0.00146484 35.9001 -0.00146484C31.5113 -0.00146484 28.4207 2.40902 28.4017 5.85529C28.3653 8.39793 30.6145 9.81018 32.2967 10.658C34.0162 11.5243 34.6007 12.0898 34.6007 12.862C34.5832 14.0479 33.2113 14.5946 31.9317 14.5946C30.1574 14.5946 29.2066 14.3128 27.7618 13.6529L27.1766 13.3701L26.5547 17.344C27.597 17.8331 29.5175 18.2672 31.5113 18.2862C36.1745 18.2862 39.2104 15.913 39.2464 12.2404C39.2642 10.2252 38.0765 8.68104 35.5159 7.41922C33.9615 6.60922 33.0096 6.06304 33.0096 5.23427C33.0278 4.48084 33.8147 3.70913 35.5694 3.70913C37.0142 3.67133 38.0757 4.02903 38.8799 4.38697L39.2819 4.57495L39.8863 0.752219Z" fill="#EAE0FF"/>
<path id="path13" d="M45.7901 11.7498C46.1561 10.7328 47.5645 6.79663 47.5645 6.79663C47.546 6.83443 47.9297 5.76085 48.1492 5.10178L48.4598 6.62717C48.4598 6.62717 49.3014 10.8647 49.4841 11.7498C48.7896 11.7498 46.6679 11.7498 45.7901 11.7498ZM51.276 0.318359H47.8383C46.7783 0.318359 45.9729 0.638255 45.5155 1.78718L38.9141 18.021H43.5773C43.5773 18.021 44.345 15.8361 44.5101 15.3655C45.0216 15.3655 49.558 15.3655 50.2161 15.3655C50.3437 15.987 50.7464 18.021 50.7464 18.021H54.8614L51.276 0.318359Z" fill="#EAE0FF"/>
<path id="path15" d="M15.6132 0.318359L11.2607 12.3901L10.7851 9.94177C9.98047 7.11678 7.45685 4.04748 4.64062 2.52134L8.62728 18.0025H13.327L20.3126 0.318359H15.6132Z" fill="#EAE0FF"/>
<path id="path17" d="M7.22357 0.318359H0.0731516L0 0.676052C5.57777 2.14512 9.27182 5.68625 10.7895 9.94252L9.23512 1.80645C8.97921 0.675802 8.19277 0.355656 7.22357 0.318359Z" fill="#EAE0FF"/>
</g>
</g>
<defs>
<clipPath id="clip0_414_56990">
<rect width="54.8629" height="18.2876" fill="white"/>
</clipPath>
</defs>
</svg>
