<svg width="108" height="68" fill="none" xmlns="http://www.w3.org/2000/svg"><g filter="url(#a)"><rect x="4" y="64" width="60" height="100" rx="30" transform="rotate(-90 4 64)" fill="url(#b)"/><rect x="2.25" y="65.75" width="63.5" height="103.5" rx="31.75" transform="rotate(-90 2.25 65.75)" stroke="url(#c)" stroke-width="3.5"/><rect x="2.25" y="65.75" width="63.5" height="103.5" rx="31.75" transform="rotate(-90 2.25 65.75)" stroke="url(#d)" stroke-width="3.5"/></g><g clip-path="url(#e)"><path d="M50.776 43.021h-4.444l2.78-17.703h4.444l-2.78 17.703ZM66.885 25.752C66.008 25.394 64.618 25 62.9 25c-4.389 0-7.48 2.41-7.498 5.856-.037 2.543 2.212 3.955 3.894 4.803 1.72.866 2.304 1.432 2.304 2.204-.017 1.186-1.389 1.733-2.668 1.733-1.775 0-2.726-.282-4.17-.942l-.586-.283-.621 3.974c1.042.49 2.962.923 4.956.942 4.663 0 7.7-2.373 7.735-6.046.018-2.015-1.17-3.559-3.73-4.82-1.555-.81-2.507-1.357-2.507-2.186.019-.753.805-1.525 2.56-1.525 1.445-.038 2.507.32 3.31.678l.403.188.604-3.823ZM72.788 36.75c.366-1.017 1.775-4.953 1.775-4.953-.019.037.365-1.036.584-1.695l.31 1.525s.842 4.238 1.025 5.123h-3.694Zm5.486-11.432h-3.438c-1.06 0-1.865.32-2.323 1.47l-6.6 16.233h4.662l.933-2.656h5.706c.128.622.53 2.656.53 2.656h4.115l-3.585-17.703ZM42.616 25.318 38.263 37.39l-.475-2.448c-.805-2.825-3.329-5.895-6.145-7.42l3.987 15.48h4.7l6.985-17.684h-4.7Z" fill="#EAE0FF"/><path d="M34.223 25.318h-7.15l-.073.358c5.578 1.47 9.272 5.01 10.79 9.267l-1.555-8.136c-.256-1.131-1.042-1.451-2.012-1.489Z" fill="#412548"/></g><defs><radialGradient id="b" cx="0" cy="0" r="1" gradientUnits="userSpaceOnUse" gradientTransform="matrix(58.82911 96.41426 -158.47637 96.69757 5.17 67.586)"><stop stop-color="#fff" stop-opacity=".26"/><stop offset="1" stop-color="#fff" stop-opacity="0"/></radialGradient><radialGradient id="c" cx="0" cy="0" r="1" gradientUnits="userSpaceOnUse" gradientTransform="rotate(58.9 -54.236 36.32) scale(114.459 186.157)"><stop stop-color="#fff"/><stop offset="1" stop-color="#fff" stop-opacity="0"/></radialGradient><radialGradient id="d" cx="0" cy="0" r="1" gradientUnits="userSpaceOnUse" gradientTransform="rotate(58.9 -54.675 35.542) scale(114.459 186.157)"><stop stop-color="#18195E"/><stop offset="1" stop-color="#151515" stop-opacity="0"/></radialGradient><clipPath id="e"><path fill="#fff" transform="translate(27 25)" d="M0 0h54.863v18.288H0z"/></clipPath><filter id="a" x="-41.5" y="-41.5" width="191" height="151" filterUnits="userSpaceOnUse" color-interpolation-filters="sRGB"><feFlood flood-opacity="0" result="BackgroundImageFix"/><feGaussianBlur in="BackgroundImageFix" stdDeviation="21"/><feComposite in2="SourceAlpha" operator="in" result="effect1_backgroundBlur_83_3201"/><feBlend in="SourceGraphic" in2="effect1_backgroundBlur_83_3201" result="shape"/></filter></defs></svg>
