<svg width="120" height="60" viewBox="0 0 120 60" fill="none" xmlns="http://www.w3.org/2000/svg">
<g id="wmtransfer-ar21 1">
<path id="Vector" d="M20.2431 14.917C22.5641 14.916 24.8555 15.4379 26.9471 16.444L27.9071 16.944L26.5071 18.184L24.4101 16.024L20.7961 19.194L18.6681 16.917L12.0221 22.824L16.2771 27.464L14.6171 28.904L18.8151 33.544L17.1551 34.984L23.1601 41.584L26.7141 38.357L29.8141 41.817C29.2011 42.277 28.5311 42.74 27.8141 43.143C25.5165 44.429 22.9271 45.1032 20.2941 45.101C11.8501 45.083 5.0001 38.313 5.0001 29.987C4.9701 21.717 11.8201 14.917 20.2431 14.917ZM17.4431 29.065L21.0871 25.838L24.3521 29.44L20.7081 32.667L17.4431 29.065ZM20.0381 35.289L23.6521 32.033L26.9461 35.633L23.3021 38.86L20.0381 35.289ZM14.8501 22.93L18.4921 19.703L21.7561 23.305L18.1121 26.532L14.8501 22.93ZM21.5231 21.2L24.2231 18.78L26.6731 21.46L23.9731 23.91L21.5231 21.2ZM26.3631 32.293L29.0631 29.873L31.5131 32.581L28.8121 35L26.3631 32.293ZM28.7631 37.739L31.4631 35.319L33.9101 37.999L31.2101 40.447L28.7631 37.739ZM29.8721 25.3L31.6791 23.686L33.3111 25.473L31.5041 27.086L29.8721 25.3ZM27.5401 19.97L29.3471 18.328L30.9801 20.143L29.1721 21.757L27.5401 19.97ZM32.1741 30.632L33.9811 29.018L35.6411 30.805L33.8051 32.418L32.1741 30.632ZM24.0421 26.627L26.7421 24.207L29.1901 26.887L26.4901 29.307L24.0421 26.627ZM42.8881 22.593H44.3521L46.6381 31.337H46.7531L48.4311 22.593H50.3551L47.7001 34.3H45.9241L43.6881 26.052H43.5721L41.4001 34.3H39.6251L36.9501 22.582H38.7921L40.6341 31.326H40.7491L42.8881 22.593ZM52.6921 29.323H56.4571C56.3751 27.588 55.5371 26.895 54.6571 26.895C53.6541 26.895 52.8801 27.672 52.7001 29.323M57.7801 32.431V33.687C57.0401 34.117 56.0541 34.447 54.8801 34.447C52.1181 34.447 50.9831 32.727 50.9831 30.117C50.9831 27.604 52.2491 25.787 54.7161 25.787C56.7711 25.787 58.0381 27.127 58.0381 29.82V30.432H52.6781C52.6781 32.415 53.4831 33.292 55.1781 33.292C56.0661 33.292 56.8781 32.977 57.7921 32.432M61.8651 33.132C62.3911 33.362 62.9671 33.398 63.3791 33.398C64.5961 33.398 65.5161 32.638 65.5161 29.96C65.5161 27.86 64.7601 27.183 63.6581 27.183C63.0001 27.183 62.5231 27.365 61.8651 27.728V33.132ZM61.8821 26.505C62.3741 26.241 63.2121 25.893 64.1021 25.893C66.1421 25.893 67.2441 27.313 67.2441 29.959C67.2441 33.059 65.7641 34.554 63.3801 34.554C62.2642 34.5232 61.1689 34.2466 60.1721 33.744V22.188L61.8721 21.775V26.475L61.8821 26.505ZM75.0061 34.305H73.9541L70.5981 26.008H70.4511V34.305H68.9711V22.585H70.9711L74.6541 31.825H74.7361L78.2561 22.585H80.2961V34.305H78.5001V25.8H78.3521L75.0061 34.305ZM87.5431 30.117C87.5431 27.887 86.6391 26.944 85.5211 26.944C84.4361 26.944 83.4981 27.886 83.4981 30.117C83.4981 32.382 84.3541 33.29 85.5211 33.29C86.6881 33.29 87.5431 32.382 87.5431 30.117ZM81.7711 30.117C81.7711 27.224 83.3511 25.787 85.5211 25.787C87.6911 25.787 89.2711 27.224 89.2711 30.117C89.2711 32.943 87.7751 34.447 85.5211 34.447C83.2671 34.447 81.7711 32.942 81.7711 30.117ZM90.5501 27C91.2901 26.553 92.8531 25.776 94.7441 25.776C96.7171 25.776 97.4561 26.553 97.4561 28.256V34.24H95.7561V28.637C95.7561 27.332 95.1161 27.1 94.2761 27.1C93.6191 27.1 92.7791 27.398 92.2701 27.695V34.24H90.5701L90.5501 27ZM101.076 29.312H104.842C104.762 27.577 103.922 26.884 103.042 26.884C102.039 26.884 101.267 27.661 101.085 29.312M106.165 32.42V33.676C105.425 34.106 104.439 34.436 103.265 34.436C100.505 34.436 99.3681 32.716 99.3681 30.106C99.3681 27.593 100.634 25.776 103.101 25.776C105.157 25.776 106.424 27.116 106.424 29.809V30.421H101.062C101.062 32.404 101.868 33.281 103.562 33.281C104.449 33.281 105.262 32.966 106.176 32.421M113.256 25.776H115L112.023 34.039C111.2 36.319 110.197 37.509 108.307 37.509V36.155C109.427 36.155 110.107 35.262 110.511 34.038L107.353 25.775H109.153L111.258 31.857H111.358L113.256 25.776Z" fill="#106DB3"/>
</g>
</svg>
