<svg width="108" height="68" fill="none" xmlns="http://www.w3.org/2000/svg"><g filter="url(#a)"><rect x="4" y="64" width="60" height="100" rx="30" transform="rotate(-90 4 64)" fill="url(#b)"/><rect x="2.25" y="65.75" width="63.5" height="103.5" rx="31.75" transform="rotate(-90 2.25 65.75)" stroke="url(#c)" stroke-width="3.5"/><rect x="2.25" y="65.75" width="63.5" height="103.5" rx="31.75" transform="rotate(-90 2.25 65.75)" stroke="url(#d)" stroke-width="3.5"/></g><path d="m86.443 30.39-1.73 4.08c0 .056-.06.113-.06.17l-.06.113-.06-.113c0-.057-.059-.114-.059-.17l-1.73-4.08h-2.266l2.982 7.026-1.253 2.663h2.267l4.176-9.689h-2.207ZM69.738 30.789c-.418-.284-.895-.454-1.491-.51-1.015-.113-1.97.226-2.566.906v-.793h-2.028v7.026h2.028v-3.683c0-.85.18-1.02.299-1.246.238-.397.715-.624 1.252-.567.537 0 1.074.227 1.313.623.179.284.179.623.179.85v4.023h2.028v-4.25c0-1.133-.358-1.87-1.014-2.38ZM59.778 30.446c-1.013-.34-2.087-.283-3.102.17-.715.283-1.252.793-1.67 1.417-.358.566-.537 1.19-.537 1.926 0 .737.18 1.36.537 1.926.358.567.836.964 1.432 1.304a4.752 4.752 0 0 0 1.968.453c.359 0 .716-.057 1.074-.113a2.9 2.9 0 0 0 .895-.34c.597-.34 1.074-.737 1.432-1.247.357-.566.537-1.19.537-1.926-.06-1.7-1.014-3.003-2.566-3.57Zm.537 3.513c0 .623-.238 1.133-.656 1.473-.298.283-.716.397-1.312.397-.537 0-.955-.17-1.313-.397-.417-.34-.596-.85-.656-1.473 0-.68.239-1.303.776-1.7.298-.226.656-.34 1.133-.34.478 0 .835.114 1.133.34.657.397.955 1.02.895 1.7ZM52.144 30.786c-.358-.284-.895-.454-1.491-.51h-.358c-.836 0-1.492.34-2.088 1.02l-.12.113h-.238c-.18-.227-.358-.453-.597-.567-.358-.34-.835-.51-1.431-.566-.955-.114-1.73.17-2.386.85v-.737h-2.029v7.026h2.029V33.675c0-.793.119-.963.238-1.19.239-.396.716-.623 1.193-.623.477 0 .955.227 1.193.624.18.283.18.623.18.963v3.91h2.087v-3.74c0-.68.12-.963.239-1.19.238-.397.716-.567 1.193-.567.477 0 .895.284 1.133.624.12.226.18.51.18.736V37.415h2.027v-4.25c0-.396-.06-.736-.119-1.076-.12-.567-.418-1.02-.835-1.303ZM78.449 35.262a3.26 3.26 0 0 1-1.969.85c-.775 0-1.431-.17-1.849-.623-.179-.227-.358-.453-.417-.737h5.667v-.056c.06-.284.06-.567.06-.793 0-.227-.06-.567-.18-1.02-.238-.794-.715-1.417-1.372-1.927-.715-.51-1.431-.68-1.61-.68-1.492-.226-3.162.397-3.997 1.7-.597.907-.597 1.813-.537 2.096 0 .34.06 1.417.954 2.324 1.015 1.076 2.506 1.133 2.983 1.19 2.029.056 3.4-1.134 3.699-1.417l-1.432-.907Zm-3.52-2.946c.299-.227.657-.34 1.134-.34.477 0 .835.113 1.133.34.299.227.537.51.656.907h-3.638c.179-.397.417-.68.716-.907ZM27.325 25.8c-4.593 0-8.232 3.512-8.232 7.818 0 4.307 3.698 7.82 8.232 7.82 4.534 0 8.232-3.513 8.232-7.82.06-4.306-3.698-7.819-8.232-7.819Zm0 10.708c-1.67 0-3.102-1.303-3.102-2.89 0-1.586 1.372-2.89 3.102-2.89 1.73 0 3.102 1.304 3.102 2.89-.06 1.587-1.372 2.89-3.102 2.89ZM19.093 28.121V39.51H16.17L12.412 28.12h6.68Z" fill="#EAE0FF"/><defs><radialGradient id="b" cx="0" cy="0" r="1" gradientUnits="userSpaceOnUse" gradientTransform="matrix(58.82911 96.41426 -158.47637 96.69757 5.17 67.586)"><stop stop-color="#fff" stop-opacity=".26"/><stop offset="1" stop-color="#fff" stop-opacity="0"/></radialGradient><radialGradient id="c" cx="0" cy="0" r="1" gradientUnits="userSpaceOnUse" gradientTransform="rotate(58.9 -54.236 36.32) scale(114.459 186.157)"><stop stop-color="#fff"/><stop offset="1" stop-color="#fff" stop-opacity="0"/></radialGradient><radialGradient id="d" cx="0" cy="0" r="1" gradientUnits="userSpaceOnUse" gradientTransform="rotate(58.9 -54.675 35.542) scale(114.459 186.157)"><stop stop-color="#18195E"/><stop offset="1" stop-color="#151515" stop-opacity="0"/></radialGradient><filter id="a" x="-41.5" y="-41.5" width="191" height="151" filterUnits="userSpaceOnUse" color-interpolation-filters="sRGB"><feFlood flood-opacity="0" result="BackgroundImageFix"/><feGaussianBlur in="BackgroundImageFix" stdDeviation="21"/><feComposite in2="SourceAlpha" operator="in" result="effect1_backgroundBlur_83_3191"/><feBlend in="SourceGraphic" in2="effect1_backgroundBlur_83_3191" result="shape"/></filter></defs></svg>
