<svg width="20" height="21" viewBox="0 0 20 21" fill="none" xmlns="http://www.w3.org/2000/svg">
<g id="Component 11">
<path id="Vector" d="M7.9 3.39052C6.48867 2.7167 4.51602 2.38662 1.875 2.3749C1.62593 2.37151 1.38174 2.44414 1.175 2.5831C1.00531 2.6978 0.866403 2.85244 0.770498 3.03342C0.674593 3.2144 0.62463 3.41617 0.625002 3.62099V14.7968C0.625002 15.5522 1.1625 16.1222 1.875 16.1222C4.65117 16.1222 7.43594 16.3815 9.10391 17.9581C9.12673 17.9798 9.15541 17.9943 9.18639 17.9998C9.21737 18.0053 9.24928 18.0015 9.27816 17.989C9.30704 17.9766 9.33162 17.9559 9.34883 17.9295C9.36605 17.9032 9.37515 17.8724 9.375 17.8409V4.67255C9.37507 4.58371 9.35606 4.49588 9.31927 4.41502C9.28247 4.33415 9.22875 4.26212 9.16172 4.2038C8.77965 3.87718 8.35525 3.60361 7.9 3.39052ZM18.825 2.58193C18.6182 2.44332 18.374 2.37109 18.125 2.3749C15.484 2.38662 13.5113 2.71513 12.1 3.39052C11.6448 3.60323 11.2203 3.87625 10.8379 4.20224C10.771 4.26066 10.7174 4.33272 10.6807 4.41357C10.644 4.49442 10.625 4.58219 10.625 4.67099V17.8401C10.625 17.8704 10.6339 17.8999 10.6506 17.9251C10.6673 17.9503 10.6911 17.97 10.719 17.9817C10.7469 17.9935 10.7776 17.9967 10.8073 17.991C10.837 17.9854 10.8643 17.9711 10.8859 17.9499C11.8887 16.9538 13.6484 16.121 18.1266 16.1214C18.4581 16.1214 18.776 15.9897 19.0104 15.7553C19.2449 15.5208 19.3766 15.2029 19.3766 14.8714V3.62138C19.377 3.41616 19.3269 3.21398 19.2307 3.03269C19.1346 2.85141 18.9952 2.6966 18.825 2.58193Z" fill="#EAE0FF"/>
</g>
</svg>
