<svg width="20" height="21" viewBox="0 0 20 21" fill="none" xmlns="http://www.w3.org/2000/svg">
<g id="notification">
<g id="vuesax/bold/notification">
<g id="notification_2">
<path id="Vector" d="M16.1182 12.5751L15.2849 11.1917C15.1099 10.8834 14.9516 10.3001 14.9516 9.95842V7.85008C14.9516 5.89175 13.8016 4.20008 12.1432 3.40841C11.7099 2.64175 10.9099 2.16675 9.99325 2.16675C9.08491 2.16675 8.26825 2.65841 7.83491 3.43341C6.20991 4.24175 5.08491 5.91675 5.08491 7.85008V9.95842C5.08491 10.3001 4.92658 10.8834 4.75158 11.1834L3.90991 12.5751C3.57658 13.1334 3.50158 13.7501 3.70991 14.3167C3.90991 14.8751 4.38491 15.3084 5.00158 15.5167C6.61825 16.0667 8.31825 16.3334 10.0182 16.3334C11.7182 16.3334 13.4182 16.0667 15.0349 15.5251C15.6182 15.3334 16.0682 14.8917 16.2849 14.3167C16.5016 13.7417 16.4432 13.1084 16.1182 12.5751Z" fill="#EAE0FF"/>
<path id="Vector_2" d="M12.3568 17.1751C12.0068 18.1417 11.0818 18.8334 9.99844 18.8334C9.3401 18.8334 8.6901 18.5667 8.23177 18.0917C7.9651 17.8417 7.7651 17.5084 7.64844 17.1667C7.75677 17.1834 7.8651 17.1917 7.98177 17.2084C8.17344 17.2334 8.37344 17.2584 8.57344 17.2751C9.04844 17.3167 9.53177 17.3417 10.0151 17.3417C10.4901 17.3417 10.9651 17.3167 11.4318 17.2751C11.6068 17.2584 11.7818 17.2501 11.9484 17.2251C12.0818 17.2084 12.2151 17.1917 12.3568 17.1751Z" fill="#EAE0FF"/>
</g>
</g>
</g>
</svg>
