<svg width="23" height="23" viewBox="0 0 23 23" fill="none" xmlns="http://www.w3.org/2000/svg">
<g id="Group">
<path id="Vector" d="M1 4.28101V10.8428C1 10.8428 1 14.1238 9.53558 14.1238C18.0712 14.1238 18.0712 10.8428 18.0712 10.8428V4.28101" stroke="#EAE0FF" stroke-width="2" stroke-linecap="round" stroke-linejoin="round"/>
<path id="Vector_2" d="M9.53558 20.6855C1 20.6855 1 17.4046 1 17.4046V10.8428M9.53558 1C18.0712 1 18.0712 4.28092 18.0712 4.28092C18.0712 4.28092 18.0712 7.56184 9.53558 7.56184C1 7.56184 1 4.28092 1 4.28092C1 4.28092 1 1 9.53558 1Z" stroke="#EAE0FF" stroke-width="2" stroke-linecap="round" stroke-linejoin="round"/>
<path id="Vector_3" d="M13.6853 18.7188L17.3437 18.7196M17.3437 18.7196L21.0022 18.7188M17.3437 18.7196L17.3438 15.436M17.3438 18.718L17.3437 21.9984" stroke="#EAE0FF" stroke-width="2.5" stroke-linecap="round" stroke-linejoin="round"/>
</g>
</svg>
