<svg width="24" height="24" viewBox="0 0 24 24" fill="none" xmlns="http://www.w3.org/2000/svg">
<path d="M2 5.31567V11.9473C2 11.9473 2 15.263 9.77778 15.263C17.5556 15.263 17.5556 11.9473 17.5556 11.9473V5.31567" stroke="#EAE0FF" stroke-width="2" stroke-linecap="round" stroke-linejoin="round"/>
<path d="M9.77778 21.8947C2 21.8947 2 18.5789 2 18.5789V11.9474M9.77778 2C17.5556 2 17.5556 5.31579 17.5556 5.31579C17.5556 5.31579 17.5556 8.63158 9.77778 8.63158C2 8.63158 2 5.31579 2 5.31579C2 5.31579 2 2 9.77778 2Z" stroke="#EAE0FF" stroke-width="2" stroke-linecap="round" stroke-linejoin="round"/>
<path d="M16.4917 17.455C15.8143 17.1532 14.8675 17.0053 13.6 17.0001C13.4804 16.9985 13.3632 17.0311 13.264 17.0933C13.1825 17.1447 13.1159 17.214 13.0698 17.295C13.0238 17.3761 12.9998 17.4665 13 17.5582V22.5642C13 22.9026 13.258 23.1579 13.6 23.1579C14.9324 23.1579 16.269 23.274 17.0695 23.9802C17.0805 23.9899 17.0943 23.9964 17.1091 23.9989C17.124 24.0014 17.1393 23.9997 17.1532 23.9941C17.167 23.9885 17.1788 23.9792 17.1871 23.9674C17.1954 23.9556 17.1997 23.9418 17.1996 23.9277V18.0293C17.1997 17.9895 17.1906 17.9501 17.1729 17.9139C17.1552 17.8777 17.1295 17.8454 17.0973 17.8193C16.9139 17.673 16.7102 17.5504 16.4917 17.455ZM21.7353 17.0928C21.636 17.0307 21.5188 16.9984 21.3993 17.0001C20.1317 17.0053 19.1849 17.1525 18.5075 17.455C18.2891 17.5503 18.0853 17.6726 17.9018 17.8186C17.8697 17.8448 17.844 17.877 17.8263 17.9132C17.8087 17.9495 17.7996 17.9888 17.7996 18.0286V23.9274C17.7996 23.9409 17.8039 23.9542 17.8119 23.9655C17.8199 23.9767 17.8313 23.9856 17.8447 23.9908C17.8581 23.9961 17.8728 23.9975 17.8871 23.995C17.9013 23.9924 17.9145 23.986 17.9248 23.9766C18.4061 23.5304 19.2507 23.1573 21.4 23.1575C21.5592 23.1575 21.7118 23.0985 21.8243 22.9935C21.9368 22.8885 22 22.7461 22 22.5976V17.5584C22.0002 17.4665 21.9762 17.3759 21.93 17.2947C21.8838 17.2135 21.817 17.1442 21.7353 17.0928Z" fill="#EAE0FF"/>
</svg>
