<svg width="22" height="23" viewBox="0 0 22 23" fill="none" xmlns="http://www.w3.org/2000/svg">
<g id="Group">
<path id="Vector" d="M17.6667 15.3683V21.9999M17.6667 21.9999L21 18.6841M17.6667 21.9999L14.3333 18.6841M1 4.31567V10.9473C1 10.9473 1 14.263 8.77778 14.263C16.5556 14.263 16.5556 10.9473 16.5556 10.9473V4.31567" stroke="#EAE0FF" stroke-width="2" stroke-linecap="round" stroke-linejoin="round"/>
<path id="Vector_2" d="M8.77778 20.8947C1 20.8947 1 17.5789 1 17.5789V10.9474M8.77778 1C16.5556 1 16.5556 4.31579 16.5556 4.31579C16.5556 4.31579 16.5556 7.63158 8.77778 7.63158C1 7.63158 1 4.31579 1 4.31579C1 4.31579 1 1 8.77778 1Z" stroke="#EAE0FF" stroke-width="2" stroke-linecap="round" stroke-linejoin="round"/>
</g>
</svg>
